<svg width="363" height="289" viewBox="0 0 363 289" fill="none" xmlns="http://www.w3.org/2000/svg">
<g filter="url(#filter0_d_3_75)">
<rect x="4" width="355" height="281" rx="18" fill="url(#paint0_linear_3_75)" shape-rendering="crispEdges"/>
</g>
<g filter="url(#filter1_d_3_75)">
<ellipse cx="182" cy="74.0046" rx="40" ry="35.33" fill="url(#paint1_linear_3_75)" shape-rendering="crispEdges"/>
<path d="M182 112.835C205.603 112.835 225.5 95.8455 225.5 74.0046C225.5 52.1636 205.603 35.1746 182 35.1746C158.397 35.1746 138.5 52.1636 138.5 74.0046C138.5 95.8455 158.397 112.835 182 112.835Z" stroke="black" stroke-width="7" shape-rendering="crispEdges"/>
</g>
<path d="M88.3172 152.793H82.6489V136.065H88.4316C90.0923 136.065 91.5189 136.4 92.7114 137.07C93.9093 137.734 94.8295 138.69 95.472 139.937C96.1146 141.184 96.4358 142.676 96.4358 144.413C96.4358 146.155 96.1118 147.653 95.4639 148.905C94.8213 150.157 93.893 151.118 92.6787 151.788C91.4699 152.458 90.0161 152.793 88.3172 152.793ZM85.6791 150.171H88.1702C89.3354 150.171 90.3074 149.959 91.086 149.534C91.8647 149.104 92.45 148.464 92.8421 147.614C93.2341 146.76 93.4301 145.692 93.4301 144.413C93.4301 143.133 93.2341 142.071 92.8421 141.227C92.45 140.378 91.8701 139.744 91.1024 139.324C90.3401 138.9 89.3926 138.687 88.26 138.687H85.6791V150.171ZM104.738 153.038C103.48 153.038 102.394 152.776 101.479 152.254C100.57 151.725 99.8703 150.98 99.3802 150.016C98.8902 149.047 98.6452 147.906 98.6452 146.594C98.6452 145.303 98.8902 144.17 99.3802 143.196C99.8757 142.216 100.567 141.453 101.455 140.909C102.342 140.359 103.385 140.084 104.583 140.084C105.356 140.084 106.086 140.209 106.772 140.46C107.463 140.705 108.073 141.086 108.601 141.603C109.135 142.12 109.554 142.779 109.859 143.58C110.164 144.375 110.317 145.322 110.317 146.422V147.329H100.034V145.336H107.483C107.477 144.769 107.355 144.266 107.115 143.825C106.875 143.378 106.541 143.027 106.11 142.771C105.686 142.515 105.19 142.387 104.624 142.387C104.019 142.387 103.489 142.534 103.031 142.828C102.574 143.117 102.217 143.498 101.961 143.972C101.711 144.44 101.583 144.955 101.577 145.515V147.255C101.577 147.985 101.711 148.611 101.978 149.134C102.244 149.651 102.617 150.048 103.097 150.326C103.576 150.598 104.137 150.734 104.779 150.734C105.209 150.734 105.599 150.675 105.947 150.555C106.295 150.43 106.598 150.247 106.854 150.008C107.11 149.768 107.303 149.471 107.434 149.117L110.194 149.428C110.02 150.157 109.688 150.794 109.198 151.339C108.713 151.878 108.092 152.297 107.335 152.597C106.579 152.891 105.713 153.038 104.738 153.038ZM119.172 140.247V142.534H111.756V140.247H119.172ZM113.61 152.793V139.063C113.61 138.219 113.785 137.517 114.133 136.956C114.487 136.395 114.961 135.976 115.554 135.698C116.148 135.42 116.807 135.281 117.531 135.281C118.043 135.281 118.497 135.322 118.895 135.404C119.292 135.486 119.586 135.559 119.777 135.624L119.189 137.911C119.064 137.873 118.906 137.835 118.715 137.797C118.524 137.753 118.312 137.732 118.078 137.732C117.528 137.732 117.139 137.865 116.91 138.132C116.687 138.393 116.575 138.769 116.575 139.259V152.793H113.61ZM121.488 152.793V140.247H124.445V152.793H121.488ZM122.974 138.467C122.506 138.467 122.103 138.312 121.766 138.001C121.428 137.685 121.259 137.307 121.259 136.866C121.259 136.419 121.428 136.041 121.766 135.731C122.103 135.415 122.506 135.257 122.974 135.257C123.448 135.257 123.851 135.415 124.183 135.731C124.521 136.041 124.69 136.419 124.69 136.866C124.69 137.307 124.521 137.685 124.183 138.001C123.851 138.312 123.448 138.467 122.974 138.467ZM130.442 145.442V152.793H127.485V140.247H130.311V142.379H130.458C130.747 141.677 131.207 141.118 131.838 140.705C132.475 140.291 133.262 140.084 134.199 140.084C135.065 140.084 135.819 140.269 136.461 140.639C137.109 141.01 137.61 141.546 137.964 142.248C138.323 142.951 138.5 143.803 138.495 144.805V152.793H135.538V145.262C135.538 144.424 135.32 143.768 134.885 143.294C134.455 142.82 133.858 142.583 133.096 142.583C132.579 142.583 132.119 142.698 131.716 142.926C131.318 143.149 131.005 143.473 130.777 143.898C130.553 144.323 130.442 144.837 130.442 145.442ZM147.055 153.038C145.797 153.038 144.71 152.776 143.796 152.254C142.886 151.725 142.187 150.98 141.697 150.016C141.207 149.047 140.962 147.906 140.962 146.594C140.962 145.303 141.207 144.17 141.697 143.196C142.192 142.216 142.884 141.453 143.771 140.909C144.659 140.359 145.701 140.084 146.899 140.084C147.673 140.084 148.402 140.209 149.088 140.46C149.78 140.705 150.39 141.086 150.918 141.603C151.451 142.12 151.871 142.779 152.176 143.58C152.481 144.375 152.633 145.322 152.633 146.422V147.329H142.35V145.336H149.799C149.793 144.769 149.671 144.266 149.431 143.825C149.192 143.378 148.857 143.027 148.427 142.771C148.002 142.515 147.507 142.387 146.94 142.387C146.336 142.387 145.805 142.534 145.348 142.828C144.89 143.117 144.534 143.498 144.278 143.972C144.027 144.44 143.899 144.955 143.894 145.515V147.255C143.894 147.985 144.027 148.611 144.294 149.134C144.561 149.651 144.934 150.048 145.413 150.326C145.892 150.598 146.453 150.734 147.095 150.734C147.526 150.734 147.915 150.675 148.263 150.555C148.612 150.43 148.914 150.247 149.17 150.008C149.426 149.768 149.619 149.471 149.75 149.117L152.511 149.428C152.336 150.157 152.004 150.794 151.514 151.339C151.03 151.878 150.409 152.297 149.652 152.597C148.895 152.891 148.029 153.038 147.055 153.038ZM167.104 140.247V142.534H159.892V140.247H167.104ZM161.673 137.242H164.629V149.019C164.629 149.417 164.689 149.722 164.809 149.934C164.934 150.141 165.098 150.283 165.299 150.359C165.5 150.435 165.724 150.473 165.969 150.473C166.154 150.473 166.323 150.46 166.475 150.432C166.633 150.405 166.753 150.381 166.835 150.359L167.333 152.67C167.175 152.725 166.949 152.785 166.655 152.85C166.366 152.915 166.012 152.953 165.593 152.964C164.853 152.986 164.185 152.874 163.592 152.629C162.998 152.379 162.527 151.992 162.179 151.47C161.836 150.947 161.667 150.293 161.673 149.509V137.242ZM177.573 147.516V140.247H180.53V152.793H177.663V150.563H177.532C177.249 151.265 176.783 151.84 176.135 152.286C175.493 152.733 174.701 152.956 173.759 152.956C172.936 152.956 172.209 152.774 171.578 152.409C170.952 152.039 170.462 151.502 170.108 150.8C169.754 150.092 169.577 149.237 169.577 148.235V140.247H172.533V147.778C172.533 148.573 172.751 149.204 173.187 149.673C173.622 150.141 174.194 150.375 174.902 150.375C175.338 150.375 175.76 150.269 176.168 150.057C176.576 149.844 176.911 149.528 177.173 149.109C177.439 148.684 177.573 148.154 177.573 147.516ZM195.629 140.247V142.534H188.213V140.247H195.629ZM190.067 152.793V139.063C190.067 138.219 190.242 137.517 190.59 136.956C190.944 136.395 191.418 135.976 192.011 135.698C192.605 135.42 193.264 135.281 193.988 135.281C194.5 135.281 194.954 135.322 195.352 135.404C195.749 135.486 196.043 135.559 196.234 135.624L195.646 137.911C195.521 137.873 195.363 137.835 195.172 137.797C194.981 137.753 194.769 137.732 194.535 137.732C193.985 137.732 193.596 137.865 193.367 138.132C193.144 138.393 193.032 138.769 193.032 139.259V152.793H190.067ZM203.027 153.038C201.769 153.038 200.683 152.776 199.768 152.254C198.859 151.725 198.159 150.98 197.669 150.016C197.179 149.047 196.934 147.906 196.934 146.594C196.934 145.303 197.179 144.17 197.669 143.196C198.165 142.216 198.856 141.453 199.744 140.909C200.631 140.359 201.674 140.084 202.872 140.084C203.645 140.084 204.375 140.209 205.061 140.46C205.753 140.705 206.362 141.086 206.891 141.603C207.424 142.12 207.843 142.779 208.148 143.58C208.453 144.375 208.606 145.322 208.606 146.422V147.329H198.323V145.336H205.772C205.766 144.769 205.644 144.266 205.404 143.825C205.164 143.378 204.83 143.027 204.399 142.771C203.975 142.515 203.479 142.387 202.913 142.387C202.309 142.387 201.778 142.534 201.32 142.828C200.863 143.117 200.506 143.498 200.25 143.972C200 144.44 199.872 144.955 199.866 145.515V147.255C199.866 147.985 200 148.611 200.267 149.134C200.533 149.651 200.906 150.048 201.386 150.326C201.865 150.598 202.426 150.734 203.068 150.734C203.498 150.734 203.888 150.675 204.236 150.555C204.585 150.43 204.887 150.247 205.143 150.008C205.399 149.768 205.592 149.471 205.723 149.117L208.483 149.428C208.309 150.157 207.977 150.794 207.487 151.339C207.002 151.878 206.381 152.297 205.625 152.597C204.868 152.891 204.002 153.038 203.027 153.038ZM216.579 153.038C215.327 153.038 214.252 152.763 213.353 152.213C212.46 151.663 211.771 150.903 211.287 149.934C210.808 148.959 210.568 147.838 210.568 146.569C210.568 145.295 210.813 144.17 211.303 143.196C211.793 142.216 212.485 141.453 213.378 140.909C214.276 140.359 215.338 140.084 216.563 140.084C217.581 140.084 218.482 140.272 219.267 140.647C220.056 141.018 220.685 141.543 221.153 142.224C221.622 142.899 221.888 143.689 221.954 144.592H219.128C219.013 143.988 218.741 143.484 218.311 143.081C217.886 142.673 217.317 142.469 216.604 142.469C215.999 142.469 215.469 142.632 215.011 142.959C214.554 143.28 214.197 143.743 213.941 144.347C213.691 144.952 213.566 145.676 213.566 146.52C213.566 147.375 213.691 148.11 213.941 148.725C214.192 149.335 214.543 149.806 214.995 150.138C215.452 150.465 215.989 150.628 216.604 150.628C217.039 150.628 217.429 150.547 217.772 150.383C218.12 150.214 218.412 149.972 218.646 149.656C218.88 149.341 219.041 148.957 219.128 148.505H221.954C221.883 149.392 221.622 150.179 221.17 150.865C220.718 151.546 220.102 152.079 219.324 152.466C218.545 152.847 217.63 153.038 216.579 153.038ZM227.338 145.442V152.793H224.381V136.065H227.273V142.379H227.42C227.714 141.671 228.169 141.113 228.784 140.705C229.405 140.291 230.194 140.084 231.152 140.084C232.024 140.084 232.783 140.266 233.431 140.631C234.079 140.996 234.58 141.53 234.934 142.232C235.293 142.934 235.473 143.792 235.473 144.805V152.793H232.516V145.262C232.516 144.418 232.299 143.762 231.863 143.294C231.433 142.82 230.828 142.583 230.05 142.583C229.527 142.583 229.059 142.698 228.645 142.926C228.237 143.149 227.915 143.473 227.681 143.898C227.453 144.323 227.338 144.837 227.338 145.442ZM242.097 153.046C241.302 153.046 240.586 152.904 239.949 152.621C239.317 152.333 238.816 151.908 238.446 151.347C238.081 150.786 237.899 150.095 237.899 149.272C237.899 148.565 238.03 147.979 238.291 147.516C238.552 147.054 238.909 146.683 239.361 146.406C239.813 146.128 240.322 145.918 240.888 145.777C241.46 145.63 242.051 145.524 242.661 145.458C243.396 145.382 243.992 145.314 244.449 145.254C244.907 145.189 245.239 145.091 245.446 144.96C245.658 144.824 245.764 144.614 245.764 144.331V144.282C245.764 143.667 245.582 143.19 245.217 142.853C244.852 142.515 244.327 142.346 243.641 142.346C242.917 142.346 242.342 142.504 241.917 142.82C241.498 143.136 241.215 143.509 241.068 143.939L238.307 143.547C238.525 142.785 238.884 142.148 239.385 141.636C239.886 141.118 240.499 140.732 241.223 140.476C241.947 140.215 242.748 140.084 243.624 140.084C244.229 140.084 244.83 140.155 245.429 140.296C246.028 140.438 246.576 140.672 247.071 140.999C247.567 141.32 247.964 141.758 248.264 142.314C248.569 142.869 248.721 143.563 248.721 144.396V152.793H245.879V151.069H245.781C245.601 151.418 245.348 151.745 245.021 152.049C244.7 152.349 244.294 152.591 243.804 152.776C243.319 152.956 242.75 153.046 242.097 153.046ZM242.865 150.873C243.458 150.873 243.973 150.756 244.408 150.522C244.844 150.283 245.179 149.967 245.413 149.575C245.653 149.183 245.772 148.755 245.772 148.292V146.814C245.68 146.89 245.522 146.961 245.299 147.026C245.081 147.092 244.836 147.149 244.564 147.198C244.291 147.247 244.022 147.29 243.755 147.329C243.488 147.367 243.257 147.399 243.061 147.427C242.62 147.486 242.225 147.585 241.877 147.721C241.528 147.857 241.253 148.047 241.052 148.292C240.85 148.532 240.749 148.842 240.749 149.223C240.749 149.768 240.948 150.179 241.346 150.457C241.743 150.734 242.249 150.873 242.865 150.873ZM262.055 153.013C261.069 153.013 260.187 152.76 259.408 152.254C258.63 151.747 258.014 151.012 257.562 150.048C257.11 149.085 256.884 147.914 256.884 146.536C256.884 145.142 257.113 143.966 257.571 143.008C258.033 142.044 258.657 141.317 259.441 140.827C260.225 140.332 261.099 140.084 262.063 140.084C262.798 140.084 263.402 140.209 263.876 140.46C264.35 140.705 264.725 141.001 265.003 141.35C265.281 141.693 265.496 142.017 265.648 142.322H265.771V136.065H268.736V152.793H265.828V150.816H265.648C265.496 151.121 265.275 151.445 264.987 151.788C264.698 152.126 264.317 152.414 263.843 152.654C263.37 152.893 262.773 153.013 262.055 153.013ZM262.88 150.587C263.506 150.587 264.039 150.419 264.48 150.081C264.921 149.738 265.256 149.262 265.485 148.652C265.714 148.042 265.828 147.331 265.828 146.52C265.828 145.709 265.714 145.004 265.485 144.405C265.262 143.806 264.93 143.34 264.489 143.008C264.053 142.676 263.517 142.51 262.88 142.51C262.221 142.51 261.671 142.681 261.23 143.024C260.789 143.367 260.456 143.841 260.233 144.445C260.01 145.05 259.898 145.741 259.898 146.52C259.898 147.304 260.01 148.004 260.233 148.619C260.462 149.229 260.797 149.711 261.238 150.065C261.684 150.413 262.232 150.587 262.88 150.587ZM277.44 153.038C276.183 153.038 275.096 152.776 274.181 152.254C273.272 151.725 272.572 150.98 272.082 150.016C271.592 149.047 271.347 147.906 271.347 146.594C271.347 145.303 271.592 144.17 272.082 143.196C272.578 142.216 273.269 141.453 274.157 140.909C275.045 140.359 276.087 140.084 277.285 140.084C278.058 140.084 278.788 140.209 279.474 140.46C280.166 140.705 280.775 141.086 281.304 141.603C281.837 142.12 282.257 142.779 282.561 143.58C282.866 144.375 283.019 145.322 283.019 146.422V147.329H272.736V145.336H280.185C280.179 144.769 280.057 144.266 279.817 143.825C279.578 143.378 279.243 143.027 278.812 142.771C278.388 142.515 277.892 142.387 277.326 142.387C276.722 142.387 276.191 142.534 275.733 142.828C275.276 143.117 274.919 143.498 274.663 143.972C274.413 144.44 274.285 144.955 274.279 145.515V147.255C274.279 147.985 274.413 148.611 274.68 149.134C274.946 149.651 275.319 150.048 275.799 150.326C276.278 150.598 276.839 150.734 277.481 150.734C277.911 150.734 278.301 150.675 278.649 150.555C278.998 150.43 279.3 150.247 279.556 150.008C279.812 149.768 280.005 149.471 280.136 149.117L282.896 149.428C282.722 150.157 282.39 150.794 281.9 151.339C281.415 151.878 280.795 152.297 280.038 152.597C279.281 152.891 278.415 153.038 277.44 153.038ZM129.647 181.038C128.39 181.038 127.303 180.776 126.388 180.254C125.479 179.725 124.779 178.98 124.289 178.016C123.799 177.047 123.554 175.906 123.554 174.594C123.554 173.303 123.799 172.17 124.289 171.196C124.785 170.216 125.476 169.453 126.364 168.909C127.252 168.359 128.294 168.084 129.492 168.084C130.265 168.084 130.995 168.209 131.681 168.46C132.373 168.705 132.982 169.086 133.511 169.603C134.044 170.12 134.464 170.779 134.768 171.58C135.073 172.375 135.226 173.322 135.226 174.422V175.329H124.943V173.336H132.392C132.386 172.769 132.264 172.266 132.024 171.825C131.785 171.378 131.45 171.027 131.02 170.771C130.595 170.515 130.099 170.387 129.533 170.387C128.929 170.387 128.398 170.534 127.94 170.828C127.483 171.117 127.126 171.498 126.87 171.972C126.62 172.44 126.492 172.955 126.487 173.515V175.255C126.487 175.985 126.62 176.611 126.887 177.134C127.154 177.651 127.527 178.048 128.006 178.326C128.485 178.598 129.046 178.734 129.688 178.734C130.118 178.734 130.508 178.675 130.856 178.555C131.205 178.43 131.507 178.247 131.763 178.008C132.019 177.768 132.212 177.471 132.343 177.117L135.103 177.428C134.929 178.157 134.597 178.794 134.107 179.339C133.622 179.878 133.002 180.297 132.245 180.597C131.488 180.891 130.622 181.038 129.647 181.038ZM148.574 168.247L144.106 180.793H140.839L136.371 168.247H139.524L142.407 177.567H142.538L145.429 168.247H148.574ZM153.87 181.046C153.075 181.046 152.359 180.904 151.722 180.621C151.091 180.333 150.59 179.908 150.22 179.347C149.855 178.786 149.672 178.095 149.672 177.272C149.672 176.565 149.803 175.979 150.064 175.516C150.326 175.054 150.682 174.683 151.134 174.406C151.586 174.128 152.095 173.918 152.662 173.777C153.233 173.63 153.824 173.524 154.434 173.458C155.169 173.382 155.765 173.314 156.223 173.254C156.68 173.189 157.012 173.091 157.219 172.96C157.432 172.824 157.538 172.614 157.538 172.331V172.282C157.538 171.667 157.355 171.19 156.991 170.853C156.626 170.515 156.1 170.346 155.414 170.346C154.69 170.346 154.116 170.504 153.691 170.82C153.272 171.136 152.988 171.509 152.841 171.939L150.081 171.547C150.299 170.785 150.658 170.148 151.159 169.636C151.66 169.118 152.272 168.732 152.997 168.476C153.721 168.215 154.521 168.084 155.398 168.084C156.002 168.084 156.604 168.155 157.203 168.296C157.802 168.438 158.349 168.672 158.845 168.999C159.34 169.32 159.738 169.758 160.037 170.314C160.342 170.869 160.494 171.563 160.494 172.396V180.793H157.652V179.069H157.554C157.374 179.418 157.121 179.745 156.794 180.049C156.473 180.349 156.068 180.591 155.578 180.776C155.093 180.956 154.524 181.046 153.87 181.046ZM154.638 178.873C155.232 178.873 155.746 178.756 156.182 178.522C156.618 178.283 156.952 177.967 157.187 177.575C157.426 177.183 157.546 176.755 157.546 176.292V174.814C157.453 174.89 157.295 174.961 157.072 175.026C156.854 175.092 156.609 175.149 156.337 175.198C156.065 175.247 155.795 175.29 155.528 175.329C155.262 175.367 155.03 175.399 154.834 175.427C154.393 175.486 153.998 175.585 153.65 175.721C153.301 175.857 153.026 176.047 152.825 176.292C152.624 176.532 152.523 176.842 152.523 177.223C152.523 177.768 152.722 178.179 153.119 178.457C153.517 178.734 154.023 178.873 154.638 178.873ZM166.424 164.065V180.793H163.467V164.065H166.424ZM177.461 175.516V168.247H180.417V180.793H177.55V178.563H177.42C177.137 179.265 176.671 179.84 176.023 180.286C175.381 180.733 174.588 180.956 173.646 180.956C172.824 180.956 172.097 180.774 171.466 180.409C170.839 180.039 170.349 179.502 169.995 178.8C169.641 178.092 169.464 177.237 169.464 176.235V168.247H172.421V175.778C172.421 176.573 172.639 177.204 173.075 177.673C173.51 178.141 174.082 178.375 174.79 178.375C175.225 178.375 175.647 178.269 176.056 178.057C176.464 177.844 176.799 177.528 177.06 177.109C177.327 176.684 177.461 176.154 177.461 175.516ZM187.068 181.046C186.273 181.046 185.557 180.904 184.92 180.621C184.288 180.333 183.787 179.908 183.417 179.347C183.052 178.786 182.87 178.095 182.87 177.272C182.87 176.565 183 175.979 183.262 175.516C183.523 175.054 183.88 174.683 184.332 174.406C184.784 174.128 185.293 173.918 185.859 173.777C186.431 173.63 187.021 173.524 187.631 173.458C188.366 173.382 188.963 173.314 189.42 173.254C189.877 173.189 190.21 173.091 190.416 172.96C190.629 172.824 190.735 172.614 190.735 172.331V172.282C190.735 171.667 190.553 171.19 190.188 170.853C189.823 170.515 189.297 170.346 188.611 170.346C187.887 170.346 187.313 170.504 186.888 170.82C186.469 171.136 186.186 171.509 186.039 171.939L183.278 171.547C183.496 170.785 183.855 170.148 184.356 169.636C184.857 169.118 185.47 168.732 186.194 168.476C186.918 168.215 187.718 168.084 188.595 168.084C189.199 168.084 189.801 168.155 190.4 168.296C190.999 168.438 191.546 168.672 192.042 168.999C192.537 169.32 192.935 169.758 193.234 170.314C193.539 170.869 193.692 171.563 193.692 172.396V180.793H190.849V179.069H190.751C190.572 179.418 190.318 179.745 189.992 180.049C189.67 180.349 189.265 180.591 188.775 180.776C188.29 180.956 187.721 181.046 187.068 181.046ZM187.835 178.873C188.429 178.873 188.944 178.756 189.379 178.522C189.815 178.283 190.15 177.967 190.384 177.575C190.623 177.183 190.743 176.755 190.743 176.292V174.814C190.651 174.89 190.493 174.961 190.269 175.026C190.052 175.092 189.807 175.149 189.534 175.198C189.262 175.247 188.993 175.29 188.726 175.329C188.459 175.367 188.228 175.399 188.032 175.427C187.59 175.486 187.196 175.585 186.847 175.721C186.499 175.857 186.224 176.047 186.022 176.292C185.821 176.532 185.72 176.842 185.72 177.223C185.72 177.768 185.919 178.179 186.316 178.457C186.714 178.734 187.22 178.873 187.835 178.873ZM202.137 181.038C200.885 181.038 199.809 180.763 198.911 180.213C198.018 179.663 197.329 178.903 196.844 177.934C196.365 176.959 196.126 175.838 196.126 174.569C196.126 173.295 196.371 172.17 196.861 171.196C197.351 170.216 198.042 169.453 198.935 168.909C199.834 168.359 200.896 168.084 202.121 168.084C203.139 168.084 204.04 168.272 204.824 168.647C205.614 169.018 206.243 169.543 206.711 170.224C207.179 170.899 207.446 171.689 207.511 172.592H204.685C204.571 171.988 204.299 171.484 203.869 171.081C203.444 170.673 202.875 170.469 202.161 170.469C201.557 170.469 201.026 170.632 200.569 170.959C200.111 171.28 199.755 171.743 199.499 172.347C199.248 172.952 199.123 173.676 199.123 174.52C199.123 175.375 199.248 176.11 199.499 176.725C199.749 177.335 200.101 177.806 200.552 178.138C201.01 178.465 201.546 178.628 202.161 178.628C202.597 178.628 202.986 178.547 203.329 178.383C203.678 178.214 203.969 177.972 204.203 177.656C204.438 177.341 204.598 176.957 204.685 176.505H207.511C207.44 177.392 207.179 178.179 206.727 178.865C206.275 179.546 205.66 180.079 204.881 180.466C204.103 180.847 203.188 181.038 202.137 181.038ZM209.939 180.793V168.247H212.896V180.793H209.939ZM211.426 166.467C210.957 166.467 210.554 166.312 210.217 166.001C209.879 165.685 209.71 165.307 209.71 164.866C209.71 164.419 209.879 164.041 210.217 163.731C210.554 163.415 210.957 163.257 211.426 163.257C211.899 163.257 212.302 163.415 212.634 163.731C212.972 164.041 213.141 164.419 213.141 164.866C213.141 165.307 212.972 165.685 212.634 166.001C212.302 166.312 211.899 166.467 211.426 166.467ZM221.408 181.038C220.183 181.038 219.122 180.768 218.223 180.229C217.325 179.69 216.628 178.936 216.132 177.967C215.642 176.998 215.397 175.865 215.397 174.569C215.397 173.273 215.642 172.138 216.132 171.163C216.628 170.188 217.325 169.432 218.223 168.893C219.122 168.353 220.183 168.084 221.408 168.084C222.634 168.084 223.695 168.353 224.594 168.893C225.492 169.432 226.187 170.188 226.677 171.163C227.172 172.138 227.42 173.273 227.42 174.569C227.42 175.865 227.172 176.998 226.677 177.967C226.187 178.936 225.492 179.69 224.594 180.229C223.695 180.768 222.634 181.038 221.408 181.038ZM221.425 178.669C222.089 178.669 222.645 178.487 223.091 178.122C223.537 177.752 223.87 177.256 224.087 176.635C224.311 176.015 224.422 175.323 224.422 174.561C224.422 173.793 224.311 173.099 224.087 172.478C223.87 171.852 223.537 171.354 223.091 170.983C222.645 170.613 222.089 170.428 221.425 170.428C220.744 170.428 220.178 170.613 219.726 170.983C219.279 171.354 218.945 171.852 218.721 172.478C218.504 173.099 218.395 173.793 218.395 174.561C218.395 175.323 218.504 176.015 218.721 176.635C218.945 177.256 219.279 177.752 219.726 178.122C220.178 178.487 220.744 178.669 221.425 178.669ZM220.273 166.597L222.103 162.865H224.994L222.487 166.597H220.273ZM232.886 173.442V180.793H229.929V168.247H232.755V170.379H232.902C233.191 169.677 233.651 169.118 234.283 168.705C234.92 168.291 235.707 168.084 236.643 168.084C237.509 168.084 238.263 168.269 238.906 168.639C239.554 169.01 240.054 169.546 240.408 170.248C240.768 170.951 240.945 171.803 240.939 172.805V180.793H237.983V173.262C237.983 172.424 237.765 171.768 237.329 171.294C236.899 170.82 236.303 170.583 235.54 170.583C235.023 170.583 234.563 170.698 234.16 170.926C233.763 171.149 233.45 171.473 233.221 171.898C232.998 172.323 232.886 172.837 232.886 173.442Z" fill="black"/>
<path d="M180.188 54.8571C177.904 54.8571 175.705 55.635 174.09 57.0353L170.808 59.854C169.48 60.998 167.324 60.998 165.996 59.854C164.668 58.71 164.668 56.8522 165.996 55.7083L169.278 52.8895C172.178 50.4002 176.098 49 180.188 49C188.696 49 195.601 54.9487 195.601 62.2792C195.601 65.8027 193.976 69.1797 191.086 71.669L176.618 84.1429H195.601C197.481 84.1429 199 85.4516 199 87.0714C199 88.6913 197.481 90 195.601 90H168.407C167.037 90 165.794 89.2862 165.263 88.1879C164.732 87.0897 165.029 85.8359 165.996 84.994L186.274 67.5324C187.889 66.1413 188.802 64.2469 188.802 62.2792C188.802 58.1792 184.946 54.8571 180.188 54.8571Z" fill="black"/>
<path d="M169.143 206.545C169.143 204.771 167.232 203.343 164.857 203.343C162.482 203.343 160.571 204.771 160.571 206.545V211.882H153.429C147.125 211.882 142 215.711 142 220.421V222.556V228.96V263.115C142 267.825 147.125 271.654 153.429 271.654H210.571C216.875 271.654 222 267.825 222 263.115V228.96V222.556V220.421C222 215.711 216.875 211.882 210.571 211.882H203.429V206.545C203.429 204.771 201.518 203.343 199.143 203.343C196.768 203.343 194.857 204.771 194.857 206.545V211.882H169.143V206.545ZM150.571 228.96H164.857V236.431H150.571V228.96ZM150.571 242.835H164.857V251.374H150.571V242.835ZM173.429 242.835H190.571V251.374H173.429V242.835ZM199.143 242.835H213.429V251.374H199.143V242.835ZM213.429 236.431H199.143V228.96H213.429V236.431ZM213.429 257.778V263.115C213.429 264.289 212.143 265.25 210.571 265.25H199.143V257.778H213.429ZM190.571 257.778V265.25H173.429V257.778H190.571ZM164.857 257.778V265.25H153.429C151.857 265.25 150.571 264.289 150.571 263.115V257.778H164.857ZM190.571 236.431H173.429V228.96H190.571V236.431Z" fill="black"/>
<defs>
<filter id="filter0_d_3_75" x="0" y="0" width="363" height="289" filterUnits="userSpaceOnUse" color-interpolation-filters="sRGB">
<feFlood flood-opacity="0" result="BackgroundImageFix"/>
<feColorMatrix in="SourceAlpha" type="matrix" values="0 0 0 0 0 0 0 0 0 0 0 0 0 0 0 0 0 0 127 0" result="hardAlpha"/>
<feOffset dy="4"/>
<feGaussianBlur stdDeviation="2"/>
<feComposite in2="hardAlpha" operator="out"/>
<feColorMatrix type="matrix" values="0 0 0 0 0 0 0 0 0 0 0 0 0 0 0 0 0 0 0.25 0"/>
<feBlend mode="normal" in2="BackgroundImageFix" result="effect1_dropShadow_3_75"/>
<feBlend mode="normal" in="SourceGraphic" in2="effect1_dropShadow_3_75" result="shape"/>
</filter>
<filter id="filter1_d_3_75" x="131" y="31.6746" width="102" height="92.66" filterUnits="userSpaceOnUse" color-interpolation-filters="sRGB">
<feFlood flood-opacity="0" result="BackgroundImageFix"/>
<feColorMatrix in="SourceAlpha" type="matrix" values="0 0 0 0 0 0 0 0 0 0 0 0 0 0 0 0 0 0 127 0" result="hardAlpha"/>
<feOffset dy="4"/>
<feGaussianBlur stdDeviation="2"/>
<feComposite in2="hardAlpha" operator="out"/>
<feColorMatrix type="matrix" values="0 0 0 0 0 0 0 0 0 0 0 0 0 0 0 0 0 0 0.25 0"/>
<feBlend mode="normal" in2="BackgroundImageFix" result="effect1_dropShadow_3_75"/>
<feBlend mode="normal" in="SourceGraphic" in2="effect1_dropShadow_3_75" result="shape"/>
</filter>
<linearGradient id="paint0_linear_3_75" x1="181.5" y1="0" x2="181.5" y2="281" gradientUnits="userSpaceOnUse">
<stop stop-color="#007C7C"/>
<stop offset="0.313815" stop-color="#339292" stop-opacity="0.763678"/>
<stop offset="1" stop-color="#D9D9D9" stop-opacity="0"/>
</linearGradient>
<linearGradient id="paint1_linear_3_75" x1="182" y1="38.6746" x2="182" y2="109.335" gradientUnits="userSpaceOnUse">
<stop offset="0.1875" stop-color="#FEFEFE"/>
<stop offset="0.677083" stop-color="#FEFEFE" stop-opacity="0.570513"/>
<stop offset="1" stop-color="#FEFEFE" stop-opacity="0"/>
</linearGradient>
</defs>
</svg>
