<svg width="363" height="287" viewBox="0 0 363 287" fill="none" xmlns="http://www.w3.org/2000/svg">
<g filter="url(#filter0_d_4_2)">
<rect x="4" width="355" height="278.365" rx="18" fill="url(#paint0_linear_4_2)" shape-rendering="crispEdges"/>
</g>
<g filter="url(#filter1_d_4_2)">
<ellipse cx="182" cy="72.8809" rx="40" ry="35.4282" fill="url(#paint1_linear_4_2)" shape-rendering="crispEdges"/>
<path d="M182 111.809C205.613 111.809 225.5 94.7676 225.5 72.8809C225.5 50.9943 205.613 33.9527 182 33.9527C158.387 33.9527 138.5 50.9943 138.5 72.8809C138.5 94.7676 158.387 111.809 182 111.809Z" stroke="black" stroke-width="7" shape-rendering="crispEdges"/>
</g>
<path d="M63.9165 151.566V134.839H70.1892C71.4742 134.839 72.5524 135.062 73.4236 135.509C74.3002 135.955 74.9618 136.581 75.4083 137.387C75.8602 138.188 76.0862 139.121 76.0862 140.189C76.0862 141.261 75.8575 142.192 75.4001 142.982C74.9482 143.766 74.2812 144.373 73.3991 144.803C72.517 145.228 71.4334 145.44 70.1483 145.44H65.6807V142.925H69.74C70.4914 142.925 71.1067 142.821 71.5858 142.614C72.065 142.402 72.4189 142.094 72.6476 141.691C72.8818 141.283 72.9988 140.782 72.9988 140.189C72.9988 139.595 72.8818 139.089 72.6476 138.669C72.4135 138.245 72.0568 137.923 71.5777 137.706C71.0985 137.482 70.4805 137.371 69.7236 137.371H66.9466V151.566H63.9165ZM72.5578 143.987L76.6988 151.566H73.3174L69.2499 143.987H72.5578ZM84.1191 151.811C82.8612 151.811 81.7749 151.55 80.8602 151.027C79.9508 150.499 79.2512 149.753 78.7611 148.789C78.271 147.82 78.026 146.679 78.026 145.367C78.026 144.076 78.271 142.944 78.7611 141.969C79.2566 140.989 79.9481 140.227 80.8357 139.682C81.7232 139.132 82.766 138.857 83.9639 138.857C84.7371 138.857 85.4667 138.983 86.1528 139.233C86.8443 139.478 87.4542 139.859 87.9823 140.376C88.516 140.894 88.9352 141.553 89.2401 142.353C89.5451 143.148 89.6975 144.095 89.6975 145.195V146.102H79.4145V144.109H86.8634C86.8579 143.543 86.7354 143.039 86.4958 142.598C86.2562 142.152 85.9214 141.8 85.4912 141.544C85.0665 141.289 84.571 141.161 84.0047 141.161C83.4003 141.161 82.8694 141.308 82.412 141.602C81.9546 141.89 81.598 142.271 81.3421 142.745C81.0916 143.213 80.9636 143.728 80.9582 144.289V146.028C80.9582 146.758 81.0916 147.384 81.3584 147.907C81.6252 148.424 81.9982 148.822 82.4774 149.099C82.9565 149.372 83.5174 149.508 84.1599 149.508C84.5901 149.508 84.9794 149.448 85.3279 149.328C85.6763 149.203 85.9785 149.021 86.2345 148.781C86.4904 148.541 86.6837 148.245 86.8144 147.891L89.575 148.201C89.4008 148.931 89.0686 149.568 88.5786 150.112C88.094 150.651 87.4732 151.071 86.7164 151.37C85.9595 151.664 85.0937 151.811 84.1191 151.811ZM97.6712 151.811C96.4188 151.811 95.3434 151.536 94.445 150.986C93.552 150.436 92.8632 149.677 92.3786 148.707C91.8994 147.733 91.6598 146.611 91.6598 145.342C91.6598 144.068 91.9048 142.944 92.3949 141.969C92.8849 140.989 93.5765 140.227 94.4695 139.682C95.3679 139.132 96.4297 138.857 97.6548 138.857C98.6731 138.857 99.5742 139.045 100.358 139.421C101.148 139.791 101.777 140.317 102.245 140.997C102.713 141.672 102.98 142.462 103.045 143.366H100.219C100.105 142.761 99.8329 142.258 99.4027 141.855C98.978 141.446 98.409 141.242 97.6957 141.242C97.0913 141.242 96.5604 141.406 96.103 141.732C95.6456 142.054 95.2889 142.516 95.033 143.121C94.7826 143.725 94.6573 144.449 94.6573 145.293C94.6573 146.148 94.7826 146.883 95.033 147.499C95.2835 148.108 95.6347 148.579 96.0866 148.912C96.544 149.238 97.0804 149.402 97.6957 149.402C98.1313 149.402 98.5206 149.32 98.8636 149.157C99.2121 148.988 99.5034 148.746 99.7376 148.43C99.9717 148.114 100.132 147.73 100.219 147.278H103.045C102.975 148.166 102.713 148.952 102.261 149.639C101.809 150.319 101.194 150.853 100.415 151.239C99.6368 151.621 98.7221 151.811 97.6712 151.811ZM105.473 151.566V139.021H108.43V151.566H105.473ZM106.96 137.24C106.492 137.24 106.089 137.085 105.751 136.775C105.413 136.459 105.245 136.08 105.245 135.639C105.245 135.193 105.413 134.814 105.751 134.504C106.089 134.188 106.492 134.03 106.96 134.03C107.434 134.03 107.836 134.188 108.169 134.504C108.506 134.814 108.675 135.193 108.675 135.639C108.675 136.08 108.506 136.459 108.169 136.775C107.836 137.085 107.434 137.24 106.96 137.24ZM111.601 151.566V134.839H114.558V141.095H114.68C114.833 140.79 115.048 140.466 115.325 140.123C115.603 139.775 115.979 139.478 116.453 139.233C116.926 138.983 117.531 138.857 118.266 138.857C119.235 138.857 120.109 139.105 120.888 139.601C121.672 140.091 122.292 140.818 122.75 141.781C123.213 142.74 123.444 143.916 123.444 145.31C123.444 146.687 123.218 147.858 122.766 148.822C122.314 149.786 121.699 150.521 120.92 151.027C120.142 151.533 119.26 151.787 118.274 151.787C117.555 151.787 116.959 151.667 116.485 151.427C116.012 151.188 115.63 150.899 115.342 150.561C115.059 150.218 114.838 149.894 114.68 149.59H114.509V151.566H111.601ZM114.501 145.293C114.501 146.105 114.615 146.815 114.844 147.425C115.078 148.035 115.413 148.511 115.848 148.854C116.289 149.192 116.823 149.361 117.449 149.361C118.102 149.361 118.65 149.187 119.091 148.838C119.532 148.484 119.864 148.002 120.087 147.392C120.316 146.777 120.43 146.077 120.43 145.293C120.43 144.515 120.319 143.823 120.095 143.219C119.872 142.614 119.54 142.141 119.099 141.798C118.658 141.455 118.108 141.283 117.449 141.283C116.817 141.283 116.281 141.449 115.84 141.781C115.399 142.113 115.064 142.579 114.835 143.178C114.612 143.777 114.501 144.482 114.501 145.293ZM131.512 151.811C130.254 151.811 129.168 151.55 128.253 151.027C127.343 150.499 126.644 149.753 126.154 148.789C125.664 147.82 125.419 146.679 125.419 145.367C125.419 144.076 125.664 142.944 126.154 141.969C126.649 140.989 127.341 140.227 128.228 139.682C129.116 139.132 130.159 138.857 131.356 138.857C132.13 138.857 132.859 138.983 133.545 139.233C134.237 139.478 134.847 139.859 135.375 140.376C135.909 140.894 136.328 141.553 136.633 142.353C136.938 143.148 137.09 144.095 137.09 145.195V146.102H126.807V144.109H134.256C134.251 143.543 134.128 143.039 133.888 142.598C133.649 142.152 133.314 141.8 132.884 141.544C132.459 141.289 131.964 141.161 131.397 141.161C130.793 141.161 130.262 141.308 129.805 141.602C129.347 141.89 128.991 142.271 128.735 142.745C128.484 143.213 128.356 143.728 128.351 144.289V146.028C128.351 146.758 128.484 147.384 128.751 147.907C129.018 148.424 129.391 148.822 129.87 149.099C130.349 149.372 130.91 149.508 131.552 149.508C131.983 149.508 132.372 149.448 132.72 149.328C133.069 149.203 133.371 149.021 133.627 148.781C133.883 148.541 134.076 148.245 134.207 147.891L136.968 148.201C136.793 148.931 136.461 149.568 135.971 150.112C135.487 150.651 134.866 151.071 134.109 151.37C133.352 151.664 132.486 151.811 131.512 151.811ZM151.561 139.021V141.308H144.349V139.021H151.561ZM146.13 136.015H149.086V147.793C149.086 148.19 149.146 148.495 149.266 148.707C149.391 148.914 149.555 149.056 149.756 149.132C149.958 149.208 150.181 149.246 150.426 149.246C150.611 149.246 150.78 149.233 150.932 149.206C151.09 149.178 151.21 149.154 151.292 149.132L151.79 151.444C151.632 151.498 151.406 151.558 151.112 151.623C150.823 151.689 150.469 151.727 150.05 151.738C149.31 151.759 148.643 151.648 148.049 151.403C147.455 151.152 146.984 150.766 146.636 150.243C146.293 149.72 146.124 149.067 146.13 148.283V136.015ZM162.03 146.29V139.021H164.987V151.566H162.12V149.336H161.989C161.706 150.039 161.24 150.613 160.592 151.06C159.95 151.506 159.158 151.729 158.216 151.729C157.393 151.729 156.667 151.547 156.035 151.182C155.409 150.812 154.919 150.276 154.565 149.573C154.211 148.865 154.034 148.01 154.034 147.009V139.021H156.991V146.551C156.991 147.346 157.208 147.978 157.644 148.446C158.08 148.914 158.651 149.148 159.359 149.148C159.795 149.148 160.217 149.042 160.625 148.83C161.033 148.618 161.368 148.302 161.63 147.882C161.897 147.458 162.03 146.927 162.03 146.29ZM177.942 142.337L175.247 142.631C175.171 142.358 175.038 142.103 174.847 141.863C174.662 141.623 174.411 141.43 174.096 141.283C173.78 141.136 173.393 141.063 172.936 141.063C172.32 141.063 171.803 141.196 171.384 141.463C170.97 141.73 170.766 142.075 170.771 142.5C170.766 142.865 170.899 143.162 171.172 143.39C171.449 143.619 171.907 143.807 172.544 143.954L174.684 144.411C175.871 144.667 176.753 145.073 177.33 145.628C177.913 146.184 178.207 146.911 178.212 147.809C178.207 148.599 177.975 149.295 177.518 149.9C177.066 150.499 176.437 150.967 175.631 151.305C174.825 151.642 173.9 151.811 172.854 151.811C171.319 151.811 170.083 151.49 169.146 150.847C168.209 150.199 167.651 149.298 167.472 148.144L170.355 147.866C170.485 148.432 170.763 148.86 171.188 149.148C171.613 149.437 172.165 149.581 172.846 149.581C173.548 149.581 174.112 149.437 174.537 149.148C174.967 148.86 175.182 148.503 175.182 148.079C175.182 147.719 175.043 147.422 174.765 147.188C174.493 146.954 174.068 146.774 173.491 146.649L171.351 146.2C170.148 145.949 169.258 145.527 168.68 144.934C168.103 144.335 167.817 143.578 167.823 142.663C167.817 141.89 168.027 141.22 168.452 140.654C168.882 140.082 169.478 139.641 170.24 139.331C171.008 139.015 171.893 138.857 172.895 138.857C174.365 138.857 175.522 139.17 176.366 139.797C177.216 140.423 177.741 141.269 177.942 142.337ZM186.355 151.566V139.021H189.222V141.112H189.353C189.581 140.387 189.973 139.829 190.529 139.437C191.09 139.04 191.729 138.841 192.448 138.841C192.612 138.841 192.794 138.849 192.995 138.865C193.202 138.876 193.374 138.895 193.51 138.923V141.642C193.385 141.599 193.186 141.561 192.914 141.528C192.647 141.49 192.388 141.471 192.138 141.471C191.599 141.471 191.114 141.588 190.684 141.822C190.259 142.051 189.924 142.369 189.679 142.778C189.434 143.186 189.312 143.657 189.312 144.191V151.566H186.355ZM200.512 151.811C199.254 151.811 198.168 151.55 197.253 151.027C196.343 150.499 195.644 149.753 195.154 148.789C194.664 147.82 194.419 146.679 194.419 145.367C194.419 144.076 194.664 142.944 195.154 141.969C195.649 140.989 196.341 140.227 197.228 139.682C198.116 139.132 199.159 138.857 200.356 138.857C201.13 138.857 201.859 138.983 202.545 139.233C203.237 139.478 203.847 139.859 204.375 140.376C204.909 140.894 205.328 141.553 205.633 142.353C205.938 143.148 206.09 144.095 206.09 145.195V146.102H195.807V144.109H203.256C203.251 143.543 203.128 143.039 202.888 142.598C202.649 142.152 202.314 141.8 201.884 141.544C201.459 141.289 200.964 141.161 200.397 141.161C199.793 141.161 199.262 141.308 198.805 141.602C198.347 141.89 197.991 142.271 197.735 142.745C197.484 143.213 197.356 143.728 197.351 144.289V146.028C197.351 146.758 197.484 147.384 197.751 147.907C198.018 148.424 198.391 148.822 198.87 149.099C199.349 149.372 199.91 149.508 200.552 149.508C200.983 149.508 201.372 149.448 201.72 149.328C202.069 149.203 202.371 149.021 202.627 148.781C202.883 148.541 203.076 148.245 203.207 147.891L205.968 148.201C205.793 148.931 205.461 149.568 204.971 150.112C204.487 150.651 203.866 151.071 203.109 151.37C202.352 151.664 201.486 151.811 200.512 151.811ZM218.507 142.337L215.812 142.631C215.735 142.358 215.602 142.103 215.411 141.863C215.226 141.623 214.976 141.43 214.66 141.283C214.344 141.136 213.958 141.063 213.5 141.063C212.885 141.063 212.368 141.196 211.948 141.463C211.535 141.73 211.33 142.075 211.336 142.5C211.33 142.865 211.464 143.162 211.736 143.39C212.014 143.619 212.471 143.807 213.108 143.954L215.248 144.411C216.435 144.667 217.317 145.073 217.894 145.628C218.477 146.184 218.771 146.911 218.776 147.809C218.771 148.599 218.54 149.295 218.082 149.9C217.63 150.499 217.001 150.967 216.195 151.305C215.39 151.642 214.464 151.811 213.419 151.811C211.883 151.811 210.647 151.49 209.71 150.847C208.774 150.199 208.216 149.298 208.036 148.144L210.919 147.866C211.05 148.432 211.328 148.86 211.752 149.148C212.177 149.437 212.73 149.581 213.41 149.581C214.113 149.581 214.676 149.437 215.101 149.148C215.531 148.86 215.746 148.503 215.746 148.079C215.746 147.719 215.607 147.422 215.33 147.188C215.057 146.954 214.633 146.774 214.056 146.649L211.916 146.2C210.712 145.949 209.822 145.527 209.245 144.934C208.668 144.335 208.382 143.578 208.387 142.663C208.382 141.89 208.591 141.22 209.016 140.654C209.446 140.082 210.043 139.641 210.805 139.331C211.573 139.015 212.457 138.857 213.459 138.857C214.93 138.857 216.087 139.17 216.931 139.797C217.78 140.423 218.305 141.269 218.507 142.337ZM229.211 146.29V139.021H232.167V151.566H229.3V149.336H229.17C228.887 150.039 228.421 150.613 227.773 151.06C227.131 151.506 226.338 151.729 225.396 151.729C224.574 151.729 223.847 151.547 223.216 151.182C222.589 150.812 222.099 150.276 221.745 149.573C221.391 148.865 221.214 148.01 221.214 147.009V139.021H224.171V146.551C224.171 147.346 224.389 147.978 224.825 148.446C225.26 148.914 225.832 149.148 226.54 149.148C226.975 149.148 227.397 149.042 227.806 148.83C228.214 148.618 228.549 148.302 228.81 147.882C229.077 147.458 229.211 146.927 229.211 146.29ZM238.164 134.839V151.566H235.208V134.839H238.164ZM247.469 139.021V141.308H240.257V139.021H247.469ZM242.038 136.015H244.994V147.793C244.994 148.19 245.054 148.495 245.174 148.707C245.299 148.914 245.463 149.056 245.664 149.132C245.866 149.208 246.089 149.246 246.334 149.246C246.519 149.246 246.688 149.233 246.84 149.206C246.998 149.178 247.118 149.154 247.2 149.132L247.698 151.444C247.54 151.498 247.314 151.558 247.02 151.623C246.731 151.689 246.378 151.727 245.958 151.738C245.218 151.759 244.551 151.648 243.957 151.403C243.364 151.152 242.893 150.766 242.544 150.243C242.201 149.72 242.032 149.067 242.038 148.283V136.015ZM253.552 151.819C252.757 151.819 252.041 151.678 251.404 151.395C250.772 151.106 250.271 150.681 249.901 150.12C249.536 149.56 249.354 148.868 249.354 148.046C249.354 147.338 249.485 146.753 249.746 146.29C250.007 145.827 250.364 145.457 250.816 145.179C251.268 144.901 251.777 144.692 252.343 144.55C252.915 144.403 253.506 144.297 254.116 144.232C254.851 144.155 255.447 144.087 255.904 144.027C256.362 143.962 256.694 143.864 256.901 143.733C257.113 143.597 257.219 143.388 257.219 143.104V143.055C257.219 142.44 257.037 141.964 256.672 141.626C256.307 141.289 255.782 141.12 255.096 141.12C254.372 141.12 253.797 141.278 253.372 141.593C252.953 141.909 252.67 142.282 252.523 142.712L249.762 142.32C249.98 141.558 250.34 140.921 250.84 140.409C251.341 139.892 251.954 139.505 252.678 139.249C253.402 138.988 254.203 138.857 255.079 138.857C255.684 138.857 256.286 138.928 256.884 139.07C257.483 139.211 258.031 139.445 258.526 139.772C259.022 140.093 259.419 140.532 259.719 141.087C260.024 141.642 260.176 142.337 260.176 143.17V151.566H257.334V149.843H257.236C257.056 150.191 256.803 150.518 256.476 150.823C256.155 151.122 255.749 151.365 255.259 151.55C254.775 151.729 254.206 151.819 253.552 151.819ZM254.32 149.647C254.913 149.647 255.428 149.53 255.864 149.295C256.299 149.056 256.634 148.74 256.868 148.348C257.108 147.956 257.228 147.529 257.228 147.066V145.587C257.135 145.664 256.977 145.734 256.754 145.8C256.536 145.865 256.291 145.922 256.019 145.971C255.746 146.02 255.477 146.064 255.21 146.102C254.943 146.14 254.712 146.173 254.516 146.2C254.075 146.26 253.68 146.358 253.332 146.494C252.983 146.63 252.708 146.821 252.507 147.066C252.305 147.305 252.204 147.616 252.204 147.997C252.204 148.541 252.403 148.952 252.801 149.23C253.198 149.508 253.705 149.647 254.32 149.647ZM267.805 151.787C266.819 151.787 265.937 151.533 265.158 151.027C264.38 150.521 263.764 149.786 263.312 148.822C262.86 147.858 262.634 146.687 262.634 145.31C262.634 143.916 262.863 142.74 263.321 141.781C263.783 140.818 264.407 140.091 265.191 139.601C265.975 139.105 266.849 138.857 267.813 138.857C268.548 138.857 269.152 138.983 269.626 139.233C270.1 139.478 270.475 139.775 270.753 140.123C271.031 140.466 271.246 140.79 271.398 141.095H271.521V134.839H274.486V151.566H271.578V149.59H271.398C271.246 149.894 271.025 150.218 270.737 150.561C270.448 150.899 270.067 151.188 269.593 151.427C269.12 151.667 268.523 151.787 267.805 151.787ZM268.63 149.361C269.256 149.361 269.789 149.192 270.23 148.854C270.671 148.511 271.006 148.035 271.235 147.425C271.464 146.815 271.578 146.105 271.578 145.293C271.578 144.482 271.464 143.777 271.235 143.178C271.012 142.579 270.68 142.113 270.239 141.781C269.803 141.449 269.267 141.283 268.63 141.283C267.971 141.283 267.421 141.455 266.98 141.798C266.539 142.141 266.206 142.614 265.983 143.219C265.76 143.823 265.648 144.515 265.648 145.293C265.648 146.077 265.76 146.777 265.983 147.392C266.212 148.002 266.547 148.484 266.988 148.838C267.434 149.187 267.982 149.361 268.63 149.361ZM283.109 151.811C281.884 151.811 280.822 151.542 279.923 151.003C279.025 150.463 278.328 149.709 277.832 148.74C277.342 147.771 277.097 146.638 277.097 145.342C277.097 144.046 277.342 142.911 277.832 141.936C278.328 140.962 279.025 140.205 279.923 139.666C280.822 139.127 281.884 138.857 283.109 138.857C284.334 138.857 285.396 139.127 286.294 139.666C287.192 140.205 287.887 140.962 288.377 141.936C288.872 142.911 289.12 144.046 289.12 145.342C289.12 146.638 288.872 147.771 288.377 148.74C287.887 149.709 287.192 150.463 286.294 151.003C285.396 151.542 284.334 151.811 283.109 151.811ZM283.125 149.443C283.789 149.443 284.345 149.26 284.791 148.895C285.238 148.525 285.57 148.03 285.788 147.409C286.011 146.788 286.123 146.097 286.123 145.334C286.123 144.566 286.011 143.872 285.788 143.251C285.57 142.625 285.238 142.127 284.791 141.757C284.345 141.387 283.789 141.201 283.125 141.201C282.444 141.201 281.878 141.387 281.426 141.757C280.98 142.127 280.645 142.625 280.422 143.251C280.204 143.872 280.095 144.566 280.095 145.334C280.095 146.097 280.204 146.788 280.422 147.409C280.645 148.03 280.98 148.525 281.426 148.895C281.878 149.26 282.444 149.443 283.125 149.443ZM301.545 142.337L298.85 142.631C298.773 142.358 298.64 142.103 298.449 141.863C298.264 141.623 298.014 141.43 297.698 141.283C297.382 141.136 296.996 141.063 296.538 141.063C295.923 141.063 295.406 141.196 294.986 141.463C294.573 141.73 294.368 142.075 294.374 142.5C294.368 142.865 294.502 143.162 294.774 143.39C295.052 143.619 295.509 143.807 296.146 143.954L298.286 144.411C299.473 144.667 300.355 145.073 300.932 145.628C301.515 146.184 301.809 146.911 301.815 147.809C301.809 148.599 301.578 149.295 301.12 149.9C300.668 150.499 300.039 150.967 299.234 151.305C298.428 151.642 297.502 151.811 296.457 151.811C294.921 151.811 293.685 151.49 292.748 150.847C291.812 150.199 291.254 149.298 291.074 148.144L293.957 147.866C294.088 148.432 294.366 148.86 294.79 149.148C295.215 149.437 295.768 149.581 296.448 149.581C297.151 149.581 297.714 149.437 298.139 149.148C298.569 148.86 298.784 148.503 298.784 148.079C298.784 147.719 298.646 147.422 298.368 147.188C298.096 146.954 297.671 146.774 297.094 146.649L294.954 146.2C293.75 145.949 292.86 145.527 292.283 144.934C291.706 144.335 291.42 143.578 291.425 142.663C291.42 141.89 291.63 141.22 292.054 140.654C292.484 140.082 293.081 139.641 293.843 139.331C294.611 139.015 295.496 138.857 296.497 138.857C297.968 138.857 299.125 139.17 299.969 139.797C300.818 140.423 301.344 141.269 301.545 142.337Z" fill="black"/>
<path d="M182.721 55.5848C183.424 53.9778 182.787 52.0595 181.287 51.3063C179.787 50.553 177.997 51.236 177.294 52.8429L165.286 80.1714C164.846 81.1657 164.921 82.3307 165.464 83.2648C166.008 84.1988 166.973 84.7512 168.005 84.7512H189.002V92.7861C189.002 94.5638 190.342 96 192.001 96C193.66 96 195.001 94.5638 195.001 92.7861V84.7512H198C199.66 84.7512 201 83.315 201 81.5373C201 79.7596 199.66 78.3234 198 78.3234H195.001V63.8607C195.001 62.083 193.66 60.6467 192.001 60.6467C190.342 60.6467 189.002 62.083 189.002 63.8607V78.3234H172.729L182.721 55.5848Z" fill="black"/>
<path d="M222 187.153C222 181.001 216.875 176 210.571 176H153.429C147.125 176 142 181.001 142 187.153V242.917C142 249.068 147.125 254.07 153.429 254.07H210.571C216.875 254.07 222 249.068 222 242.917V187.153ZM187.714 198.306C187.714 201.39 185.161 203.882 182 203.882H164.857C161.696 203.882 159.143 201.39 159.143 198.306C159.143 195.221 161.696 192.729 164.857 192.729H182C185.161 192.729 187.714 195.221 187.714 198.306ZM199.143 209.458C202.304 209.458 204.857 211.95 204.857 215.035C204.857 218.119 202.304 220.611 199.143 220.611H164.857C161.696 220.611 159.143 218.119 159.143 215.035C159.143 211.95 161.696 209.458 164.857 209.458H199.143ZM176.286 231.764C176.286 234.849 173.732 237.34 170.571 237.34H164.857C161.696 237.34 159.143 234.849 159.143 231.764C159.143 228.68 161.696 226.188 164.857 226.188H170.571C173.732 226.188 176.286 228.68 176.286 231.764Z" fill="black"/>
<path d="M228.593 174.762C229.709 173.674 229.709 171.905 228.593 170.817C227.477 169.728 225.664 169.728 224.548 170.817L212.291 182.784L207.166 177.785C206.05 176.696 204.238 176.696 203.122 177.785C202.006 178.874 202.006 180.642 203.122 181.73L210.264 188.699C211.38 189.787 213.193 189.787 214.308 188.699L228.593 174.762ZM237.163 185.911C238.279 184.823 238.279 183.054 237.163 181.966C236.047 180.877 234.235 180.877 233.119 181.966L212.291 202.295L202.881 193.123C201.765 192.035 199.953 192.035 198.837 193.123C197.721 194.212 197.721 195.98 198.837 197.069L210.264 208.218C211.38 209.307 213.193 209.307 214.308 208.218L237.163 185.92V185.911Z" fill="#007C7C"/>
<defs>
<filter id="filter0_d_4_2" x="0" y="0" width="363" height="286.365" filterUnits="userSpaceOnUse" color-interpolation-filters="sRGB">
<feFlood flood-opacity="0" result="BackgroundImageFix"/>
<feColorMatrix in="SourceAlpha" type="matrix" values="0 0 0 0 0 0 0 0 0 0 0 0 0 0 0 0 0 0 127 0" result="hardAlpha"/>
<feOffset dy="4"/>
<feGaussianBlur stdDeviation="2"/>
<feComposite in2="hardAlpha" operator="out"/>
<feColorMatrix type="matrix" values="0 0 0 0 0 0 0 0 0 0 0 0 0 0 0 0 0 0 0.25 0"/>
<feBlend mode="normal" in2="BackgroundImageFix" result="effect1_dropShadow_4_2"/>
<feBlend mode="normal" in="SourceGraphic" in2="effect1_dropShadow_4_2" result="shape"/>
</filter>
<filter id="filter1_d_4_2" x="131" y="30.4527" width="102" height="92.8564" filterUnits="userSpaceOnUse" color-interpolation-filters="sRGB">
<feFlood flood-opacity="0" result="BackgroundImageFix"/>
<feColorMatrix in="SourceAlpha" type="matrix" values="0 0 0 0 0 0 0 0 0 0 0 0 0 0 0 0 0 0 127 0" result="hardAlpha"/>
<feOffset dy="4"/>
<feGaussianBlur stdDeviation="2"/>
<feComposite in2="hardAlpha" operator="out"/>
<feColorMatrix type="matrix" values="0 0 0 0 0 0 0 0 0 0 0 0 0 0 0 0 0 0 0.25 0"/>
<feBlend mode="normal" in2="BackgroundImageFix" result="effect1_dropShadow_4_2"/>
<feBlend mode="normal" in="SourceGraphic" in2="effect1_dropShadow_4_2" result="shape"/>
</filter>
<linearGradient id="paint0_linear_4_2" x1="181.5" y1="0" x2="181.5" y2="278.365" gradientUnits="userSpaceOnUse">
<stop stop-color="#007C7C"/>
<stop offset="0.313815" stop-color="#339292" stop-opacity="0.763678"/>
<stop offset="1" stop-color="#D9D9D9" stop-opacity="0"/>
</linearGradient>
<linearGradient id="paint1_linear_4_2" x1="182" y1="37.4527" x2="182" y2="108.309" gradientUnits="userSpaceOnUse">
<stop offset="0.1875" stop-color="#FEFEFE"/>
<stop offset="0.677083" stop-color="#FEFEFE" stop-opacity="0.570513"/>
<stop offset="1" stop-color="#FEFEFE" stop-opacity="0"/>
</linearGradient>
</defs>
</svg>
