<svg width="363" height="289" viewBox="0 0 363 289" fill="none" xmlns="http://www.w3.org/2000/svg">
<g filter="url(#filter0_d_3_43)">
<rect x="4" width="355" height="281" rx="18" fill="url(#paint0_linear_3_43)" shape-rendering="crispEdges"/>
</g>
<g filter="url(#filter1_d_3_43)">
<ellipse cx="182" cy="78.2091" rx="40" ry="39.2091" fill="url(#paint1_linear_3_43)" shape-rendering="crispEdges"/>
<path d="M182 120.918C205.958 120.918 225.5 101.862 225.5 78.2091C225.5 54.556 205.958 35.5 182 35.5C158.042 35.5 138.5 54.556 138.5 78.2091C138.5 101.862 158.042 120.918 182 120.918Z" stroke="black" stroke-width="7" shape-rendering="crispEdges"/>
</g>
<path d="M185.866 60.8405C185.866 59.7974 185.012 58.8426 183.647 58.3476C182.281 57.8525 180.627 57.9056 179.34 58.489L166.735 64.1468C164.791 65.0131 164.279 66.7635 165.566 68.0718C166.853 69.3802 169.466 69.7249 171.396 68.8586L177.462 66.127V91.958H169.059C166.735 91.958 164.857 93.2222 164.857 94.7869C164.857 96.3516 166.735 97.6158 169.059 97.6158H181.664H194.269C196.593 97.6158 198.471 96.3516 198.471 94.7869C198.471 93.2222 196.593 91.958 194.269 91.958H185.866V60.8405Z" fill="black"/>
<path d="M88.5837 147.783C88.5074 147.069 88.1862 146.514 87.6199 146.116C87.0591 145.719 86.3294 145.52 85.431 145.52C84.7993 145.52 84.2576 145.615 83.8056 145.806C83.3537 145.997 83.0079 146.255 82.7683 146.582C82.5287 146.909 82.4062 147.282 82.4008 147.701C82.4008 148.049 82.4797 148.352 82.6377 148.608C82.801 148.863 83.0215 149.081 83.2992 149.261C83.5769 149.435 83.8846 149.582 84.2222 149.702C84.5598 149.822 84.9001 149.923 85.2431 150.004L86.8113 150.396C87.4429 150.543 88.0501 150.742 88.6327 150.992C89.2207 151.243 89.7462 151.559 90.209 151.94C90.6773 152.321 91.0476 152.781 91.3198 153.32C91.5921 153.859 91.7282 154.491 91.7282 155.215C91.7282 156.195 91.4777 157.058 90.9768 157.804C90.4758 158.545 89.7516 159.125 88.8042 159.544C87.8622 159.958 86.7215 160.165 85.382 160.165C84.0806 160.165 82.9507 159.963 81.9924 159.56C81.0395 159.157 80.2935 158.569 79.7545 157.796C79.2209 157.023 78.9323 156.081 78.8887 154.97H81.8699C81.9135 155.553 82.0931 156.037 82.409 156.424C82.7248 156.811 83.1359 157.099 83.6423 157.29C84.1541 157.48 84.7258 157.576 85.3575 157.576C86.0163 157.576 86.5935 157.478 87.089 157.282C87.5899 157.08 87.982 156.802 88.2651 156.448C88.5483 156.089 88.6926 155.67 88.698 155.191C88.6926 154.755 88.5646 154.396 88.3141 154.113C88.0637 153.824 87.7125 153.584 87.2605 153.394C86.814 153.198 86.2913 153.024 85.6923 152.871L83.7893 152.381C82.4117 152.027 81.3227 151.491 80.5222 150.772C79.7273 150.048 79.3298 149.087 79.3298 147.889C79.3298 146.903 79.5966 146.04 80.1302 145.3C80.6693 144.559 81.4016 143.985 82.3273 143.576C83.2529 143.162 84.3011 142.956 85.4718 142.956C86.6588 142.956 87.6988 143.162 88.5918 143.576C89.4903 143.985 90.1954 144.554 90.7073 145.283C91.2191 146.008 91.4832 146.841 91.4995 147.783H88.5837ZM99.7713 160.157C98.5461 160.157 97.4843 159.887 96.5859 159.348C95.6875 158.809 94.9905 158.055 94.495 157.086C94.0049 156.116 93.7599 154.984 93.7599 153.688C93.7599 152.392 94.0049 151.257 94.495 150.282C94.9905 149.307 95.6875 148.55 96.5859 148.011C97.4843 147.472 98.5461 147.203 99.7713 147.203C100.996 147.203 102.058 147.472 102.957 148.011C103.855 148.55 104.549 149.307 105.039 150.282C105.535 151.257 105.783 152.392 105.783 153.688C105.783 154.984 105.535 156.116 105.039 157.086C104.549 158.055 103.855 158.809 102.957 159.348C102.058 159.887 100.996 160.157 99.7713 160.157ZM99.7876 157.788C100.452 157.788 101.007 157.606 101.454 157.241C101.9 156.87 102.232 156.375 102.45 155.754C102.673 155.133 102.785 154.442 102.785 153.68C102.785 152.912 102.673 152.218 102.45 151.597C102.232 150.971 101.9 150.472 101.454 150.102C101.007 149.732 100.452 149.547 99.7876 149.547C99.107 149.547 98.5407 149.732 98.0887 150.102C97.6422 150.472 97.3074 150.971 97.0841 151.597C96.8663 152.218 96.7574 152.912 96.7574 153.68C96.7574 154.442 96.8663 155.133 97.0841 155.754C97.3074 156.375 97.6422 156.87 98.0887 157.241C98.5407 157.606 99.107 157.788 99.7876 157.788ZM111.249 143.184V159.912H108.292V143.184H111.249ZM114.289 159.912V147.366H117.246V159.912H114.289ZM115.776 145.586C115.307 145.586 114.904 145.43 114.567 145.12C114.229 144.804 114.061 144.426 114.061 143.985C114.061 143.538 114.229 143.16 114.567 142.849C114.904 142.534 115.307 142.376 115.776 142.376C116.249 142.376 116.652 142.534 116.985 142.849C117.322 143.16 117.491 143.538 117.491 143.985C117.491 144.426 117.322 144.804 116.985 145.12C116.652 145.43 116.249 145.586 115.776 145.586ZM125.759 160.157C124.506 160.157 123.431 159.882 122.532 159.332C121.639 158.782 120.951 158.022 120.466 157.053C119.987 156.078 119.747 154.957 119.747 153.688C119.747 152.414 119.992 151.289 120.482 150.315C120.972 149.334 121.664 148.572 122.557 148.028C123.455 147.478 124.517 147.203 125.742 147.203C126.76 147.203 127.662 147.391 128.446 147.766C129.235 148.137 129.864 148.662 130.332 149.343C130.801 150.018 131.068 150.807 131.133 151.711H128.307C128.193 151.107 127.92 150.603 127.49 150.2C127.065 149.792 126.496 149.588 125.783 149.588C125.179 149.588 124.648 149.751 124.19 150.078C123.733 150.399 123.376 150.862 123.12 151.466C122.87 152.071 122.745 152.795 122.745 153.639C122.745 154.494 122.87 155.229 123.12 155.844C123.371 156.454 123.722 156.925 124.174 157.257C124.631 157.584 125.168 157.747 125.783 157.747C126.219 157.747 126.608 157.665 126.951 157.502C127.3 157.333 127.591 157.091 127.825 156.775C128.059 156.459 128.22 156.075 128.307 155.624H131.133C131.062 156.511 130.801 157.298 130.349 157.984C129.897 158.665 129.282 159.198 128.503 159.585C127.724 159.966 126.809 160.157 125.759 160.157ZM133.561 159.912V147.366H136.517V159.912H133.561ZM135.047 145.586C134.579 145.586 134.176 145.43 133.838 145.12C133.501 144.804 133.332 144.426 133.332 143.985C133.332 143.538 133.501 143.16 133.838 142.849C134.176 142.534 134.579 142.376 135.047 142.376C135.521 142.376 135.924 142.534 136.256 142.849C136.594 143.16 136.762 143.538 136.762 143.985C136.762 144.426 136.594 144.804 136.256 145.12C135.924 145.43 135.521 145.586 135.047 145.586ZM145.822 147.366V149.653H138.61V147.366H145.822ZM140.391 144.36H143.348V156.138C143.348 156.536 143.407 156.841 143.527 157.053C143.652 157.26 143.816 157.401 144.017 157.478C144.219 157.554 144.442 157.592 144.687 157.592C144.872 157.592 145.041 157.578 145.193 157.551C145.351 157.524 145.471 157.499 145.553 157.478L146.051 159.789C145.893 159.843 145.667 159.903 145.373 159.969C145.085 160.034 144.731 160.072 144.311 160.083C143.571 160.105 142.904 159.993 142.31 159.748C141.717 159.498 141.246 159.111 140.897 158.588C140.554 158.066 140.385 157.412 140.391 156.628V144.36ZM151.905 160.165C151.11 160.165 150.394 160.023 149.757 159.74C149.125 159.451 148.624 159.027 148.254 158.466C147.889 157.905 147.707 157.213 147.707 156.391C147.707 155.683 147.838 155.098 148.099 154.635C148.36 154.172 148.717 153.802 149.169 153.524C149.621 153.247 150.13 153.037 150.696 152.896C151.268 152.749 151.859 152.642 152.469 152.577C153.204 152.501 153.8 152.433 154.257 152.373C154.715 152.307 155.047 152.209 155.254 152.079C155.466 151.943 155.572 151.733 155.572 151.45V151.401C155.572 150.786 155.39 150.309 155.025 149.972C154.66 149.634 154.135 149.465 153.449 149.465C152.725 149.465 152.15 149.623 151.725 149.939C151.306 150.255 151.023 150.628 150.876 151.058L148.115 150.666C148.333 149.903 148.693 149.266 149.193 148.755C149.694 148.237 150.307 147.851 151.031 147.595C151.755 147.333 152.556 147.203 153.432 147.203C154.037 147.203 154.639 147.274 155.238 147.415C155.836 147.557 156.384 147.791 156.879 148.117C157.375 148.439 157.772 148.877 158.072 149.432C158.377 149.988 158.529 150.682 158.529 151.515V159.912H155.687V158.188H155.589C155.409 158.537 155.156 158.863 154.829 159.168C154.508 159.468 154.102 159.71 153.612 159.895C153.128 160.075 152.559 160.165 151.905 160.165ZM152.673 157.992C153.266 157.992 153.781 157.875 154.217 157.641C154.652 157.401 154.987 157.086 155.221 156.693C155.461 156.301 155.581 155.874 155.581 155.411V153.933C155.488 154.009 155.33 154.08 155.107 154.145C154.889 154.211 154.644 154.268 154.372 154.317C154.1 154.366 153.83 154.409 153.563 154.447C153.296 154.486 153.065 154.518 152.869 154.545C152.428 154.605 152.033 154.703 151.685 154.839C151.336 154.976 151.061 155.166 150.86 155.411C150.658 155.651 150.557 155.961 150.557 156.342C150.557 156.887 150.756 157.298 151.154 157.576C151.551 157.853 152.058 157.992 152.673 157.992ZM175.203 154.635V147.366H178.16V159.912H175.293V157.682H175.162C174.879 158.384 174.414 158.959 173.766 159.405C173.123 159.852 172.331 160.075 171.389 160.075C170.567 160.075 169.84 159.892 169.208 159.528C168.582 159.157 168.092 158.621 167.738 157.919C167.384 157.211 167.207 156.356 167.207 155.354V147.366H170.164V154.897C170.164 155.692 170.382 156.323 170.817 156.792C171.253 157.26 171.825 157.494 172.532 157.494C172.968 157.494 173.39 157.388 173.798 157.175C174.207 156.963 174.542 156.647 174.803 156.228C175.07 155.803 175.203 155.272 175.203 154.635ZM184.157 152.561V159.912H181.2V147.366H184.026V149.498H184.173C184.462 148.795 184.922 148.237 185.554 147.823C186.191 147.41 186.978 147.203 187.914 147.203C188.78 147.203 189.534 147.388 190.177 147.758C190.825 148.128 191.325 148.665 191.679 149.367C192.039 150.07 192.216 150.922 192.21 151.924V159.912H189.254V152.381C189.254 151.542 189.036 150.886 188.6 150.413C188.17 149.939 187.574 149.702 186.811 149.702C186.294 149.702 185.834 149.816 185.431 150.045C185.034 150.268 184.721 150.592 184.492 151.017C184.269 151.442 184.157 151.956 184.157 152.561ZM206.475 160.157C205.217 160.157 204.131 159.895 203.216 159.372C202.307 158.844 201.607 158.098 201.117 157.135C200.627 156.165 200.382 155.025 200.382 153.712C200.382 152.422 200.627 151.289 201.117 150.315C201.613 149.334 202.304 148.572 203.192 148.028C204.079 147.478 205.122 147.203 206.32 147.203C207.093 147.203 207.823 147.328 208.509 147.578C209.2 147.823 209.81 148.205 210.338 148.722C210.872 149.239 211.291 149.898 211.596 150.698C211.901 151.493 212.053 152.441 212.053 153.541V154.447H201.77V152.454H209.219C209.214 151.888 209.091 151.385 208.852 150.943C208.612 150.497 208.277 150.146 207.847 149.89C207.422 149.634 206.927 149.506 206.361 149.506C205.756 149.506 205.225 149.653 204.768 149.947C204.311 150.236 203.954 150.617 203.698 151.091C203.448 151.559 203.32 152.073 203.314 152.634V154.374C203.314 155.104 203.448 155.73 203.714 156.252C203.981 156.77 204.354 157.167 204.833 157.445C205.312 157.717 205.873 157.853 206.516 157.853C206.946 157.853 207.335 157.793 207.684 157.674C208.032 157.548 208.335 157.366 208.59 157.126C208.846 156.887 209.04 156.59 209.17 156.236L211.931 156.546C211.757 157.276 211.425 157.913 210.935 158.458C210.45 158.997 209.829 159.416 209.072 159.716C208.315 160.01 207.45 160.157 206.475 160.157ZM216.703 147.366L219.235 151.997L221.808 147.366H224.936L221.154 153.639L225.001 159.912H221.889L219.235 155.395L216.605 159.912H213.469L217.291 153.639L213.567 147.366H216.703ZM230.788 160.165C229.993 160.165 229.277 160.023 228.64 159.74C228.008 159.451 227.507 159.027 227.137 158.466C226.772 157.905 226.59 157.213 226.59 156.391C226.59 155.683 226.72 155.098 226.982 154.635C227.243 154.172 227.6 153.802 228.052 153.524C228.504 153.247 229.013 153.037 229.579 152.896C230.151 152.749 230.742 152.642 231.352 152.577C232.087 152.501 232.683 152.433 233.14 152.373C233.598 152.307 233.93 152.209 234.137 152.079C234.349 151.943 234.455 151.733 234.455 151.45V151.401C234.455 150.786 234.273 150.309 233.908 149.972C233.543 149.634 233.018 149.465 232.332 149.465C231.607 149.465 231.033 149.623 230.608 149.939C230.189 150.255 229.906 150.628 229.759 151.058L226.998 150.666C227.216 149.903 227.575 149.266 228.076 148.755C228.577 148.237 229.19 147.851 229.914 147.595C230.638 147.333 231.439 147.203 232.315 147.203C232.92 147.203 233.521 147.274 234.12 147.415C234.719 147.557 235.267 147.791 235.762 148.117C236.258 148.439 236.655 148.877 236.955 149.432C237.259 149.988 237.412 150.682 237.412 151.515V159.912H234.57V158.188H234.472C234.292 158.537 234.039 158.863 233.712 159.168C233.391 159.468 232.985 159.71 232.495 159.895C232.01 160.075 231.441 160.165 230.788 160.165ZM231.556 157.992C232.149 157.992 232.664 157.875 233.099 157.641C233.535 157.401 233.87 157.086 234.104 156.693C234.344 156.301 234.463 155.874 234.463 155.411V153.933C234.371 154.009 234.213 154.08 233.99 154.145C233.772 154.211 233.527 154.268 233.255 154.317C232.982 154.366 232.713 154.409 232.446 154.447C232.179 154.486 231.948 154.518 231.752 154.545C231.311 154.605 230.916 154.703 230.567 154.839C230.219 154.976 229.944 155.166 229.742 155.411C229.541 155.651 229.44 155.961 229.44 156.342C229.44 156.887 229.639 157.298 230.037 157.576C230.434 157.853 230.94 157.992 231.556 157.992ZM240.385 159.912V147.366H243.211V149.498H243.358C243.619 148.779 244.052 148.218 244.657 147.815C245.261 147.407 245.982 147.203 246.821 147.203C247.67 147.203 248.386 147.41 248.969 147.823C249.557 148.232 249.971 148.79 250.211 149.498H250.341C250.619 148.801 251.087 148.245 251.746 147.832C252.41 147.412 253.197 147.203 254.106 147.203C255.261 147.203 256.203 147.568 256.932 148.297C257.662 149.027 258.027 150.091 258.027 151.491V159.912H255.062V151.948C255.062 151.169 254.855 150.6 254.441 150.241C254.028 149.876 253.521 149.694 252.922 149.694C252.209 149.694 251.651 149.917 251.248 150.364C250.85 150.805 250.652 151.379 250.652 152.087V159.912H247.752V151.826C247.752 151.178 247.556 150.66 247.164 150.274C246.777 149.887 246.271 149.694 245.645 149.694C245.22 149.694 244.834 149.803 244.485 150.021C244.137 150.233 243.859 150.535 243.652 150.927C243.445 151.314 243.342 151.766 243.342 152.283V159.912H240.385ZM266.58 160.157C265.323 160.157 264.236 159.895 263.322 159.372C262.412 158.844 261.713 158.098 261.223 157.135C260.732 156.165 260.487 155.025 260.487 153.712C260.487 152.422 260.732 151.289 261.223 150.315C261.718 149.334 262.41 148.572 263.297 148.028C264.185 147.478 265.227 147.203 266.425 147.203C267.198 147.203 267.928 147.328 268.614 147.578C269.306 147.823 269.916 148.205 270.444 148.722C270.977 149.239 271.397 149.898 271.702 150.698C272.006 151.493 272.159 152.441 272.159 153.541V154.447H261.876V152.454H269.325C269.319 151.888 269.197 151.385 268.957 150.943C268.718 150.497 268.383 150.146 267.953 149.89C267.528 149.634 267.032 149.506 266.466 149.506C265.862 149.506 265.331 149.653 264.873 149.947C264.416 150.236 264.059 150.617 263.803 151.091C263.553 151.559 263.425 152.073 263.42 152.634V154.374C263.42 155.104 263.553 155.73 263.82 156.252C264.087 156.77 264.46 157.167 264.939 157.445C265.418 157.717 265.979 157.853 266.621 157.853C267.051 157.853 267.441 157.793 267.789 157.674C268.138 157.548 268.44 157.366 268.696 157.126C268.952 156.887 269.145 156.59 269.276 156.236L272.036 156.546C271.862 157.276 271.53 157.913 271.04 158.458C270.555 158.997 269.935 159.416 269.178 159.716C268.421 160.01 267.555 160.157 266.58 160.157ZM277.617 152.561V159.912H274.66V147.366H277.486V149.498H277.633C277.922 148.795 278.382 148.237 279.014 147.823C279.651 147.41 280.438 147.203 281.374 147.203C282.24 147.203 282.994 147.388 283.636 147.758C284.284 148.128 284.785 148.665 285.139 149.367C285.499 150.07 285.676 150.922 285.67 151.924V159.912H282.714V152.381C282.714 151.542 282.496 150.886 282.06 150.413C281.63 149.939 281.034 149.702 280.271 149.702C279.754 149.702 279.294 149.816 278.891 150.045C278.494 150.268 278.181 150.592 277.952 151.017C277.729 151.442 277.617 151.956 277.617 152.561ZM123.325 188.132C122.339 188.132 121.457 187.879 120.678 187.372C119.9 186.866 119.284 186.131 118.832 185.167C118.38 184.203 118.155 183.033 118.155 181.655C118.155 180.261 118.383 179.085 118.841 178.127C119.303 177.163 119.927 176.436 120.711 175.946C121.495 175.45 122.369 175.203 123.333 175.203C124.068 175.203 124.672 175.328 125.146 175.578C125.62 175.823 125.995 176.12 126.273 176.469C126.551 176.812 126.766 177.136 126.918 177.441H127.041V171.184H130.006V187.912H127.098V185.935H126.918C126.766 186.24 126.545 186.564 126.257 186.907C125.968 187.245 125.587 187.533 125.113 187.773C124.64 188.012 124.043 188.132 123.325 188.132ZM124.15 185.706C124.776 185.706 125.309 185.537 125.75 185.2C126.191 184.857 126.526 184.38 126.755 183.771C126.984 183.161 127.098 182.45 127.098 181.639C127.098 180.827 126.984 180.122 126.755 179.523C126.532 178.924 126.2 178.459 125.759 178.127C125.323 177.795 124.787 177.629 124.15 177.629C123.491 177.629 122.941 177.8 122.5 178.143C122.059 178.486 121.726 178.96 121.503 179.564C121.28 180.169 121.168 180.86 121.168 181.639C121.168 182.423 121.28 183.123 121.503 183.738C121.732 184.348 122.067 184.83 122.508 185.184C122.954 185.532 123.502 185.706 124.15 185.706ZM133.156 187.912V175.366H136.113V187.912H133.156ZM134.643 173.586C134.175 173.586 133.772 173.43 133.434 173.12C133.096 172.804 132.928 172.426 132.928 171.985C132.928 171.538 133.096 171.16 133.434 170.849C133.772 170.534 134.175 170.376 134.643 170.376C135.117 170.376 135.52 170.534 135.852 170.849C136.189 171.16 136.358 171.538 136.358 171.985C136.358 172.426 136.189 172.804 135.852 173.12C135.52 173.43 135.117 173.586 134.643 173.586ZM142.764 188.165C141.969 188.165 141.253 188.023 140.615 187.74C139.984 187.451 139.483 187.027 139.113 186.466C138.748 185.905 138.565 185.213 138.565 184.391C138.565 183.683 138.696 183.098 138.957 182.635C139.219 182.172 139.575 181.802 140.027 181.524C140.479 181.247 140.988 181.037 141.555 180.896C142.126 180.749 142.717 180.642 143.327 180.577C144.062 180.501 144.658 180.433 145.116 180.373C145.573 180.307 145.905 180.209 146.112 180.079C146.325 179.943 146.431 179.733 146.431 179.45V179.401C146.431 178.786 146.248 178.309 145.884 177.972C145.519 177.634 144.993 177.465 144.307 177.465C143.583 177.465 143.009 177.623 142.584 177.939C142.165 178.255 141.881 178.628 141.734 179.058L138.974 178.666C139.192 177.903 139.551 177.266 140.052 176.755C140.553 176.237 141.165 175.851 141.89 175.595C142.614 175.333 143.414 175.203 144.291 175.203C144.895 175.203 145.497 175.274 146.096 175.415C146.695 175.557 147.242 175.791 147.738 176.117C148.233 176.439 148.631 176.877 148.93 177.432C149.235 177.988 149.387 178.682 149.387 179.515V187.912H146.545V186.188H146.447C146.267 186.537 146.014 186.863 145.688 187.168C145.366 187.468 144.961 187.71 144.471 187.895C143.986 188.075 143.417 188.165 142.764 188.165ZM143.531 185.992C144.125 185.992 144.639 185.875 145.075 185.641C145.511 185.401 145.845 185.086 146.08 184.693C146.319 184.301 146.439 183.874 146.439 183.411V181.933C146.346 182.009 146.188 182.08 145.965 182.145C145.747 182.211 145.502 182.268 145.23 182.317C144.958 182.366 144.688 182.409 144.422 182.447C144.155 182.486 143.923 182.518 143.727 182.545C143.286 182.605 142.891 182.703 142.543 182.839C142.195 182.976 141.92 183.166 141.718 183.411C141.517 183.651 141.416 183.961 141.416 184.342C141.416 184.887 141.615 185.298 142.012 185.576C142.41 185.853 142.916 185.992 143.531 185.992ZM157.816 192.877C156.755 192.877 155.843 192.733 155.08 192.445C154.318 192.161 153.705 191.78 153.243 191.301C152.78 190.822 152.458 190.291 152.279 189.708L154.941 189.063C155.061 189.308 155.235 189.55 155.464 189.79C155.693 190.035 156.001 190.237 156.387 190.394C156.779 190.558 157.272 190.64 157.865 190.64C158.704 190.64 159.398 190.435 159.948 190.027C160.498 189.624 160.773 188.96 160.773 188.034V185.657H160.626C160.474 185.962 160.25 186.275 159.956 186.597C159.668 186.918 159.284 187.187 158.805 187.405C158.331 187.623 157.735 187.732 157.016 187.732C156.052 187.732 155.178 187.506 154.394 187.054C153.616 186.597 152.995 185.916 152.532 185.012C152.075 184.103 151.846 182.965 151.846 181.598C151.846 180.22 152.075 179.058 152.532 178.11C152.995 177.158 153.618 176.436 154.402 175.946C155.186 175.45 156.06 175.203 157.024 175.203C157.759 175.203 158.364 175.328 158.837 175.578C159.317 175.823 159.698 176.12 159.981 176.469C160.264 176.812 160.479 177.136 160.626 177.441H160.789V175.366H163.705V188.116C163.705 189.188 163.449 190.076 162.938 190.778C162.426 191.481 161.726 192.006 160.838 192.355C159.951 192.703 158.944 192.877 157.816 192.877ZM157.841 185.412C158.467 185.412 159.001 185.26 159.442 184.955C159.883 184.65 160.218 184.212 160.446 183.64C160.675 183.068 160.789 182.382 160.789 181.582C160.789 180.792 160.675 180.101 160.446 179.507C160.223 178.914 159.891 178.453 159.45 178.127C159.014 177.795 158.478 177.629 157.841 177.629C157.182 177.629 156.632 177.8 156.191 178.143C155.75 178.486 155.418 178.957 155.195 179.556C154.971 180.15 154.86 180.825 154.86 181.582C154.86 182.349 154.971 183.022 155.195 183.599C155.423 184.171 155.758 184.617 156.199 184.939C156.646 185.254 157.193 185.412 157.841 185.412ZM169.692 180.561V187.912H166.735V175.366H169.561V177.498H169.708C169.997 176.795 170.457 176.237 171.089 175.823C171.726 175.41 172.513 175.203 173.449 175.203C174.315 175.203 175.069 175.388 175.712 175.758C176.36 176.128 176.861 176.665 177.215 177.367C177.574 178.07 177.751 178.922 177.745 179.924V187.912H174.789V180.381C174.789 179.542 174.571 178.886 174.135 178.413C173.705 177.939 173.109 177.702 172.347 177.702C171.829 177.702 171.369 177.816 170.966 178.045C170.569 178.268 170.256 178.592 170.027 179.017C169.804 179.442 169.692 179.956 169.692 180.561ZM186.223 188.157C184.998 188.157 183.936 187.887 183.038 187.348C182.14 186.809 181.443 186.055 180.947 185.086C180.457 184.116 180.212 182.984 180.212 181.688C180.212 180.392 180.457 179.257 180.947 178.282C181.443 177.307 182.14 176.55 183.038 176.011C183.936 175.472 184.998 175.203 186.223 175.203C187.449 175.203 188.51 175.472 189.409 176.011C190.307 176.55 191.001 177.307 191.492 178.282C191.987 179.257 192.235 180.392 192.235 181.688C192.235 182.984 191.987 184.116 191.492 185.086C191.001 186.055 190.307 186.809 189.409 187.348C188.51 187.887 187.449 188.157 186.223 188.157ZM186.24 185.788C186.904 185.788 187.459 185.606 187.906 185.241C188.352 184.87 188.685 184.375 188.902 183.754C189.126 183.133 189.237 182.442 189.237 181.68C189.237 180.912 189.126 180.218 188.902 179.597C188.685 178.971 188.352 178.472 187.906 178.102C187.459 177.732 186.904 177.547 186.24 177.547C185.559 177.547 184.993 177.732 184.541 178.102C184.094 178.472 183.76 178.971 183.536 179.597C183.318 180.218 183.21 180.912 183.21 181.68C183.21 182.442 183.318 183.133 183.536 183.754C183.76 184.375 184.094 184.87 184.541 185.241C184.993 185.606 185.559 185.788 186.24 185.788ZM185.088 173.716L186.918 169.984H189.809L187.302 173.716H185.088ZM204.66 178.682L201.964 178.976C201.888 178.704 201.755 178.448 201.564 178.208C201.379 177.969 201.129 177.776 200.813 177.629C200.497 177.481 200.11 177.408 199.653 177.408C199.038 177.408 198.52 177.541 198.101 177.808C197.687 178.075 197.483 178.421 197.489 178.845C197.483 179.21 197.617 179.507 197.889 179.736C198.167 179.964 198.624 180.152 199.261 180.299L201.401 180.757C202.588 181.013 203.47 181.418 204.047 181.974C204.63 182.529 204.924 183.256 204.929 184.154C204.924 184.944 204.692 185.641 204.235 186.245C203.783 186.844 203.154 187.313 202.348 187.65C201.542 187.988 200.617 188.157 199.571 188.157C198.036 188.157 196.8 187.835 195.863 187.193C194.927 186.545 194.369 185.644 194.189 184.489L197.072 184.212C197.203 184.778 197.48 185.205 197.905 185.494C198.33 185.783 198.883 185.927 199.563 185.927C200.266 185.927 200.829 185.783 201.254 185.494C201.684 185.205 201.899 184.849 201.899 184.424C201.899 184.065 201.76 183.768 201.483 183.534C201.21 183.3 200.786 183.12 200.208 182.995L198.068 182.545C196.865 182.295 195.975 181.873 195.398 181.279C194.821 180.68 194.535 179.924 194.54 179.009C194.535 178.236 194.744 177.566 195.169 177C195.599 176.428 196.195 175.987 196.958 175.676C197.725 175.361 198.61 175.203 199.612 175.203C201.082 175.203 202.239 175.516 203.083 176.142C203.933 176.768 204.458 177.615 204.66 178.682ZM213.632 175.366V177.653H206.42V175.366H213.632ZM208.2 172.36H211.157V184.138C211.157 184.536 211.217 184.841 211.337 185.053C211.462 185.26 211.625 185.401 211.827 185.478C212.028 185.554 212.252 185.592 212.497 185.592C212.682 185.592 212.851 185.578 213.003 185.551C213.161 185.524 213.281 185.499 213.362 185.478L213.861 187.789C213.703 187.843 213.477 187.903 213.183 187.969C212.894 188.034 212.54 188.072 212.121 188.083C211.38 188.105 210.713 187.993 210.12 187.748C209.526 187.498 209.055 187.111 208.707 186.588C208.364 186.066 208.195 185.412 208.2 184.628V172.36ZM216.105 187.912V175.366H219.061V187.912H216.105ZM217.591 173.586C217.123 173.586 216.72 173.43 216.382 173.12C216.045 172.804 215.876 172.426 215.876 171.985C215.876 171.538 216.045 171.16 216.382 170.849C216.72 170.534 217.123 170.376 217.591 170.376C218.065 170.376 218.468 170.534 218.8 170.849C219.138 171.16 219.306 171.538 219.306 171.985C219.306 172.426 219.138 172.804 218.8 173.12C218.468 173.43 218.065 173.586 217.591 173.586ZM227.574 188.157C226.322 188.157 225.246 187.882 224.348 187.332C223.455 186.782 222.766 186.022 222.281 185.053C221.802 184.078 221.563 182.957 221.563 181.688C221.563 180.414 221.808 179.289 222.298 178.315C222.788 177.334 223.479 176.572 224.372 176.028C225.271 175.478 226.333 175.203 227.558 175.203C228.576 175.203 229.477 175.391 230.261 175.766C231.051 176.137 231.68 176.662 232.148 177.343C232.616 178.018 232.883 178.807 232.948 179.711H230.122C230.008 179.107 229.736 178.603 229.306 178.2C228.881 177.792 228.312 177.588 227.598 177.588C226.994 177.588 226.463 177.751 226.006 178.078C225.548 178.399 225.192 178.862 224.936 179.466C224.685 180.071 224.56 180.795 224.56 181.639C224.56 182.494 224.685 183.229 224.936 183.844C225.186 184.454 225.538 184.925 225.989 185.257C226.447 185.584 226.983 185.747 227.598 185.747C228.034 185.747 228.423 185.665 228.766 185.502C229.115 185.333 229.406 185.091 229.64 184.775C229.875 184.459 230.035 184.075 230.122 183.624H232.948C232.878 184.511 232.616 185.298 232.164 185.984C231.712 186.665 231.097 187.198 230.318 187.585C229.54 187.966 228.625 188.157 227.574 188.157ZM240.848 188.157C239.623 188.157 238.561 187.887 237.663 187.348C236.765 186.809 236.068 186.055 235.572 185.086C235.082 184.116 234.837 182.984 234.837 181.688C234.837 180.392 235.082 179.257 235.572 178.282C236.068 177.307 236.765 176.55 237.663 176.011C238.561 175.472 239.623 175.203 240.848 175.203C242.074 175.203 243.135 175.472 244.034 176.011C244.932 176.55 245.626 177.307 246.117 178.282C246.612 179.257 246.86 180.392 246.86 181.688C246.86 182.984 246.612 184.116 246.117 185.086C245.626 186.055 244.932 186.809 244.034 187.348C243.135 187.887 242.074 188.157 240.848 188.157ZM240.865 185.788C241.529 185.788 242.084 185.606 242.531 185.241C242.977 184.87 243.31 184.375 243.527 183.754C243.751 183.133 243.862 182.442 243.862 181.68C243.862 180.912 243.751 180.218 243.527 179.597C243.31 178.971 242.977 178.472 242.531 178.102C242.084 177.732 241.529 177.547 240.865 177.547C240.184 177.547 239.618 177.732 239.166 178.102C238.719 178.472 238.385 178.971 238.161 179.597C237.943 180.218 237.835 180.912 237.835 181.68C237.835 182.442 237.943 183.133 238.161 183.754C238.385 184.375 238.719 184.87 239.166 185.241C239.618 185.606 240.184 185.788 240.865 185.788Z" fill="black"/>
<path d="M166.89 201.343C161.987 201.343 158 205.172 158 209.882V261.115C158 265.825 161.987 269.654 166.89 269.654H202.452C207.356 269.654 211.343 265.825 211.343 261.115V258.54C210.968 258.687 210.592 258.807 210.204 258.901L201.855 260.902C201.438 260.995 201.021 261.062 200.605 261.089C200.48 261.102 200.355 261.115 200.23 261.115H191.339C190.492 261.115 189.728 260.662 189.353 259.941L188.13 257.58C187.894 257.126 187.422 256.846 186.908 256.846C186.394 256.846 185.908 257.126 185.685 257.58L184.463 259.941C184.06 260.728 183.185 261.195 182.282 261.115C181.379 261.035 180.601 260.435 180.351 259.608L178.003 252.176L176.642 256.552C175.795 259.261 173.197 261.115 170.252 261.115H169.113C167.891 261.115 166.89 260.155 166.89 258.981C166.89 257.806 167.891 256.846 169.113 256.846H170.252C171.238 256.846 172.1 256.232 172.377 255.325L174.447 248.721C174.92 247.213 176.364 246.172 178.003 246.172C179.643 246.172 181.087 247.213 181.56 248.721L183.171 253.871C184.199 253.043 185.505 252.576 186.894 252.576C189.103 252.576 191.117 253.777 192.103 255.672L192.714 256.846H193.951C193.52 255.672 193.437 254.391 193.756 253.137L195.84 245.118C196.229 243.611 197.035 242.25 198.174 241.156L211.343 228.507V222.69H193.562C191.103 222.69 189.117 220.782 189.117 218.421V201.343H166.89ZM193.562 201.343V218.421H211.343L193.562 201.343ZM234.374 219.982C232.207 217.901 228.693 217.901 226.512 219.982L222.428 223.904L232.291 233.377L236.375 229.455C238.542 227.373 238.542 223.998 236.375 221.903L234.374 219.982ZM201.327 244.171C200.757 244.718 200.355 245.398 200.16 246.159L198.076 254.177C197.882 254.911 198.104 255.672 198.66 256.205C199.215 256.739 200.007 256.953 200.771 256.766L209.12 254.764C209.898 254.578 210.62 254.191 211.19 253.644L229.137 236.393L219.275 226.92L201.327 244.171Z" fill="black"/>
<defs>
<filter id="filter0_d_3_43" x="0" y="0" width="363" height="289" filterUnits="userSpaceOnUse" color-interpolation-filters="sRGB">
<feFlood flood-opacity="0" result="BackgroundImageFix"/>
<feColorMatrix in="SourceAlpha" type="matrix" values="0 0 0 0 0 0 0 0 0 0 0 0 0 0 0 0 0 0 127 0" result="hardAlpha"/>
<feOffset dy="4"/>
<feGaussianBlur stdDeviation="2"/>
<feComposite in2="hardAlpha" operator="out"/>
<feColorMatrix type="matrix" values="0 0 0 0 0 0 0 0 0 0 0 0 0 0 0 0 0 0 0.25 0"/>
<feBlend mode="normal" in2="BackgroundImageFix" result="effect1_dropShadow_3_43"/>
<feBlend mode="normal" in="SourceGraphic" in2="effect1_dropShadow_3_43" result="shape"/>
</filter>
<filter id="filter1_d_3_43" x="131" y="32" width="102" height="100.418" filterUnits="userSpaceOnUse" color-interpolation-filters="sRGB">
<feFlood flood-opacity="0" result="BackgroundImageFix"/>
<feColorMatrix in="SourceAlpha" type="matrix" values="0 0 0 0 0 0 0 0 0 0 0 0 0 0 0 0 0 0 127 0" result="hardAlpha"/>
<feOffset dy="4"/>
<feGaussianBlur stdDeviation="2"/>
<feComposite in2="hardAlpha" operator="out"/>
<feColorMatrix type="matrix" values="0 0 0 0 0 0 0 0 0 0 0 0 0 0 0 0 0 0 0.25 0"/>
<feBlend mode="normal" in2="BackgroundImageFix" result="effect1_dropShadow_3_43"/>
<feBlend mode="normal" in="SourceGraphic" in2="effect1_dropShadow_3_43" result="shape"/>
</filter>
<linearGradient id="paint0_linear_3_43" x1="181.5" y1="0" x2="181.5" y2="281" gradientUnits="userSpaceOnUse">
<stop stop-color="#007C7C"/>
<stop offset="0.313815" stop-color="#339292" stop-opacity="0.763678"/>
<stop offset="1" stop-color="#D9D9D9" stop-opacity="0"/>
</linearGradient>
<linearGradient id="paint1_linear_3_43" x1="182" y1="39" x2="182" y2="117.418" gradientUnits="userSpaceOnUse">
<stop offset="0.1875" stop-color="#FEFEFE"/>
<stop offset="0.677083" stop-color="#FEFEFE" stop-opacity="0.570513"/>
<stop offset="1" stop-color="#FEFEFE" stop-opacity="0"/>
</linearGradient>
</defs>
</svg>
