<svg width="363" height="302" viewBox="0 0 363 302" fill="none" xmlns="http://www.w3.org/2000/svg">
<g filter="url(#filter0_d_4_32)">
<rect x="4" width="355" height="294" rx="18" fill="url(#paint0_linear_4_32)" shape-rendering="crispEdges"/>
</g>
<path d="M165.574 180.248C167.384 180.248 169.12 179.497 170.4 178.161C171.68 176.825 172.399 175.013 172.399 173.124C172.399 171.235 171.68 169.423 170.4 168.087C169.12 166.751 167.384 166 165.574 166C163.764 166 162.027 166.751 160.747 168.087C159.467 169.423 158.748 171.235 158.748 173.124C158.748 175.013 159.467 176.825 160.747 178.161C162.027 179.497 163.764 180.248 165.574 180.248ZM153.586 195.757C153.729 195.698 153.857 195.639 153.999 195.579L151.596 205.004C150.799 208.135 151.581 211.475 153.686 213.864L163.739 225.307L166.868 238.382C167.479 240.92 169.953 242.479 172.385 241.84C174.817 241.202 176.31 238.62 175.698 236.082L172.428 222.413C172.158 221.255 171.603 220.201 170.835 219.326L163.796 211.311L166.541 201.59L167.906 205.004C168.531 206.577 169.683 207.868 171.148 208.64L174.945 210.614C177.191 211.786 179.922 210.836 181.045 208.491C182.168 206.146 181.258 203.297 179.012 202.124L175.954 200.536L173.779 195.075C171.333 188.975 165.616 184.997 159.274 184.997C156.032 184.997 152.833 185.71 149.875 187.075L148.737 187.594C144.059 189.761 140.476 193.887 138.869 198.948L138.499 200.106C137.703 202.599 138.997 205.286 141.372 206.117C143.746 206.948 146.334 205.597 147.131 203.119L147.5 201.961C148.311 199.423 150.103 197.375 152.435 196.292L153.572 195.772L153.586 195.757ZM149.32 215.808L145.765 225.069L137.333 233.885C135.556 235.741 135.556 238.753 137.333 240.609C139.111 242.464 141.997 242.464 143.775 240.609L152.534 231.451C153.188 230.769 153.7 229.952 154.041 229.062L156.103 223.689L150.316 217.1C149.96 216.699 149.633 216.268 149.32 215.823V215.808ZM214.291 188.767C212.514 186.912 209.627 186.912 207.849 188.767C206.072 190.622 206.072 193.635 207.849 195.49L211.461 199.245H190.601C188.084 199.245 186.05 201.367 186.05 203.994C186.05 206.621 188.084 208.744 190.601 208.744H211.461L207.849 212.513C206.072 214.369 206.072 217.382 207.849 219.237C209.627 221.092 212.514 221.092 214.291 219.237L225.667 207.363C227.444 205.508 227.444 202.495 225.667 200.64L214.291 188.767ZM191.738 166C189.847 166 188.326 167.588 188.326 169.562V176.686C188.326 178.66 189.847 180.248 191.738 180.248C193.63 180.248 195.151 178.66 195.151 176.686V169.562C195.151 167.588 193.63 166 191.738 166ZM195.151 188.559C195.151 186.585 193.63 184.997 191.738 184.997C189.847 184.997 188.326 186.585 188.326 188.559V190.934C188.326 192.908 189.847 194.496 191.738 194.496C193.63 194.496 195.151 192.908 195.151 190.934V188.559ZM191.738 213.493C189.847 213.493 188.326 215.081 188.326 217.055V219.43C188.326 221.404 189.847 222.992 191.738 222.992C193.63 222.992 195.151 221.404 195.151 219.43V217.055C195.151 215.081 193.63 213.493 191.738 213.493ZM195.151 231.303C195.151 229.329 193.63 227.741 191.738 227.741C189.847 227.741 188.326 229.329 188.326 231.303V238.427C188.326 240.401 189.847 241.989 191.738 241.989C193.63 241.989 195.151 240.401 195.151 238.427V231.303Z" fill="black"/>
<g filter="url(#filter1_d_4_32)">
<path d="M101.797 42.4531C101.73 41.8329 101.451 41.3499 100.958 41.0043C100.471 40.6586 99.8363 40.4858 99.055 40.4858C98.5058 40.4858 98.0347 40.5687 97.6417 40.7344C97.2487 40.9001 96.948 41.125 96.7397 41.4091C96.5314 41.6932 96.4248 42.0175 96.4201 42.3821C96.4201 42.6851 96.4888 42.9479 96.6261 43.1705C96.7681 43.393 96.9599 43.5824 97.2013 43.7386C97.4428 43.8902 97.7103 44.018 98.0039 44.1222C98.2975 44.2263 98.5934 44.3139 98.8917 44.3849L100.255 44.7259C100.805 44.8537 101.333 45.0265 101.839 45.2443C102.35 45.4621 102.807 45.7367 103.21 46.0682C103.617 46.3996 103.939 46.7997 104.176 47.2685C104.413 47.7372 104.531 48.2865 104.531 48.9162C104.531 49.7685 104.313 50.5189 103.877 51.1676C103.442 51.8116 102.812 52.3158 101.988 52.6804C101.169 53.0402 100.177 53.2202 99.0124 53.2202C97.8808 53.2202 96.8983 53.045 96.065 52.6946C95.2364 52.3442 94.5877 51.8329 94.119 51.1605C93.6549 50.4882 93.404 49.669 93.3661 48.7031H95.9585C95.9963 49.2098 96.1526 49.6312 96.4272 49.9673C96.7018 50.3035 97.0593 50.5545 97.4996 50.7202C97.9447 50.8859 98.4419 50.9688 98.9911 50.9688C99.564 50.9688 100.066 50.8835 100.497 50.7131C100.932 50.5379 101.273 50.2964 101.52 49.9886C101.766 49.6761 101.891 49.3116 101.896 48.8949C101.891 48.5161 101.78 48.2036 101.562 47.9574C101.344 47.7064 101.039 47.4981 100.646 47.3324C100.258 47.1619 99.8031 47.0104 99.2823 46.8778L97.6275 46.4517C96.4296 46.1439 95.4826 45.6776 94.7866 45.0526C94.0953 44.4228 93.7496 43.5871 93.7496 42.5455C93.7496 41.6884 93.9817 40.938 94.4457 40.294C94.9144 39.6501 95.5513 39.1506 96.3562 38.7955C97.1611 38.4356 98.0726 38.2557 99.0906 38.2557C100.123 38.2557 101.027 38.4356 101.804 38.7955C102.585 39.1506 103.198 39.6454 103.643 40.2798C104.088 40.9096 104.318 41.634 104.332 42.4531H101.797ZM106.766 53V42.0909H109.337V53H106.766ZM108.059 40.5426C107.652 40.5426 107.301 40.4077 107.008 40.1378C106.714 39.8632 106.567 39.5341 106.567 39.1506C106.567 38.7623 106.714 38.4332 107.008 38.1634C107.301 37.8887 107.652 37.7514 108.059 37.7514C108.471 37.7514 108.821 37.8887 109.11 38.1634C109.404 38.4332 109.55 38.7623 109.55 39.1506C109.55 39.5341 109.404 39.8632 109.11 40.1378C108.821 40.4077 108.471 40.5426 108.059 40.5426ZM116.725 57.3182C115.802 57.3182 115.009 57.1927 114.346 56.9418C113.683 56.6955 113.151 56.3641 112.748 55.9474C112.346 55.5308 112.066 55.0691 111.91 54.5625L114.225 54.0014C114.33 54.2145 114.481 54.4252 114.68 54.6335C114.879 54.8466 115.146 55.0218 115.483 55.1591C115.824 55.3011 116.252 55.3722 116.768 55.3722C117.497 55.3722 118.101 55.1946 118.579 54.8395C119.057 54.4891 119.297 53.9115 119.297 53.1065V51.0398H119.169C119.036 51.3049 118.842 51.5772 118.586 51.8565C118.335 52.1359 118.002 52.3703 117.585 52.5597C117.173 52.7491 116.654 52.8438 116.029 52.8438C115.191 52.8438 114.431 52.6473 113.75 52.2543C113.073 51.8565 112.533 51.2647 112.13 50.4787C111.733 49.688 111.534 48.6984 111.534 47.5099C111.534 46.312 111.733 45.3011 112.13 44.4773C112.533 43.6487 113.075 43.0213 113.757 42.5952C114.439 42.1643 115.199 41.9489 116.037 41.9489C116.676 41.9489 117.201 42.0578 117.613 42.2756C118.03 42.4886 118.361 42.7467 118.608 43.0497C118.854 43.348 119.041 43.6297 119.169 43.8949H119.311V42.0909H121.846V53.1776C121.846 54.1103 121.624 54.8821 121.179 55.4929C120.734 56.1037 120.125 56.5606 119.353 56.8636C118.582 57.1667 117.706 57.3182 116.725 57.3182ZM116.747 50.8267C117.291 50.8267 117.755 50.6941 118.139 50.429C118.522 50.1638 118.814 49.7827 119.012 49.2855C119.211 48.7884 119.311 48.1918 119.311 47.4957C119.311 46.8092 119.211 46.2079 119.012 45.6918C118.818 45.1757 118.529 44.7756 118.146 44.4915C117.767 44.2027 117.301 44.0582 116.747 44.0582C116.174 44.0582 115.696 44.2074 115.312 44.5057C114.929 44.804 114.64 45.2135 114.446 45.7344C114.252 46.2505 114.154 46.8376 114.154 47.4957C114.154 48.1634 114.252 48.7481 114.446 49.25C114.645 49.7472 114.936 50.1354 115.319 50.4148C115.708 50.6894 116.183 50.8267 116.747 50.8267ZM131.434 48.4119V42.0909H134.005V53H131.512V51.0611H131.399C131.153 51.6719 130.748 52.1714 130.184 52.5597C129.626 52.9479 128.937 53.142 128.118 53.142C127.403 53.142 126.77 52.9834 126.221 52.6662C125.677 52.3442 125.251 51.8778 124.943 51.267C124.635 50.6515 124.481 49.9081 124.481 49.0369V42.0909H127.052V48.6392C127.052 49.3305 127.242 49.8797 127.62 50.2869C127.999 50.6941 128.496 50.8977 129.112 50.8977C129.491 50.8977 129.858 50.8054 130.213 50.6207C130.568 50.4361 130.859 50.1615 131.086 49.7969C131.318 49.4276 131.434 48.9659 131.434 48.4119ZM141.479 53.2131C140.385 53.2131 139.44 52.9858 138.645 52.5312C137.854 52.072 137.246 51.4233 136.82 50.5852C136.393 49.7424 136.18 48.7505 136.18 47.6094C136.18 46.4872 136.393 45.5024 136.82 44.6548C137.25 43.8026 137.852 43.1397 138.624 42.6662C139.395 42.188 140.302 41.9489 141.344 41.9489C142.016 41.9489 142.651 42.0578 143.247 42.2756C143.848 42.4886 144.379 42.8201 144.838 43.2699C145.302 43.7197 145.667 44.2926 145.932 44.9886C146.197 45.6799 146.33 46.5038 146.33 47.4602V48.2486H137.388V46.5156H143.865C143.86 46.0232 143.754 45.5852 143.545 45.2017C143.337 44.8134 143.046 44.508 142.672 44.2855C142.303 44.063 141.872 43.9517 141.379 43.9517C140.854 43.9517 140.392 44.0795 139.994 44.3352C139.597 44.5862 139.286 44.9176 139.064 45.3295C138.846 45.7367 138.735 46.1842 138.73 46.6719V48.1847C138.73 48.8191 138.846 49.3636 139.078 49.8182C139.31 50.268 139.634 50.6136 140.051 50.8551C140.468 51.0919 140.955 51.2102 141.514 51.2102C141.888 51.2102 142.227 51.1581 142.53 51.054C142.833 50.9451 143.096 50.7865 143.318 50.5781C143.541 50.3698 143.709 50.1117 143.822 49.804L146.223 50.0739C146.071 50.7083 145.783 51.2623 145.357 51.7358C144.935 52.2045 144.395 52.5691 143.737 52.8295C143.079 53.0852 142.326 53.2131 141.479 53.2131ZM158.991 42.0909V44.0795H152.542V42.0909H158.991ZM154.154 53V41.0611C154.154 40.3272 154.306 39.7164 154.609 39.2287C154.917 38.741 155.329 38.3764 155.845 38.1349C156.361 37.8935 156.934 37.7727 157.564 37.7727C158.009 37.7727 158.404 37.8082 158.75 37.8793C159.095 37.9503 159.351 38.0142 159.517 38.071L159.005 40.0597C158.896 40.0265 158.759 39.9934 158.593 39.9602C158.428 39.9223 158.243 39.9034 158.039 39.9034C157.561 39.9034 157.223 40.0194 157.024 40.2514C156.83 40.4787 156.733 40.8054 156.733 41.2315V53H154.154ZM165.353 53.2131C164.288 53.2131 163.364 52.9787 162.583 52.5099C161.802 52.0412 161.196 51.3854 160.765 50.5426C160.339 49.6998 160.126 48.715 160.126 47.5881C160.126 46.4612 160.339 45.474 160.765 44.6264C161.196 43.7789 161.802 43.1207 162.583 42.652C163.364 42.1832 164.288 41.9489 165.353 41.9489C166.418 41.9489 167.342 42.1832 168.123 42.652C168.904 43.1207 169.508 43.7789 169.934 44.6264C170.365 45.474 170.58 46.4612 170.58 47.5881C170.58 48.715 170.365 49.6998 169.934 50.5426C169.508 51.3854 168.904 52.0412 168.123 52.5099C167.342 52.9787 166.418 53.2131 165.353 53.2131ZM165.367 51.1534C165.945 51.1534 166.428 50.9948 166.816 50.6776C167.204 50.3556 167.493 49.9247 167.683 49.3849C167.877 48.8452 167.974 48.2438 167.974 47.581C167.974 46.9134 167.877 46.3097 167.683 45.7699C167.493 45.2254 167.204 44.7921 166.816 44.4702C166.428 44.1482 165.945 43.9872 165.367 43.9872C164.775 43.9872 164.283 44.1482 163.89 44.4702C163.502 44.7921 163.21 45.2254 163.016 45.7699C162.827 46.3097 162.732 46.9134 162.732 47.581C162.732 48.2438 162.827 48.8452 163.016 49.3849C163.21 49.9247 163.502 50.3556 163.89 50.6776C164.283 50.9948 164.775 51.1534 165.367 51.1534ZM172.762 53V42.0909H175.255V43.9091H175.369C175.568 43.2794 175.909 42.794 176.392 42.4531C176.879 42.1075 177.436 41.9347 178.061 41.9347C178.203 41.9347 178.361 41.9418 178.537 41.956C178.717 41.9654 178.866 41.982 178.984 42.0057V44.3707C178.875 44.3329 178.702 44.2997 178.466 44.2713C178.234 44.2382 178.009 44.2216 177.791 44.2216C177.322 44.2216 176.901 44.3234 176.527 44.527C176.157 44.7259 175.866 45.0028 175.653 45.358C175.44 45.7131 175.333 46.1226 175.333 46.5866V53H172.762ZM180.692 53V42.0909H183.15V43.9446H183.277C183.505 43.3196 183.881 42.8319 184.407 42.4815C184.932 42.1264 185.56 41.9489 186.289 41.9489C187.027 41.9489 187.65 42.1288 188.157 42.4886C188.668 42.8437 189.028 43.3291 189.236 43.9446H189.35C189.591 43.3385 189.998 42.8556 190.571 42.4957C191.149 42.1312 191.833 41.9489 192.624 41.9489C193.628 41.9489 194.447 42.2661 195.081 42.9006C195.716 43.535 196.033 44.4607 196.033 45.6776V53H193.455V46.0753C193.455 45.3982 193.275 44.9034 192.915 44.5909C192.555 44.2737 192.115 44.1151 191.594 44.1151C190.974 44.1151 190.489 44.3092 190.138 44.6974C189.792 45.081 189.62 45.5805 189.62 46.196V53H187.098V45.9688C187.098 45.4053 186.928 44.9555 186.587 44.6193C186.251 44.2831 185.81 44.1151 185.266 44.1151C184.897 44.1151 184.56 44.2098 184.257 44.3991C183.954 44.5838 183.713 44.8466 183.533 45.1875C183.353 45.5237 183.263 45.9167 183.263 46.3665V53H180.692ZM201.781 53.2202C201.089 53.2202 200.467 53.0971 199.913 52.8509C199.363 52.5999 198.928 52.2306 198.606 51.7429C198.289 51.2552 198.13 50.6539 198.13 49.9389C198.13 49.3234 198.244 48.8144 198.471 48.4119C198.698 48.0095 199.008 47.6875 199.401 47.446C199.794 47.2045 200.237 47.0223 200.729 46.8991C201.227 46.7713 201.74 46.679 202.271 46.6222C202.91 46.5559 203.428 46.4967 203.826 46.4446C204.224 46.3878 204.513 46.3026 204.692 46.1889C204.877 46.0705 204.969 45.8883 204.969 45.642V45.5994C204.969 45.0644 204.811 44.6501 204.494 44.3565C204.176 44.063 203.719 43.9162 203.123 43.9162C202.493 43.9162 201.994 44.0535 201.624 44.3281C201.26 44.6027 201.013 44.9271 200.886 45.3011L198.485 44.9602C198.674 44.2973 198.987 43.7434 199.423 43.2983C199.858 42.8485 200.391 42.5123 201.021 42.2898C201.65 42.0625 202.346 41.9489 203.109 41.9489C203.634 41.9489 204.157 42.0104 204.678 42.1335C205.199 42.2566 205.675 42.4602 206.106 42.7443C206.537 43.0237 206.882 43.4048 207.143 43.8878C207.408 44.3707 207.54 44.9744 207.54 45.6989V53H205.069V51.5014H204.984C204.827 51.8045 204.607 52.0885 204.323 52.3537C204.044 52.6141 203.691 52.8248 203.265 52.9858C202.844 53.142 202.349 53.2202 201.781 53.2202ZM202.448 51.331C202.964 51.331 203.412 51.2292 203.79 51.0256C204.169 50.8172 204.46 50.5426 204.664 50.2017C204.872 49.8608 204.977 49.4891 204.977 49.0866V47.8011C204.896 47.8674 204.759 47.929 204.565 47.9858C204.375 48.0426 204.162 48.0923 203.925 48.1349C203.689 48.1776 203.454 48.2154 203.222 48.2486C202.99 48.2817 202.789 48.3101 202.619 48.3338C202.235 48.3859 201.892 48.4711 201.589 48.5895C201.286 48.7079 201.047 48.8736 200.871 49.0866C200.696 49.295 200.609 49.5649 200.609 49.8963C200.609 50.3698 200.781 50.7273 201.127 50.9688C201.473 51.2102 201.913 51.331 202.448 51.331ZM212.697 46.608V53H210.126V42.0909H212.583V43.9446H212.711C212.962 43.3338 213.362 42.8485 213.911 42.4886C214.465 42.1288 215.149 41.9489 215.964 41.9489C216.717 41.9489 217.372 42.1098 217.931 42.4318C218.495 42.7538 218.93 43.2202 219.238 43.831C219.55 44.4418 219.704 45.1828 219.7 46.054V53H217.129V46.4517C217.129 45.7225 216.939 45.152 216.56 44.7401C216.186 44.3281 215.668 44.1222 215.005 44.1222C214.555 44.1222 214.155 44.2216 213.805 44.4205C213.459 44.6146 213.187 44.8963 212.988 45.2656C212.794 45.6349 212.697 46.0824 212.697 46.608ZM226.362 53.1918C225.504 53.1918 224.737 52.9716 224.06 52.5312C223.383 52.0909 222.848 51.4517 222.455 50.6136C222.062 49.7756 221.866 48.7576 221.866 47.5597C221.866 46.3475 222.065 45.3248 222.462 44.4915C222.865 43.6534 223.407 43.0213 224.089 42.5952C224.771 42.1643 225.531 41.9489 226.369 41.9489C227.008 41.9489 227.533 42.0578 227.945 42.2756C228.357 42.4886 228.684 42.7467 228.925 43.0497C229.167 43.348 229.354 43.6297 229.487 43.8949H229.593V38.4545H232.171V53H229.643V51.2812H229.487C229.354 51.5464 229.162 51.8281 228.911 52.1264C228.66 52.42 228.329 52.6709 227.917 52.8793C227.505 53.0876 226.987 53.1918 226.362 53.1918ZM227.079 51.0824C227.623 51.0824 228.087 50.9356 228.471 50.642C228.854 50.3437 229.146 49.9295 229.344 49.3991C229.543 48.8688 229.643 48.2509 229.643 47.5455C229.643 46.84 229.543 46.2268 229.344 45.706C229.15 45.1851 228.862 44.7803 228.478 44.4915C228.099 44.2027 227.633 44.0582 227.079 44.0582C226.506 44.0582 226.028 44.2074 225.644 44.5057C225.261 44.804 224.972 45.2159 224.778 45.7415C224.584 46.267 224.487 46.8684 224.487 47.5455C224.487 48.2273 224.584 48.8357 224.778 49.3707C224.977 49.901 225.268 50.3201 225.651 50.6278C226.04 50.9309 226.515 51.0824 227.079 51.0824ZM239.669 53.2131C238.604 53.2131 237.681 52.9787 236.9 52.5099C236.118 52.0412 235.512 51.3854 235.081 50.5426C234.655 49.6998 234.442 48.715 234.442 47.5881C234.442 46.4612 234.655 45.474 235.081 44.6264C235.512 43.7789 236.118 43.1207 236.9 42.652C237.681 42.1832 238.604 41.9489 239.669 41.9489C240.735 41.9489 241.658 42.1832 242.439 42.652C243.221 43.1207 243.824 43.7789 244.25 44.6264C244.681 45.474 244.897 46.4612 244.897 47.5881C244.897 48.715 244.681 49.6998 244.25 50.5426C243.824 51.3854 243.221 52.0412 242.439 52.5099C241.658 52.9787 240.735 53.2131 239.669 53.2131ZM239.684 51.1534C240.261 51.1534 240.744 50.9948 241.132 50.6776C241.521 50.3556 241.81 49.9247 241.999 49.3849C242.193 48.8452 242.29 48.2438 242.29 47.581C242.29 46.9134 242.193 46.3097 241.999 45.7699C241.81 45.2254 241.521 44.7921 241.132 44.4702C240.744 44.1482 240.261 43.9872 239.684 43.9872C239.092 43.9872 238.599 44.1482 238.206 44.4702C237.818 44.7921 237.527 45.2254 237.333 45.7699C237.143 46.3097 237.049 46.9134 237.049 47.581C237.049 48.2438 237.143 48.8452 237.333 49.3849C237.527 49.9247 237.818 50.3556 238.206 50.6776C238.599 50.9948 239.092 51.1534 239.684 51.1534ZM252.526 42.0909V44.0795H246.255V42.0909H252.526ZM247.803 39.4773H250.374V49.7188C250.374 50.0644 250.426 50.3295 250.531 50.5142C250.639 50.6941 250.781 50.8172 250.957 50.8835C251.132 50.9498 251.326 50.983 251.539 50.983C251.7 50.983 251.847 50.9711 251.979 50.9474C252.117 50.9238 252.221 50.9025 252.292 50.8835L252.725 52.8935C252.588 52.9408 252.391 52.9929 252.136 53.0497C251.885 53.1065 251.577 53.1397 251.212 53.1491C250.568 53.1681 249.988 53.071 249.472 52.858C248.956 52.6402 248.547 52.304 248.244 51.8494C247.945 51.3949 247.799 50.8267 247.803 50.1449V39.4773ZM259.389 53.2131C258.295 53.2131 257.35 52.9858 256.555 52.5312C255.764 52.072 255.156 51.4233 254.73 50.5852C254.304 49.7424 254.091 48.7505 254.091 47.6094C254.091 46.4872 254.304 45.5024 254.73 44.6548C255.161 43.8026 255.762 43.1397 256.534 42.6662C257.306 42.188 258.212 41.9489 259.254 41.9489C259.926 41.9489 260.561 42.0578 261.157 42.2756C261.759 42.4886 262.289 42.8201 262.748 43.2699C263.212 43.7197 263.577 44.2926 263.842 44.9886C264.107 45.6799 264.24 46.5038 264.24 47.4602V48.2486H255.298V46.5156H261.775C261.77 46.0232 261.664 45.5852 261.456 45.2017C261.247 44.8134 260.956 44.508 260.582 44.2855C260.213 44.063 259.782 43.9517 259.289 43.9517C258.764 43.9517 258.302 44.0795 257.904 44.3352C257.507 44.5862 257.197 44.9176 256.974 45.3295C256.756 45.7367 256.645 46.1842 256.64 46.6719V48.1847C256.64 48.8191 256.756 49.3636 256.988 49.8182C257.22 50.268 257.545 50.6136 257.961 50.8551C258.378 51.0919 258.866 51.2102 259.424 51.2102C259.798 51.2102 260.137 51.1581 260.44 51.054C260.743 50.9451 261.006 50.7865 261.228 50.5781C261.451 50.3698 261.619 50.1117 261.733 49.804L264.133 50.0739C263.982 50.7083 263.693 51.2623 263.267 51.7358C262.845 52.2045 262.306 52.5691 261.647 52.8295C260.989 53.0852 260.236 53.2131 259.389 53.2131ZM269.433 51.0114L269.341 51.7926C269.275 52.3892 269.156 52.9953 268.986 53.6108C268.82 54.2311 268.645 54.8016 268.46 55.3224C268.276 55.8433 268.126 56.2528 268.013 56.5511H266.28C266.346 56.2623 266.436 55.8693 266.55 55.3722C266.668 54.875 266.782 54.3163 266.891 53.696C267 53.0758 267.073 52.446 267.111 51.8068L267.161 51.0114H269.433ZM82.1596 77.2131C81.0706 77.2131 80.1355 76.974 79.3542 76.4957C78.5777 76.0175 77.9788 75.357 77.5574 74.5142C77.1407 73.6667 76.9324 72.6913 76.9324 71.5881C76.9324 70.4801 77.1454 69.5024 77.5716 68.6548C77.9977 67.8026 78.599 67.1397 79.3755 66.6662C80.1568 66.188 81.0801 65.9489 82.1454 65.9489C83.0308 65.9489 83.8145 66.1122 84.4963 66.4389C85.1828 66.7609 85.7297 67.2178 86.1369 67.8097C86.5441 68.3968 86.7761 69.0833 86.8329 69.8693H84.3755C84.2761 69.3437 84.0394 68.9058 83.6653 68.5554C83.296 68.2003 82.8012 68.0227 82.1809 68.0227C81.6554 68.0227 81.1937 68.1648 80.796 68.4489C80.3983 68.7282 80.0881 69.1307 79.8656 69.6562C79.6478 70.1818 79.5389 70.8116 79.5389 71.5455C79.5389 72.2888 79.6478 72.928 79.8656 73.4631C80.0834 73.9934 80.3888 74.4029 80.7818 74.6918C81.1795 74.9759 81.6459 75.1179 82.1809 75.1179C82.5597 75.1179 82.8983 75.0469 83.1966 74.9048C83.4996 74.758 83.7529 74.5473 83.9565 74.2727C84.1601 73.9981 84.2998 73.6643 84.3755 73.2713H86.8329C86.7714 74.0431 86.5441 74.7273 86.1511 75.3239C85.7581 75.9157 85.2231 76.3797 84.546 76.7159C83.8689 77.0473 83.0734 77.2131 82.1596 77.2131ZM93.7026 77.2131C92.6373 77.2131 91.714 76.9787 90.9327 76.5099C90.1515 76.0412 89.5454 75.3854 89.1145 74.5426C88.6884 73.6998 88.4753 72.715 88.4753 71.5881C88.4753 70.4612 88.6884 69.474 89.1145 68.6264C89.5454 67.7789 90.1515 67.1207 90.9327 66.652C91.714 66.1832 92.6373 65.9489 93.7026 65.9489C94.7679 65.9489 95.6912 66.1832 96.4725 66.652C97.2537 67.1207 97.8574 67.7789 98.2836 68.6264C98.7144 69.474 98.9299 70.4612 98.9299 71.5881C98.9299 72.715 98.7144 73.6998 98.2836 74.5426C97.8574 75.3854 97.2537 76.0412 96.4725 76.5099C95.6912 76.9787 94.7679 77.2131 93.7026 77.2131ZM93.7168 75.1534C94.2944 75.1534 94.7774 74.9948 95.1657 74.6776C95.5539 74.3556 95.8427 73.9247 96.0321 73.3849C96.2263 72.8452 96.3233 72.2438 96.3233 71.581C96.3233 70.9134 96.2263 70.3097 96.0321 69.7699C95.8427 69.2254 95.5539 68.7921 95.1657 68.4702C94.7774 68.1482 94.2944 67.9872 93.7168 67.9872C93.1249 67.9872 92.6325 68.1482 92.2395 68.4702C91.8513 68.7921 91.5601 69.2254 91.3659 69.7699C91.1766 70.3097 91.0819 70.9134 91.0819 71.581C91.0819 72.2438 91.1766 72.8452 91.3659 73.3849C91.5601 73.9247 91.8513 74.3556 92.2395 74.6776C92.6325 74.9948 93.1249 75.1534 93.7168 75.1534ZM103.683 70.608V77H101.112V66.0909H103.569V67.9446H103.697C103.948 67.3338 104.348 66.8485 104.898 66.4886C105.452 66.1288 106.136 65.9489 106.95 65.9489C107.703 65.9489 108.359 66.1098 108.917 66.4318C109.481 66.7538 109.916 67.2202 110.224 67.831C110.537 68.4418 110.691 69.1828 110.686 70.054V77H108.115V70.4517C108.115 69.7225 107.925 69.152 107.547 68.7401C107.173 68.3281 106.654 68.1222 105.991 68.1222C105.541 68.1222 105.141 68.2216 104.791 68.4205C104.445 68.6146 104.173 68.8963 103.974 69.2656C103.78 69.6349 103.683 70.0824 103.683 70.608ZM121.922 68.9744L119.578 69.2301C119.512 68.9934 119.396 68.7708 119.23 68.5625C119.069 68.3542 118.851 68.1861 118.577 68.0582C118.302 67.9304 117.966 67.8665 117.568 67.8665C117.033 67.8665 116.583 67.9825 116.219 68.2145C115.859 68.4465 115.681 68.7472 115.686 69.1165C115.681 69.4337 115.797 69.6918 116.034 69.8906C116.275 70.0895 116.673 70.2528 117.227 70.3807L119.088 70.7784C120.12 71.0009 120.887 71.3537 121.389 71.8366C121.896 72.3196 122.151 72.9517 122.156 73.733C122.151 74.4195 121.95 75.0256 121.552 75.5511C121.159 76.072 120.613 76.4792 119.912 76.7727C119.211 77.0663 118.406 77.2131 117.497 77.2131C116.162 77.2131 115.087 76.9337 114.273 76.375C113.458 75.8116 112.973 75.0279 112.817 74.0241L115.324 73.7827C115.437 74.2751 115.679 74.6468 116.048 74.8977C116.417 75.1487 116.898 75.2741 117.49 75.2741C118.101 75.2741 118.591 75.1487 118.96 74.8977C119.334 74.6468 119.521 74.3366 119.521 73.9673C119.521 73.6548 119.4 73.3968 119.159 73.1932C118.922 72.9896 118.553 72.8333 118.051 72.7244L116.19 72.3338C115.144 72.116 114.37 71.7491 113.868 71.233C113.366 70.7121 113.117 70.054 113.122 69.2585C113.117 68.5862 113.3 68.0038 113.669 67.5114C114.043 67.0142 114.561 66.6307 115.224 66.3608C115.892 66.0862 116.661 65.9489 117.532 65.9489C118.811 65.9489 119.817 66.2211 120.551 66.7656C121.29 67.3101 121.747 68.0464 121.922 68.9744ZM131.229 72.4119V66.0909H133.8V77H131.307V75.0611H131.194C130.948 75.6719 130.543 76.1714 129.979 76.5597C129.421 76.9479 128.732 77.142 127.912 77.142C127.198 77.142 126.565 76.9834 126.016 76.6662C125.472 76.3442 125.046 75.8778 124.738 75.267C124.43 74.6515 124.276 73.9081 124.276 73.0369V66.0909H126.847V72.6392C126.847 73.3305 127.037 73.8797 127.415 74.2869C127.794 74.6941 128.291 74.8977 128.907 74.8977C129.286 74.8977 129.653 74.8054 130.008 74.6207C130.363 74.4361 130.654 74.1615 130.881 73.7969C131.113 73.4276 131.229 72.9659 131.229 72.4119ZM139.015 62.4545V77H136.444V62.4545H139.015ZM147.106 66.0909V68.0795H140.835V66.0909H147.106ZM142.383 63.4773H144.954V73.7188C144.954 74.0644 145.006 74.3295 145.111 74.5142C145.22 74.6941 145.362 74.8172 145.537 74.8835C145.712 74.9498 145.906 74.983 146.119 74.983C146.28 74.983 146.427 74.9711 146.559 74.9474C146.697 74.9238 146.801 74.9025 146.872 74.8835L147.305 76.8935C147.168 76.9408 146.971 76.9929 146.716 77.0497C146.465 77.1065 146.157 77.1397 145.792 77.1491C145.148 77.1681 144.568 77.071 144.052 76.858C143.536 76.6402 143.127 76.304 142.824 75.8494C142.525 75.3949 142.379 74.8267 142.383 74.1449V63.4773ZM152.396 77.2202C151.704 77.2202 151.082 77.0971 150.528 76.8509C149.979 76.5999 149.543 76.2306 149.221 75.7429C148.904 75.2552 148.745 74.6539 148.745 73.9389C148.745 73.3234 148.859 72.8144 149.086 72.4119C149.313 72.0095 149.624 71.6875 150.017 71.446C150.41 71.2045 150.852 71.0223 151.345 70.8991C151.842 70.7713 152.356 70.679 152.886 70.6222C153.525 70.5559 154.044 70.4967 154.441 70.4446C154.839 70.3878 155.128 70.3026 155.308 70.1889C155.492 70.0705 155.585 69.8883 155.585 69.642V69.5994C155.585 69.0644 155.426 68.6501 155.109 68.3565C154.792 68.063 154.335 67.9162 153.738 67.9162C153.108 67.9162 152.609 68.0535 152.24 68.3281C151.875 68.6027 151.629 68.9271 151.501 69.3011L149.1 68.9602C149.29 68.2973 149.602 67.7434 150.038 67.2983C150.473 66.8485 151.006 66.5123 151.636 66.2898C152.266 66.0625 152.962 65.9489 153.724 65.9489C154.249 65.9489 154.773 66.0104 155.294 66.1335C155.814 66.2566 156.29 66.4602 156.721 66.7443C157.152 67.0237 157.498 67.4048 157.758 67.8878C158.023 68.3707 158.156 68.9744 158.156 69.6989V77H155.684V75.5014H155.599C155.443 75.8045 155.222 76.0885 154.938 76.3537C154.659 76.6141 154.306 76.8248 153.88 76.9858C153.459 77.142 152.964 77.2202 152.396 77.2202ZM153.063 75.331C153.579 75.331 154.027 75.2292 154.406 75.0256C154.785 74.8172 155.076 74.5426 155.279 74.2017C155.488 73.8608 155.592 73.4891 155.592 73.0866V71.8011C155.511 71.8674 155.374 71.929 155.18 71.9858C154.99 72.0426 154.777 72.0923 154.541 72.1349C154.304 72.1776 154.07 72.2154 153.838 72.2486C153.606 72.2817 153.404 72.3101 153.234 72.3338C152.85 72.3859 152.507 72.4711 152.204 72.5895C151.901 72.7079 151.662 72.8736 151.487 73.0866C151.311 73.295 151.224 73.5649 151.224 73.8963C151.224 74.3698 151.397 74.7273 151.742 74.9688C152.088 75.2102 152.528 75.331 153.063 75.331ZM165.702 81.0909V66.0909H168.23V67.8949H168.379C168.512 67.6297 168.699 67.348 168.941 67.0497C169.182 66.7467 169.509 66.4886 169.921 66.2756C170.333 66.0578 170.858 65.9489 171.497 65.9489C172.34 65.9489 173.1 66.1643 173.777 66.5952C174.459 67.0213 174.999 67.6534 175.396 68.4915C175.799 69.3248 176 70.3475 176 71.5597C176 72.7576 175.804 73.7756 175.411 74.6136C175.018 75.4517 174.483 76.0909 173.806 76.5312C173.128 76.9716 172.361 77.1918 171.504 77.1918C170.879 77.1918 170.361 77.0876 169.949 76.8793C169.537 76.6709 169.206 76.42 168.955 76.1264C168.709 75.8281 168.517 75.5464 168.379 75.2812H168.273V81.0909H165.702ZM168.223 71.5455C168.223 72.2509 168.323 72.8688 168.521 73.3991C168.725 73.9295 169.016 74.3437 169.395 74.642C169.779 74.9356 170.243 75.0824 170.787 75.0824C171.355 75.0824 171.831 74.9309 172.215 74.6278C172.598 74.3201 172.887 73.901 173.081 73.3707C173.28 72.8357 173.379 72.2273 173.379 71.5455C173.379 70.8684 173.282 70.267 173.088 69.7415C172.894 69.2159 172.605 68.804 172.222 68.5057C171.838 68.2074 171.36 68.0582 170.787 68.0582C170.238 68.0582 169.771 68.2027 169.388 68.4915C169.004 68.7803 168.713 69.1851 168.514 69.706C168.32 70.2268 168.223 70.84 168.223 71.5455ZM182.96 77.2131C181.895 77.2131 180.972 76.9787 180.191 76.5099C179.409 76.0412 178.803 75.3854 178.372 74.5426C177.946 73.6998 177.733 72.715 177.733 71.5881C177.733 70.4612 177.946 69.474 178.372 68.6264C178.803 67.7789 179.409 67.1207 180.191 66.652C180.972 66.1832 181.895 65.9489 182.96 65.9489C184.026 65.9489 184.949 66.1832 185.73 66.652C186.512 67.1207 187.115 67.7789 187.541 68.6264C187.972 69.474 188.188 70.4612 188.188 71.5881C188.188 72.715 187.972 73.6998 187.541 74.5426C187.115 75.3854 186.512 76.0412 185.73 76.5099C184.949 76.9787 184.026 77.2131 182.96 77.2131ZM182.975 75.1534C183.552 75.1534 184.035 74.9948 184.423 74.6776C184.812 74.3556 185.101 73.9247 185.29 73.3849C185.484 72.8452 185.581 72.2438 185.581 71.581C185.581 70.9134 185.484 70.3097 185.29 69.7699C185.101 69.2254 184.812 68.7921 184.423 68.4702C184.035 68.1482 183.552 67.9872 182.975 67.9872C182.383 67.9872 181.89 68.1482 181.497 68.4702C181.109 68.7921 180.818 69.2254 180.624 69.7699C180.434 70.3097 180.34 70.9134 180.34 71.581C180.34 72.2438 180.434 72.8452 180.624 73.3849C180.818 73.9247 181.109 74.3556 181.497 74.6776C181.89 74.9948 182.383 75.1534 182.975 75.1534ZM190.37 77V66.0909H192.863V67.9091H192.976C193.175 67.2794 193.516 66.794 193.999 66.4531C194.487 66.1075 195.043 65.9347 195.668 65.9347C195.81 65.9347 195.969 65.9418 196.144 65.956C196.324 65.9654 196.473 65.982 196.591 66.0057V68.3707C196.483 68.3329 196.31 68.2997 196.073 68.2713C195.841 68.2382 195.616 68.2216 195.398 68.2216C194.93 68.2216 194.508 68.3234 194.134 68.527C193.765 68.7259 193.474 69.0028 193.26 69.358C193.047 69.7131 192.941 70.1226 192.941 70.5866V77H190.37ZM205.831 70.608V77H203.26V66.0909H205.718V67.9446H205.846C206.097 67.3338 206.497 66.8485 207.046 66.4886C207.6 66.1288 208.284 65.9489 209.099 65.9489C209.851 65.9489 210.507 66.1098 211.066 66.4318C211.629 66.7538 212.065 67.2202 212.373 67.831C212.685 68.4418 212.839 69.1828 212.834 70.054V77H210.263V70.4517C210.263 69.7225 210.074 69.152 209.695 68.7401C209.321 68.3281 208.803 68.1222 208.14 68.1222C207.69 68.1222 207.29 68.2216 206.939 68.4205C206.594 68.6146 206.322 68.8963 206.123 69.2656C205.929 69.6349 205.831 70.0824 205.831 70.608ZM222.401 72.4119V66.0909H224.972V77H222.479V75.0611H222.366C222.119 75.6719 221.715 76.1714 221.151 76.5597C220.592 76.9479 219.903 77.142 219.084 77.142C218.369 77.142 217.737 76.9834 217.188 76.6662C216.644 76.3442 216.217 75.8778 215.91 75.267C215.602 74.6515 215.448 73.9081 215.448 73.0369V66.0909H218.019V72.6392C218.019 73.3305 218.208 73.8797 218.587 74.2869C218.966 74.6941 219.463 74.8977 220.079 74.8977C220.457 74.8977 220.824 74.8054 221.18 74.6207C221.535 74.4361 221.826 74.1615 222.053 73.7969C222.285 73.4276 222.401 72.9659 222.401 72.4119ZM232.445 77.2131C231.352 77.2131 230.407 76.9858 229.612 76.5312C228.821 76.072 228.213 75.4233 227.786 74.5852C227.36 73.7424 227.147 72.7505 227.147 71.6094C227.147 70.4872 227.36 69.5024 227.786 68.6548C228.217 67.8026 228.819 67.1397 229.59 66.6662C230.362 66.188 231.269 65.9489 232.311 65.9489C232.983 65.9489 233.617 66.0578 234.214 66.2756C234.815 66.4886 235.346 66.8201 235.805 67.2699C236.269 67.7197 236.633 68.2926 236.899 68.9886C237.164 69.6799 237.296 70.5038 237.296 71.4602V72.2486H228.355V70.5156H234.832C234.827 70.0232 234.721 69.5852 234.512 69.2017C234.304 68.8134 234.013 68.508 233.639 68.2855C233.269 68.063 232.838 67.9517 232.346 67.9517C231.82 67.9517 231.359 68.0795 230.961 68.3352C230.563 68.5862 230.253 68.9176 230.031 69.3295C229.813 69.7367 229.702 70.1842 229.697 70.6719V72.1847C229.697 72.8191 229.813 73.3636 230.045 73.8182C230.277 74.268 230.601 74.6136 231.018 74.8551C231.435 75.0919 231.922 75.2102 232.481 75.2102C232.855 75.2102 233.194 75.1581 233.497 75.054C233.8 74.9451 234.062 74.7865 234.285 74.5781C234.508 74.3698 234.676 74.1117 234.789 73.804L237.19 74.0739C237.038 74.7083 236.749 75.2623 236.323 75.7358C235.902 76.2045 235.362 76.5691 234.704 76.8295C234.046 77.0852 233.293 77.2131 232.445 77.2131ZM248.094 68.9744L245.75 69.2301C245.684 68.9934 245.568 68.7708 245.402 68.5625C245.241 68.3542 245.023 68.1861 244.748 68.0582C244.474 67.9304 244.138 67.8665 243.74 67.8665C243.205 67.8665 242.755 67.9825 242.39 68.2145C242.031 68.4465 241.853 68.7472 241.858 69.1165C241.853 69.4337 241.969 69.6918 242.206 69.8906C242.447 70.0895 242.845 70.2528 243.399 70.3807L245.26 70.7784C246.292 71.0009 247.059 71.3537 247.561 71.8366C248.068 72.3196 248.323 72.9517 248.328 73.733C248.323 74.4195 248.122 75.0256 247.724 75.5511C247.331 76.072 246.784 76.4792 246.084 76.7727C245.383 77.0663 244.578 77.2131 243.669 77.2131C242.334 77.2131 241.259 76.9337 240.444 76.375C239.63 75.8116 239.145 75.0279 238.988 74.0241L241.496 73.7827C241.609 74.2751 241.851 74.6468 242.22 74.8977C242.589 75.1487 243.07 75.2741 243.662 75.2741C244.273 75.2741 244.763 75.1487 245.132 74.8977C245.506 74.6468 245.693 74.3366 245.693 73.9673C245.693 73.6548 245.572 73.3968 245.331 73.1932C245.094 72.9896 244.725 72.8333 244.223 72.7244L242.362 72.3338C241.316 72.116 240.541 71.7491 240.04 71.233C239.538 70.7121 239.289 70.054 239.294 69.2585C239.289 68.5862 239.471 68.0038 239.841 67.5114C240.215 67.0142 240.733 66.6307 241.396 66.3608C242.064 66.0862 242.833 65.9489 243.704 65.9489C244.983 65.9489 245.989 66.2211 246.723 66.7656C247.461 67.3101 247.918 68.0464 248.094 68.9744ZM255.895 66.0909V68.0795H249.624V66.0909H255.895ZM251.172 63.4773H253.743V73.7188C253.743 74.0644 253.796 74.3295 253.9 74.5142C254.009 74.6941 254.151 74.8172 254.326 74.8835C254.501 74.9498 254.695 74.983 254.908 74.983C255.069 74.983 255.216 74.9711 255.349 74.9474C255.486 74.9238 255.59 74.9025 255.661 74.8835L256.094 76.8935C255.957 76.9408 255.76 76.9929 255.505 77.0497C255.254 77.1065 254.946 77.1397 254.581 77.1491C253.938 77.1681 253.358 77.071 252.841 76.858C252.325 76.6402 251.916 76.304 251.613 75.8494C251.314 75.3949 251.168 74.8267 251.172 74.1449V63.4773ZM258.046 77V66.0909H260.539V67.9091H260.652C260.851 67.2794 261.192 66.794 261.675 66.4531C262.163 66.1075 262.719 65.9347 263.344 65.9347C263.486 65.9347 263.645 65.9418 263.82 65.956C264 65.9654 264.149 65.982 264.267 66.0057V68.3707C264.158 68.3329 263.985 68.2997 263.749 68.2713C263.517 68.2382 263.292 68.2216 263.074 68.2216C262.605 68.2216 262.184 68.3234 261.81 68.527C261.441 68.7259 261.149 69.0028 260.936 69.358C260.723 69.7131 260.617 70.1226 260.617 70.5866V77H258.046ZM268.919 77.2202C268.228 77.2202 267.605 77.0971 267.051 76.8509C266.502 76.5999 266.066 76.2306 265.744 75.7429C265.427 75.2552 265.269 74.6539 265.269 73.9389C265.269 73.3234 265.382 72.8144 265.61 72.4119C265.837 72.0095 266.147 71.6875 266.54 71.446C266.933 71.2045 267.376 71.0223 267.868 70.8991C268.365 70.7713 268.879 70.679 269.409 70.6222C270.048 70.5559 270.567 70.4967 270.965 70.4446C271.362 70.3878 271.651 70.3026 271.831 70.1889C272.016 70.0705 272.108 69.8883 272.108 69.642V69.5994C272.108 69.0644 271.95 68.6501 271.632 68.3565C271.315 68.063 270.858 67.9162 270.262 67.9162C269.632 67.9162 269.132 68.0535 268.763 68.3281C268.398 68.6027 268.152 68.9271 268.024 69.3011L265.624 68.9602C265.813 68.2973 266.126 67.7434 266.561 67.2983C266.997 66.8485 267.53 66.5123 268.159 66.2898C268.789 66.0625 269.485 65.9489 270.247 65.9489C270.773 65.9489 271.296 66.0104 271.817 66.1335C272.338 66.2566 272.814 66.4602 273.244 66.7443C273.675 67.0237 274.021 67.4048 274.281 67.8878C274.547 68.3707 274.679 68.9744 274.679 69.6989V77H272.208V75.5014H272.122C271.966 75.8045 271.746 76.0885 271.462 76.3537C271.182 76.6141 270.83 76.8248 270.404 76.9858C269.982 77.142 269.487 77.2202 268.919 77.2202ZM269.587 75.331C270.103 75.331 270.55 75.2292 270.929 75.0256C271.308 74.8172 271.599 74.5426 271.803 74.2017C272.011 73.8608 272.115 73.4891 272.115 73.0866V71.8011C272.035 71.8674 271.897 71.929 271.703 71.9858C271.514 72.0426 271.301 72.0923 271.064 72.1349C270.827 72.1776 270.593 72.2154 270.361 72.2486C270.129 72.2817 269.928 72.3101 269.757 72.3338C269.374 72.3859 269.03 72.4711 268.727 72.5895C268.424 72.7079 268.185 72.8736 268.01 73.0866C267.835 73.295 267.747 73.5649 267.747 73.8963C267.747 74.3698 267.92 74.7273 268.266 74.9688C268.611 75.2102 269.052 75.331 269.587 75.331ZM285.887 68.9744L283.543 69.2301C283.477 68.9934 283.36 68.7708 283.195 68.5625C283.034 68.3542 282.816 68.1861 282.541 68.0582C282.267 67.9304 281.931 67.8665 281.533 67.8665C280.998 67.8665 280.548 67.9825 280.183 68.2145C279.824 68.4465 279.646 68.7472 279.651 69.1165C279.646 69.4337 279.762 69.6918 279.999 69.8906C280.24 70.0895 280.638 70.2528 281.192 70.3807L283.053 70.7784C284.085 71.0009 284.852 71.3537 285.354 71.8366C285.86 72.3196 286.116 72.9517 286.121 73.733C286.116 74.4195 285.915 75.0256 285.517 75.5511C285.124 76.072 284.577 76.4792 283.877 76.7727C283.176 77.0663 282.371 77.2131 281.462 77.2131C280.127 77.2131 279.052 76.9337 278.237 76.375C277.423 75.8116 276.938 75.0279 276.781 74.0241L279.289 73.7827C279.402 74.2751 279.644 74.6468 280.013 74.8977C280.382 75.1487 280.863 75.2741 281.455 75.2741C282.066 75.2741 282.556 75.1487 282.925 74.8977C283.299 74.6468 283.486 74.3366 283.486 73.9673C283.486 73.6548 283.365 73.3968 283.124 73.1932C282.887 72.9896 282.518 72.8333 282.016 72.7244L280.155 72.3338C279.109 72.116 278.334 71.7491 277.833 71.233C277.331 70.7121 277.082 70.054 277.087 69.2585C277.082 68.5862 277.264 68.0038 277.634 67.5114C278.008 67.0142 278.526 66.6307 279.189 66.3608C279.857 66.0862 280.626 65.9489 281.497 65.9489C282.776 65.9489 283.782 66.2211 284.516 66.7656C285.254 67.3101 285.711 68.0464 285.887 68.9744ZM112.628 101.213C111.539 101.213 110.604 100.974 109.823 100.496C109.046 100.018 108.448 99.357 108.026 98.5142C107.609 97.6667 107.401 96.6913 107.401 95.5881C107.401 94.4801 107.614 93.5024 108.04 92.6548C108.466 91.8026 109.068 91.1397 109.844 90.6662C110.626 90.188 111.549 89.9489 112.614 89.9489C113.5 89.9489 114.283 90.1122 114.965 90.4389C115.652 90.7609 116.198 91.2178 116.606 91.8097C117.013 92.3968 117.245 93.0833 117.302 93.8693H114.844C114.745 93.3437 114.508 92.9058 114.134 92.5554C113.765 92.2003 113.27 92.0227 112.65 92.0227C112.124 92.0227 111.662 92.1648 111.265 92.4489C110.867 92.7282 110.557 93.1307 110.334 93.6562C110.117 94.1818 110.008 94.8116 110.008 95.5455C110.008 96.2888 110.117 96.928 110.334 97.4631C110.552 97.9934 110.858 98.4029 111.251 98.6918C111.648 98.9759 112.115 99.1179 112.65 99.1179C113.028 99.1179 113.367 99.0469 113.665 98.9048C113.968 98.758 114.222 98.5473 114.425 98.2727C114.629 97.9981 114.769 97.6643 114.844 97.2713H117.302C117.24 98.0431 117.013 98.7273 116.62 99.3239C116.227 99.9157 115.692 100.38 115.015 100.716C114.338 101.047 113.542 101.213 112.628 101.213ZM124.242 101.213C123.149 101.213 122.204 100.986 121.409 100.531C120.618 100.072 120.009 99.4233 119.583 98.5852C119.157 97.7424 118.944 96.7505 118.944 95.6094C118.944 94.4872 119.157 93.5024 119.583 92.6548C120.014 91.8026 120.615 91.1397 121.387 90.6662C122.159 90.188 123.066 89.9489 124.107 89.9489C124.78 89.9489 125.414 90.0578 126.011 90.2756C126.612 90.4886 127.142 90.8201 127.602 91.2699C128.066 91.7197 128.43 92.2926 128.695 92.9886C128.961 93.6799 129.093 94.5038 129.093 95.4602V96.2486H120.151V94.5156H126.629C126.624 94.0232 126.517 93.5852 126.309 93.2017C126.101 92.8134 125.81 92.508 125.436 92.2855C125.066 92.063 124.635 91.9517 124.143 91.9517C123.617 91.9517 123.156 92.0795 122.758 92.3352C122.36 92.5862 122.05 92.9176 121.828 93.3295C121.61 93.7367 121.499 94.1842 121.494 94.6719V96.1847C121.494 96.8191 121.61 97.3636 121.842 97.8182C122.074 98.268 122.398 98.6136 122.815 98.8551C123.231 99.0919 123.719 99.2102 124.278 99.2102C124.652 99.2102 124.99 99.1581 125.294 99.054C125.597 98.9451 125.859 98.7865 126.082 98.5781C126.304 98.3698 126.472 98.1117 126.586 97.804L128.987 98.0739C128.835 98.7083 128.546 99.2623 128.12 99.7358C127.699 100.205 127.159 100.569 126.501 100.83C125.843 101.085 125.09 101.213 124.242 101.213ZM131.268 101V90.0909H133.761V91.9091H133.875C134.074 91.2794 134.415 90.794 134.898 90.4531C135.385 90.1075 135.942 89.9347 136.567 89.9347C136.709 89.9347 136.867 89.9418 137.042 89.956C137.222 89.9654 137.372 89.982 137.49 90.0057V92.3707C137.381 92.3329 137.208 92.2997 136.971 92.2713C136.739 92.2382 136.515 92.2216 136.297 92.2216C135.828 92.2216 135.407 92.3234 135.032 92.527C134.663 92.7259 134.372 93.0028 134.159 93.358C133.946 93.7131 133.839 94.1226 133.839 94.5866V101H131.268ZM145.231 90.0909V92.0795H138.96V90.0909H145.231ZM140.508 87.4773H143.079V97.7188C143.079 98.0644 143.131 98.3295 143.236 98.5142C143.345 98.6941 143.487 98.8172 143.662 98.8835C143.837 98.9498 144.031 98.983 144.244 98.983C144.405 98.983 144.552 98.9711 144.684 98.9474C144.822 98.9238 144.926 98.9025 144.997 98.8835L145.43 100.893C145.293 100.941 145.096 100.993 144.841 101.05C144.59 101.107 144.282 101.14 143.917 101.149C143.273 101.168 142.693 101.071 142.177 100.858C141.661 100.64 141.252 100.304 140.949 99.8494C140.65 99.3949 140.504 98.8267 140.508 98.1449V87.4773ZM147.382 101V90.0909H149.953V101H147.382ZM148.674 88.5426C148.267 88.5426 147.917 88.4077 147.623 88.1378C147.329 87.8632 147.183 87.5341 147.183 87.1506C147.183 86.7623 147.329 86.4332 147.623 86.1634C147.917 85.8887 148.267 85.7514 148.674 85.7514C149.086 85.7514 149.436 85.8887 149.725 86.1634C150.019 86.4332 150.166 86.7623 150.166 87.1506C150.166 87.5341 150.019 87.8632 149.725 88.1378C149.436 88.4077 149.086 88.5426 148.674 88.5426ZM158.122 90.0909V92.0795H151.673V90.0909H158.122ZM153.285 101V89.0611C153.285 88.3272 153.437 87.7164 153.74 87.2287C154.048 86.741 154.46 86.3764 154.976 86.1349C155.492 85.8935 156.065 85.7727 156.694 85.7727C157.14 85.7727 157.535 85.8082 157.881 85.8793C158.226 85.9503 158.482 86.0142 158.648 86.071L158.136 88.0597C158.027 88.0265 157.89 87.9934 157.724 87.9602C157.559 87.9223 157.374 87.9034 157.17 87.9034C156.692 87.9034 156.354 88.0194 156.155 88.2514C155.961 88.4787 155.863 88.8054 155.863 89.2315V101H153.285ZM160.135 101V90.0909H162.706V101H160.135ZM161.428 88.5426C161.021 88.5426 160.671 88.4077 160.377 88.1378C160.083 87.8632 159.937 87.5341 159.937 87.1506C159.937 86.7623 160.083 86.4332 160.377 86.1634C160.671 85.8887 161.021 85.7514 161.428 85.7514C161.84 85.7514 162.19 85.8887 162.479 86.1634C162.773 86.4332 162.92 86.7623 162.92 87.1506C162.92 87.5341 162.773 87.8632 162.479 88.1378C162.19 88.4077 161.84 88.5426 161.428 88.5426ZM170.109 101.213C169.02 101.213 168.085 100.974 167.303 100.496C166.527 100.018 165.928 99.357 165.507 98.5142C165.09 97.6667 164.882 96.6913 164.882 95.5881C164.882 94.4801 165.095 93.5024 165.521 92.6548C165.947 91.8026 166.548 91.1397 167.325 90.6662C168.106 90.188 169.029 89.9489 170.095 89.9489C170.98 89.9489 171.764 90.1122 172.445 90.4389C173.132 90.7609 173.679 91.2178 174.086 91.8097C174.493 92.3968 174.725 93.0833 174.782 93.8693H172.325C172.225 93.3437 171.989 92.9058 171.615 92.5554C171.245 92.2003 170.75 92.0227 170.13 92.0227C169.605 92.0227 169.143 92.1648 168.745 92.4489C168.347 92.7282 168.037 93.1307 167.815 93.6562C167.597 94.1818 167.488 94.8116 167.488 95.5455C167.488 96.2888 167.597 96.928 167.815 97.4631C168.033 97.9934 168.338 98.4029 168.731 98.6918C169.129 98.9759 169.595 99.1179 170.13 99.1179C170.509 99.1179 170.847 99.0469 171.146 98.9048C171.449 98.758 171.702 98.5473 171.906 98.2727C172.109 97.9981 172.249 97.6643 172.325 97.2713H174.782C174.721 98.0431 174.493 98.7273 174.1 99.3239C173.707 99.9157 173.172 100.38 172.495 100.716C171.818 101.047 171.023 101.213 170.109 101.213ZM180.032 101.22C179.341 101.22 178.719 101.097 178.165 100.851C177.615 100.6 177.18 100.231 176.858 99.7429C176.541 99.2552 176.382 98.6539 176.382 97.9389C176.382 97.3234 176.496 96.8144 176.723 96.4119C176.95 96.0095 177.26 95.6875 177.653 95.446C178.046 95.2045 178.489 95.0223 178.981 94.8991C179.479 94.7713 179.992 94.679 180.523 94.6222C181.162 94.5559 181.68 94.4967 182.078 94.4446C182.476 94.3878 182.765 94.3026 182.944 94.1889C183.129 94.0705 183.221 93.8883 183.221 93.642V93.5994C183.221 93.0644 183.063 92.6501 182.746 92.3565C182.428 92.063 181.971 91.9162 181.375 91.9162C180.745 91.9162 180.246 92.0535 179.876 92.3281C179.512 92.6027 179.265 92.9271 179.138 93.3011L176.737 92.9602C176.926 92.2973 177.239 91.7434 177.675 91.2983C178.11 90.8485 178.643 90.5123 179.273 90.2898C179.902 90.0625 180.598 89.9489 181.361 89.9489C181.886 89.9489 182.409 90.0104 182.93 90.1335C183.451 90.2566 183.927 90.4602 184.358 90.7443C184.789 91.0237 185.134 91.4048 185.395 91.8878C185.66 92.3707 185.792 92.9744 185.792 93.6989V101H183.321V99.5014H183.236C183.079 99.8045 182.859 100.089 182.575 100.354C182.296 100.614 181.943 100.825 181.517 100.986C181.095 101.142 180.601 101.22 180.032 101.22ZM180.7 99.331C181.216 99.331 181.664 99.2292 182.042 99.0256C182.421 98.8172 182.712 98.5426 182.916 98.2017C183.124 97.8608 183.229 97.4891 183.229 97.0866V95.8011C183.148 95.8674 183.011 95.929 182.817 95.9858C182.627 96.0426 182.414 96.0923 182.177 96.1349C181.941 96.1776 181.706 96.2154 181.474 96.2486C181.242 96.2817 181.041 96.3101 180.871 96.3338C180.487 96.3859 180.144 96.4711 179.841 96.5895C179.538 96.7079 179.299 96.8736 179.123 97.0866C178.948 97.295 178.861 97.5649 178.861 97.8963C178.861 98.3698 179.033 98.7273 179.379 98.9688C179.725 99.2102 180.165 99.331 180.7 99.331ZM193.136 101.213C192.047 101.213 191.112 100.974 190.331 100.496C189.554 100.018 188.955 99.357 188.534 98.5142C188.117 97.6667 187.909 96.6913 187.909 95.5881C187.909 94.4801 188.122 93.5024 188.548 92.6548C188.974 91.8026 189.576 91.1397 190.352 90.6662C191.133 90.188 192.057 89.9489 193.122 89.9489C194.007 89.9489 194.791 90.1122 195.473 90.4389C196.159 90.7609 196.706 91.2178 197.113 91.8097C197.521 92.3968 197.753 93.0833 197.809 93.8693H195.352C195.253 93.3437 195.016 92.9058 194.642 92.5554C194.273 92.2003 193.778 92.0227 193.157 92.0227C192.632 92.0227 192.17 92.1648 191.773 92.4489C191.375 92.7282 191.065 93.1307 190.842 93.6562C190.624 94.1818 190.515 94.8116 190.515 95.5455C190.515 96.2888 190.624 96.928 190.842 97.4631C191.06 97.9934 191.365 98.4029 191.758 98.6918C192.156 98.9759 192.622 99.1179 193.157 99.1179C193.536 99.1179 193.875 99.0469 194.173 98.9048C194.476 98.758 194.729 98.5473 194.933 98.2727C195.137 97.9981 195.276 97.6643 195.352 97.2713H197.809C197.748 98.0431 197.521 98.7273 197.128 99.3239C196.735 99.9157 196.2 100.38 195.523 100.716C194.845 101.047 194.05 101.213 193.136 101.213ZM199.921 101V90.0909H202.492V101H199.921ZM201.213 88.5426C200.806 88.5426 200.456 88.4077 200.162 88.1378C199.869 87.8632 199.722 87.5341 199.722 87.1506C199.722 86.7623 199.869 86.4332 200.162 86.1634C200.456 85.8887 200.806 85.7514 201.213 85.7514C201.625 85.7514 201.976 85.8887 202.264 86.1634C202.558 86.4332 202.705 86.7623 202.705 87.1506C202.705 87.5341 202.558 87.8632 202.264 88.1378C201.976 88.4077 201.625 88.5426 201.213 88.5426ZM209.894 101.213C208.829 101.213 207.905 100.979 207.124 100.51C206.343 100.041 205.737 99.3854 205.306 98.5426C204.88 97.6998 204.667 96.715 204.667 95.5881C204.667 94.4612 204.88 93.474 205.306 92.6264C205.737 91.7789 206.343 91.1207 207.124 90.652C207.905 90.1832 208.829 89.9489 209.894 89.9489C210.959 89.9489 211.883 90.1832 212.664 90.652C213.445 91.1207 214.049 91.7789 214.475 92.6264C214.906 93.474 215.121 94.4612 215.121 95.5881C215.121 96.715 214.906 97.6998 214.475 98.5426C214.049 99.3854 213.445 100.041 212.664 100.51C211.883 100.979 210.959 101.213 209.894 101.213ZM209.908 99.1534C210.486 99.1534 210.969 98.9948 211.357 98.6776C211.745 98.3556 212.034 97.9247 212.224 97.3849C212.418 96.8452 212.515 96.2438 212.515 95.581C212.515 94.9134 212.418 94.3097 212.224 93.7699C212.034 93.2254 211.745 92.7921 211.357 92.4702C210.969 92.1482 210.486 91.9872 209.908 91.9872C209.316 91.9872 208.824 92.1482 208.431 92.4702C208.043 92.7921 207.751 93.2254 207.557 93.7699C207.368 94.3097 207.273 94.9134 207.273 95.581C207.273 96.2438 207.368 96.8452 207.557 97.3849C207.751 97.9247 208.043 98.3556 208.431 98.6776C208.824 98.9948 209.316 99.1534 209.908 99.1534ZM219.874 94.608V101H217.303V90.0909H219.761V91.9446H219.889C220.14 91.3338 220.54 90.8485 221.089 90.4886C221.643 90.1288 222.327 89.9489 223.142 89.9489C223.894 89.9489 224.55 90.1098 225.109 90.4318C225.672 90.7538 226.108 91.2202 226.416 91.831C226.728 92.4418 226.882 93.1828 226.877 94.054V101H224.306V94.4517C224.306 93.7225 224.117 93.152 223.738 92.7401C223.364 92.3281 222.846 92.1222 222.183 92.1222C221.733 92.1222 221.333 92.2216 220.982 92.4205C220.637 92.6146 220.365 92.8963 220.166 93.2656C219.972 93.6349 219.874 94.0824 219.874 94.608ZM234.32 101.213C233.227 101.213 232.282 100.986 231.487 100.531C230.696 100.072 230.088 99.4233 229.661 98.5852C229.235 97.7424 229.022 96.7505 229.022 95.6094C229.022 94.4872 229.235 93.5024 229.661 92.6548C230.092 91.8026 230.694 91.1397 231.465 90.6662C232.237 90.188 233.144 89.9489 234.186 89.9489C234.858 89.9489 235.492 90.0578 236.089 90.2756C236.69 90.4886 237.221 90.8201 237.68 91.2699C238.144 91.7197 238.508 92.2926 238.774 92.9886C239.039 93.6799 239.171 94.5038 239.171 95.4602V96.2486H230.23V94.5156H236.707C236.702 94.0232 236.596 93.5852 236.387 93.2017C236.179 92.8134 235.888 92.508 235.514 92.2855C235.144 92.063 234.713 91.9517 234.221 91.9517C233.695 91.9517 233.234 92.0795 232.836 92.3352C232.438 92.5862 232.128 92.9176 231.906 93.3295C231.688 93.7367 231.577 94.1842 231.572 94.6719V96.1847C231.572 96.8191 231.688 97.3636 231.92 97.8182C232.152 98.268 232.476 98.6136 232.893 98.8551C233.31 99.0919 233.797 99.2102 234.356 99.2102C234.73 99.2102 235.069 99.1581 235.372 99.054C235.675 98.9451 235.937 98.7865 236.16 98.5781C236.383 98.3698 236.551 98.1117 236.664 97.804L239.065 98.0739C238.913 98.7083 238.624 99.2623 238.198 99.7358C237.777 100.205 237.237 100.569 236.579 100.83C235.921 101.085 235.168 101.213 234.32 101.213ZM249.969 92.9744L247.625 93.2301C247.559 92.9934 247.443 92.7708 247.277 92.5625C247.116 92.3542 246.898 92.1861 246.623 92.0582C246.349 91.9304 246.013 91.8665 245.615 91.8665C245.08 91.8665 244.63 91.9825 244.265 92.2145C243.906 92.4465 243.728 92.7472 243.733 93.1165C243.728 93.4337 243.844 93.6918 244.081 93.8906C244.322 94.0895 244.72 94.2528 245.274 94.3807L247.135 94.7784C248.167 95.0009 248.934 95.3537 249.436 95.8366C249.943 96.3196 250.198 96.9517 250.203 97.733C250.198 98.4195 249.997 99.0256 249.599 99.5511C249.206 100.072 248.659 100.479 247.959 100.773C247.258 101.066 246.453 101.213 245.544 101.213C244.209 101.213 243.134 100.934 242.319 100.375C241.505 99.8116 241.02 99.0279 240.863 98.0241L243.371 97.7827C243.484 98.2751 243.726 98.6468 244.095 98.8977C244.464 99.1487 244.945 99.2741 245.537 99.2741C246.148 99.2741 246.638 99.1487 247.007 98.8977C247.381 98.6468 247.568 98.3366 247.568 97.9673C247.568 97.6548 247.447 97.3968 247.206 97.1932C246.969 96.9896 246.6 96.8333 246.098 96.7244L244.237 96.3338C243.191 96.116 242.416 95.7491 241.915 95.233C241.413 94.7121 241.164 94.054 241.169 93.2585C241.164 92.5862 241.346 92.0038 241.716 91.5114C242.09 91.0142 242.608 90.6307 243.271 90.3608C243.939 90.0862 244.708 89.9489 245.579 89.9489C246.858 89.9489 247.864 90.2211 248.598 90.7656C249.336 91.3101 249.793 92.0464 249.969 92.9744ZM255.341 99.0114L255.249 99.7926C255.183 100.389 255.064 100.995 254.894 101.611C254.728 102.231 254.553 102.802 254.368 103.322C254.184 103.843 254.035 104.253 253.921 104.551H252.188C252.254 104.262 252.344 103.869 252.458 103.372C252.576 102.875 252.69 102.316 252.799 101.696C252.908 101.076 252.981 100.446 253.019 99.8068L253.069 99.0114H255.341ZM75.646 125.213C74.5569 125.213 73.6218 124.974 72.8406 124.496C72.064 124.018 71.4651 123.357 71.0437 122.514C70.627 121.667 70.4187 120.691 70.4187 119.588C70.4187 118.48 70.6317 117.502 71.0579 116.655C71.484 115.803 72.0853 115.14 72.8619 114.666C73.6431 114.188 74.5664 113.949 75.6317 113.949C76.5172 113.949 77.3008 114.112 77.9826 114.439C78.6692 114.761 79.216 115.218 79.6232 115.81C80.0304 116.397 80.2624 117.083 80.3192 117.869H77.8619C77.7624 117.344 77.5257 116.906 77.1516 116.555C76.7823 116.2 76.2875 116.023 75.6673 116.023C75.1417 116.023 74.68 116.165 74.2823 116.449C73.8846 116.728 73.5745 117.131 73.3519 117.656C73.1341 118.182 73.0252 118.812 73.0252 119.545C73.0252 120.289 73.1341 120.928 73.3519 121.463C73.5697 121.993 73.8751 122.403 74.2681 122.692C74.6658 122.976 75.1322 123.118 75.6673 123.118C76.046 123.118 76.3846 123.047 76.6829 122.905C76.9859 122.758 77.2392 122.547 77.4428 122.273C77.6464 121.998 77.7861 121.664 77.8619 121.271H80.3192C80.2577 122.043 80.0304 122.727 79.6374 123.324C79.2444 123.916 78.7094 124.38 78.0323 124.716C77.3552 125.047 76.5598 125.213 75.646 125.213ZM85.5696 125.22C84.8783 125.22 84.2557 125.097 83.7017 124.851C83.1525 124.6 82.7169 124.231 82.3949 123.743C82.0777 123.255 81.919 122.654 81.919 121.939C81.919 121.323 82.0327 120.814 82.2599 120.412C82.4872 120.009 82.7973 119.688 83.1903 119.446C83.5833 119.205 84.026 119.022 84.5185 118.899C85.0156 118.771 85.5294 118.679 86.0597 118.622C86.6989 118.556 87.2173 118.497 87.6151 118.445C88.0128 118.388 88.3016 118.303 88.4815 118.189C88.6662 118.071 88.7585 117.888 88.7585 117.642V117.599C88.7585 117.064 88.5999 116.65 88.2827 116.357C87.9654 116.063 87.5085 115.916 86.9119 115.916C86.2822 115.916 85.7827 116.054 85.4134 116.328C85.0488 116.603 84.8026 116.927 84.6747 117.301L82.2741 116.96C82.4635 116.297 82.776 115.743 83.2116 115.298C83.6473 114.848 84.1799 114.512 84.8097 114.29C85.4394 114.062 86.1354 113.949 86.8977 113.949C87.4233 113.949 87.9465 114.01 88.4673 114.134C88.9882 114.257 89.464 114.46 89.8949 114.744C90.3258 115.024 90.6714 115.405 90.9318 115.888C91.197 116.371 91.3295 116.974 91.3295 117.699V125H88.858V123.501H88.7727C88.6165 123.804 88.3963 124.089 88.1122 124.354C87.8329 124.614 87.4801 124.825 87.054 124.986C86.6326 125.142 86.1378 125.22 85.5696 125.22ZM86.2372 123.331C86.7533 123.331 87.2008 123.229 87.5795 123.026C87.9583 122.817 88.2495 122.543 88.4531 122.202C88.6615 121.861 88.7656 121.489 88.7656 121.087V119.801C88.6851 119.867 88.5478 119.929 88.3537 119.986C88.1643 120.043 87.9512 120.092 87.7145 120.135C87.4777 120.178 87.2434 120.215 87.0114 120.249C86.7794 120.282 86.5781 120.31 86.4077 120.334C86.0241 120.386 85.6809 120.471 85.3778 120.589C85.0748 120.708 84.8357 120.874 84.6605 121.087C84.4853 121.295 84.3977 121.565 84.3977 121.896C84.3977 122.37 84.5705 122.727 84.9162 122.969C85.2618 123.21 85.7022 123.331 86.2372 123.331ZM93.9148 129.091V114.091H96.4432V115.895H96.5923C96.7249 115.63 96.9119 115.348 97.1534 115.05C97.3949 114.747 97.7216 114.489 98.1335 114.276C98.5455 114.058 99.071 113.949 99.7102 113.949C100.553 113.949 101.313 114.164 101.99 114.595C102.672 115.021 103.212 115.653 103.609 116.491C104.012 117.325 104.213 118.348 104.213 119.56C104.213 120.758 104.017 121.776 103.624 122.614C103.231 123.452 102.696 124.091 102.018 124.531C101.341 124.972 100.574 125.192 99.7173 125.192C99.0923 125.192 98.5739 125.088 98.1619 124.879C97.75 124.671 97.4186 124.42 97.1676 124.126C96.9214 123.828 96.7296 123.546 96.5923 123.281H96.4858V129.091H93.9148ZM96.4361 119.545C96.4361 120.251 96.5355 120.869 96.7344 121.399C96.938 121.929 97.2292 122.344 97.608 122.642C97.9915 122.936 98.4555 123.082 99 123.082C99.5682 123.082 100.044 122.931 100.428 122.628C100.811 122.32 101.1 121.901 101.294 121.371C101.493 120.836 101.592 120.227 101.592 119.545C101.592 118.868 101.495 118.267 101.301 117.741C101.107 117.216 100.818 116.804 100.435 116.506C100.051 116.207 99.5729 116.058 99 116.058C98.4508 116.058 97.9844 116.203 97.6009 116.491C97.2173 116.78 96.9261 117.185 96.7273 117.706C96.5331 118.227 96.4361 118.84 96.4361 119.545ZM109.554 125.22C108.863 125.22 108.24 125.097 107.686 124.851C107.137 124.6 106.701 124.231 106.379 123.743C106.062 123.255 105.903 122.654 105.903 121.939C105.903 121.323 106.017 120.814 106.244 120.412C106.472 120.009 106.782 119.688 107.175 119.446C107.568 119.205 108.01 119.022 108.503 118.899C109 118.771 109.514 118.679 110.044 118.622C110.683 118.556 111.202 118.497 111.599 118.445C111.997 118.388 112.286 118.303 112.466 118.189C112.651 118.071 112.743 117.888 112.743 117.642V117.599C112.743 117.064 112.584 116.65 112.267 116.357C111.95 116.063 111.493 115.916 110.896 115.916C110.267 115.916 109.767 116.054 109.398 116.328C109.033 116.603 108.787 116.927 108.659 117.301L106.259 116.96C106.448 116.297 106.76 115.743 107.196 115.298C107.632 114.848 108.164 114.512 108.794 114.29C109.424 114.062 110.12 113.949 110.882 113.949C111.408 113.949 111.931 114.01 112.452 114.134C112.973 114.257 113.448 114.46 113.879 114.744C114.31 115.024 114.656 115.405 114.916 115.888C115.181 116.371 115.314 116.974 115.314 117.699V125H112.842V123.501H112.757C112.601 123.804 112.381 124.089 112.097 124.354C111.817 124.614 111.464 124.825 111.038 124.986C110.617 125.142 110.122 125.22 109.554 125.22ZM110.222 123.331C110.738 123.331 111.185 123.229 111.564 123.026C111.943 122.817 112.234 122.543 112.438 122.202C112.646 121.861 112.75 121.489 112.75 121.087V119.801C112.67 119.867 112.532 119.929 112.338 119.986C112.149 120.043 111.936 120.092 111.699 120.135C111.462 120.178 111.228 120.215 110.996 120.249C110.764 120.282 110.563 120.31 110.392 120.334C110.009 120.386 109.665 120.471 109.362 120.589C109.059 120.708 108.82 120.874 108.645 121.087C108.47 121.295 108.382 121.565 108.382 121.896C108.382 122.37 108.555 122.727 108.901 122.969C109.246 123.21 109.687 123.331 110.222 123.331ZM122.658 125.213C121.569 125.213 120.634 124.974 119.852 124.496C119.076 124.018 118.477 123.357 118.055 122.514C117.639 121.667 117.43 120.691 117.43 119.588C117.43 118.48 117.643 117.502 118.07 116.655C118.496 115.803 119.097 115.14 119.874 114.666C120.655 114.188 121.578 113.949 122.643 113.949C123.529 113.949 124.313 114.112 124.994 114.439C125.681 114.761 126.228 115.218 126.635 115.81C127.042 116.397 127.274 117.083 127.331 117.869H124.874C124.774 117.344 124.537 116.906 124.163 116.555C123.794 116.2 123.299 116.023 122.679 116.023C122.153 116.023 121.692 116.165 121.294 116.449C120.896 116.728 120.586 117.131 120.364 117.656C120.146 118.182 120.037 118.812 120.037 119.545C120.037 120.289 120.146 120.928 120.364 121.463C120.581 121.993 120.887 122.403 121.28 122.692C121.678 122.976 122.144 123.118 122.679 123.118C123.058 123.118 123.396 123.047 123.695 122.905C123.998 122.758 124.251 122.547 124.455 122.273C124.658 121.998 124.798 121.664 124.874 121.271H127.331C127.269 122.043 127.042 122.727 126.649 123.324C126.256 123.916 125.721 124.38 125.044 124.716C124.367 125.047 123.571 125.213 122.658 125.213ZM129.442 125V114.091H132.013V125H129.442ZM130.735 112.543C130.328 112.543 129.977 112.408 129.684 112.138C129.39 111.863 129.243 111.534 129.243 111.151C129.243 110.762 129.39 110.433 129.684 110.163C129.977 109.889 130.328 109.751 130.735 109.751C131.147 109.751 131.497 109.889 131.786 110.163C132.079 110.433 132.226 110.762 132.226 111.151C132.226 111.534 132.079 111.863 131.786 112.138C131.497 112.408 131.147 112.543 130.735 112.543ZM140.104 114.091V116.08H133.833V114.091H140.104ZM135.381 111.477H137.952V121.719C137.952 122.064 138.004 122.33 138.109 122.514C138.218 122.694 138.36 122.817 138.535 122.884C138.71 122.95 138.904 122.983 139.117 122.983C139.278 122.983 139.425 122.971 139.558 122.947C139.695 122.924 139.799 122.902 139.87 122.884L140.303 124.893C140.166 124.941 139.969 124.993 139.714 125.05C139.463 125.107 139.155 125.14 138.79 125.149C138.147 125.168 137.567 125.071 137.05 124.858C136.534 124.64 136.125 124.304 135.822 123.849C135.523 123.395 135.377 122.827 135.381 122.145V111.477ZM145.394 125.22C144.703 125.22 144.08 125.097 143.526 124.851C142.977 124.6 142.541 124.231 142.219 123.743C141.902 123.255 141.743 122.654 141.743 121.939C141.743 121.323 141.857 120.814 142.084 120.412C142.311 120.009 142.622 119.688 143.015 119.446C143.408 119.205 143.85 119.022 144.343 118.899C144.84 118.771 145.354 118.679 145.884 118.622C146.523 118.556 147.042 118.497 147.439 118.445C147.837 118.388 148.126 118.303 148.306 118.189C148.49 118.071 148.583 117.888 148.583 117.642V117.599C148.583 117.064 148.424 116.65 148.107 116.357C147.79 116.063 147.333 115.916 146.736 115.916C146.106 115.916 145.607 116.054 145.238 116.328C144.873 116.603 144.627 116.927 144.499 117.301L142.098 116.96C142.288 116.297 142.6 115.743 143.036 115.298C143.471 114.848 144.004 114.512 144.634 114.29C145.264 114.062 145.96 113.949 146.722 113.949C147.248 113.949 147.771 114.01 148.292 114.134C148.812 114.257 149.288 114.46 149.719 114.744C150.15 115.024 150.496 115.405 150.756 115.888C151.021 116.371 151.154 116.974 151.154 117.699V125H148.682V123.501H148.597C148.441 123.804 148.221 124.089 147.936 124.354C147.657 124.614 147.304 124.825 146.878 124.986C146.457 125.142 145.962 125.22 145.394 125.22ZM146.061 123.331C146.578 123.331 147.025 123.229 147.404 123.026C147.783 122.817 148.074 122.543 148.277 122.202C148.486 121.861 148.59 121.489 148.59 121.087V119.801C148.509 119.867 148.372 119.929 148.178 119.986C147.989 120.043 147.775 120.092 147.539 120.135C147.302 120.178 147.068 120.215 146.836 120.249C146.604 120.282 146.402 120.31 146.232 120.334C145.848 120.386 145.505 120.471 145.202 120.589C144.899 120.708 144.66 120.874 144.485 121.087C144.31 121.295 144.222 121.565 144.222 121.896C144.222 122.37 144.395 122.727 144.74 122.969C145.086 123.21 145.526 123.331 146.061 123.331ZM159.186 114.091V116.08H152.915V114.091H159.186ZM154.463 111.477H157.034V121.719C157.034 122.064 157.087 122.33 157.191 122.514C157.3 122.694 157.442 122.817 157.617 122.884C157.792 122.95 157.986 122.983 158.199 122.983C158.36 122.983 158.507 122.971 158.64 122.947C158.777 122.924 158.881 122.902 158.952 122.884L159.385 124.893C159.248 124.941 159.051 124.993 158.796 125.05C158.545 125.107 158.237 125.14 157.873 125.149C157.229 125.168 156.649 125.071 156.132 124.858C155.616 124.64 155.207 124.304 154.904 123.849C154.605 123.395 154.459 122.827 154.463 122.145V111.477ZM166.049 125.213C164.955 125.213 164.011 124.986 163.215 124.531C162.424 124.072 161.816 123.423 161.39 122.585C160.964 121.742 160.751 120.75 160.751 119.609C160.751 118.487 160.964 117.502 161.39 116.655C161.821 115.803 162.422 115.14 163.194 114.666C163.966 114.188 164.872 113.949 165.914 113.949C166.586 113.949 167.221 114.058 167.817 114.276C168.419 114.489 168.949 114.82 169.408 115.27C169.872 115.72 170.237 116.293 170.502 116.989C170.767 117.68 170.9 118.504 170.9 119.46V120.249H161.958V118.516H168.435C168.431 118.023 168.324 117.585 168.116 117.202C167.907 116.813 167.616 116.508 167.242 116.286C166.873 116.063 166.442 115.952 165.95 115.952C165.424 115.952 164.962 116.08 164.565 116.335C164.167 116.586 163.857 116.918 163.634 117.33C163.416 117.737 163.305 118.184 163.3 118.672V120.185C163.3 120.819 163.416 121.364 163.648 121.818C163.88 122.268 164.205 122.614 164.621 122.855C165.038 123.092 165.526 123.21 166.085 123.21C166.459 123.21 166.797 123.158 167.1 123.054C167.403 122.945 167.666 122.786 167.888 122.578C168.111 122.37 168.279 122.112 168.393 121.804L170.793 122.074C170.642 122.708 170.353 123.262 169.927 123.736C169.505 124.205 168.966 124.569 168.308 124.83C167.649 125.085 166.897 125.213 166.049 125.213ZM179.634 129.091C179.283 129.091 178.959 129.063 178.661 129.006C178.367 128.954 178.133 128.892 177.958 128.821L178.554 126.818C178.928 126.927 179.262 126.979 179.556 126.974C179.849 126.97 180.107 126.877 180.33 126.697C180.557 126.522 180.749 126.229 180.905 125.817L181.125 125.227L177.169 114.091H179.897L182.411 122.33H182.525L185.046 114.091H187.78L183.412 126.321C183.209 126.899 182.939 127.393 182.603 127.805C182.266 128.222 181.855 128.539 181.367 128.757C180.884 128.98 180.306 129.091 179.634 129.091ZM194.52 125V114.091H197.091V125H194.52ZM195.813 112.543C195.406 112.543 195.055 112.408 194.762 112.138C194.468 111.863 194.321 111.534 194.321 111.151C194.321 110.762 194.468 110.433 194.762 110.163C195.055 109.889 195.406 109.751 195.813 109.751C196.225 109.751 196.575 109.889 196.864 110.163C197.158 110.433 197.304 110.762 197.304 111.151C197.304 111.534 197.158 111.863 196.864 112.138C196.575 112.408 196.225 112.543 195.813 112.543ZM199.735 125V114.091H202.192V115.945H202.32C202.548 115.32 202.924 114.832 203.45 114.482C203.975 114.126 204.603 113.949 205.332 113.949C206.07 113.949 206.693 114.129 207.2 114.489C207.711 114.844 208.071 115.329 208.279 115.945H208.393C208.634 115.339 209.041 114.856 209.614 114.496C210.192 114.131 210.876 113.949 211.667 113.949C212.671 113.949 213.49 114.266 214.124 114.901C214.759 115.535 215.076 116.461 215.076 117.678V125H212.498V118.075C212.498 117.398 212.318 116.903 211.958 116.591C211.598 116.274 211.158 116.115 210.637 116.115C210.017 116.115 209.531 116.309 209.181 116.697C208.835 117.081 208.663 117.58 208.663 118.196V125H206.141V117.969C206.141 117.405 205.971 116.955 205.63 116.619C205.294 116.283 204.853 116.115 204.309 116.115C203.94 116.115 203.603 116.21 203.3 116.399C202.997 116.584 202.756 116.847 202.576 117.188C202.396 117.524 202.306 117.917 202.306 118.366V125H199.735ZM217.684 129.091V114.091H220.213V115.895H220.362C220.494 115.63 220.681 115.348 220.923 115.05C221.164 114.747 221.491 114.489 221.903 114.276C222.315 114.058 222.841 113.949 223.48 113.949C224.323 113.949 225.083 114.164 225.76 114.595C226.441 115.021 226.981 115.653 227.379 116.491C227.781 117.325 227.983 118.348 227.983 119.56C227.983 120.758 227.786 121.776 227.393 122.614C227 123.452 226.465 124.091 225.788 124.531C225.111 124.972 224.344 125.192 223.487 125.192C222.862 125.192 222.343 125.088 221.931 124.879C221.52 124.671 221.188 124.42 220.937 124.126C220.691 123.828 220.499 123.546 220.362 123.281H220.255V129.091H217.684ZM220.206 119.545C220.206 120.251 220.305 120.869 220.504 121.399C220.708 121.929 220.999 122.344 221.377 122.642C221.761 122.936 222.225 123.082 222.77 123.082C223.338 123.082 223.814 122.931 224.197 122.628C224.581 122.32 224.869 121.901 225.064 121.371C225.262 120.836 225.362 120.227 225.362 119.545C225.362 118.868 225.265 118.267 225.071 117.741C224.877 117.216 224.588 116.804 224.204 116.506C223.821 116.207 223.342 116.058 222.77 116.058C222.22 116.058 221.754 116.203 221.37 116.491C220.987 116.78 220.696 117.185 220.497 117.706C220.303 118.227 220.206 118.84 220.206 119.545ZM237.137 120.412V114.091H239.708V125H237.216V123.061H237.102C236.856 123.672 236.451 124.171 235.887 124.56C235.329 124.948 234.64 125.142 233.821 125.142C233.106 125.142 232.474 124.983 231.924 124.666C231.38 124.344 230.954 123.878 230.646 123.267C230.338 122.652 230.184 121.908 230.184 121.037V114.091H232.755V120.639C232.755 121.33 232.945 121.88 233.324 122.287C233.702 122.694 234.199 122.898 234.815 122.898C235.194 122.898 235.561 122.805 235.916 122.621C236.271 122.436 236.562 122.161 236.789 121.797C237.021 121.428 237.137 120.966 237.137 120.412ZM244.923 110.455V125H242.352V110.455H244.923ZM256.189 116.974L253.846 117.23C253.779 116.993 253.663 116.771 253.498 116.562C253.337 116.354 253.119 116.186 252.844 116.058C252.569 115.93 252.233 115.866 251.836 115.866C251.301 115.866 250.851 115.982 250.486 116.214C250.126 116.446 249.949 116.747 249.953 117.116C249.949 117.434 250.065 117.692 250.301 117.891C250.543 118.089 250.941 118.253 251.495 118.381L253.355 118.778C254.388 119.001 255.155 119.354 255.657 119.837C256.163 120.32 256.419 120.952 256.424 121.733C256.419 122.42 256.218 123.026 255.82 123.551C255.427 124.072 254.88 124.479 254.179 124.773C253.479 125.066 252.674 125.213 251.765 125.213C250.429 125.213 249.355 124.934 248.54 124.375C247.726 123.812 247.24 123.028 247.084 122.024L249.591 121.783C249.705 122.275 249.946 122.647 250.316 122.898C250.685 123.149 251.166 123.274 251.757 123.274C252.368 123.274 252.858 123.149 253.228 122.898C253.602 122.647 253.789 122.337 253.789 121.967C253.789 121.655 253.668 121.397 253.426 121.193C253.19 120.99 252.82 120.833 252.319 120.724L250.458 120.334C249.411 120.116 248.637 119.749 248.135 119.233C247.633 118.712 247.385 118.054 247.39 117.259C247.385 116.586 247.567 116.004 247.936 115.511C248.31 115.014 248.829 114.631 249.492 114.361C250.159 114.086 250.929 113.949 251.8 113.949C253.078 113.949 254.085 114.221 254.819 114.766C255.557 115.31 256.014 116.046 256.189 116.974ZM261.683 125.22C260.992 125.22 260.369 125.097 259.815 124.851C259.266 124.6 258.83 124.231 258.508 123.743C258.191 123.255 258.032 122.654 258.032 121.939C258.032 121.323 258.146 120.814 258.373 120.412C258.6 120.009 258.911 119.688 259.304 119.446C259.697 119.205 260.139 119.022 260.632 118.899C261.129 118.771 261.643 118.679 262.173 118.622C262.812 118.556 263.331 118.497 263.728 118.445C264.126 118.388 264.415 118.303 264.595 118.189C264.779 118.071 264.872 117.888 264.872 117.642V117.599C264.872 117.064 264.713 116.65 264.396 116.357C264.079 116.063 263.622 115.916 263.025 115.916C262.395 115.916 261.896 116.054 261.527 116.328C261.162 116.603 260.916 116.927 260.788 117.301L258.387 116.96C258.577 116.297 258.889 115.743 259.325 115.298C259.761 114.848 260.293 114.512 260.923 114.29C261.553 114.062 262.249 113.949 263.011 113.949C263.537 113.949 264.06 114.01 264.581 114.134C265.101 114.257 265.577 114.46 266.008 114.744C266.439 115.024 266.785 115.405 267.045 115.888C267.31 116.371 267.443 116.974 267.443 117.699V125H264.971V123.501H264.886C264.73 123.804 264.51 124.089 264.225 124.354C263.946 124.614 263.593 124.825 263.167 124.986C262.746 125.142 262.251 125.22 261.683 125.22ZM262.35 123.331C262.867 123.331 263.314 123.229 263.693 123.026C264.072 122.817 264.363 122.543 264.566 122.202C264.775 121.861 264.879 121.489 264.879 121.087V119.801C264.798 119.867 264.661 119.929 264.467 119.986C264.278 120.043 264.065 120.092 263.828 120.135C263.591 120.178 263.357 120.215 263.125 120.249C262.893 120.282 262.691 120.31 262.521 120.334C262.137 120.386 261.794 120.471 261.491 120.589C261.188 120.708 260.949 120.874 260.774 121.087C260.599 121.295 260.511 121.565 260.511 121.896C260.511 122.37 260.684 122.727 261.029 122.969C261.375 123.21 261.815 123.331 262.35 123.331ZM280.436 114.091V116.08H274.165V114.091H280.436ZM275.713 111.477H278.284V121.719C278.284 122.064 278.337 122.33 278.441 122.514C278.55 122.694 278.692 122.817 278.867 122.884C279.042 122.95 279.236 122.983 279.449 122.983C279.61 122.983 279.757 122.971 279.89 122.947C280.027 122.924 280.131 122.902 280.202 122.884L280.635 124.893C280.498 124.941 280.301 124.993 280.046 125.05C279.795 125.107 279.487 125.14 279.123 125.149C278.479 125.168 277.899 125.071 277.382 124.858C276.866 124.64 276.457 124.304 276.154 123.849C275.855 123.395 275.709 122.827 275.713 122.145V111.477ZM289.54 120.412V114.091H292.111V125H289.618V123.061H289.504C289.258 123.672 288.853 124.171 288.29 124.56C287.731 124.948 287.042 125.142 286.223 125.142C285.508 125.142 284.876 124.983 284.327 124.666C283.782 124.344 283.356 123.878 283.048 123.267C282.741 122.652 282.587 121.908 282.587 121.037V114.091H285.158V120.639C285.158 121.33 285.347 121.88 285.726 122.287C286.105 122.694 286.602 122.898 287.217 122.898C287.596 122.898 287.963 122.805 288.318 122.621C288.673 122.436 288.964 122.161 289.192 121.797C289.424 121.428 289.54 120.966 289.54 120.412ZM96.1538 149.213C95.0647 149.213 94.1296 148.974 93.3484 148.496C92.5719 148.018 91.9729 147.357 91.5515 146.514C91.1348 145.667 90.9265 144.691 90.9265 143.588C90.9265 142.48 91.1396 141.502 91.5657 140.655C91.9918 139.803 92.5932 139.14 93.3697 138.666C94.1509 138.188 95.0742 137.949 96.1396 137.949C97.025 137.949 97.8086 138.112 98.4904 138.439C99.177 138.761 99.7238 139.218 100.131 139.81C100.538 140.397 100.77 141.083 100.827 141.869H98.3697C98.2702 141.344 98.0335 140.906 97.6594 140.555C97.2901 140.2 96.7953 140.023 96.1751 140.023C95.6495 140.023 95.1879 140.165 94.7901 140.449C94.3924 140.728 94.0823 141.131 93.8597 141.656C93.6419 142.182 93.533 142.812 93.533 143.545C93.533 144.289 93.6419 144.928 93.8597 145.463C94.0775 145.993 94.3829 146.403 94.7759 146.692C95.1737 146.976 95.64 147.118 96.1751 147.118C96.5539 147.118 96.8924 147.047 97.1907 146.905C97.4937 146.758 97.747 146.547 97.9506 146.273C98.1542 145.998 98.2939 145.664 98.3697 145.271H100.827C100.766 146.043 100.538 146.727 100.145 147.324C99.7522 147.916 99.2172 148.38 98.5401 148.716C97.863 149.047 97.0676 149.213 96.1538 149.213ZM106.077 149.22C105.386 149.22 104.763 149.097 104.21 148.851C103.66 148.6 103.225 148.231 102.903 147.743C102.585 147.255 102.427 146.654 102.427 145.939C102.427 145.323 102.54 144.814 102.768 144.412C102.995 144.009 103.305 143.688 103.698 143.446C104.091 143.205 104.534 143.022 105.026 142.899C105.523 142.771 106.037 142.679 106.567 142.622C107.207 142.556 107.725 142.497 108.123 142.445C108.521 142.388 108.809 142.303 108.989 142.189C109.174 142.071 109.266 141.888 109.266 141.642V141.599C109.266 141.064 109.108 140.65 108.79 140.357C108.473 140.063 108.016 139.916 107.42 139.916C106.79 139.916 106.29 140.054 105.921 140.328C105.557 140.603 105.31 140.927 105.183 141.301L102.782 140.96C102.971 140.297 103.284 139.743 103.719 139.298C104.155 138.848 104.688 138.512 105.317 138.29C105.947 138.062 106.643 137.949 107.406 137.949C107.931 137.949 108.454 138.01 108.975 138.134C109.496 138.257 109.972 138.46 110.403 138.744C110.834 139.024 111.179 139.405 111.44 139.888C111.705 140.371 111.837 140.974 111.837 141.699V149H109.366V147.501H109.281C109.124 147.804 108.904 148.089 108.62 148.354C108.341 148.614 107.988 148.825 107.562 148.986C107.14 149.142 106.646 149.22 106.077 149.22ZM106.745 147.331C107.261 147.331 107.709 147.229 108.087 147.026C108.466 146.817 108.757 146.543 108.961 146.202C109.169 145.861 109.273 145.489 109.273 145.087V143.801C109.193 143.867 109.056 143.929 108.862 143.986C108.672 144.043 108.459 144.092 108.222 144.135C107.986 144.178 107.751 144.215 107.519 144.249C107.287 144.282 107.086 144.31 106.915 144.334C106.532 144.386 106.189 144.471 105.886 144.589C105.583 144.708 105.344 144.874 105.168 145.087C104.993 145.295 104.906 145.565 104.906 145.896C104.906 146.37 105.078 146.727 105.424 146.969C105.77 147.21 106.21 147.331 106.745 147.331ZM114.423 149V138.091H116.915V139.909H117.029C117.228 139.279 117.569 138.794 118.052 138.453C118.54 138.107 119.096 137.935 119.721 137.935C119.863 137.935 120.022 137.942 120.197 137.956C120.377 137.965 120.526 137.982 120.644 138.006V140.371C120.535 140.333 120.362 140.3 120.126 140.271C119.894 140.238 119.669 140.222 119.451 140.222C118.982 140.222 118.561 140.323 118.187 140.527C117.817 140.726 117.526 141.003 117.313 141.358C117.1 141.713 116.994 142.123 116.994 142.587V149H114.423ZM122.352 149V138.091H124.845V139.909H124.959C125.158 139.279 125.499 138.794 125.982 138.453C126.469 138.107 127.026 137.935 127.651 137.935C127.793 137.935 127.951 137.942 128.126 137.956C128.306 137.965 128.455 137.982 128.574 138.006V140.371C128.465 140.333 128.292 140.3 128.055 140.271C127.823 140.238 127.598 140.222 127.381 140.222C126.912 140.222 126.491 140.323 126.116 140.527C125.747 140.726 125.456 141.003 125.243 141.358C125.03 141.713 124.923 142.123 124.923 142.587V149H122.352ZM134.662 149.213C133.569 149.213 132.624 148.986 131.828 148.531C131.038 148.072 130.429 147.423 130.003 146.585C129.577 145.742 129.364 144.75 129.364 143.609C129.364 142.487 129.577 141.502 130.003 140.655C130.434 139.803 131.035 139.14 131.807 138.666C132.579 138.188 133.486 137.949 134.527 137.949C135.2 137.949 135.834 138.058 136.431 138.276C137.032 138.489 137.562 138.82 138.022 139.27C138.486 139.72 138.85 140.293 139.115 140.989C139.381 141.68 139.513 142.504 139.513 143.46V144.249H130.571V142.516H137.049C137.044 142.023 136.937 141.585 136.729 141.202C136.521 140.813 136.23 140.508 135.855 140.286C135.486 140.063 135.055 139.952 134.563 139.952C134.037 139.952 133.576 140.08 133.178 140.335C132.78 140.586 132.47 140.918 132.248 141.33C132.03 141.737 131.918 142.184 131.914 142.672V144.185C131.914 144.819 132.03 145.364 132.262 145.818C132.494 146.268 132.818 146.614 133.235 146.855C133.651 147.092 134.139 147.21 134.698 147.21C135.072 147.21 135.41 147.158 135.713 147.054C136.016 146.945 136.279 146.786 136.502 146.578C136.724 146.37 136.892 146.112 137.006 145.804L139.407 146.074C139.255 146.708 138.966 147.262 138.54 147.736C138.119 148.205 137.579 148.569 136.921 148.83C136.263 149.085 135.51 149.213 134.662 149.213ZM141.688 149V138.091H144.181V139.909H144.295C144.494 139.279 144.835 138.794 145.317 138.453C145.805 138.107 146.362 137.935 146.987 137.935C147.129 137.935 147.287 137.942 147.462 137.956C147.642 137.965 147.791 137.982 147.91 138.006V140.371C147.801 140.333 147.628 140.3 147.391 140.271C147.159 140.238 146.934 140.222 146.717 140.222C146.248 140.222 145.826 140.323 145.452 140.527C145.083 140.726 144.792 141.003 144.579 141.358C144.366 141.713 144.259 142.123 144.259 142.587V149H141.688ZM152.562 149.22C151.871 149.22 151.248 149.097 150.694 148.851C150.145 148.6 149.709 148.231 149.387 147.743C149.07 147.255 148.911 146.654 148.911 145.939C148.911 145.323 149.025 144.814 149.252 144.412C149.479 144.009 149.79 143.688 150.183 143.446C150.576 143.205 151.018 143.022 151.511 142.899C152.008 142.771 152.522 142.679 153.052 142.622C153.691 142.556 154.21 142.497 154.607 142.445C155.005 142.388 155.294 142.303 155.474 142.189C155.658 142.071 155.751 141.888 155.751 141.642V141.599C155.751 141.064 155.592 140.65 155.275 140.357C154.958 140.063 154.501 139.916 153.904 139.916C153.274 139.916 152.775 140.054 152.406 140.328C152.041 140.603 151.795 140.927 151.667 141.301L149.266 140.96C149.456 140.297 149.768 139.743 150.204 139.298C150.639 138.848 151.172 138.512 151.802 138.29C152.432 138.062 153.128 137.949 153.89 137.949C154.415 137.949 154.939 138.01 155.46 138.134C155.98 138.257 156.456 138.46 156.887 138.744C157.318 139.024 157.664 139.405 157.924 139.888C158.189 140.371 158.322 140.974 158.322 141.699V149H155.85V147.501H155.765C155.609 147.804 155.388 148.089 155.104 148.354C154.825 148.614 154.472 148.825 154.046 148.986C153.625 149.142 153.13 149.22 152.562 149.22ZM153.229 147.331C153.746 147.331 154.193 147.229 154.572 147.026C154.951 146.817 155.242 146.543 155.445 146.202C155.654 145.861 155.758 145.489 155.758 145.087V143.801C155.677 143.867 155.54 143.929 155.346 143.986C155.156 144.043 154.943 144.092 154.707 144.135C154.47 144.178 154.236 144.215 154.004 144.249C153.772 144.282 153.57 144.31 153.4 144.334C153.016 144.386 152.673 144.471 152.37 144.589C152.067 144.708 151.828 144.874 151.653 145.087C151.478 145.295 151.39 145.565 151.39 145.896C151.39 146.37 151.563 146.727 151.908 146.969C152.254 147.21 152.694 147.331 153.229 147.331ZM165.868 153.091V138.091H168.396V139.895H168.545C168.678 139.63 168.865 139.348 169.107 139.05C169.348 138.747 169.675 138.489 170.087 138.276C170.499 138.058 171.024 137.949 171.663 137.949C172.506 137.949 173.266 138.164 173.943 138.595C174.625 139.021 175.165 139.653 175.562 140.491C175.965 141.325 176.166 142.348 176.166 143.56C176.166 144.758 175.97 145.776 175.577 146.614C175.184 147.452 174.649 148.091 173.972 148.531C173.295 148.972 172.527 149.192 171.67 149.192C171.045 149.192 170.527 149.088 170.115 148.879C169.703 148.671 169.372 148.42 169.121 148.126C168.875 147.828 168.683 147.546 168.545 147.281H168.439V153.091H165.868ZM168.389 143.545C168.389 144.251 168.489 144.869 168.688 145.399C168.891 145.929 169.182 146.344 169.561 146.642C169.945 146.936 170.409 147.082 170.953 147.082C171.521 147.082 171.997 146.931 172.381 146.628C172.764 146.32 173.053 145.901 173.247 145.371C173.446 144.836 173.545 144.227 173.545 143.545C173.545 142.868 173.448 142.267 173.254 141.741C173.06 141.216 172.771 140.804 172.388 140.506C172.004 140.207 171.526 140.058 170.953 140.058C170.404 140.058 169.938 140.203 169.554 140.491C169.17 140.78 168.879 141.185 168.68 141.706C168.486 142.227 168.389 142.84 168.389 143.545ZM178.368 149V138.091H180.861V139.909H180.974C181.173 139.279 181.514 138.794 181.997 138.453C182.485 138.107 183.041 137.935 183.666 137.935C183.808 137.935 183.967 137.942 184.142 137.956C184.322 137.965 184.471 137.982 184.589 138.006V140.371C184.481 140.333 184.308 140.3 184.071 140.271C183.839 140.238 183.614 140.222 183.396 140.222C182.928 140.222 182.506 140.323 182.132 140.527C181.763 140.726 181.472 141.003 181.259 141.358C181.045 141.713 180.939 142.123 180.939 142.587V149H178.368ZM190.607 149.213C189.542 149.213 188.618 148.979 187.837 148.51C187.056 148.041 186.45 147.385 186.019 146.543C185.593 145.7 185.38 144.715 185.38 143.588C185.38 142.461 185.593 141.474 186.019 140.626C186.45 139.779 187.056 139.121 187.837 138.652C188.618 138.183 189.542 137.949 190.607 137.949C191.672 137.949 192.596 138.183 193.377 138.652C194.158 139.121 194.762 139.779 195.188 140.626C195.619 141.474 195.834 142.461 195.834 143.588C195.834 144.715 195.619 145.7 195.188 146.543C194.762 147.385 194.158 148.041 193.377 148.51C192.596 148.979 191.672 149.213 190.607 149.213ZM190.621 147.153C191.199 147.153 191.682 146.995 192.07 146.678C192.458 146.356 192.747 145.925 192.936 145.385C193.131 144.845 193.228 144.244 193.228 143.581C193.228 142.913 193.131 142.31 192.936 141.77C192.747 141.225 192.458 140.792 192.07 140.47C191.682 140.148 191.199 139.987 190.621 139.987C190.029 139.987 189.537 140.148 189.144 140.47C188.756 140.792 188.464 141.225 188.27 141.77C188.081 142.31 187.986 142.913 187.986 143.581C187.986 144.244 188.081 144.845 188.27 145.385C188.464 145.925 188.756 146.356 189.144 146.678C189.537 146.995 190.029 147.153 190.621 147.153ZM203.542 138.091V140.08H197.093V138.091H203.542ZM198.705 149V137.061C198.705 136.327 198.857 135.716 199.16 135.229C199.468 134.741 199.879 134.376 200.396 134.135C200.912 133.893 201.485 133.773 202.114 133.773C202.559 133.773 202.955 133.808 203.3 133.879C203.646 133.95 203.902 134.014 204.067 134.071L203.556 136.06C203.447 136.027 203.31 135.993 203.144 135.96C202.978 135.922 202.794 135.903 202.59 135.903C202.112 135.903 201.773 136.019 201.575 136.251C201.38 136.479 201.283 136.805 201.283 137.232V149H198.705ZM209.975 149.213C208.881 149.213 207.936 148.986 207.141 148.531C206.35 148.072 205.742 147.423 205.316 146.585C204.89 145.742 204.676 144.75 204.676 143.609C204.676 142.487 204.89 141.502 205.316 140.655C205.747 139.803 206.348 139.14 207.12 138.666C207.891 138.188 208.798 137.949 209.84 137.949C210.512 137.949 211.147 138.058 211.743 138.276C212.345 138.489 212.875 138.82 213.334 139.27C213.798 139.72 214.163 140.293 214.428 140.989C214.693 141.68 214.826 142.504 214.826 143.46V144.249H205.884V142.516H212.361C212.356 142.023 212.25 141.585 212.042 141.202C211.833 140.813 211.542 140.508 211.168 140.286C210.799 140.063 210.368 139.952 209.875 139.952C209.35 139.952 208.888 140.08 208.49 140.335C208.093 140.586 207.783 140.918 207.56 141.33C207.342 141.737 207.231 142.184 207.226 142.672V144.185C207.226 144.819 207.342 145.364 207.574 145.818C207.806 146.268 208.131 146.614 208.547 146.855C208.964 147.092 209.452 147.21 210.01 147.21C210.384 147.21 210.723 147.158 211.026 147.054C211.329 146.945 211.592 146.786 211.814 146.578C212.037 146.37 212.205 146.112 212.319 145.804L214.719 146.074C214.568 146.708 214.279 147.262 213.853 147.736C213.431 148.205 212.891 148.569 212.233 148.83C211.575 149.085 210.822 149.213 209.975 149.213ZM225.623 140.974L223.279 141.23C223.213 140.993 223.097 140.771 222.931 140.562C222.77 140.354 222.552 140.186 222.278 140.058C222.003 139.93 221.667 139.866 221.269 139.866C220.734 139.866 220.284 139.982 219.92 140.214C219.56 140.446 219.382 140.747 219.387 141.116C219.382 141.434 219.498 141.692 219.735 141.891C219.977 142.089 220.374 142.253 220.928 142.381L222.789 142.778C223.821 143.001 224.588 143.354 225.09 143.837C225.597 144.32 225.853 144.952 225.857 145.733C225.853 146.42 225.651 147.026 225.254 147.551C224.861 148.072 224.314 148.479 223.613 148.773C222.912 149.066 222.107 149.213 221.198 149.213C219.863 149.213 218.788 148.934 217.974 148.375C217.159 147.812 216.674 147.028 216.518 146.024L219.025 145.783C219.138 146.275 219.38 146.647 219.749 146.898C220.119 147.149 220.599 147.274 221.191 147.274C221.802 147.274 222.292 147.149 222.661 146.898C223.035 146.647 223.222 146.337 223.222 145.967C223.222 145.655 223.102 145.397 222.86 145.193C222.623 144.99 222.254 144.833 221.752 144.724L219.891 144.334C218.845 144.116 218.071 143.749 217.569 143.233C217.067 142.712 216.818 142.054 216.823 141.259C216.818 140.586 217.001 140.004 217.37 139.511C217.744 139.014 218.263 138.631 218.925 138.361C219.593 138.086 220.362 137.949 221.234 137.949C222.512 137.949 223.518 138.221 224.252 138.766C224.991 139.31 225.448 140.046 225.623 140.974ZM227.977 149V138.091H230.548V149H227.977ZM229.27 136.543C228.863 136.543 228.512 136.408 228.219 136.138C227.925 135.863 227.778 135.534 227.778 135.151C227.778 134.762 227.925 134.433 228.219 134.163C228.512 133.889 228.863 133.751 229.27 133.751C229.682 133.751 230.032 133.889 230.321 134.163C230.615 134.433 230.761 134.762 230.761 135.151C230.761 135.534 230.615 135.863 230.321 136.138C230.032 136.408 229.682 136.543 229.27 136.543ZM237.951 149.213C236.885 149.213 235.962 148.979 235.181 148.51C234.4 148.041 233.793 147.385 233.363 146.543C232.936 145.7 232.723 144.715 232.723 143.588C232.723 142.461 232.936 141.474 233.363 140.626C233.793 139.779 234.4 139.121 235.181 138.652C235.962 138.183 236.885 137.949 237.951 137.949C239.016 137.949 239.939 138.183 240.721 138.652C241.502 139.121 242.105 139.779 242.532 140.626C242.962 141.474 243.178 142.461 243.178 143.588C243.178 144.715 242.962 145.7 242.532 146.543C242.105 147.385 241.502 148.041 240.721 148.51C239.939 148.979 239.016 149.213 237.951 149.213ZM237.965 147.153C238.542 147.153 239.025 146.995 239.414 146.678C239.802 146.356 240.091 145.925 240.28 145.385C240.474 144.845 240.571 144.244 240.571 143.581C240.571 142.913 240.474 142.31 240.28 141.77C240.091 141.225 239.802 140.792 239.414 140.47C239.025 140.148 238.542 139.987 237.965 139.987C237.373 139.987 236.881 140.148 236.488 140.47C236.099 140.792 235.808 141.225 235.614 141.77C235.425 142.31 235.33 142.913 235.33 143.581C235.33 144.244 235.425 144.845 235.614 145.385C235.808 145.925 236.099 146.356 236.488 146.678C236.881 146.995 237.373 147.153 237.965 147.153ZM247.931 142.608V149H245.36V138.091H247.817V139.945H247.945C248.196 139.334 248.596 138.848 249.146 138.489C249.7 138.129 250.384 137.949 251.198 137.949C251.951 137.949 252.607 138.11 253.165 138.432C253.729 138.754 254.165 139.22 254.472 139.831C254.785 140.442 254.939 141.183 254.934 142.054V149H252.363V142.452C252.363 141.723 252.174 141.152 251.795 140.74C251.421 140.328 250.902 140.122 250.239 140.122C249.79 140.122 249.389 140.222 249.039 140.42C248.693 140.615 248.421 140.896 248.222 141.266C248.028 141.635 247.931 142.082 247.931 142.608ZM260.687 149.22C259.996 149.22 259.373 149.097 258.819 148.851C258.27 148.6 257.834 148.231 257.512 147.743C257.195 147.255 257.036 146.654 257.036 145.939C257.036 145.323 257.15 144.814 257.377 144.412C257.604 144.009 257.915 143.688 258.308 143.446C258.701 143.205 259.143 143.022 259.636 142.899C260.133 142.771 260.647 142.679 261.177 142.622C261.816 142.556 262.335 142.497 262.732 142.445C263.13 142.388 263.419 142.303 263.599 142.189C263.783 142.071 263.876 141.888 263.876 141.642V141.599C263.876 141.064 263.717 140.65 263.4 140.357C263.083 140.063 262.626 139.916 262.029 139.916C261.399 139.916 260.9 140.054 260.531 140.328C260.166 140.603 259.92 140.927 259.792 141.301L257.391 140.96C257.581 140.297 257.893 139.743 258.329 139.298C258.764 138.848 259.297 138.512 259.927 138.29C260.557 138.062 261.253 137.949 262.015 137.949C262.54 137.949 263.064 138.01 263.585 138.134C264.105 138.257 264.581 138.46 265.012 138.744C265.443 139.024 265.789 139.405 266.049 139.888C266.314 140.371 266.447 140.974 266.447 141.699V149H263.975V147.501H263.89C263.734 147.804 263.513 148.089 263.229 148.354C262.95 148.614 262.597 148.825 262.171 148.986C261.75 149.142 261.255 149.22 260.687 149.22ZM261.354 147.331C261.871 147.331 262.318 147.229 262.697 147.026C263.076 146.817 263.367 146.543 263.57 146.202C263.779 145.861 263.883 145.489 263.883 145.087V143.801C263.802 143.867 263.665 143.929 263.471 143.986C263.281 144.043 263.068 144.092 262.832 144.135C262.595 144.178 262.361 144.215 262.129 144.249C261.897 144.282 261.695 144.31 261.525 144.334C261.141 144.386 260.798 144.471 260.495 144.589C260.192 144.708 259.953 144.874 259.778 145.087C259.603 145.295 259.515 145.565 259.515 145.896C259.515 146.37 259.688 146.727 260.033 146.969C260.379 147.21 260.819 147.331 261.354 147.331ZM271.603 134.455V149H269.032V134.455H271.603Z" fill="black"/>
</g>
<g clip-path="url(#clip0_4_32)">
<path d="M291.804 177.116C293.394 178.435 293.394 180.576 291.804 181.894L259.233 208.894C257.642 210.212 255.059 210.212 253.469 208.894L237.183 195.394C235.593 194.076 235.593 191.935 237.183 190.616C238.774 189.298 241.356 189.298 242.947 190.616L256.357 201.722L286.053 177.116C287.644 175.798 290.226 175.798 291.817 177.116H291.804Z" fill="#007C7C"/>
</g>
<defs>
<filter id="filter0_d_4_32" x="0" y="0" width="363" height="302" filterUnits="userSpaceOnUse" color-interpolation-filters="sRGB">
<feFlood flood-opacity="0" result="BackgroundImageFix"/>
<feColorMatrix in="SourceAlpha" type="matrix" values="0 0 0 0 0 0 0 0 0 0 0 0 0 0 0 0 0 0 127 0" result="hardAlpha"/>
<feOffset dy="4"/>
<feGaussianBlur stdDeviation="2"/>
<feComposite in2="hardAlpha" operator="out"/>
<feColorMatrix type="matrix" values="0 0 0 0 0 0 0 0 0 0 0 0 0 0 0 0 0 0 0.25 0"/>
<feBlend mode="normal" in2="BackgroundImageFix" result="effect1_dropShadow_4_32"/>
<feBlend mode="normal" in="SourceGraphic" in2="effect1_dropShadow_4_32" result="shape"/>
</filter>
<filter id="filter1_d_4_32" x="66.4187" y="37.7514" width="229.692" height="123.34" filterUnits="userSpaceOnUse" color-interpolation-filters="sRGB">
<feFlood flood-opacity="0" result="BackgroundImageFix"/>
<feColorMatrix in="SourceAlpha" type="matrix" values="0 0 0 0 0 0 0 0 0 0 0 0 0 0 0 0 0 0 127 0" result="hardAlpha"/>
<feOffset dy="4"/>
<feGaussianBlur stdDeviation="2"/>
<feComposite in2="hardAlpha" operator="out"/>
<feColorMatrix type="matrix" values="0 0 0 0 0 0 0 0 0 0 0 0 0 0 0 0 0 0 0.25 0"/>
<feBlend mode="normal" in2="BackgroundImageFix" result="effect1_dropShadow_4_32"/>
<feBlend mode="normal" in="SourceGraphic" in2="effect1_dropShadow_4_32" result="shape"/>
</filter>
<linearGradient id="paint0_linear_4_32" x1="181.5" y1="0" x2="181.5" y2="294" gradientUnits="userSpaceOnUse">
<stop stop-color="#007C7C"/>
<stop offset="0.313815" stop-color="#339292" stop-opacity="0.763678"/>
<stop offset="1" stop-color="#D9D9D9" stop-opacity="0"/>
</linearGradient>
<clipPath id="clip0_4_32">
<rect width="57" height="54" fill="white" transform="translate(236 166)"/>
</clipPath>
</defs>
</svg>
