<svg width="363" height="312" viewBox="0 0 363 312" fill="none" xmlns="http://www.w3.org/2000/svg">
<g filter="url(#filter0_d_3_92)">
<rect x="4" width="355" height="304" rx="18" fill="url(#paint0_linear_3_92)" shape-rendering="crispEdges"/>
</g>
<g filter="url(#filter1_d_3_92)">
<ellipse cx="182" cy="79.5927" rx="40" ry="38.6909" fill="url(#paint1_linear_3_92)" shape-rendering="crispEdges"/>
<path d="M182 121.784C205.914 121.784 225.5 103.003 225.5 79.5927C225.5 56.1824 205.914 37.4018 182 37.4018C158.086 37.4018 138.5 56.1824 138.5 79.5927C138.5 103.003 158.086 121.784 182 121.784Z" stroke="black" stroke-width="7" shape-rendering="crispEdges"/>
</g>
<path d="M66.7353 163.498V146.771H73.008C74.2931 146.771 75.3712 146.994 76.2424 147.441C77.1191 147.887 77.7806 148.513 78.2271 149.319C78.6791 150.12 78.9051 151.053 78.9051 152.121C78.9051 153.193 78.6764 154.124 78.219 154.914C77.767 155.698 77.1 156.305 76.2179 156.735C75.3358 157.16 74.2522 157.372 72.9672 157.372H68.4995V154.857H72.5588C73.3102 154.857 73.9255 154.753 74.4047 154.546C74.8839 154.334 75.2378 154.026 75.4665 153.624C75.7006 153.215 75.8177 152.714 75.8177 152.121C75.8177 151.527 75.7006 151.021 75.4665 150.602C75.2323 150.177 74.8757 149.856 74.3965 149.638C73.9174 149.414 73.2993 149.303 72.5425 149.303H69.7655V163.498H66.7353ZM75.3766 155.919L79.5176 163.498H76.1362L72.0688 155.919H75.3766ZM86.9379 163.743C85.6801 163.743 84.5938 163.482 83.679 162.959C82.7697 162.431 82.07 161.685 81.5799 160.721C81.0899 159.752 80.8449 158.611 80.8449 157.299C80.8449 156.008 81.0899 154.876 81.5799 153.901C82.0754 152.921 82.767 152.159 83.6545 151.614C84.5421 151.064 85.5848 150.789 86.7827 150.789C87.5559 150.789 88.2856 150.915 88.9716 151.165C89.6632 151.41 90.273 151.791 90.8012 152.309C91.3348 152.826 91.7541 153.485 92.059 154.285C92.3639 155.08 92.5164 156.028 92.5164 157.127V158.034H82.2334V156.041H89.6822C89.6768 155.475 89.5543 154.971 89.3147 154.53C89.0751 154.084 88.7402 153.732 88.3101 153.477C87.8853 153.221 87.3898 153.093 86.8236 153.093C86.2191 153.093 85.6883 153.24 85.2309 153.534C84.7735 153.822 84.4168 154.203 84.1609 154.677C83.9104 155.145 83.7825 155.66 83.777 156.221V157.961C83.777 158.69 83.9104 159.316 84.1772 159.839C84.4441 160.356 84.817 160.754 85.2962 161.032C85.7754 161.304 86.3362 161.44 86.9787 161.44C87.4089 161.44 87.7982 161.38 88.1467 161.26C88.4952 161.135 88.7974 160.953 89.0533 160.713C89.3092 160.473 89.5025 160.177 89.6332 159.823L92.3939 160.133C92.2196 160.863 91.8875 161.5 91.3974 162.044C90.9128 162.583 90.2921 163.003 89.5352 163.302C88.7783 163.596 87.9126 163.743 86.9379 163.743ZM100.49 163.743C99.2376 163.743 98.1622 163.468 97.2638 162.918C96.3708 162.368 95.682 161.609 95.1974 160.64C94.7182 159.665 94.4786 158.543 94.4786 157.274C94.4786 156 94.7237 154.876 95.2137 153.901C95.7038 152.921 96.3953 152.159 97.2883 151.614C98.1867 151.064 99.2485 150.789 100.474 150.789C101.492 150.789 102.393 150.977 103.177 151.353C103.967 151.723 104.596 152.249 105.064 152.929C105.532 153.604 105.799 154.394 105.864 155.298H103.038C102.924 154.693 102.652 154.19 102.222 153.787C101.797 153.378 101.228 153.174 100.515 153.174C99.9101 153.174 99.3792 153.338 98.9218 153.664C98.4644 153.986 98.1078 154.448 97.8519 155.053C97.6014 155.657 97.4762 156.381 97.4762 157.225C97.4762 158.08 97.6014 158.815 97.8519 159.431C98.1023 160.041 98.4536 160.512 98.9055 160.844C99.3629 161.17 99.8992 161.334 100.515 161.334C100.95 161.334 101.339 161.252 101.682 161.089C102.031 160.92 102.322 160.678 102.556 160.362C102.791 160.046 102.951 159.662 103.038 159.21H105.864C105.794 160.098 105.532 160.885 105.08 161.571C104.628 162.251 104.013 162.785 103.234 163.171C102.456 163.553 101.541 163.743 100.49 163.743ZM108.292 163.498V150.953H111.249V163.498H108.292ZM109.779 149.172C109.31 149.172 108.907 149.017 108.57 148.707C108.232 148.391 108.063 148.012 108.063 147.571C108.063 147.125 108.232 146.746 108.57 146.436C108.907 146.12 109.31 145.962 109.779 145.962C110.252 145.962 110.655 146.12 110.987 146.436C111.325 146.746 111.494 147.125 111.494 147.571C111.494 148.012 111.325 148.391 110.987 148.707C110.655 149.017 110.252 149.172 109.779 149.172ZM114.42 163.498V146.771H117.377V153.027H117.499C117.652 152.722 117.867 152.398 118.144 152.055C118.422 151.707 118.798 151.41 119.271 151.165C119.745 150.915 120.35 150.789 121.085 150.789C122.054 150.789 122.928 151.037 123.706 151.533C124.491 152.023 125.111 152.75 125.569 153.713C126.032 154.672 126.263 155.848 126.263 157.242C126.263 158.619 126.037 159.79 125.585 160.754C125.133 161.718 124.518 162.453 123.739 162.959C122.96 163.465 122.078 163.719 121.093 163.719C120.374 163.719 119.778 163.599 119.304 163.359C118.83 163.12 118.449 162.831 118.161 162.494C117.878 162.151 117.657 161.827 117.499 161.522H117.328V163.498H114.42ZM117.319 157.225C117.319 158.037 117.434 158.747 117.662 159.357C117.897 159.967 118.231 160.443 118.667 160.787C119.108 161.124 119.642 161.293 120.268 161.293C120.921 161.293 121.469 161.119 121.91 160.77C122.351 160.416 122.683 159.934 122.906 159.325C123.135 158.709 123.249 158.01 123.249 157.225C123.249 156.447 123.137 155.755 122.914 155.151C122.691 154.546 122.359 154.073 121.918 153.73C121.477 153.387 120.927 153.215 120.268 153.215C119.636 153.215 119.1 153.381 118.659 153.713C118.218 154.046 117.883 154.511 117.654 155.11C117.431 155.709 117.319 156.414 117.319 157.225ZM134.33 163.743C133.073 163.743 131.986 163.482 131.072 162.959C130.162 162.431 129.463 161.685 128.973 160.721C128.482 159.752 128.237 158.611 128.237 157.299C128.237 156.008 128.482 154.876 128.973 153.901C129.468 152.921 130.16 152.159 131.047 151.614C131.935 151.064 132.977 150.789 134.175 150.789C134.948 150.789 135.678 150.915 136.364 151.165C137.056 151.41 137.666 151.791 138.194 152.309C138.727 152.826 139.147 153.485 139.452 154.285C139.756 155.08 139.909 156.028 139.909 157.127V158.034H129.626V156.041H137.075C137.069 155.475 136.947 154.971 136.707 154.53C136.468 154.084 136.133 153.732 135.703 153.477C135.278 153.221 134.782 153.093 134.216 153.093C133.612 153.093 133.081 153.24 132.623 153.534C132.166 153.822 131.809 154.203 131.553 154.677C131.303 155.145 131.175 155.66 131.17 156.221V157.961C131.17 158.69 131.303 159.316 131.57 159.839C131.837 160.356 132.21 160.754 132.689 161.032C133.168 161.304 133.729 161.44 134.371 161.44C134.801 161.44 135.191 161.38 135.539 161.26C135.888 161.135 136.19 160.953 136.446 160.713C136.702 160.473 136.895 160.177 137.026 159.823L139.786 160.133C139.612 160.863 139.28 161.5 138.79 162.044C138.305 162.583 137.685 163.003 136.928 163.302C136.171 163.596 135.305 163.743 134.33 163.743ZM154.38 150.953V153.24H147.168V150.953H154.38ZM148.948 147.947H151.905V159.725C151.905 160.122 151.965 160.427 152.085 160.64C152.21 160.846 152.373 160.988 152.575 161.064C152.776 161.14 153 161.179 153.245 161.179C153.43 161.179 153.599 161.165 153.751 161.138C153.909 161.111 154.029 161.086 154.11 161.064L154.609 163.376C154.451 163.43 154.225 163.49 153.931 163.555C153.642 163.621 153.288 163.659 152.869 163.67C152.128 163.691 151.461 163.58 150.868 163.335C150.274 163.084 149.803 162.698 149.455 162.175C149.112 161.652 148.943 160.999 148.948 160.215V147.947ZM164.849 158.222V150.953H167.805V163.498H164.939V161.268H164.808C164.525 161.971 164.059 162.545 163.411 162.992C162.769 163.438 161.976 163.662 161.034 163.662C160.212 163.662 159.485 163.479 158.854 163.114C158.228 162.744 157.737 162.208 157.384 161.505C157.03 160.797 156.853 159.943 156.853 158.941V150.953H159.809V158.483C159.809 159.278 160.027 159.91 160.463 160.378C160.898 160.846 161.47 161.081 162.178 161.081C162.614 161.081 163.036 160.974 163.444 160.762C163.852 160.55 164.187 160.234 164.449 159.815C164.715 159.39 164.849 158.859 164.849 158.222ZM190.999 152.415H187.945C187.858 151.914 187.697 151.47 187.463 151.083C187.229 150.691 186.937 150.359 186.589 150.087C186.24 149.815 185.843 149.611 185.396 149.474C184.955 149.333 184.479 149.262 183.967 149.262C183.058 149.262 182.252 149.491 181.549 149.948C180.847 150.4 180.297 151.064 179.9 151.941C179.502 152.812 179.303 153.877 179.303 155.135C179.303 156.414 179.502 157.492 179.9 158.369C180.303 159.24 180.853 159.899 181.549 160.345C182.252 160.787 183.055 161.007 183.959 161.007C184.46 161.007 184.928 160.942 185.364 160.811C185.805 160.675 186.2 160.476 186.548 160.215C186.902 159.953 187.199 159.632 187.438 159.251C187.683 158.87 187.852 158.434 187.945 157.944L190.999 157.961C190.885 158.756 190.637 159.501 190.256 160.198C189.88 160.895 189.388 161.511 188.778 162.044C188.168 162.573 187.455 162.986 186.638 163.286C185.821 163.58 184.915 163.727 183.918 163.727C182.448 163.727 181.136 163.387 179.981 162.706C178.827 162.025 177.918 161.042 177.253 159.757C176.589 158.472 176.257 156.931 176.257 155.135C176.257 153.332 176.592 151.791 177.261 150.512C177.931 149.227 178.843 148.244 179.998 147.563C181.152 146.883 182.459 146.542 183.918 146.542C184.849 146.542 185.715 146.673 186.515 146.934C187.316 147.196 188.029 147.579 188.655 148.086C189.282 148.587 189.796 149.202 190.199 149.932C190.607 150.656 190.874 151.484 190.999 152.415ZM199.198 163.743C197.94 163.743 196.854 163.482 195.939 162.959C195.029 162.431 194.33 161.685 193.84 160.721C193.35 159.752 193.105 158.611 193.105 157.299C193.105 156.008 193.35 154.876 193.84 153.901C194.335 152.921 195.027 152.159 195.914 151.614C196.802 151.064 197.845 150.789 199.042 150.789C199.816 150.789 200.545 150.915 201.231 151.165C201.923 151.41 202.533 151.791 203.061 152.309C203.595 152.826 204.014 153.485 204.319 154.285C204.624 155.08 204.776 156.028 204.776 157.127V158.034H194.493V156.041H201.942C201.937 155.475 201.814 154.971 201.574 154.53C201.335 154.084 201 153.732 200.57 153.477C200.145 153.221 199.65 153.093 199.083 153.093C198.479 153.093 197.948 153.24 197.491 153.534C197.033 153.822 196.677 154.203 196.421 154.677C196.17 155.145 196.042 155.66 196.037 156.221V157.961C196.037 158.69 196.17 159.316 196.437 159.839C196.704 160.356 197.077 160.754 197.556 161.032C198.035 161.304 198.596 161.44 199.239 161.44C199.669 161.44 200.058 161.38 200.406 161.26C200.755 161.135 201.057 160.953 201.313 160.713C201.569 160.473 201.762 160.177 201.893 159.823L204.654 160.133C204.479 160.863 204.147 161.5 203.657 162.044C203.173 162.583 202.552 163.003 201.795 163.302C201.038 163.596 200.172 163.743 199.198 163.743ZM207.277 163.498V150.953H210.144V153.044H210.275C210.504 152.319 210.896 151.761 211.451 151.369C212.012 150.972 212.652 150.773 213.371 150.773C213.534 150.773 213.716 150.781 213.918 150.798C214.125 150.808 214.296 150.827 214.432 150.855V153.575C214.307 153.531 214.108 153.493 213.836 153.46C213.569 153.422 213.311 153.403 213.06 153.403C212.521 153.403 212.036 153.52 211.606 153.754C211.182 153.983 210.847 154.301 210.602 154.71C210.357 155.118 210.234 155.589 210.234 156.123V163.498H207.277ZM223.335 150.953V153.24H216.123V150.953H223.335ZM217.904 147.947H220.86V159.725C220.86 160.122 220.92 160.427 221.04 160.64C221.165 160.846 221.328 160.988 221.53 161.064C221.731 161.14 221.955 161.179 222.2 161.179C222.385 161.179 222.554 161.165 222.706 161.138C222.864 161.111 222.984 161.086 223.065 161.064L223.564 163.376C223.406 163.43 223.18 163.49 222.886 163.555C222.597 163.621 222.243 163.659 221.824 163.67C221.083 163.691 220.416 163.58 219.823 163.335C219.229 163.084 218.758 162.698 218.41 162.175C218.067 161.652 217.898 160.999 217.904 160.215V147.947ZM225.808 163.498V150.953H228.764V163.498H225.808ZM227.294 149.172C226.826 149.172 226.423 149.017 226.085 148.707C225.748 148.391 225.579 148.012 225.579 147.571C225.579 147.125 225.748 146.746 226.085 146.436C226.423 146.12 226.826 145.962 227.294 145.962C227.768 145.962 228.171 146.12 228.503 146.436C228.841 146.746 229.009 147.125 229.009 147.571C229.009 148.012 228.841 148.391 228.503 148.707C228.171 149.017 227.768 149.172 227.294 149.172ZM238.159 150.953V153.24H230.743V150.953H238.159ZM232.597 163.498V149.768C232.597 148.924 232.771 148.222 233.12 147.661C233.474 147.1 233.947 146.681 234.541 146.403C235.134 146.126 235.793 145.987 236.518 145.987C237.029 145.987 237.484 146.028 237.882 146.109C238.279 146.191 238.573 146.265 238.764 146.33L238.176 148.617C238.05 148.579 237.892 148.541 237.702 148.502C237.511 148.459 237.299 148.437 237.065 148.437C236.515 148.437 236.125 148.57 235.897 148.837C235.674 149.099 235.562 149.474 235.562 149.964V163.498H232.597ZM240.475 163.498V150.953H243.431V163.498H240.475ZM241.961 149.172C241.493 149.172 241.09 149.017 240.752 148.707C240.415 148.391 240.246 148.012 240.246 147.571C240.246 147.125 240.415 146.746 240.752 146.436C241.09 146.12 241.493 145.962 241.961 145.962C242.435 145.962 242.838 146.12 243.17 146.436C243.508 146.746 243.676 147.125 243.676 147.571C243.676 148.012 243.508 148.391 243.17 148.707C242.838 149.017 242.435 149.172 241.961 149.172ZM251.944 163.743C250.692 163.743 249.616 163.468 248.718 162.918C247.825 162.368 247.136 161.609 246.652 160.64C246.172 159.665 245.933 158.543 245.933 157.274C245.933 156 246.178 154.876 246.668 153.901C247.158 152.921 247.849 152.159 248.742 151.614C249.641 151.064 250.703 150.789 251.928 150.789C252.946 150.789 253.847 150.977 254.631 151.353C255.421 151.723 256.05 152.249 256.518 152.929C256.986 153.604 257.253 154.394 257.318 155.298H254.492C254.378 154.693 254.106 154.19 253.676 153.787C253.251 153.378 252.682 153.174 251.969 153.174C251.364 153.174 250.833 153.338 250.376 153.664C249.919 153.986 249.562 154.448 249.306 155.053C249.056 155.657 248.93 156.381 248.93 157.225C248.93 158.08 249.056 158.815 249.306 159.431C249.556 160.041 249.908 160.512 250.36 160.844C250.817 161.17 251.353 161.334 251.969 161.334C252.404 161.334 252.794 161.252 253.137 161.089C253.485 160.92 253.776 160.678 254.011 160.362C254.245 160.046 254.405 159.662 254.492 159.21H257.318C257.248 160.098 256.986 160.885 256.534 161.571C256.082 162.251 255.467 162.785 254.688 163.171C253.91 163.553 252.995 163.743 251.944 163.743ZM263.356 163.751C262.561 163.751 261.845 163.61 261.208 163.327C260.577 163.038 260.076 162.613 259.705 162.053C259.341 161.492 259.158 160.8 259.158 159.978C259.158 159.27 259.289 158.685 259.55 158.222C259.812 157.759 260.168 157.389 260.62 157.111C261.072 156.833 261.581 156.624 262.148 156.482C262.719 156.335 263.31 156.229 263.92 156.164C264.655 156.087 265.251 156.019 265.709 155.959C266.166 155.894 266.498 155.796 266.705 155.665C266.917 155.529 267.024 155.32 267.024 155.037V154.988C267.024 154.372 266.841 153.896 266.476 153.558C266.112 153.221 265.586 153.052 264.9 153.052C264.176 153.052 263.601 153.21 263.177 153.526C262.757 153.841 262.474 154.214 262.327 154.644L259.567 154.252C259.784 153.49 260.144 152.853 260.645 152.341C261.146 151.824 261.758 151.437 262.482 151.181C263.207 150.92 264.007 150.789 264.884 150.789C265.488 150.789 266.09 150.86 266.689 151.002C267.288 151.143 267.835 151.377 268.33 151.704C268.826 152.025 269.223 152.464 269.523 153.019C269.828 153.575 269.98 154.269 269.98 155.102V163.498H267.138V161.775H267.04C266.86 162.123 266.607 162.45 266.28 162.755C265.959 163.054 265.553 163.297 265.063 163.482C264.579 163.662 264.01 163.751 263.356 163.751ZM264.124 161.579C264.718 161.579 265.232 161.462 265.668 161.228C266.103 160.988 266.438 160.672 266.672 160.28C266.912 159.888 267.032 159.461 267.032 158.998V157.519C266.939 157.596 266.781 157.666 266.558 157.732C266.34 157.797 266.095 157.854 265.823 157.903C265.551 157.952 265.281 157.996 265.014 158.034C264.748 158.072 264.516 158.105 264.32 158.132C263.879 158.192 263.484 158.29 263.136 158.426C262.787 158.562 262.512 158.753 262.311 158.998C262.109 159.237 262.009 159.548 262.009 159.929C262.009 160.473 262.207 160.885 262.605 161.162C263.002 161.44 263.509 161.579 264.124 161.579ZM277.609 163.719C276.623 163.719 275.741 163.465 274.962 162.959C274.184 162.453 273.569 161.718 273.117 160.754C272.665 159.79 272.439 158.619 272.439 157.242C272.439 155.848 272.667 154.672 273.125 153.713C273.588 152.75 274.211 152.023 274.995 151.533C275.779 151.037 276.653 150.789 277.617 150.789C278.352 150.789 278.956 150.915 279.43 151.165C279.904 151.41 280.28 151.707 280.557 152.055C280.835 152.398 281.05 152.722 281.203 153.027H281.325V146.771H284.29V163.498H281.382V161.522H281.203C281.05 161.827 280.83 162.151 280.541 162.494C280.252 162.831 279.871 163.12 279.398 163.359C278.924 163.599 278.328 163.719 277.609 163.719ZM278.434 161.293C279.06 161.293 279.594 161.124 280.035 160.787C280.476 160.443 280.811 159.967 281.039 159.357C281.268 158.747 281.382 158.037 281.382 157.225C281.382 156.414 281.268 155.709 281.039 155.11C280.816 154.511 280.484 154.046 280.043 153.713C279.607 153.381 279.071 153.215 278.434 153.215C277.775 153.215 277.225 153.387 276.784 153.73C276.343 154.073 276.011 154.546 275.787 155.151C275.564 155.755 275.453 156.447 275.453 157.225C275.453 158.01 275.564 158.709 275.787 159.325C276.016 159.934 276.351 160.416 276.792 160.77C277.239 161.119 277.786 161.293 278.434 161.293ZM292.913 163.743C291.688 163.743 290.626 163.474 289.727 162.935C288.829 162.396 288.132 161.641 287.637 160.672C287.147 159.703 286.902 158.57 286.902 157.274C286.902 155.979 287.147 154.843 287.637 153.869C288.132 152.894 288.829 152.137 289.727 151.598C290.626 151.059 291.688 150.789 292.913 150.789C294.138 150.789 295.2 151.059 296.098 151.598C296.997 152.137 297.691 152.894 298.181 153.869C298.676 154.843 298.924 155.979 298.924 157.274C298.924 158.57 298.676 159.703 298.181 160.672C297.691 161.641 296.997 162.396 296.098 162.935C295.2 163.474 294.138 163.743 292.913 163.743ZM292.929 161.375C293.593 161.375 294.149 161.192 294.595 160.827C295.042 160.457 295.374 159.962 295.592 159.341C295.815 158.72 295.927 158.029 295.927 157.266C295.927 156.499 295.815 155.804 295.592 155.184C295.374 154.557 295.042 154.059 294.595 153.689C294.149 153.319 293.593 153.133 292.929 153.133C292.249 153.133 291.682 153.319 291.23 153.689C290.784 154.059 290.449 154.557 290.226 155.184C290.008 155.804 289.899 156.499 289.899 157.266C289.899 158.029 290.008 158.72 290.226 159.341C290.449 159.962 290.784 160.457 291.23 160.827C291.682 161.192 292.249 161.375 292.929 161.375Z" fill="black"/>
<path d="M166.267 204.911L185.117 216.973L160.85 258L158.37 239.349L142 245.938L166.267 204.911Z" fill="black"/>
<path d="M181.855 215.962L198.082 200.307L233 239.463L214.027 235.789L216.774 255.117L181.855 215.962Z" fill="black"/>
<path d="M179.582 170.262L179.582 170.262L179.586 170.266L185.031 176.081L185.396 176.471L185.761 176.081L191.207 170.266L191.207 170.266L191.211 170.262C191.813 169.604 192.696 169.351 193.525 169.587C194.365 169.826 195.032 170.516 195.245 171.4L195.245 171.402L197.17 179.269L197.294 179.777L197.796 179.63L205.299 177.427L205.301 177.427C206.132 177.18 207.029 177.425 207.642 178.062C208.256 178.701 208.502 179.652 208.258 180.541L208.258 180.542L206.14 188.346L206.008 188.833L206.495 188.961L214.055 190.948C214.055 190.948 214.056 190.949 214.057 190.949C214.893 191.178 215.562 191.855 215.796 192.746C216.029 193.632 215.776 194.57 215.149 195.213C215.148 195.213 215.148 195.214 215.147 195.214L209.558 200.876L209.212 201.228L209.558 201.579L215.147 207.241C215.148 207.242 215.148 207.242 215.148 207.242C215.775 207.885 216.029 208.824 215.796 209.71C215.56 210.605 214.889 211.29 214.06 211.506L214.059 211.506L206.495 213.495L206.008 213.623L206.14 214.109L208.258 221.913L208.258 221.915C208.502 222.804 208.256 223.754 207.642 224.394C207.029 225.031 206.132 225.276 205.301 225.029L205.299 225.028L197.796 222.825L197.293 222.678L197.169 223.187L195.258 231.05C195.258 231.051 195.258 231.051 195.258 231.052C195.033 231.943 194.373 232.63 193.537 232.869C192.708 233.105 191.822 232.852 191.206 232.201C191.206 232.201 191.206 232.201 191.205 232.2L185.761 226.387L185.396 225.997L185.031 226.387L179.587 232.2C179.587 232.201 179.587 232.201 179.587 232.201C178.971 232.852 178.084 233.105 177.256 232.869C176.415 232.629 175.748 231.939 175.536 231.055L175.535 231.054L173.623 223.187L173.5 222.678L172.997 222.825L165.494 225.028L165.492 225.029C164.66 225.276 163.764 225.031 163.151 224.394C162.536 223.754 162.29 222.804 162.535 221.915L162.535 221.913L164.653 214.109L164.785 213.623L164.297 213.495L156.738 211.507C156.738 211.507 156.737 211.507 156.736 211.507C155.896 211.277 155.22 210.598 154.998 209.715C154.773 208.819 155.022 207.871 155.652 207.247L155.652 207.247L155.656 207.243L161.247 201.579L161.593 201.228L161.247 200.876L155.656 195.212L155.656 195.212L155.652 195.208C155.018 194.581 154.763 193.645 154.997 192.758C155.233 191.863 155.904 191.178 156.733 190.962L156.735 190.962L164.298 188.961L164.785 188.832L164.653 188.346L162.535 180.542L162.535 180.541C162.29 179.652 162.536 178.701 163.151 178.062C163.764 177.425 164.66 177.18 165.492 177.427L165.494 177.427L172.997 179.63L173.5 179.778L173.623 179.268L175.534 171.405C175.535 171.405 175.535 171.404 175.535 171.404C175.761 170.508 176.422 169.814 177.25 169.588C178.089 169.36 178.984 169.609 179.582 170.262Z" fill="black" stroke="white"/>
<path d="M162.081 53.3853C162.519 51.5717 164.581 50.2473 167.003 50.2473H197.001C199.766 50.2473 202 51.9535 202 54.0654C202 56.1774 199.766 57.8836 197.001 57.8836H171.174L167.987 71.2473H185.751C197.485 71.2473 207 78.5137 207 87.4745C207 96.4353 197.485 103.702 185.751 103.702H172.705C166.55 103.702 160.925 101.041 158.175 96.841L157.535 95.8626C156.3 93.9774 157.3 91.6865 159.769 90.7438C162.237 89.8012 165.237 90.5649 166.471 92.4501L167.112 93.4285C168.174 95.0512 170.331 96.0654 172.705 96.0654H185.751C191.97 96.0654 197.001 92.2234 197.001 87.4745C197.001 82.7257 191.97 78.8836 185.751 78.8836H162.003C160.519 78.8836 159.113 78.3825 158.159 77.5115C157.206 76.6404 156.816 75.495 157.081 74.3853L162.081 53.3853Z" fill="black"/>
<defs>
<filter id="filter0_d_3_92" x="0" y="0" width="363" height="312" filterUnits="userSpaceOnUse" color-interpolation-filters="sRGB">
<feFlood flood-opacity="0" result="BackgroundImageFix"/>
<feColorMatrix in="SourceAlpha" type="matrix" values="0 0 0 0 0 0 0 0 0 0 0 0 0 0 0 0 0 0 127 0" result="hardAlpha"/>
<feOffset dy="4"/>
<feGaussianBlur stdDeviation="2"/>
<feComposite in2="hardAlpha" operator="out"/>
<feColorMatrix type="matrix" values="0 0 0 0 0 0 0 0 0 0 0 0 0 0 0 0 0 0 0.25 0"/>
<feBlend mode="normal" in2="BackgroundImageFix" result="effect1_dropShadow_3_92"/>
<feBlend mode="normal" in="SourceGraphic" in2="effect1_dropShadow_3_92" result="shape"/>
</filter>
<filter id="filter1_d_3_92" x="131" y="33.9018" width="102" height="99.3818" filterUnits="userSpaceOnUse" color-interpolation-filters="sRGB">
<feFlood flood-opacity="0" result="BackgroundImageFix"/>
<feColorMatrix in="SourceAlpha" type="matrix" values="0 0 0 0 0 0 0 0 0 0 0 0 0 0 0 0 0 0 127 0" result="hardAlpha"/>
<feOffset dy="4"/>
<feGaussianBlur stdDeviation="2"/>
<feComposite in2="hardAlpha" operator="out"/>
<feColorMatrix type="matrix" values="0 0 0 0 0 0 0 0 0 0 0 0 0 0 0 0 0 0 0.25 0"/>
<feBlend mode="normal" in2="BackgroundImageFix" result="effect1_dropShadow_3_92"/>
<feBlend mode="normal" in="SourceGraphic" in2="effect1_dropShadow_3_92" result="shape"/>
</filter>
<linearGradient id="paint0_linear_3_92" x1="181.5" y1="0" x2="181.5" y2="304" gradientUnits="userSpaceOnUse">
<stop stop-color="#007C7C"/>
<stop offset="0.313815" stop-color="#339292" stop-opacity="0.763678"/>
<stop offset="1" stop-color="#D9D9D9" stop-opacity="0"/>
</linearGradient>
<linearGradient id="paint1_linear_3_92" x1="182" y1="40.9018" x2="182" y2="118.284" gradientUnits="userSpaceOnUse">
<stop offset="0.1875" stop-color="#FEFEFE"/>
<stop offset="0.677083" stop-color="#FEFEFE" stop-opacity="0.570513"/>
<stop offset="1" stop-color="#FEFEFE" stop-opacity="0"/>
</linearGradient>
</defs>
</svg>
