<svg width="363" height="303" viewBox="0 0 363 303" fill="none" xmlns="http://www.w3.org/2000/svg">
<g filter="url(#filter0_d_4_34)">
<rect x="4" width="355" height="295" rx="18" fill="url(#paint0_linear_4_34)" shape-rendering="crispEdges"/>
</g>
<g filter="url(#filter1_d_4_34)">
<ellipse cx="182" cy="74.19" rx="40" ry="36.0646" fill="url(#paint1_linear_4_34)" shape-rendering="crispEdges"/>
<path d="M182 113.755C205.675 113.755 225.5 96.3731 225.5 74.19C225.5 52.0069 205.675 34.6254 182 34.6254C158.325 34.6254 138.5 52.0069 138.5 74.19C138.5 96.3731 158.325 113.755 182 113.755Z" stroke="black" stroke-width="7" shape-rendering="crispEdges"/>
</g>
<path d="M78.5477 137.166V153.893H75.5175V137.166H78.5477ZM84.6551 146.543V153.893H81.6984V141.348H84.5244V143.48H84.6714C84.96 142.777 85.4201 142.219 86.0517 141.805C86.6888 141.391 87.4756 141.185 88.4122 141.185C89.2779 141.185 90.0321 141.37 90.6746 141.74C91.3225 142.11 91.8235 142.647 92.1774 143.349C92.5368 144.051 92.7138 144.904 92.7083 145.905V153.893H89.7516V146.363C89.7516 145.524 89.5338 144.868 89.0982 144.394C88.6681 143.921 88.0718 143.684 87.3095 143.684C86.7922 143.684 86.3321 143.798 85.9292 144.027C85.5317 144.25 85.2186 144.574 84.9899 144.999C84.7667 145.424 84.6551 145.938 84.6551 146.543ZM95.714 153.893V141.348H98.6707V153.893H95.714ZM97.2005 139.567C96.7322 139.567 96.3293 139.412 95.9917 139.102C95.6541 138.786 95.4853 138.408 95.4853 137.967C95.4853 137.52 95.6541 137.142 95.9917 136.831C96.3293 136.515 96.7322 136.358 97.2005 136.358C97.6742 136.358 98.0772 136.515 98.4093 136.831C98.7469 137.142 98.9157 137.52 98.9157 137.967C98.9157 138.408 98.7469 138.786 98.4093 139.102C98.0772 139.412 97.6742 139.567 97.2005 139.567ZM107.183 154.138C105.931 154.138 104.856 153.863 103.957 153.313C103.064 152.764 102.375 152.004 101.891 151.035C101.412 150.06 101.172 148.938 101.172 147.67C101.172 146.396 101.417 145.271 101.907 144.296C102.397 143.316 103.089 142.554 103.982 142.009C104.88 141.46 105.942 141.185 107.167 141.185C108.185 141.185 109.086 141.372 109.871 141.748C110.66 142.118 111.289 142.644 111.757 143.324C112.226 144 112.492 144.789 112.558 145.693H109.732C109.617 145.089 109.345 144.585 108.915 144.182C108.49 143.774 107.921 143.57 107.208 143.57C106.603 143.57 106.073 143.733 105.615 144.06C105.158 144.381 104.801 144.844 104.545 145.448C104.295 146.052 104.17 146.777 104.17 147.621C104.17 148.476 104.295 149.211 104.545 149.826C104.796 150.436 105.147 150.907 105.599 151.239C106.056 151.566 106.593 151.729 107.208 151.729C107.643 151.729 108.033 151.647 108.376 151.484C108.724 151.315 109.016 151.073 109.25 150.757C109.484 150.441 109.645 150.057 109.732 149.605H112.558C112.487 150.493 112.226 151.28 111.774 151.966C111.322 152.646 110.706 153.18 109.928 153.567C109.149 153.948 108.234 154.138 107.183 154.138ZM114.985 153.893V141.348H117.942V153.893H114.985ZM116.472 139.567C116.004 139.567 115.601 139.412 115.263 139.102C114.926 138.786 114.757 138.408 114.757 137.967C114.757 137.52 114.926 137.142 115.263 136.831C115.601 136.515 116.004 136.358 116.472 136.358C116.946 136.358 117.349 136.515 117.681 136.831C118.018 137.142 118.187 137.52 118.187 137.967C118.187 138.408 118.018 138.786 117.681 139.102C117.349 139.412 116.946 139.567 116.472 139.567ZM124.593 154.147C123.798 154.147 123.082 154.005 122.445 153.722C121.813 153.433 121.312 153.009 120.942 152.448C120.577 151.887 120.394 151.195 120.394 150.373C120.394 149.665 120.525 149.08 120.787 148.617C121.048 148.154 121.405 147.784 121.856 147.506C122.308 147.229 122.818 147.019 123.384 146.877C123.956 146.73 124.546 146.624 125.156 146.559C125.891 146.483 126.488 146.415 126.945 146.355C127.402 146.289 127.734 146.191 127.941 146.061C128.154 145.925 128.26 145.715 128.26 145.432V145.383C128.26 144.767 128.077 144.291 127.713 143.953C127.348 143.616 126.822 143.447 126.136 143.447C125.412 143.447 124.838 143.605 124.413 143.921C123.994 144.237 123.711 144.61 123.564 145.04L120.803 144.648C121.021 143.885 121.38 143.248 121.881 142.736C122.382 142.219 122.995 141.833 123.719 141.577C124.443 141.315 125.243 141.185 126.12 141.185C126.724 141.185 127.326 141.255 127.925 141.397C128.524 141.538 129.071 141.773 129.567 142.099C130.062 142.421 130.46 142.859 130.759 143.414C131.064 143.97 131.217 144.664 131.217 145.497V153.893H128.374V152.17H128.276C128.097 152.518 127.843 152.845 127.517 153.15C127.195 153.45 126.79 153.692 126.3 153.877C125.815 154.057 125.246 154.147 124.593 154.147ZM125.36 151.974C125.954 151.974 126.468 151.857 126.904 151.623C127.34 151.383 127.675 151.067 127.909 150.675C128.148 150.283 128.268 149.856 128.268 149.393V147.915C128.176 147.991 128.018 148.062 127.794 148.127C127.577 148.192 127.332 148.25 127.059 148.299C126.787 148.348 126.517 148.391 126.251 148.429C125.984 148.467 125.752 148.5 125.556 148.527C125.115 148.587 124.721 148.685 124.372 148.821C124.024 148.957 123.749 149.148 123.547 149.393C123.346 149.633 123.245 149.943 123.245 150.324C123.245 150.869 123.444 151.28 123.841 151.557C124.239 151.835 124.745 151.974 125.36 151.974ZM146.159 141.348V143.635H138.947V141.348H146.159ZM140.728 138.342H143.684V150.12C143.684 150.517 143.744 150.822 143.864 151.035C143.989 151.242 144.153 151.383 144.354 151.459C144.556 151.536 144.779 151.574 145.024 151.574C145.209 151.574 145.378 151.56 145.53 151.533C145.688 151.506 145.808 151.481 145.89 151.459L146.388 153.771C146.23 153.825 146.004 153.885 145.71 153.951C145.421 154.016 145.067 154.054 144.648 154.065C143.908 154.087 143.241 153.975 142.647 153.73C142.054 153.48 141.583 153.093 141.234 152.57C140.891 152.047 140.722 151.394 140.728 150.61V138.342ZM156.628 148.617V141.348H159.585V153.893H156.718V151.664H156.587C156.304 152.366 155.839 152.94 155.191 153.387C154.548 153.833 153.756 154.057 152.814 154.057C151.992 154.057 151.265 153.874 150.633 153.509C150.007 153.139 149.517 152.603 149.163 151.9C148.809 151.193 148.632 150.338 148.632 149.336V141.348H151.589V148.878C151.589 149.673 151.806 150.305 152.242 150.773C152.678 151.242 153.249 151.476 153.957 151.476C154.393 151.476 154.815 151.37 155.223 151.157C155.632 150.945 155.966 150.629 156.228 150.21C156.495 149.785 156.628 149.254 156.628 148.617ZM168.33 158.598V141.348H171.238V143.422H171.409C171.562 143.118 171.777 142.794 172.055 142.451C172.332 142.102 172.708 141.805 173.182 141.56C173.655 141.31 174.26 141.185 174.995 141.185C175.964 141.185 176.838 141.432 177.617 141.928C178.401 142.418 179.022 143.145 179.479 144.109C179.942 145.067 180.173 146.243 180.173 147.637C180.173 149.015 179.947 150.185 179.495 151.149C179.043 152.113 178.428 152.848 177.649 153.354C176.871 153.861 175.989 154.114 175.003 154.114C174.284 154.114 173.688 153.994 173.214 153.755C172.741 153.515 172.36 153.226 172.071 152.889C171.788 152.546 171.567 152.222 171.409 151.917H171.287V158.598H168.33ZM171.23 147.621C171.23 148.432 171.344 149.143 171.573 149.752C171.807 150.362 172.142 150.839 172.577 151.182C173.018 151.519 173.552 151.688 174.178 151.688C174.832 151.688 175.379 151.514 175.82 151.165C176.261 150.811 176.593 150.33 176.816 149.72C177.045 149.104 177.159 148.405 177.159 147.621C177.159 146.842 177.048 146.15 176.825 145.546C176.601 144.942 176.269 144.468 175.828 144.125C175.387 143.782 174.837 143.61 174.178 143.61C173.547 143.61 173.01 143.776 172.569 144.109C172.128 144.441 171.793 144.906 171.565 145.505C171.341 146.104 171.23 146.809 171.23 147.621ZM182.705 153.893V141.348H185.572V143.439H185.703C185.931 142.715 186.323 142.157 186.879 141.764C187.44 141.367 188.08 141.168 188.798 141.168C188.962 141.168 189.144 141.176 189.345 141.193C189.552 141.204 189.724 141.223 189.86 141.25V143.97C189.735 143.926 189.536 143.888 189.264 143.855C188.997 143.817 188.738 143.798 188.488 143.798C187.949 143.798 187.464 143.915 187.034 144.149C186.609 144.378 186.274 144.697 186.029 145.105C185.784 145.513 185.662 145.984 185.662 146.518V153.893H182.705ZM196.78 154.138C195.555 154.138 194.493 153.869 193.595 153.33C192.696 152.791 191.999 152.037 191.504 151.067C191.014 150.098 190.769 148.966 190.769 147.67C190.769 146.374 191.014 145.238 191.504 144.264C191.999 143.289 192.696 142.532 193.595 141.993C194.493 141.454 195.555 141.185 196.78 141.185C198.005 141.185 199.067 141.454 199.965 141.993C200.864 142.532 201.558 143.289 202.048 144.264C202.544 145.238 202.791 146.374 202.791 147.67C202.791 148.966 202.544 150.098 202.048 151.067C201.558 152.037 200.864 152.791 199.965 153.33C199.067 153.869 198.005 154.138 196.78 154.138ZM196.796 151.77C197.461 151.77 198.016 151.587 198.463 151.223C198.909 150.852 199.241 150.357 199.459 149.736C199.682 149.115 199.794 148.424 199.794 147.661C199.794 146.894 199.682 146.199 199.459 145.579C199.241 144.953 198.909 144.454 198.463 144.084C198.016 143.714 197.461 143.529 196.796 143.529C196.116 143.529 195.549 143.714 195.098 144.084C194.651 144.454 194.316 144.953 194.093 145.579C193.875 146.199 193.766 146.894 193.766 147.661C193.766 148.424 193.875 149.115 194.093 149.736C194.316 150.357 194.651 150.852 195.098 151.223C195.549 151.587 196.116 151.77 196.796 151.77ZM210.773 154.138C209.521 154.138 208.445 153.863 207.547 153.313C206.654 152.764 205.965 152.004 205.481 151.035C205.001 150.06 204.762 148.938 204.762 147.67C204.762 146.396 205.007 145.271 205.497 144.296C205.987 143.316 206.679 142.554 207.572 142.009C208.47 141.46 209.532 141.185 210.757 141.185C211.775 141.185 212.676 141.372 213.46 141.748C214.25 142.118 214.879 142.644 215.347 143.324C215.815 144 216.082 144.789 216.148 145.693H213.322C213.207 145.089 212.935 144.585 212.505 144.182C212.08 143.774 211.511 143.57 210.798 143.57C210.193 143.57 209.662 143.733 209.205 144.06C208.748 144.381 208.391 144.844 208.135 145.448C207.885 146.052 207.759 146.777 207.759 147.621C207.759 148.476 207.885 149.211 208.135 149.826C208.386 150.436 208.737 150.907 209.189 151.239C209.646 151.566 210.182 151.729 210.798 151.729C211.233 151.729 211.623 151.647 211.966 151.484C212.314 151.315 212.605 151.073 212.84 150.757C213.074 150.441 213.234 150.057 213.322 149.605H216.148C216.077 150.493 215.815 151.28 215.363 151.966C214.911 152.646 214.296 153.18 213.518 153.567C212.739 153.948 211.824 154.138 210.773 154.138ZM224.129 154.138C222.871 154.138 221.785 153.877 220.87 153.354C219.961 152.826 219.261 152.08 218.771 151.116C218.281 150.147 218.036 149.006 218.036 147.694C218.036 146.404 218.281 145.271 218.771 144.296C219.267 143.316 219.958 142.554 220.846 142.009C221.733 141.46 222.776 141.185 223.974 141.185C224.747 141.185 225.477 141.31 226.163 141.56C226.855 141.805 227.464 142.186 227.993 142.704C228.526 143.221 228.945 143.88 229.25 144.68C229.555 145.475 229.708 146.423 229.708 147.523V148.429H219.425V146.436H226.874C226.868 145.87 226.746 145.366 226.506 144.925C226.266 144.479 225.932 144.128 225.501 143.872C225.077 143.616 224.581 143.488 224.015 143.488C223.411 143.488 222.88 143.635 222.422 143.929C221.965 144.217 221.608 144.599 221.352 145.072C221.102 145.541 220.974 146.055 220.968 146.616V148.356C220.968 149.085 221.102 149.712 221.369 150.234C221.635 150.752 222.008 151.149 222.488 151.427C222.967 151.699 223.528 151.835 224.17 151.835C224.6 151.835 224.99 151.775 225.338 151.655C225.687 151.53 225.989 151.348 226.245 151.108C226.501 150.869 226.694 150.572 226.825 150.218L229.585 150.528C229.411 151.258 229.079 151.895 228.589 152.44C228.104 152.979 227.483 153.398 226.727 153.697C225.97 153.991 225.104 154.138 224.129 154.138ZM242.125 144.664L239.429 144.958C239.353 144.686 239.22 144.43 239.029 144.19C238.844 143.951 238.593 143.757 238.278 143.61C237.962 143.463 237.575 143.39 237.118 143.39C236.503 143.39 235.985 143.523 235.566 143.79C235.152 144.057 234.948 144.403 234.953 144.827C234.948 145.192 235.081 145.489 235.354 145.718C235.631 145.946 236.089 146.134 236.726 146.281L238.866 146.739C240.053 146.994 240.935 147.4 241.512 147.956C242.095 148.511 242.389 149.238 242.394 150.136C242.389 150.926 242.157 151.623 241.7 152.227C241.248 152.826 240.619 153.294 239.813 153.632C239.007 153.97 238.082 154.138 237.036 154.138C235.501 154.138 234.265 153.817 233.328 153.175C232.392 152.527 231.833 151.625 231.654 150.471L234.537 150.193C234.668 150.76 234.945 151.187 235.37 151.476C235.795 151.764 236.347 151.909 237.028 151.909C237.73 151.909 238.294 151.764 238.719 151.476C239.149 151.187 239.364 150.831 239.364 150.406C239.364 150.046 239.225 149.75 238.947 149.516C238.675 149.281 238.25 149.102 237.673 148.976L235.533 148.527C234.33 148.277 233.44 147.855 232.863 147.261C232.285 146.662 231.999 145.905 232.005 144.991C231.999 144.217 232.209 143.548 232.634 142.981C233.064 142.41 233.66 141.969 234.423 141.658C235.19 141.342 236.075 141.185 237.077 141.185C238.547 141.185 239.704 141.498 240.548 142.124C241.398 142.75 241.923 143.597 242.125 144.664ZM250.304 154.138C249.079 154.138 248.018 153.869 247.119 153.33C246.221 152.791 245.524 152.037 245.028 151.067C244.538 150.098 244.293 148.966 244.293 147.67C244.293 146.374 244.538 145.238 245.028 144.264C245.524 143.289 246.221 142.532 247.119 141.993C248.018 141.454 249.079 141.185 250.304 141.185C251.53 141.185 252.591 141.454 253.49 141.993C254.388 142.532 255.083 143.289 255.573 144.264C256.068 145.238 256.316 146.374 256.316 147.67C256.316 148.966 256.068 150.098 255.573 151.067C255.083 152.037 254.388 152.791 253.49 153.33C252.591 153.869 251.53 154.138 250.304 154.138ZM250.321 151.77C250.985 151.77 251.54 151.587 251.987 151.223C252.433 150.852 252.766 150.357 252.983 149.736C253.207 149.115 253.318 148.424 253.318 147.661C253.318 146.894 253.207 146.199 252.983 145.579C252.766 144.953 252.433 144.454 251.987 144.084C251.54 143.714 250.985 143.529 250.321 143.529C249.64 143.529 249.074 143.714 248.622 144.084C248.175 144.454 247.841 144.953 247.617 145.579C247.4 146.199 247.291 146.894 247.291 147.661C247.291 148.424 247.4 149.115 247.617 149.736C247.841 150.357 248.175 150.852 248.622 151.223C249.074 151.587 249.64 151.77 250.321 151.77ZM269.186 154.114C268.2 154.114 267.318 153.861 266.54 153.354C265.761 152.848 265.146 152.113 264.694 151.149C264.242 150.185 264.016 149.015 264.016 147.637C264.016 146.243 264.245 145.067 264.702 144.109C265.165 143.145 265.788 142.418 266.572 141.928C267.356 141.432 268.23 141.185 269.194 141.185C269.929 141.185 270.534 141.31 271.007 141.56C271.481 141.805 271.857 142.102 272.134 142.451C272.412 142.794 272.627 143.118 272.78 143.422H272.902V137.166H275.867V153.893H272.959V151.917H272.78C272.627 152.222 272.407 152.546 272.118 152.889C271.83 153.226 271.448 153.515 270.975 153.755C270.501 153.994 269.905 154.114 269.186 154.114ZM270.011 151.688C270.637 151.688 271.171 151.519 271.612 151.182C272.053 150.839 272.388 150.362 272.616 149.752C272.845 149.143 272.959 148.432 272.959 147.621C272.959 146.809 272.845 146.104 272.616 145.505C272.393 144.906 272.061 144.441 271.62 144.109C271.184 143.776 270.648 143.61 270.011 143.61C269.352 143.61 268.802 143.782 268.361 144.125C267.92 144.468 267.588 144.942 267.365 145.546C267.141 146.15 267.03 146.842 267.03 147.621C267.03 148.405 267.141 149.104 267.365 149.72C267.593 150.33 267.928 150.811 268.369 151.165C268.816 151.514 269.363 151.688 270.011 151.688ZM284.572 154.138C283.314 154.138 282.228 153.877 281.313 153.354C280.403 152.826 279.704 152.08 279.214 151.116C278.724 150.147 278.479 149.006 278.479 147.694C278.479 146.404 278.724 145.271 279.214 144.296C279.709 143.316 280.401 142.554 281.288 142.009C282.176 141.46 283.219 141.185 284.417 141.185C285.19 141.185 285.919 141.31 286.605 141.56C287.297 141.805 287.907 142.186 288.435 142.704C288.969 143.221 289.388 143.88 289.693 144.68C289.998 145.475 290.15 146.423 290.15 147.523V148.429H279.867V146.436H287.316C287.311 145.87 287.188 145.366 286.948 144.925C286.709 144.479 286.374 144.128 285.944 143.872C285.519 143.616 285.024 143.488 284.457 143.488C283.853 143.488 283.322 143.635 282.865 143.929C282.407 144.217 282.051 144.599 281.795 145.072C281.544 145.541 281.416 146.055 281.411 146.616V148.356C281.411 149.085 281.544 149.712 281.811 150.234C282.078 150.752 282.451 151.149 282.93 151.427C283.409 151.699 283.97 151.835 284.613 151.835C285.043 151.835 285.432 151.775 285.78 151.655C286.129 151.53 286.431 151.348 286.687 151.108C286.943 150.869 287.136 150.572 287.267 150.218L290.028 150.528C289.853 151.258 289.521 151.895 289.031 152.44C288.547 152.979 287.926 153.398 287.169 153.697C286.412 153.991 285.546 154.138 284.572 154.138ZM129.647 182.138C128.39 182.138 127.303 181.877 126.388 181.354C125.479 180.826 124.779 180.08 124.289 179.116C123.799 178.147 123.554 177.006 123.554 175.694C123.554 174.404 123.799 173.271 124.289 172.296C124.785 171.316 125.476 170.554 126.364 170.009C127.252 169.46 128.294 169.185 129.492 169.185C130.265 169.185 130.995 169.31 131.681 169.56C132.373 169.805 132.982 170.186 133.511 170.704C134.044 171.221 134.464 171.88 134.768 172.68C135.073 173.475 135.226 174.423 135.226 175.523V176.429H124.943V174.436H132.392C132.386 173.87 132.264 173.366 132.024 172.925C131.785 172.479 131.45 172.128 131.02 171.872C130.595 171.616 130.099 171.488 129.533 171.488C128.929 171.488 128.398 171.635 127.94 171.929C127.483 172.217 127.126 172.599 126.87 173.072C126.62 173.541 126.492 174.055 126.487 174.616V176.356C126.487 177.085 126.62 177.712 126.887 178.234C127.154 178.752 127.527 179.149 128.006 179.427C128.485 179.699 129.046 179.835 129.688 179.835C130.118 179.835 130.508 179.775 130.856 179.655C131.205 179.53 131.507 179.348 131.763 179.108C132.019 178.869 132.212 178.572 132.343 178.218L135.103 178.528C134.929 179.258 134.597 179.895 134.107 180.44C133.622 180.979 133.002 181.398 132.245 181.697C131.488 181.991 130.622 182.138 129.647 182.138ZM148.574 169.348L144.106 181.893H140.839L136.371 169.348H139.524L142.407 178.667H142.538L145.429 169.348H148.574ZM153.87 182.147C153.075 182.147 152.359 182.005 151.722 181.722C151.091 181.433 150.59 181.009 150.22 180.448C149.855 179.887 149.672 179.195 149.672 178.373C149.672 177.665 149.803 177.08 150.064 176.617C150.326 176.154 150.682 175.784 151.134 175.506C151.586 175.229 152.095 175.019 152.662 174.877C153.233 174.73 153.824 174.624 154.434 174.559C155.169 174.483 155.765 174.415 156.223 174.355C156.68 174.289 157.012 174.191 157.219 174.061C157.432 173.925 157.538 173.715 157.538 173.432V173.383C157.538 172.767 157.355 172.291 156.991 171.953C156.626 171.616 156.1 171.447 155.414 171.447C154.69 171.447 154.116 171.605 153.691 171.921C153.272 172.237 152.988 172.61 152.841 173.04L150.081 172.648C150.299 171.885 150.658 171.248 151.159 170.736C151.66 170.219 152.272 169.833 152.997 169.577C153.721 169.315 154.521 169.185 155.398 169.185C156.002 169.185 156.604 169.255 157.203 169.397C157.802 169.538 158.349 169.773 158.845 170.099C159.34 170.421 159.738 170.859 160.037 171.414C160.342 171.97 160.494 172.664 160.494 173.497V181.893H157.652V180.17H157.554C157.374 180.518 157.121 180.845 156.794 181.15C156.473 181.45 156.068 181.692 155.578 181.877C155.093 182.057 154.524 182.147 153.87 182.147ZM154.638 179.974C155.232 179.974 155.746 179.857 156.182 179.623C156.618 179.383 156.952 179.067 157.187 178.675C157.426 178.283 157.546 177.856 157.546 177.393V175.915C157.453 175.991 157.295 176.062 157.072 176.127C156.854 176.192 156.609 176.25 156.337 176.299C156.065 176.348 155.795 176.391 155.528 176.429C155.262 176.467 155.03 176.5 154.834 176.527C154.393 176.587 153.998 176.685 153.65 176.821C153.301 176.957 153.026 177.148 152.825 177.393C152.624 177.633 152.523 177.943 152.523 178.324C152.523 178.869 152.722 179.28 153.119 179.557C153.517 179.835 154.023 179.974 154.638 179.974ZM166.424 165.166V181.893H163.467V165.166H166.424ZM177.461 176.617V169.348H180.417V181.893H177.55V179.664H177.42C177.137 180.366 176.671 180.94 176.023 181.387C175.381 181.833 174.588 182.057 173.646 182.057C172.824 182.057 172.097 181.874 171.466 181.509C170.839 181.139 170.349 180.603 169.995 179.9C169.641 179.193 169.464 178.338 169.464 177.336V169.348H172.421V176.878C172.421 177.673 172.639 178.305 173.075 178.773C173.51 179.242 174.082 179.476 174.79 179.476C175.225 179.476 175.647 179.37 176.056 179.157C176.464 178.945 176.799 178.629 177.06 178.21C177.327 177.785 177.461 177.254 177.461 176.617ZM187.068 182.147C186.273 182.147 185.557 182.005 184.92 181.722C184.288 181.433 183.787 181.009 183.417 180.448C183.052 179.887 182.87 179.195 182.87 178.373C182.87 177.665 183 177.08 183.262 176.617C183.523 176.154 183.88 175.784 184.332 175.506C184.784 175.229 185.293 175.019 185.859 174.877C186.431 174.73 187.021 174.624 187.631 174.559C188.366 174.483 188.963 174.415 189.42 174.355C189.877 174.289 190.21 174.191 190.416 174.061C190.629 173.925 190.735 173.715 190.735 173.432V173.383C190.735 172.767 190.553 172.291 190.188 171.953C189.823 171.616 189.297 171.447 188.611 171.447C187.887 171.447 187.313 171.605 186.888 171.921C186.469 172.237 186.186 172.61 186.039 173.04L183.278 172.648C183.496 171.885 183.855 171.248 184.356 170.736C184.857 170.219 185.47 169.833 186.194 169.577C186.918 169.315 187.718 169.185 188.595 169.185C189.199 169.185 189.801 169.255 190.4 169.397C190.999 169.538 191.546 169.773 192.042 170.099C192.537 170.421 192.935 170.859 193.234 171.414C193.539 171.97 193.692 172.664 193.692 173.497V181.893H190.849V180.17H190.751C190.572 180.518 190.318 180.845 189.992 181.15C189.67 181.45 189.265 181.692 188.775 181.877C188.29 182.057 187.721 182.147 187.068 182.147ZM187.835 179.974C188.429 179.974 188.944 179.857 189.379 179.623C189.815 179.383 190.15 179.067 190.384 178.675C190.623 178.283 190.743 177.856 190.743 177.393V175.915C190.651 175.991 190.493 176.062 190.269 176.127C190.052 176.192 189.807 176.25 189.534 176.299C189.262 176.348 188.993 176.391 188.726 176.429C188.459 176.467 188.228 176.5 188.032 176.527C187.59 176.587 187.196 176.685 186.847 176.821C186.499 176.957 186.224 177.148 186.022 177.393C185.821 177.633 185.72 177.943 185.72 178.324C185.72 178.869 185.919 179.28 186.316 179.557C186.714 179.835 187.22 179.974 187.835 179.974ZM202.137 182.138C200.885 182.138 199.809 181.863 198.911 181.313C198.018 180.764 197.329 180.004 196.844 179.035C196.365 178.06 196.126 176.938 196.126 175.67C196.126 174.396 196.371 173.271 196.861 172.296C197.351 171.316 198.042 170.554 198.935 170.009C199.834 169.46 200.896 169.185 202.121 169.185C203.139 169.185 204.04 169.372 204.824 169.748C205.614 170.118 206.243 170.644 206.711 171.324C207.179 172 207.446 172.789 207.511 173.693H204.685C204.571 173.089 204.299 172.585 203.869 172.182C203.444 171.774 202.875 171.57 202.161 171.57C201.557 171.57 201.026 171.733 200.569 172.06C200.111 172.381 199.755 172.844 199.499 173.448C199.248 174.052 199.123 174.777 199.123 175.621C199.123 176.476 199.248 177.211 199.499 177.826C199.749 178.436 200.101 178.907 200.552 179.239C201.01 179.566 201.546 179.729 202.161 179.729C202.597 179.729 202.986 179.647 203.329 179.484C203.678 179.315 203.969 179.073 204.203 178.757C204.438 178.441 204.598 178.057 204.685 177.605H207.511C207.44 178.493 207.179 179.28 206.727 179.966C206.275 180.646 205.66 181.18 204.881 181.567C204.103 181.948 203.188 182.138 202.137 182.138ZM209.939 181.893V169.348H212.896V181.893H209.939ZM211.426 167.567C210.957 167.567 210.554 167.412 210.217 167.102C209.879 166.786 209.71 166.408 209.71 165.967C209.71 165.52 209.879 165.142 210.217 164.831C210.554 164.515 210.957 164.358 211.426 164.358C211.899 164.358 212.302 164.515 212.634 164.831C212.972 165.142 213.141 165.52 213.141 165.967C213.141 166.408 212.972 166.786 212.634 167.102C212.302 167.412 211.899 167.567 211.426 167.567ZM221.408 182.138C220.183 182.138 219.122 181.869 218.223 181.33C217.325 180.791 216.628 180.037 216.132 179.067C215.642 178.098 215.397 176.966 215.397 175.67C215.397 174.374 215.642 173.238 216.132 172.264C216.628 171.289 217.325 170.532 218.223 169.993C219.122 169.454 220.183 169.185 221.408 169.185C222.634 169.185 223.695 169.454 224.594 169.993C225.492 170.532 226.187 171.289 226.677 172.264C227.172 173.238 227.42 174.374 227.42 175.67C227.42 176.966 227.172 178.098 226.677 179.067C226.187 180.037 225.492 180.791 224.594 181.33C223.695 181.869 222.634 182.138 221.408 182.138ZM221.425 179.77C222.089 179.77 222.645 179.587 223.091 179.223C223.537 178.852 223.87 178.357 224.087 177.736C224.311 177.115 224.422 176.424 224.422 175.661C224.422 174.894 224.311 174.199 224.087 173.579C223.87 172.953 223.537 172.454 223.091 172.084C222.645 171.714 222.089 171.529 221.425 171.529C220.744 171.529 220.178 171.714 219.726 172.084C219.279 172.454 218.945 172.953 218.721 173.579C218.504 174.199 218.395 174.894 218.395 175.661C218.395 176.424 218.504 177.115 218.721 177.736C218.945 178.357 219.279 178.852 219.726 179.223C220.178 179.587 220.744 179.77 221.425 179.77ZM220.273 167.698L222.103 163.965H224.994L222.487 167.698H220.273ZM232.886 174.543V181.893H229.929V169.348H232.755V171.48H232.902C233.191 170.777 233.651 170.219 234.283 169.805C234.92 169.391 235.707 169.185 236.643 169.185C237.509 169.185 238.263 169.37 238.906 169.74C239.554 170.11 240.054 170.647 240.408 171.349C240.768 172.051 240.945 172.904 240.939 173.905V181.893H237.983V174.363C237.983 173.524 237.765 172.868 237.329 172.394C236.899 171.921 236.303 171.684 235.54 171.684C235.023 171.684 234.563 171.798 234.16 172.027C233.763 172.25 233.45 172.574 233.221 172.999C232.998 173.424 232.886 173.938 232.886 174.543Z" fill="black"/>
<path d="M167 58.8571C167 57.2768 168.519 56 170.4 56H195.9C197.303 56 198.556 56.7232 199.066 57.8214C199.576 58.9196 199.226 60.1696 198.195 60.9643L184.244 71.7143H186.55C194.529 71.7143 201 77.1518 201 83.8571C201 90.5625 194.529 96 186.55 96H178.199C173.694 96 169.571 93.8571 167.563 90.4732L167.361 90.1339C166.522 88.7232 167.202 87.0089 168.881 86.3036C170.559 85.5982 172.599 86.1696 173.439 87.5804L173.641 87.9196C174.501 89.375 176.276 90.2857 178.199 90.2857H186.55C190.779 90.2857 194.2 87.4107 194.2 83.8571C194.2 80.3036 190.779 77.4286 186.55 77.4286H175.5C174.098 77.4286 172.844 76.7054 172.334 75.6071C171.824 74.5089 172.174 73.2589 173.205 72.4643L187.156 61.7143H170.4C168.519 61.7143 167 60.4375 167 58.8571Z" fill="black"/>
<path d="M164.771 206.993C166.318 208.4 166.443 210.788 165.052 212.353L153.803 225.001C153.116 225.775 152.147 226.234 151.116 226.25C150.085 226.265 149.101 225.87 148.366 225.143L142.101 218.819C140.648 217.333 140.648 214.93 142.101 213.444C143.554 211.958 145.945 211.958 147.398 213.444L150.851 216.938L159.459 207.262C160.85 205.697 163.209 205.571 164.755 206.978L164.771 206.993ZM164.771 232.289C166.318 233.696 166.443 236.083 165.052 237.648L153.803 250.296C153.116 251.071 152.147 251.529 151.116 251.545C150.085 251.561 149.101 251.166 148.366 250.438L142.101 244.115C140.633 242.628 140.633 240.225 142.101 238.755C143.57 237.285 145.945 237.269 147.398 238.755L150.851 242.249L159.459 232.573C160.85 231.008 163.209 230.882 164.755 232.289H164.771ZM176.004 216.131C176.004 213.333 178.239 211.072 181.004 211.072H216C218.766 211.072 221 213.333 221 216.131C221 218.93 218.766 221.191 216 221.191H181.004C178.239 221.191 176.004 218.93 176.004 216.131ZM176.004 241.427C176.004 238.629 178.239 236.368 181.004 236.368H216C218.766 236.368 221 238.629 221 241.427C221 244.225 218.766 246.486 216 246.486H181.004C178.239 246.486 176.004 244.225 176.004 241.427ZM166.005 266.722C166.005 263.924 168.24 261.663 171.005 261.663H216C218.766 261.663 221 263.924 221 266.722C221 269.521 218.766 271.781 216 271.781H171.005C168.24 271.781 166.005 269.521 166.005 266.722ZM148.507 259.134C150.496 259.134 152.403 259.933 153.81 261.356C155.216 262.78 156.006 264.71 156.006 266.722C156.006 268.735 155.216 270.665 153.81 272.088C152.403 273.511 150.496 274.311 148.507 274.311C146.518 274.311 144.611 273.511 143.204 272.088C141.798 270.665 141.008 268.735 141.008 266.722C141.008 264.71 141.798 262.78 143.204 261.356C144.611 259.933 146.518 259.134 148.507 259.134Z" fill="black"/>
<defs>
<filter id="filter0_d_4_34" x="0" y="0" width="363" height="303" filterUnits="userSpaceOnUse" color-interpolation-filters="sRGB">
<feFlood flood-opacity="0" result="BackgroundImageFix"/>
<feColorMatrix in="SourceAlpha" type="matrix" values="0 0 0 0 0 0 0 0 0 0 0 0 0 0 0 0 0 0 127 0" result="hardAlpha"/>
<feOffset dy="4"/>
<feGaussianBlur stdDeviation="2"/>
<feComposite in2="hardAlpha" operator="out"/>
<feColorMatrix type="matrix" values="0 0 0 0 0 0 0 0 0 0 0 0 0 0 0 0 0 0 0.25 0"/>
<feBlend mode="normal" in2="BackgroundImageFix" result="effect1_dropShadow_4_34"/>
<feBlend mode="normal" in="SourceGraphic" in2="effect1_dropShadow_4_34" result="shape"/>
</filter>
<filter id="filter1_d_4_34" x="131" y="31.1254" width="102" height="94.1292" filterUnits="userSpaceOnUse" color-interpolation-filters="sRGB">
<feFlood flood-opacity="0" result="BackgroundImageFix"/>
<feColorMatrix in="SourceAlpha" type="matrix" values="0 0 0 0 0 0 0 0 0 0 0 0 0 0 0 0 0 0 127 0" result="hardAlpha"/>
<feOffset dy="4"/>
<feGaussianBlur stdDeviation="2"/>
<feComposite in2="hardAlpha" operator="out"/>
<feColorMatrix type="matrix" values="0 0 0 0 0 0 0 0 0 0 0 0 0 0 0 0 0 0 0.25 0"/>
<feBlend mode="normal" in2="BackgroundImageFix" result="effect1_dropShadow_4_34"/>
<feBlend mode="normal" in="SourceGraphic" in2="effect1_dropShadow_4_34" result="shape"/>
</filter>
<linearGradient id="paint0_linear_4_34" x1="181.5" y1="0" x2="181.5" y2="295" gradientUnits="userSpaceOnUse">
<stop stop-color="#007C7C"/>
<stop offset="0.313815" stop-color="#339292" stop-opacity="0.763678"/>
<stop offset="1" stop-color="#D9D9D9" stop-opacity="0"/>
</linearGradient>
<linearGradient id="paint1_linear_4_34" x1="182" y1="38.1254" x2="182" y2="110.255" gradientUnits="userSpaceOnUse">
<stop offset="0.1875" stop-color="#FEFEFE"/>
<stop offset="0.677083" stop-color="#FEFEFE" stop-opacity="0.570513"/>
<stop offset="1" stop-color="#FEFEFE" stop-opacity="0"/>
</linearGradient>
</defs>
</svg>
