<svg width="949" height="569" viewBox="0 0 949 569" fill="none" xmlns="http://www.w3.org/2000/svg">
<g clip-path="url(#clip0_1_293)">
<mask id="mask0_1_293" style="mask-type:luminance" maskUnits="userSpaceOnUse" x="748" y="247" width="155" height="167">
<path d="M903 247H748V414H903V247Z" fill="white"/>
</mask>
<g mask="url(#mask0_1_293)">
<path d="M751 253C752.657 253 754 251.657 754 250C754 248.343 752.657 247 751 247C749.343 247 748 248.343 748 250C748 251.657 749.343 253 751 253Z" fill="#B7BBC4"/>
<path d="M775 252.5C776.38 252.5 777.5 251.381 777.5 250C777.5 248.619 776.38 247.5 775 247.5C773.619 247.5 772.5 248.619 772.5 250C772.5 251.381 773.619 252.5 775 252.5Z" stroke="#B7BBC4"/>
<path d="M799 253C800.657 253 802 251.657 802 250C802 248.343 800.657 247 799 247C797.343 247 796 248.343 796 250C796 251.657 797.343 253 799 253Z" fill="#B7BBC4"/>
<path d="M823 252.5C824.38 252.5 825.5 251.381 825.5 250C825.5 248.619 824.38 247.5 823 247.5C821.619 247.5 820.5 248.619 820.5 250C820.5 251.381 821.619 252.5 823 252.5Z" stroke="#B7BBC4"/>
<path d="M847 253C848.657 253 850 251.657 850 250C850 248.343 848.657 247 847 247C845.343 247 844 248.343 844 250C844 251.657 845.343 253 847 253Z" fill="#B7BBC4"/>
<path d="M871 252.5C872.38 252.5 873.5 251.381 873.5 250C873.5 248.619 872.38 247.5 871 247.5C869.619 247.5 868.5 248.619 868.5 250C868.5 251.381 869.619 252.5 871 252.5Z" stroke="#B7BBC4"/>
<path d="M895 253C896.657 253 898 251.657 898 250C898 248.343 896.657 247 895 247C893.343 247 892 248.343 892 250C892 251.657 893.343 253 895 253Z" fill="#B7BBC4"/>
<path d="M751 279C752.657 279 754 277.657 754 276C754 274.343 752.657 273 751 273C749.343 273 748 274.343 748 276C748 277.657 749.343 279 751 279Z" fill="#B7BBC4"/>
<path d="M775 278.5C776.38 278.5 777.5 277.381 777.5 276C777.5 274.619 776.38 273.5 775 273.5C773.619 273.5 772.5 274.619 772.5 276C772.5 277.381 773.619 278.5 775 278.5Z" stroke="#B7BBC4"/>
<path d="M799 279C800.657 279 802 277.657 802 276C802 274.343 800.657 273 799 273C797.343 273 796 274.343 796 276C796 277.657 797.343 279 799 279Z" fill="#B7BBC4"/>
<path d="M823 278.5C824.38 278.5 825.5 277.381 825.5 276C825.5 274.619 824.38 273.5 823 273.5C821.619 273.5 820.5 274.619 820.5 276C820.5 277.381 821.619 278.5 823 278.5Z" stroke="#B7BBC4"/>
<path d="M847 279C848.657 279 850 277.657 850 276C850 274.343 848.657 273 847 273C845.343 273 844 274.343 844 276C844 277.657 845.343 279 847 279Z" fill="#B7BBC4"/>
<path d="M871 278.5C872.38 278.5 873.5 277.381 873.5 276C873.5 274.619 872.38 273.5 871 273.5C869.619 273.5 868.5 274.619 868.5 276C868.5 277.381 869.619 278.5 871 278.5Z" stroke="#B7BBC4"/>
<path d="M895 279C896.657 279 898 277.657 898 276C898 274.343 896.657 273 895 273C893.343 273 892 274.343 892 276C892 277.657 893.343 279 895 279Z" fill="#B7BBC4"/>
<path d="M751 305C752.657 305 754 303.657 754 302C754 300.343 752.657 299 751 299C749.343 299 748 300.343 748 302C748 303.657 749.343 305 751 305Z" fill="#B7BBC4"/>
<path d="M775 304.5C776.38 304.5 777.5 303.381 777.5 302C777.5 300.619 776.38 299.5 775 299.5C773.619 299.5 772.5 300.619 772.5 302C772.5 303.381 773.619 304.5 775 304.5Z" stroke="#B7BBC4"/>
<path d="M799 305C800.657 305 802 303.657 802 302C802 300.343 800.657 299 799 299C797.343 299 796 300.343 796 302C796 303.657 797.343 305 799 305Z" fill="#B7BBC4"/>
<path d="M823 304.5C824.38 304.5 825.5 303.381 825.5 302C825.5 300.619 824.38 299.5 823 299.5C821.619 299.5 820.5 300.619 820.5 302C820.5 303.381 821.619 304.5 823 304.5Z" stroke="#B7BBC4"/>
<path d="M847 305C848.657 305 850 303.657 850 302C850 300.343 848.657 299 847 299C845.343 299 844 300.343 844 302C844 303.657 845.343 305 847 305Z" fill="#B7BBC4"/>
<path d="M871 304.5C872.38 304.5 873.5 303.381 873.5 302C873.5 300.619 872.38 299.5 871 299.5C869.619 299.5 868.5 300.619 868.5 302C868.5 303.381 869.619 304.5 871 304.5Z" stroke="#B7BBC4"/>
<path d="M895 305C896.657 305 898 303.657 898 302C898 300.343 896.657 299 895 299C893.343 299 892 300.343 892 302C892 303.657 893.343 305 895 305Z" fill="#B7BBC4"/>
<path d="M751 331C752.657 331 754 329.657 754 328C754 326.343 752.657 325 751 325C749.343 325 748 326.343 748 328C748 329.657 749.343 331 751 331Z" fill="#B7BBC4"/>
<path d="M775 330.5C776.38 330.5 777.5 329.381 777.5 328C777.5 326.619 776.38 325.5 775 325.5C773.619 325.5 772.5 326.619 772.5 328C772.5 329.381 773.619 330.5 775 330.5Z" stroke="#B7BBC4"/>
<path d="M799 331C800.657 331 802 329.657 802 328C802 326.343 800.657 325 799 325C797.343 325 796 326.343 796 328C796 329.657 797.343 331 799 331Z" fill="#B7BBC4"/>
<path d="M823 330.5C824.38 330.5 825.5 329.381 825.5 328C825.5 326.619 824.38 325.5 823 325.5C821.619 325.5 820.5 326.619 820.5 328C820.5 329.381 821.619 330.5 823 330.5Z" stroke="#B7BBC4"/>
<path d="M847 331C848.657 331 850 329.657 850 328C850 326.343 848.657 325 847 325C845.343 325 844 326.343 844 328C844 329.657 845.343 331 847 331Z" fill="#B7BBC4"/>
<path d="M871 330.5C872.38 330.5 873.5 329.381 873.5 328C873.5 326.619 872.38 325.5 871 325.5C869.619 325.5 868.5 326.619 868.5 328C868.5 329.381 869.619 330.5 871 330.5Z" stroke="#B7BBC4"/>
<path d="M895 331C896.657 331 898 329.657 898 328C898 326.343 896.657 325 895 325C893.343 325 892 326.343 892 328C892 329.657 893.343 331 895 331Z" fill="#B7BBC4"/>
<path d="M751 357C752.657 357 754 355.657 754 354C754 352.344 752.657 351 751 351C749.343 351 748 352.344 748 354C748 355.657 749.343 357 751 357Z" fill="#B7BBC4"/>
<path d="M775 356.5C776.38 356.5 777.5 355.381 777.5 354C777.5 352.62 776.38 351.5 775 351.5C773.619 351.5 772.5 352.62 772.5 354C772.5 355.381 773.619 356.5 775 356.5Z" stroke="#B7BBC4"/>
<path d="M799 357C800.657 357 802 355.657 802 354C802 352.344 800.657 351 799 351C797.343 351 796 352.344 796 354C796 355.657 797.343 357 799 357Z" fill="#B7BBC4"/>
<path d="M823 356.5C824.38 356.5 825.5 355.381 825.5 354C825.5 352.62 824.38 351.5 823 351.5C821.619 351.5 820.5 352.62 820.5 354C820.5 355.381 821.619 356.5 823 356.5Z" stroke="#B7BBC4"/>
<path d="M847 357C848.657 357 850 355.657 850 354C850 352.344 848.657 351 847 351C845.343 351 844 352.344 844 354C844 355.657 845.343 357 847 357Z" fill="#B7BBC4"/>
<path d="M871 356.5C872.38 356.5 873.5 355.381 873.5 354C873.5 352.62 872.38 351.5 871 351.5C869.619 351.5 868.5 352.62 868.5 354C868.5 355.381 869.619 356.5 871 356.5Z" stroke="#B7BBC4"/>
<path d="M895 357C896.657 357 898 355.657 898 354C898 352.344 896.657 351 895 351C893.343 351 892 352.344 892 354C892 355.657 893.343 357 895 357Z" fill="#B7BBC4"/>
<path d="M751 383C752.657 383 754 381.657 754 380C754 378.344 752.657 377 751 377C749.343 377 748 378.344 748 380C748 381.657 749.343 383 751 383Z" fill="#B7BBC4"/>
<path d="M775 382.5C776.38 382.5 777.5 381.381 777.5 380C777.5 378.62 776.38 377.5 775 377.5C773.619 377.5 772.5 378.62 772.5 380C772.5 381.381 773.619 382.5 775 382.5Z" stroke="#B7BBC4"/>
<path d="M799 383C800.657 383 802 381.657 802 380C802 378.344 800.657 377 799 377C797.343 377 796 378.344 796 380C796 381.657 797.343 383 799 383Z" fill="#B7BBC4"/>
<path d="M823 382.5C824.38 382.5 825.5 381.381 825.5 380C825.5 378.62 824.38 377.5 823 377.5C821.619 377.5 820.5 378.62 820.5 380C820.5 381.381 821.619 382.5 823 382.5Z" stroke="#B7BBC4"/>
<path d="M847 383C848.657 383 850 381.657 850 380C850 378.344 848.657 377 847 377C845.343 377 844 378.344 844 380C844 381.657 845.343 383 847 383Z" fill="#B7BBC4"/>
<path d="M871 382.5C872.38 382.5 873.5 381.381 873.5 380C873.5 378.62 872.38 377.5 871 377.5C869.619 377.5 868.5 378.62 868.5 380C868.5 381.381 869.619 382.5 871 382.5Z" stroke="#B7BBC4"/>
<path d="M895 383C896.657 383 898 381.657 898 380C898 378.344 896.657 377 895 377C893.343 377 892 378.344 892 380C892 381.657 893.343 383 895 383Z" fill="#B7BBC4"/>
<path d="M751 409C752.657 409 754 407.657 754 406C754 404.344 752.657 403 751 403C749.343 403 748 404.344 748 406C748 407.657 749.343 409 751 409Z" fill="#B7BBC4"/>
<path d="M775 408.5C776.38 408.5 777.5 407.381 777.5 406C777.5 404.62 776.38 403.5 775 403.5C773.619 403.5 772.5 404.62 772.5 406C772.5 407.381 773.619 408.5 775 408.5Z" stroke="#B7BBC4"/>
<path d="M799 409C800.657 409 802 407.657 802 406C802 404.344 800.657 403 799 403C797.343 403 796 404.344 796 406C796 407.657 797.343 409 799 409Z" fill="#B7BBC4"/>
<path d="M823 408.5C824.38 408.5 825.5 407.381 825.5 406C825.5 404.62 824.38 403.5 823 403.5C821.619 403.5 820.5 404.62 820.5 406C820.5 407.381 821.619 408.5 823 408.5Z" stroke="#B7BBC4"/>
<path d="M847 409C848.657 409 850 407.657 850 406C850 404.344 848.657 403 847 403C845.343 403 844 404.344 844 406C844 407.657 845.343 409 847 409Z" fill="#B7BBC4"/>
<path d="M871 408.5C872.38 408.5 873.5 407.381 873.5 406C873.5 404.62 872.38 403.5 871 403.5C869.619 403.5 868.5 404.62 868.5 406C868.5 407.381 869.619 408.5 871 408.5Z" stroke="#B7BBC4"/>
<path d="M895 409C896.657 409 898 407.657 898 406C898 404.344 896.657 403 895 403C893.343 403 892 404.344 892 406C892 407.657 893.343 409 895 409Z" fill="#B7BBC4"/>
</g>
<mask id="mask1_1_293" style="mask-type:luminance" maskUnits="userSpaceOnUse" x="-27" y="486" width="155" height="167">
<path d="M128 486H-27V653H128V486Z" fill="white"/>
</mask>
<g mask="url(#mask1_1_293)">
<path d="M0.000183105 491.5C1.38018 491.5 2.50018 490.381 2.50018 489C2.50018 487.619 1.38018 486.5 0.000183105 486.5C-1.38082 486.5 -2.49982 487.619 -2.49982 489C-2.49982 490.381 -1.38082 491.5 0.000183105 491.5Z" stroke="#B7BBC4"/>
<path d="M24.0002 492C25.6572 492 27.0002 490.657 27.0002 489C27.0002 487.343 25.6572 486 24.0002 486C22.3432 486 21.0002 487.343 21.0002 489C21.0002 490.657 22.3432 492 24.0002 492Z" fill="#B7BBC4"/>
<path d="M48.0002 491.5C49.3802 491.5 50.5002 490.381 50.5002 489C50.5002 487.619 49.3802 486.5 48.0002 486.5C46.6192 486.5 45.5002 487.619 45.5002 489C45.5002 490.381 46.6192 491.5 48.0002 491.5Z" stroke="#B7BBC4"/>
<path d="M72.0002 492C73.6572 492 75.0002 490.657 75.0002 489C75.0002 487.343 73.6572 486 72.0002 486C70.3432 486 69.0002 487.343 69.0002 489C69.0002 490.657 70.3432 492 72.0002 492Z" fill="#B7BBC4"/>
<path d="M96.0002 491.5C97.3802 491.5 98.5002 490.381 98.5002 489C98.5002 487.619 97.3802 486.5 96.0002 486.5C94.6192 486.5 93.5002 487.619 93.5002 489C93.5002 490.381 94.6192 491.5 96.0002 491.5Z" stroke="#B7BBC4"/>
<path d="M120 492C121.657 492 123 490.657 123 489C123 487.343 121.657 486 120 486C118.343 486 117 487.343 117 489C117 490.657 118.343 492 120 492Z" fill="#B7BBC4"/>
<path d="M0.000183105 517.5C1.38018 517.5 2.50018 516.381 2.50018 515C2.50018 513.619 1.38018 512.5 0.000183105 512.5C-1.38082 512.5 -2.49982 513.619 -2.49982 515C-2.49982 516.381 -1.38082 517.5 0.000183105 517.5Z" stroke="#B7BBC4"/>
<path d="M24.0002 518C25.6572 518 27.0002 516.657 27.0002 515C27.0002 513.343 25.6572 512 24.0002 512C22.3432 512 21.0002 513.343 21.0002 515C21.0002 516.657 22.3432 518 24.0002 518Z" fill="#B7BBC4"/>
<path d="M48.0002 517.5C49.3802 517.5 50.5002 516.381 50.5002 515C50.5002 513.619 49.3802 512.5 48.0002 512.5C46.6192 512.5 45.5002 513.619 45.5002 515C45.5002 516.381 46.6192 517.5 48.0002 517.5Z" stroke="#B7BBC4"/>
<path d="M72.0002 518C73.6572 518 75.0002 516.657 75.0002 515C75.0002 513.343 73.6572 512 72.0002 512C70.3432 512 69.0002 513.343 69.0002 515C69.0002 516.657 70.3432 518 72.0002 518Z" fill="#B7BBC4"/>
<path d="M96.0002 517.5C97.3802 517.5 98.5002 516.381 98.5002 515C98.5002 513.619 97.3802 512.5 96.0002 512.5C94.6192 512.5 93.5002 513.619 93.5002 515C93.5002 516.381 94.6192 517.5 96.0002 517.5Z" stroke="#B7BBC4"/>
<path d="M120 518C121.657 518 123 516.657 123 515C123 513.343 121.657 512 120 512C118.343 512 117 513.343 117 515C117 516.657 118.343 518 120 518Z" fill="#B7BBC4"/>
<path d="M0.000183105 543.5C1.38018 543.5 2.50018 542.381 2.50018 541C2.50018 539.619 1.38018 538.5 0.000183105 538.5C-1.38082 538.5 -2.49982 539.619 -2.49982 541C-2.49982 542.381 -1.38082 543.5 0.000183105 543.5Z" stroke="#B7BBC4"/>
<path d="M24.0002 544C25.6572 544 27.0002 542.657 27.0002 541C27.0002 539.343 25.6572 538 24.0002 538C22.3432 538 21.0002 539.343 21.0002 541C21.0002 542.657 22.3432 544 24.0002 544Z" fill="#B7BBC4"/>
<path d="M48.0002 543.5C49.3802 543.5 50.5002 542.381 50.5002 541C50.5002 539.619 49.3802 538.5 48.0002 538.5C46.6192 538.5 45.5002 539.619 45.5002 541C45.5002 542.381 46.6192 543.5 48.0002 543.5Z" stroke="#B7BBC4"/>
<path d="M72.0002 544C73.6572 544 75.0002 542.657 75.0002 541C75.0002 539.343 73.6572 538 72.0002 538C70.3432 538 69.0002 539.343 69.0002 541C69.0002 542.657 70.3432 544 72.0002 544Z" fill="#B7BBC4"/>
<path d="M96.0002 543.5C97.3802 543.5 98.5002 542.381 98.5002 541C98.5002 539.619 97.3802 538.5 96.0002 538.5C94.6192 538.5 93.5002 539.619 93.5002 541C93.5002 542.381 94.6192 543.5 96.0002 543.5Z" stroke="#B7BBC4"/>
<path d="M120 544C121.657 544 123 542.657 123 541C123 539.343 121.657 538 120 538C118.343 538 117 539.343 117 541C117 542.657 118.343 544 120 544Z" fill="#B7BBC4"/>
<path d="M0.000183105 569.5C1.38018 569.5 2.50018 568.381 2.50018 567C2.50018 565.619 1.38018 564.5 0.000183105 564.5C-1.38082 564.5 -2.49982 565.619 -2.49982 567C-2.49982 568.381 -1.38082 569.5 0.000183105 569.5Z" stroke="#B7BBC4"/>
<path d="M24.0002 570C25.6572 570 27.0002 568.657 27.0002 567C27.0002 565.343 25.6572 564 24.0002 564C22.3432 564 21.0002 565.343 21.0002 567C21.0002 568.657 22.3432 570 24.0002 570Z" fill="#B7BBC4"/>
<path d="M48.0002 569.5C49.3802 569.5 50.5002 568.381 50.5002 567C50.5002 565.619 49.3802 564.5 48.0002 564.5C46.6192 564.5 45.5002 565.619 45.5002 567C45.5002 568.381 46.6192 569.5 48.0002 569.5Z" stroke="#B7BBC4"/>
<path d="M72.0002 570C73.6572 570 75.0002 568.657 75.0002 567C75.0002 565.343 73.6572 564 72.0002 564C70.3432 564 69.0002 565.343 69.0002 567C69.0002 568.657 70.3432 570 72.0002 570Z" fill="#B7BBC4"/>
<path d="M96.0002 569.5C97.3802 569.5 98.5002 568.381 98.5002 567C98.5002 565.619 97.3802 564.5 96.0002 564.5C94.6192 564.5 93.5002 565.619 93.5002 567C93.5002 568.381 94.6192 569.5 96.0002 569.5Z" stroke="#B7BBC4"/>
<path d="M120 570C121.657 570 123 568.657 123 567C123 565.343 121.657 564 120 564C118.343 564 117 565.343 117 567C117 568.657 118.343 570 120 570Z" fill="#B7BBC4"/>
</g>
<mask id="mask2_1_293" style="mask-type:luminance" maskUnits="userSpaceOnUse" x="174" y="158" width="155" height="167">
<path d="M329 158H174V325H329V158Z" fill="white"/>
</mask>
<g mask="url(#mask2_1_293)">
<path d="M177 164C178.657 164 180 162.657 180 161C180 159.343 178.657 158 177 158C175.343 158 174 159.343 174 161C174 162.657 175.343 164 177 164Z" fill="#B7BBC4"/>
<path d="M201 163.5C202.38 163.5 203.5 162.381 203.5 161C203.5 159.619 202.38 158.5 201 158.5C199.619 158.5 198.5 159.619 198.5 161C198.5 162.381 199.619 163.5 201 163.5Z" stroke="#B7BBC4"/>
<path d="M225 164C226.657 164 228 162.657 228 161C228 159.343 226.657 158 225 158C223.343 158 222 159.343 222 161C222 162.657 223.343 164 225 164Z" fill="#B7BBC4"/>
<path d="M249 163.5C250.38 163.5 251.5 162.381 251.5 161C251.5 159.619 250.38 158.5 249 158.5C247.619 158.5 246.5 159.619 246.5 161C246.5 162.381 247.619 163.5 249 163.5Z" stroke="#B7BBC4"/>
<path d="M273 164C274.657 164 276 162.657 276 161C276 159.343 274.657 158 273 158C271.343 158 270 159.343 270 161C270 162.657 271.343 164 273 164Z" fill="#B7BBC4"/>
<path d="M297 163.5C298.38 163.5 299.5 162.381 299.5 161C299.5 159.619 298.38 158.5 297 158.5C295.619 158.5 294.5 159.619 294.5 161C294.5 162.381 295.619 163.5 297 163.5Z" stroke="#B7BBC4"/>
<path d="M321 164C322.657 164 324 162.657 324 161C324 159.343 322.657 158 321 158C319.343 158 318 159.343 318 161C318 162.657 319.343 164 321 164Z" fill="#B7BBC4"/>
<path d="M177 190C178.657 190 180 188.657 180 187C180 185.343 178.657 184 177 184C175.343 184 174 185.343 174 187C174 188.657 175.343 190 177 190Z" fill="#B7BBC4"/>
<path d="M201 189.5C202.38 189.5 203.5 188.381 203.5 187C203.5 185.619 202.38 184.5 201 184.5C199.619 184.5 198.5 185.619 198.5 187C198.5 188.381 199.619 189.5 201 189.5Z" stroke="#B7BBC4"/>
<path d="M225 190C226.657 190 228 188.657 228 187C228 185.343 226.657 184 225 184C223.343 184 222 185.343 222 187C222 188.657 223.343 190 225 190Z" fill="#B7BBC4"/>
<path d="M249 189.5C250.38 189.5 251.5 188.381 251.5 187C251.5 185.619 250.38 184.5 249 184.5C247.619 184.5 246.5 185.619 246.5 187C246.5 188.381 247.619 189.5 249 189.5Z" stroke="#B7BBC4"/>
<path d="M273 190C274.657 190 276 188.657 276 187C276 185.343 274.657 184 273 184C271.343 184 270 185.343 270 187C270 188.657 271.343 190 273 190Z" fill="#B7BBC4"/>
<path d="M297 189.5C298.38 189.5 299.5 188.381 299.5 187C299.5 185.619 298.38 184.5 297 184.5C295.619 184.5 294.5 185.619 294.5 187C294.5 188.381 295.619 189.5 297 189.5Z" stroke="#B7BBC4"/>
<path d="M321 190C322.657 190 324 188.657 324 187C324 185.343 322.657 184 321 184C319.343 184 318 185.343 318 187C318 188.657 319.343 190 321 190Z" fill="#B7BBC4"/>
<path d="M177 216C178.657 216 180 214.657 180 213C180 211.343 178.657 210 177 210C175.343 210 174 211.343 174 213C174 214.657 175.343 216 177 216Z" fill="#B7BBC4"/>
<path d="M201 215.5C202.38 215.5 203.5 214.381 203.5 213C203.5 211.619 202.38 210.5 201 210.5C199.619 210.5 198.5 211.619 198.5 213C198.5 214.381 199.619 215.5 201 215.5Z" stroke="#B7BBC4"/>
<path d="M225 216C226.657 216 228 214.657 228 213C228 211.343 226.657 210 225 210C223.343 210 222 211.343 222 213C222 214.657 223.343 216 225 216Z" fill="#B7BBC4"/>
<path d="M249 215.5C250.38 215.5 251.5 214.381 251.5 213C251.5 211.619 250.38 210.5 249 210.5C247.619 210.5 246.5 211.619 246.5 213C246.5 214.381 247.619 215.5 249 215.5Z" stroke="#B7BBC4"/>
<path d="M273 216C274.657 216 276 214.657 276 213C276 211.343 274.657 210 273 210C271.343 210 270 211.343 270 213C270 214.657 271.343 216 273 216Z" fill="#B7BBC4"/>
<path d="M297 215.5C298.38 215.5 299.5 214.381 299.5 213C299.5 211.619 298.38 210.5 297 210.5C295.619 210.5 294.5 211.619 294.5 213C294.5 214.381 295.619 215.5 297 215.5Z" stroke="#B7BBC4"/>
<path d="M321 216C322.657 216 324 214.657 324 213C324 211.343 322.657 210 321 210C319.343 210 318 211.343 318 213C318 214.657 319.343 216 321 216Z" fill="#B7BBC4"/>
<path d="M177 242C178.657 242 180 240.657 180 239C180 237.343 178.657 236 177 236C175.343 236 174 237.343 174 239C174 240.657 175.343 242 177 242Z" fill="#B7BBC4"/>
<path d="M201 241.5C202.38 241.5 203.5 240.381 203.5 239C203.5 237.619 202.38 236.5 201 236.5C199.619 236.5 198.5 237.619 198.5 239C198.5 240.381 199.619 241.5 201 241.5Z" stroke="#B7BBC4"/>
<path d="M225 242C226.657 242 228 240.657 228 239C228 237.343 226.657 236 225 236C223.343 236 222 237.343 222 239C222 240.657 223.343 242 225 242Z" fill="#B7BBC4"/>
<path d="M249 241.5C250.38 241.5 251.5 240.381 251.5 239C251.5 237.619 250.38 236.5 249 236.5C247.619 236.5 246.5 237.619 246.5 239C246.5 240.381 247.619 241.5 249 241.5Z" stroke="#B7BBC4"/>
<path d="M273 242C274.657 242 276 240.657 276 239C276 237.343 274.657 236 273 236C271.343 236 270 237.343 270 239C270 240.657 271.343 242 273 242Z" fill="#B7BBC4"/>
<path d="M297 241.5C298.38 241.5 299.5 240.381 299.5 239C299.5 237.619 298.38 236.5 297 236.5C295.619 236.5 294.5 237.619 294.5 239C294.5 240.381 295.619 241.5 297 241.5Z" stroke="#B7BBC4"/>
<path d="M321 242C322.657 242 324 240.657 324 239C324 237.343 322.657 236 321 236C319.343 236 318 237.343 318 239C318 240.657 319.343 242 321 242Z" fill="#B7BBC4"/>
<path d="M177 268C178.657 268 180 266.657 180 265C180 263.344 178.657 262 177 262C175.343 262 174 263.344 174 265C174 266.657 175.343 268 177 268Z" fill="#B7BBC4"/>
<path d="M201 267.5C202.38 267.5 203.5 266.381 203.5 265C203.5 263.62 202.38 262.5 201 262.5C199.619 262.5 198.5 263.62 198.5 265C198.5 266.381 199.619 267.5 201 267.5Z" stroke="#B7BBC4"/>
<path d="M225 268C226.657 268 228 266.657 228 265C228 263.344 226.657 262 225 262C223.343 262 222 263.344 222 265C222 266.657 223.343 268 225 268Z" fill="#B7BBC4"/>
<path d="M249 267.5C250.38 267.5 251.5 266.381 251.5 265C251.5 263.62 250.38 262.5 249 262.5C247.619 262.5 246.5 263.62 246.5 265C246.5 266.381 247.619 267.5 249 267.5Z" stroke="#B7BBC4"/>
<path d="M273 268C274.657 268 276 266.657 276 265C276 263.344 274.657 262 273 262C271.343 262 270 263.344 270 265C270 266.657 271.343 268 273 268Z" fill="#B7BBC4"/>
<path d="M297 267.5C298.38 267.5 299.5 266.381 299.5 265C299.5 263.62 298.38 262.5 297 262.5C295.619 262.5 294.5 263.62 294.5 265C294.5 266.381 295.619 267.5 297 267.5Z" stroke="#B7BBC4"/>
<path d="M321 268C322.657 268 324 266.657 324 265C324 263.344 322.657 262 321 262C319.343 262 318 263.344 318 265C318 266.657 319.343 268 321 268Z" fill="#B7BBC4"/>
<path d="M177 294C178.657 294 180 292.657 180 291C180 289.344 178.657 288 177 288C175.343 288 174 289.344 174 291C174 292.657 175.343 294 177 294Z" fill="#B7BBC4"/>
<path d="M201 293.5C202.38 293.5 203.5 292.381 203.5 291C203.5 289.62 202.38 288.5 201 288.5C199.619 288.5 198.5 289.62 198.5 291C198.5 292.381 199.619 293.5 201 293.5Z" stroke="#B7BBC4"/>
<path d="M225 294C226.657 294 228 292.657 228 291C228 289.344 226.657 288 225 288C223.343 288 222 289.344 222 291C222 292.657 223.343 294 225 294Z" fill="#B7BBC4"/>
<path d="M249 293.5C250.38 293.5 251.5 292.381 251.5 291C251.5 289.62 250.38 288.5 249 288.5C247.619 288.5 246.5 289.62 246.5 291C246.5 292.381 247.619 293.5 249 293.5Z" stroke="#B7BBC4"/>
<path d="M273 294C274.657 294 276 292.657 276 291C276 289.344 274.657 288 273 288C271.343 288 270 289.344 270 291C270 292.657 271.343 294 273 294Z" fill="#B7BBC4"/>
<path d="M297 293.5C298.38 293.5 299.5 292.381 299.5 291C299.5 289.62 298.38 288.5 297 288.5C295.619 288.5 294.5 289.62 294.5 291C294.5 292.381 295.619 293.5 297 293.5Z" stroke="#B7BBC4"/>
<path d="M321 294C322.657 294 324 292.657 324 291C324 289.344 322.657 288 321 288C319.343 288 318 289.344 318 291C318 292.657 319.343 294 321 294Z" fill="#B7BBC4"/>
<path d="M177 320C178.657 320 180 318.657 180 317C180 315.344 178.657 314 177 314C175.343 314 174 315.344 174 317C174 318.657 175.343 320 177 320Z" fill="#B7BBC4"/>
<path d="M201 319.5C202.38 319.5 203.5 318.381 203.5 317C203.5 315.62 202.38 314.5 201 314.5C199.619 314.5 198.5 315.62 198.5 317C198.5 318.381 199.619 319.5 201 319.5Z" stroke="#B7BBC4"/>
<path d="M225 320C226.657 320 228 318.657 228 317C228 315.344 226.657 314 225 314C223.343 314 222 315.344 222 317C222 318.657 223.343 320 225 320Z" fill="#B7BBC4"/>
<path d="M249 319.5C250.38 319.5 251.5 318.381 251.5 317C251.5 315.62 250.38 314.5 249 314.5C247.619 314.5 246.5 315.62 246.5 317C246.5 318.381 247.619 319.5 249 319.5Z" stroke="#B7BBC4"/>
<path d="M273 320C274.657 320 276 318.657 276 317C276 315.344 274.657 314 273 314C271.343 314 270 315.344 270 317C270 318.657 271.343 320 273 320Z" fill="#B7BBC4"/>
<path d="M297 319.5C298.38 319.5 299.5 318.381 299.5 317C299.5 315.62 298.38 314.5 297 314.5C295.619 314.5 294.5 315.62 294.5 317C294.5 318.381 295.619 319.5 297 319.5Z" stroke="#B7BBC4"/>
<path d="M321 320C322.657 320 324 318.657 324 317C324 315.344 322.657 314 321 314C319.343 314 318 315.344 318 317C318 318.657 319.343 320 321 320Z" fill="#B7BBC4"/>
</g>
<path d="M781.012 105.668C782.4 105.527 783.8 105.708 785.114 106.2C786.428 106.691 787.624 107.481 788.617 108.512C789.611 109.544 790.377 110.792 790.864 112.17C791.35 113.548 791.544 115.021 791.431 116.487L822.451 130.882L807.654 140.953L780.466 125.739C778.144 125.377 776.028 124.129 774.52 122.233C773.012 120.336 772.217 117.922 772.284 115.448C772.351 112.974 773.277 110.611 774.885 108.809C776.494 107.006 778.674 105.889 781.012 105.668Z" fill="#A0616A"/>
<path d="M906.136 87.7107C919.001 87.7107 929.43 76.7143 929.43 63.1497C929.43 49.585 919.001 38.5886 906.136 38.5886C893.271 38.5886 882.842 49.585 882.842 63.1497C882.842 76.7143 893.271 87.7107 906.136 87.7107Z" fill="#A0616A"/>
<path d="M863.978 413.364L852.351 413.363L846.819 366.075L863.98 366.076L863.978 413.364Z" fill="#A0616A"/>
<path d="M866.943 425.248L829.452 425.246V424.746C829.452 422.726 829.83 420.725 830.563 418.858C831.296 416.991 832.371 415.295 833.726 413.866C835.081 412.438 836.69 411.304 838.46 410.531C840.231 409.758 842.129 409.36 844.045 409.36L866.944 409.361L866.943 425.248Z" fill="#2F2E41"/>
<path d="M912.347 413.364L900.719 413.363L895.188 366.075L912.348 366.076L912.347 413.364Z" fill="#A0616A"/>
<path d="M915.312 425.248L877.821 425.246V424.746C877.821 422.726 878.198 420.725 878.932 418.858C879.665 416.991 880.74 415.295 882.095 413.866C883.45 412.438 885.059 411.304 886.829 410.531C888.6 409.758 890.497 409.36 892.413 409.36L915.312 409.361L915.312 425.248Z" fill="#2F2E41"/>
<path d="M911.795 403.292C911.621 403.292 911.447 403.28 911.275 403.258L894.255 401.049C893.258 400.921 892.336 400.426 891.652 399.651C890.967 398.876 890.564 397.871 890.514 396.813L885.554 279.05C885.538 278.716 885.415 278.397 885.207 278.145C884.999 277.892 884.716 277.721 884.405 277.657C884.093 277.593 883.77 277.641 883.488 277.793C883.205 277.945 882.978 278.193 882.844 278.496L870.103 323.28L867.479 395.217C867.457 395.837 867.313 396.446 867.056 397.005C866.8 397.563 866.437 398.06 865.989 398.463C865.542 398.867 865.02 399.168 864.456 399.349C863.893 399.529 863.301 399.585 862.716 399.512L847.977 397.683C846.923 397.555 845.953 397.017 845.256 396.174C844.558 395.331 844.185 394.244 844.209 393.126L845.46 325.412L855.446 219.12L855.892 219.138L916.611 221.605L916.064 398.807C916.06 399.998 915.608 401.138 914.808 401.979C914.008 402.82 912.925 403.292 911.795 403.292Z" fill="#2F2E41"/>
<path d="M914.31 231.318C914.273 231.318 914.236 231.318 914.199 231.317L853.046 229.628C852.447 229.611 851.858 229.462 851.317 229.189C850.776 228.916 850.296 228.526 849.907 228.045C849.519 227.563 849.231 227.001 849.062 226.394C848.894 225.787 848.849 225.15 848.929 224.523L860.68 133.332C861.414 127.175 863.371 121.25 866.424 115.944C869.477 110.638 873.556 106.071 878.397 102.54C882.654 99.4496 887.49 97.3556 892.579 96.3989C897.667 95.4422 902.891 95.6448 907.9 96.9932C929.244 102.696 942.049 126.863 936.444 150.865L918.455 227.895C918.222 228.869 917.689 229.735 916.939 230.355C916.188 230.975 915.263 231.314 914.31 231.318Z" fill="#3F3D56"/>
<path d="M834.084 158.904C830.054 158.909 826.111 157.674 822.737 155.35L787.075 130.68C786.553 130.319 786.113 129.841 785.785 129.281C785.457 128.721 785.249 128.092 785.177 127.438C785.105 126.784 785.169 126.122 785.366 125.497C785.564 124.873 785.888 124.301 786.318 123.823L791.69 117.843C792.276 117.187 793.035 116.733 793.87 116.539C794.704 116.345 795.574 116.421 796.367 116.756L836.202 133.481L873.103 105.695C874.828 104.396 876.791 103.489 878.866 103.031C880.941 102.572 883.084 102.573 885.159 103.033C887.234 103.493 889.196 104.403 890.92 105.703C892.645 107.004 894.094 108.668 895.177 110.59C896.26 112.512 896.953 114.65 897.212 116.869C897.471 119.088 897.291 121.339 896.682 123.481C896.073 125.622 895.05 127.607 893.676 129.31C892.302 131.013 890.608 132.396 888.7 133.373L843.093 156.73C840.285 158.165 837.205 158.908 834.084 158.904Z" fill="#3F3D56"/>
<path d="M914.208 86.6378C918.182 87.6272 922.976 88.3864 925.816 85.2929C926.319 84.7089 926.769 84.0761 927.159 83.4028L930.872 77.4254C933.717 72.8465 936.611 68.1481 937.815 62.8236C938.507 59.7641 938.615 56.5901 938.134 53.486C937.652 50.382 936.591 47.4097 935.011 44.742C933.43 42.0742 931.363 39.764 928.929 37.9457C926.495 36.1274 923.743 34.8372 920.832 34.15C915.288 32.8412 909.863 30.5892 904.195 31C898.527 31.4108 891.88 31.2759 887.124 28C887.42 29.4605 889.023 35.9134 889.023 35.9134C889.023 35.9134 881.871 42.8321 880.436 44.5572C882.314 43.6796 884.357 43.2675 886.409 43.3526C888.462 43.4378 890.468 44.0179 892.275 45.0485C894.081 46.079 895.639 47.5325 896.83 49.2973C898.02 51.062 898.811 53.0911 899.141 55.2285C899.547 57.8543 899.309 60.7665 900.788 62.9216C902.196 64.9714 904.72 65.6896 906.841 66.8732C909.899 68.71 912.234 71.6386 913.424 75.1307C914.615 78.6227 914.583 82.4485 913.335 85.9179L914.208 86.6378Z" fill="#2F2E41"/>
<path d="M886.24 240.115H693.155C690.728 240.112 688.401 239.094 686.684 237.284C684.968 235.475 684.003 233.021 684 230.462V126.912C684.003 124.353 684.968 121.899 686.684 120.09C688.401 118.28 690.728 117.262 693.155 117.259H886.24C888.667 117.262 890.994 118.28 892.71 120.09C894.427 121.899 895.392 124.353 895.395 126.912V230.462C895.392 233.021 894.427 235.475 892.71 237.284C890.994 239.094 888.667 240.112 886.24 240.115Z" fill="#CCCCCC"/>
<path d="M884.021 233.094H695.374C694.124 233.093 692.925 232.569 692.041 231.636C691.157 230.704 690.66 229.44 690.658 228.122V129.252C690.66 127.934 691.157 126.67 692.041 125.738C692.925 124.805 694.124 124.281 695.374 124.279H884.021C885.271 124.281 886.47 124.805 887.354 125.738C888.238 126.67 888.735 127.934 888.737 129.252V228.122C888.735 229.44 888.238 230.704 887.354 231.636C886.47 232.569 885.271 233.093 884.021 233.094Z" fill="white"/>
<path d="M873.096 258.057L851.879 235.687L879.08 236.412V255.443C879.087 256.176 878.884 256.894 878.498 257.503C878.112 258.113 877.56 258.585 876.916 258.858C876.484 259.049 876.02 259.148 875.552 259.149C875.094 259.147 874.642 259.05 874.22 258.862C873.798 258.675 873.416 258.401 873.096 258.057Z" fill="#CCCCCC"/>
<path d="M861.052 174.253H765.619C764.442 174.253 763.313 173.76 762.48 172.882C761.648 172.005 761.18 170.814 761.18 169.573C761.18 168.332 761.648 167.141 762.48 166.264C763.313 165.386 764.442 164.893 765.619 164.893H861.052C862.229 164.893 863.358 165.386 864.19 166.264C865.023 167.141 865.49 168.332 865.49 169.573C865.49 170.814 865.023 172.005 864.19 172.882C863.358 173.76 862.229 174.253 861.052 174.253Z" fill="#CCCCCC"/>
<path d="M829.981 154.362H765.619C765.035 154.363 764.458 154.243 763.918 154.008C763.379 153.773 762.889 153.429 762.476 152.994C762.063 152.559 761.736 152.043 761.512 151.475C761.289 150.906 761.174 150.297 761.174 149.682C761.174 149.067 761.289 148.458 761.512 147.89C761.736 147.321 762.063 146.805 762.476 146.37C762.889 145.936 763.379 145.591 763.918 145.356C764.458 145.121 765.035 145.001 765.619 145.002H829.981C831.158 145.002 832.287 145.495 833.119 146.373C833.952 147.25 834.419 148.441 834.419 149.682C834.419 150.923 833.952 152.114 833.119 152.992C832.287 153.869 831.158 154.362 829.981 154.362Z" fill="#CCCCCC"/>
<path d="M726.114 174.253C733.775 174.253 739.985 167.705 739.985 159.628C739.985 151.55 733.775 145.002 726.114 145.002C718.453 145.002 712.243 151.55 712.243 159.628C712.243 167.705 718.453 174.253 726.114 174.253Z" fill="#00727C"/>
<path d="M831.642 212.372C834.094 212.372 836.081 210.277 836.081 207.692C836.081 205.107 834.094 203.012 831.642 203.012C829.191 203.012 827.203 205.107 827.203 207.692C827.203 210.277 829.191 212.372 831.642 212.372Z" fill="#E6E6E6"/>
<path d="M847.178 212.372C849.629 212.372 851.616 210.277 851.616 207.692C851.616 205.107 849.629 203.012 847.178 203.012C844.726 203.012 842.739 205.107 842.739 207.692C842.739 210.277 844.726 212.372 847.178 212.372Z" fill="#E6E6E6"/>
<path d="M862.713 212.372C865.165 212.372 867.152 210.277 867.152 207.692C867.152 205.107 865.165 203.012 862.713 203.012C860.262 203.012 858.275 205.107 858.275 207.692C858.275 210.277 860.262 212.372 862.713 212.372Z" fill="#E6E6E6"/>
<path d="M883.25 227.8C883.403 226.339 883.859 224.931 884.584 223.676C885.309 222.42 886.286 221.347 887.447 220.533C888.608 219.719 889.924 219.183 891.303 218.963C892.681 218.743 894.089 218.845 895.426 219.261L915.137 190.191L921.458 207.524L901.771 232.471C900.96 234.794 899.369 236.722 897.299 237.89C895.23 239.058 892.826 239.386 890.543 238.81C888.26 238.234 886.257 236.795 884.913 234.766C883.568 232.737 882.977 230.259 883.25 227.8Z" fill="#A0616A"/>
<path d="M905.829 226.232C905.519 226.259 905.207 226.251 904.899 226.207C904.28 226.12 903.686 225.89 903.161 225.534C902.636 225.178 902.191 224.705 901.859 224.147L897.693 217.179C897.235 216.418 897.005 215.529 897.034 214.629C897.062 213.728 897.348 212.858 897.853 212.131L923.082 175.577L906.684 131.001C905.219 127.079 905.274 122.707 906.838 118.828C908.401 114.949 911.348 111.872 915.042 110.262C917.13 109.339 919.386 108.915 921.647 109.021C923.909 109.126 926.12 109.759 928.122 110.874C930.123 111.989 931.866 113.557 933.224 115.467C934.583 117.376 935.523 119.579 935.977 121.918L946.151 174.291C946.859 177.984 946.65 181.808 945.545 185.392C944.44 188.975 942.476 192.197 939.844 194.745L908.347 225.071C907.653 225.741 906.767 226.149 905.829 226.232Z" fill="#3F3D56"/>
<path d="M958.771 427.653H758.658C758.406 427.653 758.165 427.547 757.987 427.36C757.809 427.172 757.709 426.918 757.709 426.653C757.709 426.388 757.809 426.133 757.987 425.946C758.165 425.758 758.406 425.653 758.658 425.653H958.771C959.023 425.653 959.264 425.758 959.442 425.946C959.62 426.133 959.719 426.388 959.719 426.653C959.719 426.918 959.62 427.172 959.442 427.36C959.264 427.547 959.023 427.653 958.771 427.653Z" fill="#CCCCCC"/>
<path d="M256.618 150.776H53.0281C50.4689 150.773 48.0153 149.755 46.2056 147.946C44.3959 146.136 43.378 143.683 43.3751 141.123V37.5735C43.378 35.0143 44.3959 32.5607 46.2056 30.751C48.0153 28.9413 50.4689 27.9234 53.0281 27.9205H256.618C259.177 27.9234 261.63 28.9414 263.44 30.751C265.25 32.5607 266.268 35.0143 266.271 37.5735V141.123C266.268 143.683 265.25 146.136 263.44 147.946C261.63 149.755 259.177 150.773 256.618 150.776Z" fill="#CCCCCC"/>
<path d="M254.277 143.756H55.3682C54.0498 143.754 52.7858 143.23 51.8536 142.298C50.9213 141.366 50.3969 140.102 50.3955 138.783V39.9136C50.3969 38.5952 50.9213 37.3312 51.8536 36.399C52.7858 35.4667 54.0498 34.9423 55.3682 34.9409H254.277C255.596 34.9423 256.86 35.4667 257.792 36.399C258.724 37.3312 259.249 38.5952 259.25 39.9136V138.783C259.249 140.102 258.724 141.366 257.792 142.298C256.86 143.23 255.596 143.754 254.277 143.756Z" fill="white"/>
<path d="M230.059 84.9146H129.434C128.193 84.9146 127.003 84.4216 126.125 83.5438C125.247 82.6661 124.754 81.4757 124.754 80.2344C124.754 78.9931 125.247 77.8027 126.125 76.925C127.003 76.0473 128.193 75.5542 129.434 75.5542H230.059C231.3 75.5542 232.491 76.0473 233.368 76.925C234.246 77.8027 234.739 78.9931 234.739 80.2344C234.739 81.4757 234.246 82.6661 233.368 83.5438C232.491 84.4216 231.3 84.9146 230.059 84.9146Z" fill="#CCCCCC"/>
<path d="M197.298 65.0237H129.434C128.193 65.0237 127.003 64.5306 126.125 63.6529C125.247 62.7752 124.754 61.5848 124.754 60.3435C124.754 59.1022 125.247 57.9118 126.125 57.0341C127.003 56.1564 128.193 55.6633 129.434 55.6633H197.298C198.539 55.6633 199.729 56.1564 200.607 57.0341C201.485 57.9118 201.978 59.1022 201.978 60.3435C201.978 61.5848 201.485 62.7752 200.607 63.6529C199.729 64.5306 198.539 65.0237 197.298 65.0237Z" fill="#CCCCCC"/>
<path d="M87.7802 84.9146C95.8577 84.9146 102.406 78.3665 102.406 70.289C102.406 62.2114 95.8577 55.6633 87.7802 55.6633C79.7026 55.6633 73.1545 62.2114 73.1545 70.289C73.1545 78.3665 79.7026 84.9146 87.7802 84.9146Z" fill="#00727C"/>
<path d="M199.049 123.033C201.634 123.033 203.73 120.938 203.73 118.353C203.73 115.768 201.634 113.673 199.049 113.673C196.465 113.673 194.369 115.768 194.369 118.353C194.369 120.938 196.465 123.033 199.049 123.033Z" fill="#E6E6E6"/>
<path d="M215.43 123.033C218.015 123.033 220.11 120.938 220.11 118.353C220.11 115.768 218.015 113.673 215.43 113.673C212.845 113.673 210.75 115.768 210.75 118.353C210.75 120.938 212.845 123.033 215.43 123.033Z" fill="#E6E6E6"/>
<path d="M231.811 123.033C234.396 123.033 236.491 120.938 236.491 118.353C236.491 115.768 234.396 113.673 231.811 113.673C229.226 113.673 227.131 115.768 227.131 118.353C227.131 120.938 229.226 123.033 231.811 123.033Z" fill="#E6E6E6"/>
<path d="M248.174 17.9714C246.791 18.4693 245.534 19.2645 244.491 20.3009C243.449 21.3373 242.646 22.5896 242.14 23.9698C241.634 25.35 241.436 26.8244 241.561 28.2891C241.686 29.7539 242.131 31.1734 242.864 32.4476L219.444 59.4377L237.853 61.8765L257.271 35.8723C259.33 34.4988 260.814 32.4177 261.441 30.0234C262.068 27.6292 261.795 25.088 260.674 22.8815C259.552 20.675 257.661 18.9564 255.357 18.0515C253.053 17.1465 250.498 17.118 248.174 17.9714Z" fill="#FFB8B8"/>
<path d="M91.7981 28.7769C92.2976 30.1595 92.488 31.6348 92.3557 33.099C92.2233 34.5631 91.7716 35.9804 91.0323 37.251C90.293 38.5217 89.2841 39.6148 88.0766 40.4534C86.8691 41.2919 85.4925 41.8555 84.0436 42.1045L78.2156 77.3609L64.5881 64.7464L72.2117 33.2002C71.9548 30.7385 72.6099 28.2681 74.0527 26.2571C75.4955 24.246 77.6259 22.8342 80.0402 22.2889C82.4545 21.7437 84.9849 22.103 87.1519 23.2988C89.319 24.4945 90.9721 26.4437 91.7981 28.7769Z" fill="#FFB8B8"/>
<path d="M128.399 385.364L140.659 385.363L146.491 338.075L128.397 338.076L128.399 385.364Z" fill="#FFB8B8"/>
<path d="M125.272 381.361L149.415 381.36H149.416C151.437 381.36 153.438 381.758 155.305 382.531C157.171 383.304 158.868 384.438 160.296 385.866C161.725 387.295 162.858 388.991 163.632 390.858C164.405 392.725 164.803 394.726 164.803 396.746V397.246L125.272 397.248L125.272 381.361Z" fill="#2F2E41"/>
<path d="M65.399 385.364L77.659 385.363L83.491 338.075L65.397 338.076L65.399 385.364Z" fill="#FFB8B8"/>
<path d="M62.2716 381.361L86.4154 381.36H86.4164C88.437 381.36 90.4378 381.758 92.3046 382.531C94.1714 383.304 95.8676 384.438 97.2964 385.866C98.7251 387.295 99.8585 388.991 100.632 390.858C101.405 392.725 101.803 394.726 101.803 396.746V397.246L62.2724 397.248L62.2716 381.361Z" fill="#2F2E41"/>
<path d="M125.84 62.5082C139.404 62.5082 150.401 51.5118 150.401 37.9471C150.401 24.3825 139.404 13.3861 125.84 13.3861C112.275 13.3861 101.279 24.3825 101.279 37.9471C101.279 51.5118 112.275 62.5082 125.84 62.5082Z" fill="#FFB8B8"/>
<path d="M122.896 369.655L120.865 240.248C120.86 239.882 120.721 239.531 120.475 239.26C120.229 238.99 119.892 238.818 119.528 238.779C119.165 238.739 118.799 238.833 118.5 239.044C118.201 239.255 117.99 239.568 117.906 239.924L84.6146 366.5C84.3641 367.513 83.7734 368.409 82.9414 369.039C82.1094 369.669 81.0864 369.993 80.0436 369.959L61.7536 369.177C61.1318 369.15 60.5223 368.995 59.9636 368.721C59.405 368.446 58.9092 368.059 58.5078 367.584C58.1063 367.108 57.8078 366.554 57.6312 365.958C57.4546 365.361 57.4036 364.734 57.4816 364.116L85.7304 201.458L85.7882 200.999L164.47 204.722L164.984 204.745L148.111 369.925C148.023 371.056 147.512 372.112 146.681 372.884C145.849 373.656 144.758 374.087 143.624 374.091H127.395C126.214 374.086 125.082 373.619 124.241 372.79C123.4 371.961 122.917 370.835 122.896 369.655Z" fill="#2F2E41"/>
<path d="M185.04 215.684L70.8626 206.314C70.1734 206.257 69.5066 206.043 68.9138 205.687C68.321 205.331 67.8182 204.843 67.4445 204.261C67.0708 203.679 66.8362 203.019 66.7589 202.332C66.6817 201.645 66.7639 200.949 66.9991 200.299L84.9798 150.587L86.0144 91.5842C86.052 89.4424 86.5144 87.3293 87.375 85.3675C88.2355 83.4058 89.477 81.6344 91.0274 80.1562C92.5779 78.678 94.4064 77.5223 96.4069 76.7562C98.4075 75.9902 100.54 75.629 102.681 75.6936L110.274 68.8108H138.094L140.516 71.9866L159.874 74.9612C163.321 75.5054 166.503 77.144 168.948 79.6348C171.394 82.1257 172.973 85.3369 173.454 88.7942L189.868 210.599C189.953 211.234 189.902 211.881 189.718 212.495C189.533 213.109 189.219 213.676 188.798 214.159C188.376 214.642 187.856 215.029 187.272 215.295C186.689 215.561 186.055 215.699 185.414 215.699C185.29 215.699 185.165 215.695 185.04 215.684Z" fill="#2F2E41"/>
<path d="M162.794 80.6809L211.478 66.4172L233.511 37.4094C234.117 36.6104 234.973 36.0371 235.943 35.7805C236.913 35.524 237.941 35.5989 238.863 35.9934L252.619 41.8733C253.206 42.1239 253.732 42.4964 254.164 42.966C254.595 43.4356 254.922 43.9916 255.123 44.5971C255.323 45.2026 255.392 45.8438 255.326 46.4782C255.26 47.1125 255.06 47.7256 254.738 48.2766L238.273 76.5325C235.592 81.1545 231.51 84.8046 226.619 86.9553L169.358 112.268L162.794 80.6809Z" fill="#2F2E41"/>
<path d="M69.3929 102.018C66.4835 99.9219 64.1634 97.1115 62.6564 93.8579C61.1494 90.6043 60.5063 87.0172 60.7891 83.4426L62.9256 55.135C63.0137 54.0044 63.5244 52.9484 64.356 52.1773C65.1876 51.4062 66.2791 50.9765 67.4131 50.9739H67.4529L83.5848 51.1174C84.2456 51.1235 84.8971 51.275 85.4928 51.5612C86.0885 51.8474 86.6139 52.2612 87.0316 52.7734C87.4493 53.2855 87.7491 53.8834 87.9097 54.5244C88.0703 55.1655 88.0877 55.8341 87.9608 56.4827L84.9676 71.7542L106.328 80.7795L88.3407 115.773L69.3929 102.018Z" fill="#2F2E41"/>
<path d="M140.128 8.4961C140.128 8.4961 114.443 -5.33411 100.443 10.9885C86.4428 27.3111 105.777 52.8361 105.777 52.8361L133.325 56.3105C133.325 56.3105 134.325 37.584 140.884 37.9476C147.443 38.3111 167.813 14.6811 140.128 8.4961Z" fill="#2F2E41"/>
<path d="M212 398.653H1C0.734784 398.653 0.480429 398.547 0.292892 398.36C0.105356 398.172 0 397.918 0 397.653C0 397.388 0.105356 397.133 0.292892 396.946C0.480429 396.758 0.734784 396.653 1 396.653H212C212.265 396.653 212.52 396.758 212.707 396.946C212.895 397.133 213 397.388 213 397.653C213 397.918 212.895 398.172 212.707 398.36C212.52 398.547 212.265 398.653 212 398.653Z" fill="#CCCCCC"/>
<path d="M598.725 252.662C598.004 252.202 597.3 252.052 595.596 251.593C595.007 251.433 594.483 251.293 594.253 251.033C594.139 250.913 594.123 250.763 594.123 250.663C594.123 250.474 594.221 250.294 594.434 250.164C594.696 249.974 595.121 249.864 595.548 249.864C596.101 249.864 596.502 250.05 596.779 250.288C596.799 250.305 596.825 250.334 596.841 250.355V250.355C597.017 250.585 597.257 250.823 597.547 250.821L598.167 250.819C598.824 250.816 599.337 250.214 598.891 249.73C598.831 249.665 598.765 249.6 598.693 249.534C598.302 249.189 597.755 248.932 597.126 248.768C596.887 248.705 596.71 248.496 596.71 248.249V248.249C596.71 247.966 596.481 247.736 596.197 247.736H594.976C594.704 247.736 594.483 247.956 594.483 248.228V248.228C594.483 248.473 594.303 248.679 594.063 248.73C593.609 248.828 593.198 248.973 592.845 249.165C592.19 249.534 591.765 250.134 591.765 250.684C591.765 251.083 592.011 251.523 592.322 251.792C592.78 252.202 593.386 252.452 593.926 252.632C594.762 252.932 595.81 253.052 596.645 253.391C597.136 253.591 597.235 253.751 597.235 253.981C597.235 254.251 597.087 254.43 596.727 254.58C596.399 254.73 595.908 254.78 595.564 254.78C594.959 254.78 594.45 254.57 594.106 254.24V254.24C593.859 254.014 593.589 253.701 593.254 253.701H592.73C592.106 253.701 591.596 254.253 591.987 254.739C592.048 254.814 592.115 254.888 592.19 254.96C592.607 255.402 593.273 255.72 594.058 255.898C594.301 255.953 594.483 256.163 594.483 256.413V256.413C594.483 256.692 594.71 256.918 594.989 256.918H596.223C596.492 256.918 596.71 256.7 596.71 256.431V256.431C596.71 256.184 596.895 255.978 597.138 255.936C597.395 255.89 597.638 255.834 597.84 255.769C598.954 255.419 599.593 254.68 599.593 254.02C599.593 253.491 599.331 253.041 598.725 252.662ZM602.986 254.459C602.569 255.082 603.015 255.919 603.766 255.919V255.919C604.079 255.919 604.372 255.762 604.546 255.502L608.05 250.252C608.158 250.09 608.215 249.901 608.215 249.707V249.707C608.215 249.165 607.776 248.725 607.233 248.725H601.419C601.066 248.725 600.779 249.011 600.779 249.365V249.365C600.779 249.718 601.066 250.004 601.419 250.004H602.586C604.031 250.004 604.891 251.616 604.087 252.817L602.986 254.459ZM616.776 252.243V252.243C616.21 251.79 616.058 250.714 616.688 250.356L616.803 250.291C617.06 250.145 617.218 249.868 617.218 249.572V249.572C617.218 249.108 616.842 248.725 616.378 248.725H610.489C610.135 248.725 609.849 249.011 609.849 249.365V249.365C609.849 249.718 610.135 250.004 610.489 250.004H611.801C612.464 250.004 612.695 250.884 612.118 251.21V251.21C611.755 251.415 611.679 251.907 611.964 252.211L612.063 252.317C612.27 252.538 612.588 252.605 612.887 252.557C613.027 252.534 613.172 252.522 613.32 252.522C613.812 252.522 614.27 252.612 614.631 252.832C614.991 253.052 615.171 253.351 615.171 253.651C615.171 253.941 614.975 254.231 614.631 254.44C614.287 254.65 613.812 254.77 613.32 254.77C612.83 254.77 612.355 254.65 612.011 254.44V254.44C611.664 254.23 611.271 253.986 610.871 254.051L610.751 254.07C610.069 254.181 609.735 254.913 610.317 255.287C610.367 255.319 610.419 255.35 610.471 255.38C611.241 255.819 612.288 256.069 613.32 256.049C614.352 256.069 615.4 255.829 616.171 255.389C616.94 254.95 617.398 254.301 617.432 253.651C617.464 253.152 617.218 252.662 616.776 252.243ZM620.672 248.725C620.445 248.725 620.22 248.765 620.008 248.843L618.577 249.366C618.302 249.467 618.118 249.73 618.118 250.023V250.023C618.118 250.512 618.606 250.85 619.064 250.679L619.224 250.619C619.759 250.418 620.329 250.814 620.329 251.385V254.781C620.329 255.409 620.839 255.919 621.468 255.919V255.919C622.096 255.919 622.606 255.409 622.606 254.781V250.659C622.606 249.591 621.74 248.725 620.672 248.725V248.725Z" fill="black"/>
<path d="M355.812 52.0955C356.462 51.9903 356.778 51.2605 356.269 50.8422C355.81 50.4655 355.248 50.1552 354.588 49.9339C353.694 49.6184 352.619 49.4971 351.625 49.485C350.671 49.485 349.696 49.5457 348.741 49.8369C347.528 50.2008 346.594 50.9772 346.594 51.8386C346.594 52.3967 346.932 53.0155 347.707 53.428C348.423 53.8284 349.378 54.0468 350.372 54.2287L353.018 54.7019C353.694 54.8232 354.25 54.9809 354.668 55.2236C355.046 55.442 355.245 55.7331 355.245 56.0486C355.245 56.4004 355.026 56.7886 354.45 57.0557C353.833 57.3345 352.779 57.4681 351.884 57.4681C350.71 57.4681 349.458 57.2256 348.762 56.6309C348.589 56.4942 348.443 56.337 348.321 56.1652C348.051 55.7825 347.62 55.488 347.158 55.5657V55.5657C346.571 55.6642 346.217 56.2933 346.584 56.7608C346.754 56.9765 346.959 57.1865 347.211 57.3832C348.324 58.2444 349.954 58.5842 351.824 58.5842C353.217 58.5842 354.549 58.4506 355.583 58.0142C356.617 57.5771 357.293 56.8248 357.293 56.085C357.293 55.4298 356.836 54.8232 356.06 54.3743C355.404 53.9861 354.588 53.7434 353.475 53.5493L350.929 53.0883C350.154 52.9548 349.438 52.7729 349.06 52.5423C348.782 52.3604 348.622 52.1177 348.622 51.863C348.622 51.4747 349 51.0864 349.636 50.8681C350.154 50.6861 350.869 50.6012 351.605 50.6012C352.341 50.6012 353.077 50.7468 353.633 50.953C354.167 51.1533 354.55 51.4111 354.854 51.7264C355.105 51.9875 355.454 52.1534 355.812 52.0955V52.0955ZM362.368 54.4203C362.368 53.5305 363.09 52.8092 363.979 52.8092H365.111C365.376 52.8092 365.59 52.5947 365.59 52.33V52.33C365.59 52.0653 365.376 51.8508 365.111 51.8508H363.278C362.776 51.8508 362.368 51.4434 362.368 50.9409V50.9409C362.368 50.4383 361.961 50.031 361.458 50.031H361.349C360.846 50.031 360.439 50.4383 360.439 50.9409V50.9409C360.439 51.4434 360.032 51.8508 359.529 51.8508H358.571C358.306 51.8508 358.092 52.0653 358.092 52.33V52.33C358.092 52.5947 358.306 52.8092 358.571 52.8092H359.265C359.914 52.8092 360.439 53.3347 360.439 53.9828V55.8787C360.439 56.5339 360.478 57.068 360.877 57.5531C361.275 58.0381 362.01 58.317 362.965 58.4506C363.567 58.5303 364.437 58.5286 365.148 58.4584C365.404 58.433 365.59 58.2128 365.59 57.9555V57.9555C365.59 57.6435 365.319 57.4005 365.008 57.4159C364.607 57.4356 364.191 57.4355 363.819 57.4195C363.323 57.3832 362.846 57.2133 362.606 56.9461C362.348 56.6916 362.368 56.3397 362.368 55.806V54.4203ZM369.262 53.4965C369.446 53.5505 369.651 53.4963 369.803 53.3795V53.3795C370.341 52.967 371.156 52.785 372.07 52.785C372.806 52.7729 373.543 52.8821 374.099 53.1368V53.1368C374.719 53.4049 374.355 54.0752 373.682 54.1344L372.886 54.2045C371.255 54.3501 370.161 54.3986 369.008 54.799C367.994 55.1629 367.377 55.7816 367.377 56.4853C367.377 56.9707 367.616 57.3222 368.073 57.7346C368.65 58.2081 369.743 58.5479 370.837 58.5718C371.753 58.5965 372.667 58.4629 373.502 58.1841C373.849 58.0783 374.206 57.9246 374.518 57.741C374.779 57.5869 375.233 57.7804 375.233 58.0838V58.0838C375.233 58.2595 375.375 58.4019 375.551 58.4019H376.088C376.56 58.4019 376.943 58.0191 376.943 57.5467V54.2894C376.943 53.9133 376.804 53.4887 376.485 53.0883C375.69 52.1056 374.08 51.6809 372.111 51.6809C370.44 51.6809 369.028 52.0328 368.073 52.8092V52.8092C367.951 52.9212 367.998 53.1239 368.157 53.1708L369.262 53.4965ZM373.72 55.132C374.424 55.0621 375.117 55.6899 374.676 56.2427V56.2427C374.139 57.0797 372.468 57.5284 371.116 57.4921C370.062 57.4558 369.286 56.9584 369.307 56.4126C369.326 55.5754 371.017 55.4056 372.607 55.2479C373.033 55.2015 373.398 55.164 373.72 55.132ZM382.616 54.4203C382.616 53.5305 383.337 52.8092 384.227 52.8092H385.359C385.623 52.8092 385.838 52.5947 385.838 52.33V52.33C385.838 52.0653 385.623 51.8508 385.359 51.8508H383.526C383.023 51.8508 382.616 51.4434 382.616 50.9409V50.9409C382.616 50.4383 382.208 50.031 381.706 50.031H381.596C381.094 50.031 380.686 50.4383 380.686 50.9409V50.9409C380.686 51.4434 380.279 51.8508 379.777 51.8508H378.82C378.555 51.8508 378.34 52.0653 378.34 52.33V52.33C378.34 52.5947 378.555 52.8092 378.82 52.8092H379.513C380.161 52.8092 380.686 53.3344 380.686 53.9823V55.8787C380.686 56.5339 380.727 57.068 381.124 57.5531C381.522 58.0381 382.258 58.317 383.212 58.4506C383.816 58.5303 384.685 58.5286 385.395 58.4584C385.651 58.433 385.838 58.2128 385.838 57.9555V57.9555C385.838 57.6435 385.567 57.4005 385.255 57.4159C384.854 57.4356 384.439 57.4355 384.068 57.4195C383.57 57.3832 383.093 57.2133 382.855 56.9461C382.596 56.6916 382.616 56.3397 382.616 55.806V54.4203ZM389.009 49.6063C388.684 49.6063 388.421 49.8698 388.421 50.1947V50.1947C388.421 50.5197 388.684 50.7831 389.009 50.7831H389.761C390.086 50.7831 390.349 50.5197 390.349 50.1947V50.1947C390.349 49.8698 390.086 49.6063 389.761 49.6063H389.009ZM389.385 51.8508C388.853 51.8508 388.421 52.2824 388.421 52.8149V57.4378C388.421 57.9703 388.853 58.4019 389.385 58.4019V58.4019C389.917 58.4019 390.349 57.9703 390.349 57.4378V52.8149C390.349 52.2824 389.917 51.8508 389.385 51.8508V51.8508ZM400.495 53.7608C401.116 53.669 401.409 53.0074 400.894 52.648C400.508 52.3792 400.036 52.1522 399.515 51.9964C398.799 51.7659 398.004 51.6688 397.248 51.6688C396.512 51.6567 395.736 51.7052 394.941 51.9236C393.907 52.2026 393.112 52.8214 393.112 53.5493C393.112 53.9861 393.43 54.4835 394.106 54.8111C394.702 55.1023 395.359 55.2357 396.214 55.3813C396.91 55.5027 397.506 55.5875 398.043 55.6846C398.719 55.806 399.157 55.903 399.475 56.085C399.754 56.2427 399.873 56.4247 399.853 56.643C399.813 56.8611 399.655 57.031 399.336 57.1769C398.899 57.3832 398.063 57.4558 397.387 57.4558C396.572 57.4558 395.736 57.3469 395.16 56.9584C395.065 56.8973 394.979 56.8255 394.902 56.7472C394.558 56.3973 394.1 56.0458 393.616 56.1189V56.1189C393.088 56.1986 392.777 56.7141 393.118 57.1253C393.301 57.3465 393.523 57.5586 393.768 57.723C394.702 58.3416 395.976 58.5842 397.408 58.5842C398.481 58.5842 399.555 58.4752 400.39 58.1478C401.206 57.8319 401.742 57.3222 401.822 56.7401C401.902 56.1335 401.504 55.6239 400.669 55.2236C400.012 54.8839 399.395 54.7747 398.58 54.6291C397.825 54.5078 397.148 54.3986 396.631 54.3015C395.955 54.1802 395.577 54.071 395.319 53.9254C395.16 53.8162 395.081 53.6828 395.081 53.5251C395.081 53.3188 395.319 53.1125 395.757 52.967C396.154 52.8456 396.671 52.785 397.228 52.785C397.746 52.785 398.262 52.8578 398.68 52.9912C398.979 53.0825 399.244 53.2227 399.455 53.3876C399.754 53.6204 400.12 53.8161 400.495 53.7608V53.7608ZM406.984 54.4203C406.984 53.5305 407.705 52.8092 408.595 52.8092H409.727C409.991 52.8092 410.206 52.5947 410.206 52.33V52.33C410.206 52.0653 409.991 51.8508 409.727 51.8508H407.894C407.391 51.8508 406.984 51.4434 406.984 50.9409V50.9409C406.984 50.4383 406.576 50.031 406.074 50.031H405.965C405.463 50.031 405.055 50.4383 405.055 50.9409V50.9409C405.055 51.4434 404.648 51.8508 404.146 51.8508H403.188C402.923 51.8508 402.708 52.0653 402.708 52.33V52.33C402.708 52.5947 402.923 52.8092 403.188 52.8092H403.882C404.53 52.8092 405.055 53.3347 405.055 53.9828V55.8787C405.055 56.5339 405.095 57.068 405.492 57.5531C405.89 58.0381 406.627 58.317 407.581 58.4506C408.184 58.5303 409.053 58.5286 409.763 58.4584C410.019 58.433 410.206 58.2128 410.206 57.9555V57.9555C410.206 57.6435 409.935 57.4005 409.623 57.4159C409.222 57.4356 408.807 57.4355 408.436 57.4195C407.938 57.3832 407.461 57.2133 407.223 56.9461C406.965 56.6916 406.984 56.3397 406.984 55.806V54.4203ZM413.377 49.6063C413.052 49.6063 412.789 49.8698 412.789 50.1947V50.1947C412.789 50.5197 413.052 50.7831 413.377 50.7831H414.13C414.455 50.7831 414.718 50.5197 414.718 50.1947V50.1947C414.718 49.8698 414.455 49.6063 414.13 49.6063H413.377ZM413.753 51.8508C413.221 51.8508 412.789 52.2827 412.789 52.8155V57.4372C412.789 57.97 413.221 58.4019 413.753 58.4019V58.4019C414.286 58.4019 414.718 57.97 414.718 57.4372V52.8155C414.718 52.2827 414.286 51.8508 413.753 51.8508V51.8508ZM426.06 53.5147C426.44 53.4141 426.582 52.9754 426.27 52.7365V52.7365C425.315 52.0328 423.863 51.6688 422.312 51.6688C420.78 51.6688 419.329 52.0085 418.355 52.7365C417.46 53.428 417.101 54.2651 417.101 55.1265C417.101 55.9758 417.46 56.8248 418.355 57.5044C419.309 58.2204 420.761 58.5965 422.312 58.5718C423.844 58.5965 425.315 58.2204 426.27 57.5044V57.5044C426.573 57.2881 426.436 56.8512 426.076 56.757L425.449 56.5931C425.195 56.5268 424.942 56.6239 424.738 56.7886V56.7886C424.182 57.2372 423.267 57.4681 422.312 57.4681C421.337 57.4681 420.442 57.2372 419.886 56.7886C419.329 56.3397 419.15 55.7331 419.131 55.1265C419.15 54.5199 419.329 53.9133 419.886 53.4644C420.442 53.0033 421.337 52.7729 422.312 52.785C423.267 52.7729 424.182 53.0033 424.738 53.4644V53.4644C424.953 53.6378 425.224 53.7356 425.491 53.665L426.06 53.5147ZM436.105 53.7608C436.727 53.669 437.02 53.0074 436.504 52.648C436.119 52.3792 435.647 52.1522 435.126 51.9964C434.41 51.7659 433.615 51.6688 432.859 51.6688C432.123 51.6567 431.347 51.7052 430.552 51.9236C429.518 52.2026 428.723 52.8214 428.723 53.5493C428.723 53.9861 429.04 54.4835 429.716 54.8111C430.313 55.1023 430.97 55.2357 431.824 55.3813C432.521 55.5027 433.117 55.5875 433.654 55.6846C434.33 55.806 434.768 55.903 435.086 56.085C435.364 56.2427 435.483 56.4247 435.464 56.643C435.424 56.8611 435.265 57.031 434.947 57.1769C434.51 57.3832 433.674 57.4558 432.998 57.4558C432.183 57.4558 431.347 57.3469 430.771 56.9584C430.675 56.8969 430.588 56.8244 430.511 56.7454C430.168 56.3956 429.711 56.0456 429.228 56.1187V56.1187C428.699 56.1985 428.388 56.7145 428.729 57.126C428.912 57.347 429.134 57.5588 429.378 57.723C430.313 58.3416 431.586 58.5842 433.018 58.5842C434.092 58.5842 435.166 58.4752 436.001 58.1478C436.816 57.8319 437.353 57.3222 437.433 56.7401C437.513 56.1335 437.115 55.6239 436.28 55.2236C435.623 54.8839 435.006 54.7747 434.191 54.6291C433.435 54.5078 432.759 54.3986 432.242 54.3015C431.566 54.1802 431.188 54.071 430.929 53.9254C430.771 53.8162 430.691 53.6828 430.691 53.5251C430.691 53.3188 430.929 53.1125 431.367 52.967C431.765 52.8456 432.282 52.785 432.839 52.785C433.356 52.785 433.873 52.8578 434.291 52.9912C434.59 53.0825 434.854 53.2227 435.066 53.3876C435.365 53.6204 435.731 53.8161 436.105 53.7608V53.7608Z" fill="black"/>
<path d="M569.05 50.2286C569.05 49.6347 568.568 49.1532 567.974 49.1532V49.1532C567.641 49.1532 567.326 49.3081 567.122 49.5727L566.263 50.6892C564.69 52.7326 561.61 52.7382 560.03 50.7006L559.15 49.5658C558.948 49.3055 558.637 49.1532 558.308 49.1532V49.1532C557.719 49.1532 557.242 49.6303 557.242 50.219V55.5445C557.242 55.9877 557.601 56.3469 558.044 56.3469V56.3469C558.488 56.3469 558.847 55.9877 558.847 55.5445V55.0569C558.847 53.8258 560.407 53.2943 561.158 54.2691L562.526 56.042C562.674 56.2343 562.903 56.3469 563.146 56.3469V56.3469C563.389 56.3469 563.618 56.234 563.766 56.0414L565.131 54.2684C565.882 53.2916 567.445 53.8232 567.445 55.0558V55.5445C567.445 55.9876 567.804 56.3469 568.247 56.3469V56.3469C568.691 56.3469 569.05 55.9876 569.05 55.5445V50.2286ZM572.249 52.3068C572.4 52.3514 572.57 52.3066 572.695 52.2105V52.2105C573.138 51.8708 573.809 51.721 574.563 51.721C575.168 51.711 575.775 51.8009 576.233 52.0107V52.0107C576.744 52.2315 576.444 52.7835 575.889 52.8323L575.234 52.8899C573.891 53.0098 572.991 53.0498 572.04 53.3795C571.205 53.6793 570.697 54.1888 570.697 54.7683C570.697 55.168 570.894 55.4577 571.27 55.7974C571.745 56.1871 572.646 56.4668 573.548 56.4868C574.3 56.5068 575.054 56.3969 575.742 56.1671C576.027 56.0801 576.321 55.9538 576.577 55.803C576.792 55.6763 577.166 55.8357 577.166 56.0853V56.0853C577.166 56.2298 577.283 56.3469 577.428 56.3469H577.871C578.26 56.3469 578.575 56.0314 578.575 55.6422V52.9599C578.575 52.6501 578.461 52.3005 578.198 51.9707C577.543 51.1614 576.217 50.8118 574.595 50.8118C573.22 50.8118 572.056 51.1015 571.27 51.7409V51.7409C571.169 51.8332 571.208 52 571.339 52.0386L572.249 52.3068ZM575.921 53.6537C576.501 53.5962 577.071 54.1134 576.708 54.5685V54.5685C576.265 55.2579 574.89 55.6275 573.777 55.5976C572.909 55.5676 572.27 55.1579 572.286 54.7084C572.302 54.0189 573.695 53.8791 575.004 53.7492C575.355 53.711 575.655 53.6801 575.921 53.6537ZM584.819 50.8118C584.148 50.8218 583.476 50.9317 582.935 51.1914C582.795 51.2538 582.669 51.3193 582.557 51.3884C582.384 51.4944 582.116 51.3779 582.116 51.1752V51.1752C582.116 51.0517 582.016 50.9516 581.893 50.9516H581.412C581.023 50.9516 580.708 51.2669 580.708 51.6557V55.5523C580.708 55.9912 581.064 56.3469 581.503 56.3469V56.3469C581.942 56.3469 582.297 55.9912 582.297 55.5523V53.6693C582.297 53.0198 582.379 52.5003 583.05 52.1106C583.427 51.8708 584 51.7309 584.688 51.711C584.993 51.7051 585.288 51.7163 585.562 51.7464C585.845 51.7776 586.113 51.5658 586.113 51.2806V51.2806C586.113 51.0762 585.973 50.8965 585.771 50.8647C585.453 50.8147 585.132 50.7971 584.819 50.8118ZM594.304 52.3219C594.617 52.2392 594.734 51.8773 594.477 51.681V51.681C593.691 51.1015 592.496 50.8018 591.218 50.8018C589.956 50.8018 588.762 51.0815 587.959 51.681C587.222 52.2505 586.926 52.9399 586.926 53.6492C586.926 54.3487 587.222 55.0481 587.959 55.6076C588.745 56.1971 589.941 56.5068 591.218 56.4868C592.479 56.5068 593.691 56.1971 594.477 55.6076V55.6076C594.726 55.4299 594.613 55.0695 594.317 54.992L593.801 54.8571C593.592 54.8025 593.383 54.8824 593.216 55.0181V55.0181C592.757 55.3877 592.004 55.5776 591.218 55.5776C590.415 55.5776 589.678 55.3877 589.22 55.0181C588.762 54.6484 588.613 54.1488 588.598 53.6492C588.613 53.1497 588.762 52.6501 589.22 52.2804C589.678 51.9008 590.415 51.711 591.218 51.721C592.004 51.711 592.757 51.9008 593.216 52.2804V52.2804C593.392 52.4234 593.616 52.5038 593.836 52.4457L594.304 52.3219ZM603.178 51.3113C602.491 50.9616 601.524 50.7918 600.64 50.8218C599.821 50.8417 598.921 51.0115 598.265 51.3812V51.3812C598.193 51.4255 598.085 51.3649 598.085 51.2803V49.8573C598.085 49.4684 597.77 49.1532 597.381 49.1532V49.1532C596.992 49.1532 596.677 49.4684 596.677 49.8573V55.5529C596.677 55.9914 597.032 56.3469 597.471 56.3469V56.3469C597.909 56.3469 598.265 55.9914 598.265 55.5529V53.979C598.265 53.5794 598.265 53.1997 598.379 52.8899C598.478 52.5502 598.74 52.2505 599.133 52.0507C599.493 51.8708 599.952 51.7709 600.476 51.7509C601.098 51.7409 601.655 51.8409 602.065 52.0407C602.785 52.4003 602.933 52.9898 602.933 53.6793V55.5445C602.933 55.9877 603.293 56.3469 603.736 56.3469V56.3469C604.179 56.3469 604.538 55.9877 604.538 55.5445V53.6793C604.554 52.7101 604.357 51.8908 603.178 51.3113ZM609.995 50.4893C609.772 50.8744 610.143 51.2513 610.588 51.2513V51.2513C611.041 51.2513 611.425 50.8438 611.754 50.5319C611.851 50.4399 611.967 50.3559 612.097 50.2822C612.474 50.0624 612.998 49.9225 613.555 49.9225C614.194 49.9225 614.75 50.0724 615.16 50.3422C615.52 50.582 615.733 50.9117 615.733 51.2513C615.733 51.631 615.438 52.0407 614.685 52.4803L610.009 55.2477C609.831 55.3531 609.722 55.5446 609.722 55.7515V55.7515C609.722 56.0749 609.984 56.337 610.308 56.337H616.797C617.051 56.337 617.257 56.1312 617.257 55.8774V55.8774C617.257 55.6235 617.051 55.4177 616.797 55.4177H616.129C614.993 55.4177 614.569 53.9284 615.535 53.3307L615.586 53.2996C616.749 52.6202 617.371 52.1006 617.371 51.2613C617.371 50.6819 617.011 50.1223 616.356 49.7027C615.684 49.2331 614.702 49.0033 613.637 49.0033C612.687 49.0033 611.721 49.1732 611 49.5629C610.551 49.8128 610.201 50.1335 609.995 50.4893ZM622.909 56.4868C621.745 56.4868 620.6 56.2171 619.846 55.6875C619.109 55.1579 618.864 54.6284 618.864 53.909V51.5811C618.864 50.8617 619.109 50.3322 619.862 49.7826C620.6 49.2831 621.713 48.9933 622.909 49.0033C624.056 48.9933 625.169 49.2631 625.939 49.7826C626.708 50.3022 626.954 50.8517 626.954 51.5811V53.909C626.954 54.6084 626.725 55.1679 625.972 55.6875C625.218 56.2171 624.121 56.4868 622.909 56.4868ZM622.909 49.9225C622.073 49.9225 621.287 50.2023 620.862 50.6219C620.566 50.8916 620.484 51.2014 620.484 51.5811V53.909C620.484 54.2587 620.551 54.5985 620.877 54.8982C621.32 55.3079 622.073 55.5776 622.909 55.5676C623.744 55.5776 624.514 55.3078 624.956 54.8882C625.267 54.6084 625.333 54.3087 625.333 53.909V51.5811C625.333 51.2114 625.283 50.9317 624.972 50.6219C624.546 50.2023 623.744 49.9225 622.909 49.9225ZM628.697 50.4888C628.473 50.8741 628.844 51.2513 629.29 51.2513V51.2513C629.743 51.2513 630.127 50.8433 630.456 50.5312C630.553 50.4395 630.668 50.3557 630.798 50.2822C631.176 50.0624 631.699 49.9225 632.256 49.9225C632.895 49.9225 633.452 50.0724 633.861 50.3422C634.221 50.582 634.435 50.9117 634.435 51.2513C634.435 51.631 634.139 52.0407 633.386 52.4803L628.711 55.2477C628.533 55.3531 628.424 55.5446 628.424 55.7515V55.7515C628.424 56.0748 628.686 56.337 629.01 56.337H635.498C635.752 56.337 635.958 56.1312 635.958 55.8774V55.8774C635.958 55.6235 635.752 55.4177 635.498 55.4177H634.83C633.694 55.4177 633.271 53.9287 634.237 53.3312L634.288 53.2996C635.45 52.6202 636.072 52.1006 636.072 51.2613C636.072 50.6819 635.712 50.1223 635.057 49.7027C634.385 49.2331 633.403 49.0033 632.338 49.0033C631.388 49.0033 630.422 49.1732 629.701 49.5629C629.253 49.8127 628.903 50.1333 628.697 50.4888ZM639.889 49.1532C639.727 49.1532 639.567 49.1816 639.415 49.2371L637.765 49.8411C637.566 49.914 637.433 50.1035 637.433 50.3156V50.3156C637.433 50.6675 637.784 50.9116 638.114 50.7893L638.539 50.6319C639.075 50.4334 639.645 50.8298 639.645 51.4014V55.5361C639.645 55.9839 640.008 56.3469 640.455 56.3469V56.3469C640.903 56.3469 641.266 55.9839 641.266 55.5361V50.5307C641.266 49.7699 640.65 49.1532 639.889 49.1532V49.1532Z" fill="#4D4D4D"/>
<path d="M653.539 14H324.461C312.056 14 302 20.3193 302 28.1145V273.886C302 281.681 312.056 288 324.461 288H653.539C665.944 288 676 281.681 676 273.886V28.1145C676 20.3193 665.944 14 653.539 14Z" fill="#00727C" fill-opacity="0.6"/>
<path d="M361.762 252.662C361.041 252.202 360.337 252.052 358.633 251.593C358.044 251.433 357.52 251.293 357.29 251.033C357.175 250.913 357.16 250.763 357.16 250.663C357.16 250.474 357.257 250.294 357.471 250.164C357.732 249.974 358.158 249.864 358.585 249.864C359.138 249.864 359.539 250.05 359.815 250.288C359.835 250.305 359.862 250.334 359.878 250.355V250.355C360.054 250.585 360.294 250.823 360.584 250.821L361.203 250.819C361.861 250.816 362.373 250.214 361.928 249.73C361.868 249.665 361.802 249.6 361.729 249.534C361.338 249.189 360.792 248.932 360.163 248.768C359.924 248.705 359.747 248.496 359.747 248.249V248.249C359.747 247.966 359.517 247.736 359.234 247.736H358.013C357.741 247.736 357.52 247.956 357.52 248.228V248.228C357.52 248.473 357.34 248.679 357.1 248.73C356.646 248.828 356.235 248.973 355.882 249.165C355.227 249.534 354.801 250.134 354.801 250.684C354.801 251.083 355.047 251.523 355.358 251.792C355.816 252.202 356.423 252.452 356.963 252.632C357.799 252.932 358.846 253.052 359.682 253.391C360.173 253.591 360.272 253.751 360.272 253.981C360.272 254.251 360.123 254.43 359.764 254.58C359.436 254.73 358.944 254.78 358.601 254.78C357.995 254.78 357.486 254.57 357.143 254.24V254.24C356.896 254.014 356.625 253.701 356.291 253.701H355.767C355.143 253.701 354.632 254.253 355.024 254.739C355.084 254.814 355.152 254.888 355.227 254.96C355.644 255.402 356.31 255.72 357.094 255.898C357.338 255.953 357.52 256.163 357.52 256.413V256.413C357.52 256.692 357.747 256.918 358.026 256.918H359.26C359.529 256.918 359.747 256.7 359.747 256.431V256.431C359.747 256.184 359.931 255.978 360.174 255.936C360.432 255.89 360.675 255.834 360.877 255.769C361.991 255.419 362.63 254.68 362.63 254.02C362.63 253.491 362.367 253.041 361.762 252.662ZM366.429 248.725C365.299 248.725 364.355 249.582 364.245 250.706L364.182 251.355C364.121 251.981 364.496 252.568 365.09 252.776L365.652 252.972C365.858 253.044 366.087 252.974 366.273 252.862V252.862C366.617 252.652 367.092 252.532 367.567 252.532C368.058 252.532 368.533 252.652 368.876 252.862C369.221 253.072 369.418 253.361 369.418 253.651C369.418 253.951 369.221 254.24 368.876 254.45C368.533 254.65 368.058 254.77 367.567 254.77C367.092 254.77 366.617 254.65 366.273 254.44V254.44C365.914 254.237 365.513 253.987 365.106 254.054L365.002 254.071C364.325 254.181 363.994 254.908 364.57 255.281C364.623 255.315 364.678 255.348 364.734 255.38C365.487 255.819 366.551 256.069 367.567 256.049C368.598 256.069 369.647 255.829 370.416 255.389C371.17 254.95 371.645 254.301 371.66 253.651C371.71 252.991 371.334 252.362 370.466 251.883C369.745 251.513 368.794 251.313 367.894 251.313C367.681 251.313 367.452 251.327 367.218 251.356C366.756 251.413 366.305 251.046 366.348 250.582V250.582C366.38 250.249 366.659 249.994 366.994 249.994H369.995C370.345 249.994 370.63 249.71 370.63 249.36V249.36C370.63 249.009 370.345 248.725 369.995 248.725H366.429ZM372.881 249.981C372.524 250.471 373.027 250.983 373.633 250.983H373.793C374.368 250.983 374.927 250.443 375.424 250.154V250.154C375.752 249.965 376.193 249.854 376.652 249.854C377.242 249.854 377.75 249.994 378.11 250.264C378.389 250.474 378.519 250.733 378.519 250.994C378.519 251.303 378.257 251.663 377.504 252.052L372.939 254.408C372.674 254.544 372.508 254.817 372.508 255.114V255.114C372.508 255.553 372.864 255.909 373.303 255.909H379.927C380.28 255.909 380.566 255.623 380.566 255.27V255.27C380.566 254.917 380.28 254.63 379.927 254.63H378.988C378.23 254.63 377.979 253.614 378.65 253.261V253.261C380.042 252.522 380.812 252.032 380.812 251.013C380.812 250.434 380.501 249.845 379.879 249.405C379.141 248.825 377.996 248.575 376.783 248.575C375.784 248.575 374.687 248.716 373.884 249.145C373.462 249.372 373.115 249.661 372.881 249.981ZM381.938 250.643C381.953 250.903 382.018 251.203 382.232 251.503V251.503C382.457 251.809 382.452 252.272 382.179 252.538C382.078 252.636 381.991 252.739 381.921 252.842C381.707 253.161 381.625 253.471 381.625 253.761C381.625 254.43 382.1 255.09 382.936 255.509C383.657 255.879 384.722 256.069 385.737 256.069C386.719 256.069 387.767 255.909 388.553 255.509C389.422 255.08 389.815 254.46 389.864 253.761C389.847 253.471 389.782 253.161 389.569 252.842C389.496 252.736 389.407 252.63 389.302 252.529C389.032 252.269 389.018 251.804 389.242 251.503V251.503C389.471 251.203 389.536 250.903 389.536 250.643C389.536 250.004 389.078 249.395 388.242 249.025C387.571 248.705 386.67 248.575 385.737 248.575C384.869 248.575 383.951 248.695 383.247 249.025C382.379 249.405 381.986 249.965 381.938 250.643ZM384.296 250.643C384.296 250.404 384.41 250.194 384.689 250.054C384.951 249.915 385.344 249.854 385.737 249.845C386.146 249.854 386.539 249.915 386.801 250.054C387.063 250.194 387.194 250.404 387.178 250.643C387.194 250.883 387.063 251.093 386.801 251.233C386.539 251.373 386.146 251.433 385.737 251.433C385.344 251.433 384.951 251.373 384.689 251.233C384.41 251.093 384.296 250.883 384.296 250.643ZM387.031 254.521C386.719 254.7 386.228 254.79 385.737 254.79C385.245 254.79 384.77 254.7 384.443 254.521C384.115 254.33 383.984 254.051 383.984 253.761C383.984 253.461 384.115 253.181 384.443 253.002C384.77 252.812 385.245 252.722 385.737 252.722C386.228 252.722 386.719 252.812 387.031 253.002C387.358 253.181 387.506 253.461 387.506 253.761C387.506 254.051 387.358 254.33 387.031 254.521Z" fill="black"/>
<path d="M389.022 197.251H360.954C355.993 197.251 351.97 199.705 351.97 202.732V235.373C351.97 238.4 355.993 240.854 360.954 240.854H389.022C393.984 240.854 398.006 238.4 398.006 235.373V202.732C398.006 199.705 393.984 197.251 389.022 197.251Z" fill="#1D1D1D"/>
<g filter="url(#filter0_d_1_293)">
<path d="M466.052 187H437.984C433.022 187 429 189.454 429 192.481V251.39C429 254.417 433.022 256.871 437.984 256.871H466.052C471.014 256.871 475.036 254.417 475.036 251.39V192.481C475.036 189.454 471.014 187 466.052 187Z" fill="white"/>
</g>
<g filter="url(#filter1_d_1_293)">
<path d="M543.052 170H514.984C510.022 170 506 172.454 506 175.481V251.217C506 254.244 510.022 256.698 514.984 256.698H543.052C548.014 256.698 552.036 254.244 552.036 251.217V175.481C552.036 172.454 548.014 170 543.052 170Z" fill="white"/>
</g>
<g filter="url(#filter2_d_1_293)">
<path d="M621.052 144H592.984C588.022 144 584 146.454 584 149.481V251.814C584 254.841 588.022 257.295 592.984 257.295H621.052C626.014 257.295 630.036 254.841 630.036 251.814V149.481C630.036 146.454 626.014 144 621.052 144Z" fill="white"/>
</g>
<g filter="url(#filter3_d_1_293)">
<path d="M394 170L396.443 169.468L395.506 165.171L392.293 168.173L394 170ZM399.448 195L397.005 195.532L398.079 200.46L401.35 196.622L399.448 195ZM432 156.812L433.645 154.93L431.74 153.264L430.097 155.191L432 156.812ZM454 176.043L452.355 177.925L454.231 179.566L455.877 177.694L454 176.043ZM490 135.106L491.888 133.467L490.012 131.306L488.123 133.455L490 135.106ZM509.496 157.558L507.609 159.197L509.734 161.645L511.561 158.967L509.496 157.558ZM536.349 118.198L537.155 115.832L535.355 115.219L534.284 116.789L536.349 118.198ZM586 135.106L585.194 137.472L586.777 138.011L587.88 136.754L586 135.106ZM617.521 101.836C617.43 100.458 616.24 99.4149 614.862 99.5053L592.411 100.979C591.033 101.07 589.99 102.26 590.08 103.638C590.17 105.016 591.361 106.059 592.738 105.969L612.695 104.658L614.006 124.615C614.096 125.993 615.286 127.037 616.664 126.946C618.042 126.856 619.085 125.666 618.995 124.288L617.521 101.836ZM361.624 203.678L395.707 171.827L392.293 168.173L358.21 200.025L361.624 203.678ZM391.557 170.532L397.005 195.532L401.89 194.468L396.443 169.468L391.557 170.532ZM401.35 196.622L433.903 158.434L430.097 155.191L397.545 193.378L401.35 196.622ZM430.355 158.695L452.355 177.925L455.645 174.161L433.645 154.93L430.355 158.695ZM455.877 177.694L491.877 136.757L488.123 133.455L452.123 174.392L455.877 177.694ZM488.112 136.745L507.609 159.197L511.384 155.919L491.888 133.467L488.112 136.745ZM511.561 158.967L538.414 119.607L534.284 116.789L507.431 156.149L511.561 158.967ZM535.543 120.565L585.194 137.472L586.806 132.739L537.155 115.832L535.543 120.565ZM587.88 136.754L616.906 103.648L613.146 100.352L584.12 133.458L587.88 136.754Z" fill="white"/>
</g>
<path d="M226.067 494.152C220.96 495.947 215.478 496.397 210.147 495.458C204.817 494.519 199.818 492.223 195.632 488.791C184.972 479.844 181.63 465.103 178.911 451.455L170.867 411.085L187.707 422.68C199.817 431.019 212.2 439.624 220.585 451.702C228.971 463.781 232.631 480.268 225.893 493.337" fill="#E6E6E6"/>
<path d="M224.627 543.028C226.332 530.613 228.084 518.039 226.889 505.491C225.827 494.347 222.427 483.462 215.505 474.537C211.831 469.809 207.36 465.758 202.294 462.566C200.973 461.732 199.757 463.826 201.073 464.656C209.839 470.196 216.619 478.377 220.436 488.019C224.651 498.741 225.328 510.43 224.602 521.82C224.162 528.708 223.231 535.551 222.293 542.385C222.219 542.694 222.265 543.02 222.422 543.296C222.579 543.572 222.835 543.779 223.138 543.874C223.448 543.957 223.778 543.915 224.056 543.757C224.335 543.599 224.54 543.337 224.627 543.028Z" fill="#F2F2F2"/>
<path d="M208.211 521.06C206.02 524.388 203.01 527.097 199.47 528.924C195.929 530.751 191.977 531.636 187.996 531.493C177.762 531.007 169.231 523.865 161.552 517.085L138.837 497.029L153.87 496.31C164.681 495.792 175.772 495.31 186.069 498.644C196.366 501.978 205.863 510.001 207.746 520.66" fill="#E6E6E6"/>
<path d="M229.444 550.165C221.24 535.65 211.725 519.517 194.722 514.361C189.995 512.932 185.038 512.42 180.118 512.853C178.567 512.986 178.954 515.377 180.502 515.243C188.749 514.558 196.979 516.736 203.809 521.409C210.38 525.882 215.497 532.101 219.828 538.696C222.48 542.735 224.856 546.946 227.233 551.151C227.992 552.495 230.212 551.525 229.444 550.165Z" fill="#F2F2F2"/>
<path d="M449.326 259.376L270.472 407.61C268.222 409.471 265.325 410.363 262.418 410.091C259.511 409.819 256.83 408.404 254.964 406.158L179.569 315.19C177.708 312.939 176.816 310.043 177.088 307.135C177.36 304.228 178.774 301.547 181.021 299.681L359.874 151.447C362.124 149.586 365.021 148.694 367.928 148.966C370.836 149.238 373.516 150.653 375.382 152.899L450.777 243.867C452.638 246.118 453.53 249.014 453.258 251.922C452.986 254.829 451.572 257.51 449.326 259.376Z" fill="#CCCCCC"/>
<path d="M442.158 254.912L267.417 399.739C266.257 400.697 264.765 401.157 263.267 401.017C261.77 400.877 260.389 400.148 259.427 398.991L187.44 312.134C186.481 310.975 186.022 309.483 186.162 307.985C186.302 306.487 187.031 305.106 188.188 304.145L362.93 159.318C364.089 158.359 365.581 157.9 367.079 158.04C368.577 158.18 369.958 158.909 370.919 160.066L442.906 246.923C443.865 248.082 444.324 249.574 444.184 251.072C444.044 252.57 443.315 253.951 442.158 254.912Z" fill="white"/>
<path d="M450.214 285.229L414.273 281.865L439.997 261.62L453.854 278.339C454.394 278.977 454.729 279.763 454.815 280.595C454.901 281.427 454.734 282.265 454.336 283C454.074 283.499 453.717 283.942 453.284 284.302C452.859 284.652 452.369 284.914 451.842 285.073C451.315 285.232 450.761 285.285 450.214 285.229Z" fill="#CCCCCC"/>
<path d="M378.04 220.854L289.641 294.119C289.101 294.566 288.478 294.903 287.808 295.11C287.138 295.317 286.434 295.39 285.736 295.324C285.038 295.259 284.359 295.057 283.739 294.729C283.119 294.401 282.569 293.955 282.122 293.415C281.674 292.875 281.338 292.252 281.131 291.582C280.924 290.912 280.851 290.208 280.917 289.51C280.982 288.811 281.184 288.133 281.512 287.513C281.839 286.893 282.286 286.343 282.826 285.896L371.224 212.631C371.764 212.183 372.387 211.846 373.057 211.639C373.727 211.433 374.432 211.36 375.13 211.425C375.828 211.491 376.507 211.693 377.127 212.02C377.747 212.348 378.296 212.794 378.744 213.334C379.191 213.874 379.528 214.497 379.735 215.167C379.942 215.837 380.014 216.542 379.949 217.24C379.884 217.938 379.681 218.617 379.354 219.237C379.026 219.857 378.58 220.406 378.04 220.854Z" fill="#CCCCCC"/>
<path d="M334.776 227.233L275.158 276.645C274.068 277.549 272.663 277.982 271.253 277.85C269.843 277.718 268.543 277.031 267.639 275.941C266.735 274.85 266.302 273.446 266.434 272.035C266.566 270.625 267.253 269.325 268.343 268.422L327.961 219.01C329.051 218.106 330.456 217.673 331.866 217.805C333.276 217.937 334.576 218.624 335.48 219.714C336.384 220.805 336.817 222.209 336.685 223.619C336.553 225.03 335.867 226.33 334.776 227.233Z" fill="#CCCCCC"/>
<path d="M242.399 328.287C251.615 328.287 259.087 320.815 259.087 311.599C259.087 302.382 251.615 294.911 242.399 294.911C233.182 294.911 225.711 302.382 225.711 311.599C225.711 320.815 233.182 328.287 242.399 328.287Z" fill="#00727C"/>
<path d="M375.145 278.148C378.094 278.148 380.485 275.757 380.485 272.808C380.485 269.858 378.094 267.468 375.145 267.468C372.195 267.468 369.805 269.858 369.805 272.808C369.805 275.757 372.195 278.148 375.145 278.148Z" fill="#E6E6E6"/>
<path d="M389.535 266.221C392.485 266.221 394.875 263.83 394.875 260.881C394.875 257.932 392.485 255.541 389.535 255.541C386.586 255.541 384.195 257.932 384.195 260.881C384.195 263.83 386.586 266.221 389.535 266.221Z" fill="#E6E6E6"/>
<path d="M403.926 254.294C406.875 254.294 409.266 251.903 409.266 248.954C409.266 246.005 406.875 243.614 403.926 243.614C400.976 243.614 398.586 246.005 398.586 248.954C398.586 251.903 400.976 254.294 403.926 254.294Z" fill="#E6E6E6"/>
<path d="M318.81 540.866L331.07 540.865L336.902 493.577L318.808 493.578L318.81 540.866Z" fill="#FFB8B8"/>
<path d="M315.683 536.863L339.827 536.862H339.828C341.849 536.862 343.85 537.26 345.716 538.034C347.583 538.807 349.279 539.94 350.708 541.369C352.137 542.798 353.27 544.494 354.044 546.36C354.817 548.227 355.215 550.228 355.215 552.249V552.749L315.684 552.75L315.683 536.863Z" fill="#2F2E41"/>
<path d="M274.81 540.866L287.07 540.865L292.902 493.577L274.808 493.578L274.81 540.866Z" fill="#FFB8B8"/>
<path d="M271.683 536.863L295.827 536.862H295.828C297.849 536.862 299.85 537.26 301.716 538.034C303.583 538.807 305.279 539.94 306.708 541.369C308.137 542.798 309.27 544.494 310.044 546.36C310.817 548.227 311.215 550.228 311.215 552.249V552.749L271.684 552.75L271.683 536.863Z" fill="#2F2E41"/>
<path d="M287.113 526.397H287.111L276.686 526.394C275.519 526.398 274.397 525.947 273.558 525.137C272.719 524.327 272.228 523.222 272.191 522.056L271.862 512.935C269.227 439.995 266.501 364.571 283.38 330.671L283.512 330.404L339.392 328.381L350.611 431.293C351.09 435.682 350.914 440.119 350.091 444.457L335.26 522.605C335.06 523.665 334.485 524.617 333.641 525.288C332.798 525.96 331.741 526.306 330.663 526.263L318.953 525.883C318.339 525.859 317.738 525.71 317.184 525.444C316.631 525.179 316.138 524.803 315.735 524.34C315.332 523.877 315.028 523.337 314.842 522.752C314.655 522.167 314.59 521.551 314.651 520.94L323.85 448.661C324.163 445.541 323.88 442.39 323.015 439.377L311.575 399.382C311.48 399.052 311.275 398.764 310.993 398.566C310.711 398.369 310.37 398.274 310.027 398.299C309.684 398.323 309.36 398.464 309.108 398.699C308.857 398.934 308.694 399.248 308.647 399.589L291.57 522.516C291.417 523.59 290.882 524.574 290.064 525.286C289.246 525.999 288.198 526.393 287.113 526.397Z" fill="#2F2E41"/>
<path d="M293.796 225.494C307.36 225.494 318.357 214.497 318.357 200.933C318.357 187.368 307.36 176.372 293.796 176.372C280.231 176.372 269.235 187.368 269.235 200.933C269.235 214.497 280.231 225.494 293.796 225.494Z" fill="#FFB8B8"/>
<path d="M336.773 335.978H285.95C285.304 335.978 284.665 335.839 284.078 335.57C283.491 335.302 282.968 334.91 282.546 334.421C282.123 333.933 281.811 333.359 281.63 332.739C281.449 332.119 281.403 331.467 281.497 330.828L284.007 313.631L269.263 273.078C267.741 268.891 267.176 264.417 267.608 259.983C268.041 255.55 269.46 251.269 271.762 247.456C274.065 243.642 277.192 240.392 280.914 237.945C284.636 235.497 288.859 233.914 293.272 233.311C299.561 232.434 305.965 233.593 311.547 236.619C317.129 239.645 321.596 244.379 324.293 250.127L327.532 257.017L341.197 330.658C341.318 331.307 341.294 331.975 341.127 332.614C340.96 333.253 340.655 333.848 340.233 334.356C339.81 334.863 339.282 335.272 338.684 335.553C338.086 335.833 337.433 335.978 336.773 335.978Z" fill="#00727C" fill-opacity="0.98"/>
<path d="M229.486 379.114C231.016 378.759 232.449 378.073 233.685 377.103C234.921 376.134 235.929 374.906 236.639 373.505C237.349 372.104 237.743 370.564 237.793 368.995C237.844 367.425 237.549 365.863 236.931 364.42L276.533 274.948L253.879 269.242L222.074 358.984C219.718 360.184 217.884 362.206 216.919 364.668C215.954 367.13 215.926 369.86 216.839 372.341C217.753 374.823 219.545 376.882 221.876 378.131C224.207 379.379 226.915 379.729 229.486 379.114Z" fill="#FFB8B8"/>
<path d="M271.172 290.949L249.139 280.636C248.512 280.342 247.955 279.917 247.508 279.389C247.06 278.861 246.731 278.243 246.544 277.577C246.356 276.911 246.315 276.212 246.422 275.528C246.529 274.844 246.782 274.191 247.164 273.614L260.555 253.391C262.076 250.194 264.802 247.731 268.136 246.54C271.47 245.349 275.14 245.529 278.342 247.039C281.544 248.549 284.016 251.267 285.218 254.597C286.42 257.927 286.252 261.598 284.753 264.805L277.829 287.968C277.63 288.631 277.291 289.243 276.835 289.764C276.378 290.284 275.815 290.7 275.183 290.983C274.551 291.266 273.866 291.409 273.174 291.403C272.482 291.398 271.799 291.243 271.172 290.949Z" fill="#00727C"/>
<path d="M394.687 148.876C395.166 150.372 395.31 151.954 395.111 153.512C394.911 155.07 394.372 156.565 393.533 157.892C392.693 159.219 391.572 160.346 390.25 161.193C388.927 162.04 387.435 162.587 385.879 162.795L329.31 242.63L312.807 226.093L373.602 152.818C373.425 150.18 374.223 147.569 375.843 145.479C377.464 143.39 379.794 141.967 382.393 141.481C384.992 140.995 387.68 141.48 389.945 142.843C392.211 144.205 393.899 146.352 394.687 148.876Z" fill="#FFB8B8"/>
<path d="M342.391 233.259C342.472 233.946 342.403 234.643 342.19 235.302C341.977 235.96 341.624 236.565 341.156 237.075L324.807 254.884C322.821 257.817 319.754 259.842 316.277 260.517C312.8 261.191 309.198 260.46 306.26 258.482C303.322 256.504 301.288 253.442 300.604 249.968C299.92 246.493 300.642 242.888 302.612 239.945L313.124 218.087C313.424 217.464 313.855 216.912 314.388 216.47C314.92 216.027 315.542 215.705 316.21 215.525C316.878 215.345 317.578 215.31 318.26 215.425C318.943 215.539 319.593 215.799 320.166 216.187L340.308 229.831C340.882 230.219 341.365 230.726 341.724 231.317C342.083 231.909 342.311 232.571 342.391 233.259Z" fill="#00727C"/>
<path d="M326.067 190.652C326.052 188.429 325.743 186.218 325.149 184.076C321.192 169.454 306.583 160.677 291.924 162.88C289.073 162.062 286.121 161.649 283.155 161.652C275.61 161.652 268.313 164.35 262.583 169.259C256.853 174.167 253.067 180.963 251.909 188.419L240.067 264.652H304.067L314.401 198.126C314.785 195.654 314.875 193.145 314.67 190.652H326.067Z" fill="#2F2E41"/>
<path d="M405.612 553.305H194.612C194.347 553.305 194.093 553.199 193.905 553.012C193.718 552.824 193.612 552.57 193.612 552.305C193.612 552.04 193.718 551.785 193.905 551.598C194.093 551.41 194.347 551.305 194.612 551.305H405.612C405.878 551.305 406.132 551.41 406.319 551.598C406.507 551.785 406.612 552.04 406.612 552.305C406.612 552.57 406.507 552.824 406.319 553.012C406.132 553.199 405.878 553.305 405.612 553.305Z" fill="#CCCCCC"/>
</g>
<defs>
<filter id="filter0_d_1_293" x="425" y="187" width="54.0362" height="77.8712" filterUnits="userSpaceOnUse" color-interpolation-filters="sRGB">
<feFlood flood-opacity="0" result="BackgroundImageFix"/>
<feColorMatrix in="SourceAlpha" type="matrix" values="0 0 0 0 0 0 0 0 0 0 0 0 0 0 0 0 0 0 127 0" result="hardAlpha"/>
<feOffset dy="4"/>
<feGaussianBlur stdDeviation="2"/>
<feComposite in2="hardAlpha" operator="out"/>
<feColorMatrix type="matrix" values="0 0 0 0 0 0 0 0 0 0 0 0 0 0 0 0 0 0 1 0"/>
<feBlend mode="normal" in2="BackgroundImageFix" result="effect1_dropShadow_1_293"/>
<feBlend mode="normal" in="SourceGraphic" in2="effect1_dropShadow_1_293" result="shape"/>
</filter>
<filter id="filter1_d_1_293" x="502" y="170" width="54.0361" height="94.6976" filterUnits="userSpaceOnUse" color-interpolation-filters="sRGB">
<feFlood flood-opacity="0" result="BackgroundImageFix"/>
<feColorMatrix in="SourceAlpha" type="matrix" values="0 0 0 0 0 0 0 0 0 0 0 0 0 0 0 0 0 0 127 0" result="hardAlpha"/>
<feOffset dy="4"/>
<feGaussianBlur stdDeviation="2"/>
<feComposite in2="hardAlpha" operator="out"/>
<feColorMatrix type="matrix" values="0 0 0 0 0 0 0 0 0 0 0 0 0 0 0 0 0 0 1 0"/>
<feBlend mode="normal" in2="BackgroundImageFix" result="effect1_dropShadow_1_293"/>
<feBlend mode="normal" in="SourceGraphic" in2="effect1_dropShadow_1_293" result="shape"/>
</filter>
<filter id="filter2_d_1_293" x="580" y="144" width="54.0361" height="121.295" filterUnits="userSpaceOnUse" color-interpolation-filters="sRGB">
<feFlood flood-opacity="0" result="BackgroundImageFix"/>
<feColorMatrix in="SourceAlpha" type="matrix" values="0 0 0 0 0 0 0 0 0 0 0 0 0 0 0 0 0 0 127 0" result="hardAlpha"/>
<feOffset dy="4"/>
<feGaussianBlur stdDeviation="2"/>
<feComposite in2="hardAlpha" operator="out"/>
<feColorMatrix type="matrix" values="0 0 0 0 0 0 0 0 0 0 0 0 0 0 0 0 0 0 1 0"/>
<feBlend mode="normal" in2="BackgroundImageFix" result="effect1_dropShadow_1_293"/>
<feBlend mode="normal" in="SourceGraphic" in2="effect1_dropShadow_1_293" result="shape"/>
</filter>
<filter id="filter3_d_1_293" x="354.21" y="99.4999" width="268.791" height="112.178" filterUnits="userSpaceOnUse" color-interpolation-filters="sRGB">
<feFlood flood-opacity="0" result="BackgroundImageFix"/>
<feColorMatrix in="SourceAlpha" type="matrix" values="0 0 0 0 0 0 0 0 0 0 0 0 0 0 0 0 0 0 127 0" result="hardAlpha"/>
<feOffset dy="4"/>
<feGaussianBlur stdDeviation="2"/>
<feComposite in2="hardAlpha" operator="out"/>
<feColorMatrix type="matrix" values="0 0 0 0 0 0 0 0 0 0 0 0 0 0 0 0 0 0 1 0"/>
<feBlend mode="normal" in2="BackgroundImageFix" result="effect1_dropShadow_1_293"/>
<feBlend mode="normal" in="SourceGraphic" in2="effect1_dropShadow_1_293" result="shape"/>
</filter>
<clipPath id="clip0_1_293">
<rect width="949" height="568.653" fill="white"/>
</clipPath>
</defs>
</svg>
