<svg width="1250" height="489" viewBox="0 0 1250 489" fill="none" xmlns="http://www.w3.org/2000/svg">
<g clip-path="url(#clip0_2_414)">
<path d="M904.835 256.9C905.059 257.451 905.832 257.451 906.056 256.899C907.617 253.05 909.84 248.739 912.258 245.445C912.646 244.917 912.112 244.212 911.497 244.435L906.313 246.31V214.224H904.578V246.31L899.393 244.435C898.778 244.212 898.244 244.917 898.631 245.444C901.049 248.739 903.273 253.05 904.835 256.9Z" fill="#3F3D56"/>
<path d="M938.826 289.937C938.658 290.508 939.264 290.989 939.782 290.696C943.399 288.653 947.82 286.659 951.763 285.583C952.394 285.411 952.414 284.527 951.794 284.319L946.569 282.564L966.524 257.437L965.165 256.358L945.21 281.485L942.316 276.791C941.973 276.234 941.117 276.454 941.092 277.108C940.936 281.192 939.996 285.951 938.826 289.937Z" fill="#3F3D56"/>
<path d="M922.593 311.349H888.872C886.778 311.349 885.075 309.646 885.075 307.552C880.616 294.521 880.704 281.751 885.075 269.229C885.075 267.135 886.778 265.432 888.872 265.432H922.593C924.687 265.432 926.39 267.135 926.39 269.229V307.552C926.39 309.646 924.687 311.349 922.593 311.349Z" fill="#E6E6E6"/>
<path d="M896.097 266.563C890.634 266.563 886.206 270.992 886.206 276.454V306.739C886.206 308.66 887.764 310.218 889.685 310.218H908.333C917.681 310.218 925.259 302.64 925.259 293.292V270.042C925.259 268.121 923.701 266.563 921.78 266.563H896.097Z" fill="white"/>
<path d="M913.586 277.7H897.798C897.4 277.7 897.076 277.376 897.076 276.978C897.076 276.58 897.4 276.257 897.798 276.257H913.586C913.984 276.257 914.308 276.58 914.308 276.978C914.308 277.376 913.984 277.7 913.586 277.7Z" fill="#E6E6E6"/>
<path d="M913.586 293.093H897.798C897.4 293.093 897.076 292.769 897.076 292.371C897.076 291.973 897.4 291.649 897.798 291.649H913.586C913.984 291.649 914.308 291.973 914.308 292.371C914.308 292.769 913.984 293.093 913.586 293.093Z" fill="#E6E6E6"/>
<path d="M922.058 285.402H889.326C888.928 285.402 888.604 285.078 888.604 284.68C888.604 284.282 888.928 283.958 889.326 283.958H922.058C922.456 283.958 922.78 284.282 922.78 284.68C922.78 285.078 922.456 285.402 922.058 285.402Z" fill="#E6E6E6"/>
<path d="M922.444 299.351H908.786C908.388 299.351 908.064 299.028 908.064 298.63C908.064 298.232 908.388 297.908 908.786 297.908H922.444C922.842 297.908 923.165 298.232 923.165 298.63C923.165 299.028 922.842 299.351 922.444 299.351Z" fill="#E6E6E6"/>
<g filter="url(#filter0_dii_2_414)">
<path d="M940.479 37.094H654.52C644.03 37.094 635.5 45.624 635.5 56.114V252.074C635.5 262.564 644.03 271.094 654.52 271.094H940.479C950.969 271.094 959.5 262.564 959.5 252.074V56.114C959.5 45.624 950.969 37.094 940.479 37.094Z" fill="#F2F2F2"/>
</g>
<g filter="url(#filter1_d_2_414)">
<path d="M909.455 52.188H623.495C613.005 52.188 604.475 60.718 604.475 71.2079V267.168C604.475 277.658 613.005 286.188 623.495 286.188H909.455C919.945 286.188 928.475 277.658 928.475 267.168V71.2079C928.475 60.718 919.945 52.188 909.455 52.188ZM926.475 209.492C926.475 250.745 893.032 284.188 851.779 284.188H623.495C614.095 284.188 606.475 276.568 606.475 267.168V71.2079C606.475 61.8081 614.095 54.188 623.495 54.188H909.455C918.855 54.188 926.475 61.8081 926.475 71.208V209.492Z" fill="#3F3D56"/>
</g>
<path d="M645.321 243.721L643.629 242.655C644.729 240.907 645.864 239.212 647.002 237.618L648.63 238.78C647.514 240.342 646.401 242.004 645.321 243.721Z" fill="#CCCCCC"/>
<path d="M656.349 229.468L654.917 228.071C657.969 224.944 661.181 222.259 664.463 220.091L665.566 221.76C662.402 223.849 659.301 226.442 656.349 229.468ZM706.245 216.844C703.856 216.844 701.681 216.538 700.052 216.271L700.375 214.298C702.025 214.568 704.013 214.844 706.245 214.844C708.215 214.844 710.152 214.627 712.166 214.182L712.598 216.135C710.44 216.612 708.362 216.844 706.245 216.844ZM676.318 216.579L675.717 214.672C677.865 213.994 680.091 213.486 682.332 213.162C684.256 212.883 686.096 212.748 687.956 212.748H688.079V214.748H687.956C686.192 214.748 684.447 214.876 682.618 215.141C680.484 215.45 678.364 215.934 676.318 216.579ZM723.99 210.799L722.711 209.261C725.471 206.969 727.449 204.197 729.544 201.262L730.379 200.094L732.002 201.263L731.172 202.423C729 205.467 726.948 208.342 723.99 210.799ZM740.029 192.461L738.798 190.884C741.494 188.781 744.54 187.076 748.109 185.673C748.717 185.434 749.298 185.221 749.856 185.031L750.501 186.923C749.971 187.104 749.419 187.307 748.841 187.535C745.453 188.866 742.571 190.478 740.029 192.461ZM764.174 185.515C763.501 185.515 762.863 185.508 762.25 185.501L762.273 183.501C762.9 183.509 763.554 183.51 764.247 183.515C766.6 183.515 769.878 183.448 774.374 182.927L774.604 184.914C769.96 185.452 766.63 185.508 764.174 185.515ZM786.771 182.895L786.374 180.936C789.966 180.209 794.146 179.344 798.282 178.277L798.782 180.213C794.598 181.293 790.388 182.164 786.771 182.895ZM810.563 176.422L809.815 174.567C813.826 172.95 817.308 171.127 820.461 168.992L821.582 170.648C818.311 172.863 814.706 174.752 810.563 176.422ZM830.771 162.131L829.148 160.962C829.706 160.187 830.188 159.432 830.655 158.702C832.032 156.545 833.456 154.315 836.847 151.578L837.084 151.388L838.324 152.958L838.104 153.134C834.966 155.667 833.691 157.664 832.34 159.778C831.859 160.532 831.361 161.311 830.771 162.131ZM848.713 147.131L847.983 145.269C851.548 143.871 855.574 142.747 859.949 141.926L860.318 143.892C856.066 144.689 852.161 145.779 848.713 147.131Z" fill="#CCCCCC"/>
<path d="M872.543 142.423L872.418 140.427C874.361 140.305 876.393 140.225 878.457 140.188L878.493 142.188C876.458 142.224 874.457 142.303 872.543 142.423Z" fill="#CCCCCC"/>
<path d="M667.623 73.8592H639.563C638.153 73.8592 637.003 75.0092 637.003 76.4192C637.003 77.8392 638.153 78.9892 639.563 78.9892H667.623C669.033 78.9892 670.183 77.8392 670.183 76.4192C670.183 75.0092 669.033 73.8592 667.623 73.8592Z" fill="#E6E6E6"/>
<path d="M714.623 73.8592H686.563C685.153 73.8592 684.003 75.0092 684.003 76.4192C684.003 77.8392 685.153 78.9892 686.563 78.9892H714.623C716.033 78.9892 717.183 77.8392 717.183 76.4192C717.183 75.0092 716.033 73.8592 714.623 73.8592Z" fill="#E6E6E6"/>
<path d="M761.623 73.8592H733.563C732.153 73.8592 731.003 75.0092 731.003 76.4192C731.003 77.8392 732.153 78.9892 733.563 78.9892H761.623C763.033 78.9892 764.183 77.8392 764.183 76.4192C764.183 75.0092 763.033 73.8592 761.623 73.8592Z" fill="#E6E6E6"/>
<g filter="url(#filter2_b_2_414)">
<path d="M891.975 242.188H636.975V244.188H891.975V242.188Z" fill="#E6E6E6"/>
</g>
<path d="M878.505 96.188C860.355 96.6579 846.815 101.998 838.235 112.038C835.065 115.758 833.775 118.688 832.415 121.788C831.065 124.848 829.685 127.998 826.475 132.108V128.708C828.465 125.788 829.535 123.348 830.585 120.978C832.005 117.738 833.355 114.678 836.715 110.748C845.675 100.248 859.715 94.678 878.445 94.188L878.505 96.188Z" fill="#CCCCCC"/>
<g filter="url(#filter3_d_2_414)">
<path d="M832.415 121.788C831.065 124.848 829.685 127.998 826.475 132.108C826.095 132.598 825.685 133.108 825.245 133.638C813.665 147.408 798.195 151.928 785.755 155.568C784.975 155.798 784.215 156.008 783.475 156.208C772.415 159.208 766.355 159.098 761.845 159.028C757.315 158.948 754.325 158.898 748.975 161.958C739.165 167.548 735.145 175.728 731.255 183.638C727.245 191.778 723.465 199.468 713.825 203.078C707.135 205.578 702.435 204.338 697.465 203.038C693.195 201.908 685.499 174.094 678.685 170.038C664.615 172.988 656.065 218.968 645.395 243.588L643.555 242.788C654.505 217.548 663.525 171.178 678.265 168.078C684.835 166.698 693.485 199.918 697.975 201.098C702.635 202.328 707.025 203.478 713.125 201.198C722.025 197.878 725.465 190.868 729.455 182.758C733.295 174.958 737.645 166.118 747.975 160.218C753.805 156.888 757.195 156.948 761.875 157.028C766.335 157.108 772.355 157.208 783.475 154.138C784.035 153.978 784.605 153.818 785.195 153.648C797.375 150.088 812.525 145.658 823.705 132.358C824.805 131.048 825.715 129.838 826.475 128.708C828.465 125.788 829.535 123.348 830.585 120.978C832.005 117.738 833.775 118.688 832.415 121.788Z" fill="#00727C"/>
</g>
<g filter="url(#filter4_i_2_414)">
<path d="M725.776 350.568C724.984 347.812 723.629 345.461 722.015 343.783L716.151 317.054L703.37 320.185L710.694 346.962C710.213 349.228 710.309 351.933 711.101 354.689C712.909 360.986 717.66 365.169 721.713 364.031C725.765 362.893 727.584 356.865 725.776 350.568Z" fill="#FFB6B6"/>
<path d="M724.008 175.227C724.008 175.227 703.823 174.814 698.691 189.513C694.019 202.892 688.482 239.648 691.475 241.772L704.218 332.257L722.389 329.761L717.725 221.192L724.008 175.227Z" fill="#00727C"/>
</g>
<g filter="url(#filter5_di_2_414)">
<path d="M817.475 343.188L813.895 438.188H766.395L764.475 395.618L756.035 438.188H705.125L711.475 365.008L718.035 349.618L722.475 339.188L817.475 343.188Z" fill="#2F2E41"/>
</g>
<g filter="url(#filter6_d_2_414)">
<path d="M619.463 24.7225C626.347 24.7225 631.927 19.26 631.927 12.5218C631.927 5.78351 626.347 0.321075 619.463 0.321075C612.58 0.321075 607 5.78351 607 12.5218C607 19.26 612.58 24.7225 619.463 24.7225Z" fill="#00727C"/>
</g>
<g filter="url(#filter7_d_2_414)">
<path d="M719.376 8.34784H652.291C649.99 8.34784 648.117 6.47535 648.117 4.17392C648.117 1.87249 649.99 0 652.291 0H719.376C721.677 0 723.55 1.87249 723.55 4.17392C723.55 6.47535 721.677 8.34784 719.376 8.34784Z" fill="#F2F2F2"/>
</g>
<g filter="url(#filter8_d_2_414)">
<path d="M771.729 22.4749H652.291C649.99 22.4749 648.117 20.6025 648.117 18.301C648.117 15.9996 649.99 14.1271 652.291 14.1271H771.729C774.031 14.1271 775.903 15.9996 775.903 18.301C775.903 20.6025 774.031 22.4749 771.729 22.4749Z" fill="#F2F2F2"/>
</g>
<g filter="url(#filter9_di_2_414)">
<path d="M779 157.989L746 156L735 169.923L711 178.873L722 285.281L717 348.926C717 348.926 787 404.616 817 342.96L809 268.375L811 181.856L788 171.911L779 157.989Z" fill="#00727C"/>
</g>
<g filter="url(#filter10_di_2_414)">
<path d="M766 156C782.016 156 795 143.701 795 128.529C795 113.357 782.016 94 766 94C749.984 94 737 106.299 737 121.471C737 136.643 749.984 156 766 156Z" fill="#FFB6B6"/>
<path d="M793.355 110.555C793.105 110.615 797.181 106.641 797.355 106.555C801.355 104.555 797.245 124.105 794.355 123.555C787.245 122.205 784.175 119.525 781.415 126.215C780.645 128.075 780.165 130.175 778.665 131.505C776.605 133.315 773.185 133.165 771.505 135.325C770.155 137.065 770.545 139.625 771.545 141.585C772.545 143.555 774.065 145.225 774.975 147.235C775.995 149.495 771.645 156.685 769.985 160.725V160.735L769.975 160.758C769.534 161.818 768.486 158.765 767.379 158.461C766.055 158.096 764.104 161.223 761.995 160.655C761.985 160.655 761.975 160.645 761.965 160.645C759.955 160.085 757.715 159.485 755.495 158.885H755.485C749.235 157.185 747.655 159.625 747.355 159.555L743.475 155.495C742.144 154.525 742.294 151.395 741.355 150.555C740.587 149.867 738.673 151.456 738.109 150.795C735.342 147.555 734.706 144.314 733.075 137.915C731.585 132.065 728.495 114.555 734.845 113.765C740.835 113.015 736.455 104.675 742.485 104.985C742.125 103.465 742.795 101.835 743.885 100.715C744.965 99.5845 746.405 98.8845 747.855 98.2845C755.005 95.3646 753.815 92.8546 761.355 94.5546C762.105 93.5046 772.995 94.2045 774.355 94.5546C774.455 94.5745 770.985 95.4046 776.355 94.5546C776.155 95.7846 779.555 96.3246 779.355 97.5546C780.105 96.5446 788.165 102.345 788.355 103.555C788.605 105.065 786.325 104.295 787.845 104.525C788.745 104.665 790.285 106.495 790.135 107.405C790.785 106.525 791.435 105.655 792.095 104.775C792.215 104.785 792.325 104.805 792.445 104.825C795.485 105.405 792 115.342 792.125 112.245C792.355 106.555 796.385 109.885 793.355 110.555Z" fill="#2F2E41"/>
</g>
<g filter="url(#filter11_di_2_414)">
<path d="M842.815 133.43C843.173 136.897 842.718 140.157 841.671 142.771L847.168 175.583L831.478 177.742L827.591 144.225C826.032 141.88 824.921 138.782 824.563 135.315C823.745 127.395 827.167 120.552 832.208 120.031C837.248 119.511 841.997 125.51 842.815 133.43Z" fill="#FFB6B6"/>
<path d="M815.486 185.525C810.078 176.281 796.661 175.409 790.652 184.275C789.009 186.699 789.467 189.424 789.074 192.697C787.409 206.593 814.039 247.657 832.465 252.385C834.883 253.005 836.26 255.614 838.701 256.138C845.93 257.692 852.661 251.954 852.271 244.569L847.266 149.861L826.239 157.033L827.585 206.204L815.486 185.525Z" fill="#00727C"/>
</g>
</g>
<g clip-path="url(#clip1_2_414)">
<g filter="url(#filter12_i_2_414)">
<path d="M937.346 427.396C936.809 426.435 934.484 427.464 934.056 426.592C933.63 425.723 935.791 424.399 937.025 421.374C937.248 420.829 938.65 417.391 937.612 416.331C935.644 414.32 926.636 422.617 923.484 419.902C922.793 419.306 922.309 418.116 920.216 416.185C919.383 415.417 918.879 415.07 918.392 415.199C917.7 415.382 917.645 416.364 916.904 418.293C915.791 421.187 915.134 421.013 914.486 423.321C914.004 425.035 914.114 426.032 913.548 426.226C912.747 426.501 912.01 424.683 910.995 424.846C909.959 425.012 909.333 427.128 909.135 428.713C908.763 431.687 909.794 433.65 910.365 435.713C910.985 437.956 911.353 441.367 909.92 446.195L895.738 488.562C898.869 479.868 907.935 456.037 911.744 447.181C912.844 444.624 914.058 442.031 916.552 441.008C918.952 440.022 922.249 440.61 926.452 439.537C926.942 439.412 928.305 439.044 928.476 438.195C928.618 437.493 927.817 437.101 927.94 436.443C928.105 435.561 929.68 435.55 931.616 434.532C932.982 433.814 933.832 432.961 934.564 432.227C934.784 432.005 938.062 428.675 937.346 427.396Z" fill="#F2F2F2"/>
<path d="M881.548 449.7C880.948 449.702 880.753 451.209 880.226 451.18C879.701 451.151 879.712 449.644 878.668 448.129C878.479 447.856 877.293 446.134 876.502 446.369C875.004 446.813 876.245 453.894 874.079 454.751C873.604 454.939 872.914 454.847 871.416 455.38C870.82 455.591 870.514 455.753 870.433 456.044C870.318 456.457 870.756 456.769 871.436 457.711C872.454 459.125 872.184 459.417 873.066 460.42C873.72 461.165 874.213 461.396 874.14 461.746C874.036 462.242 872.982 462.101 872.764 462.677C872.542 463.264 873.341 464.2 874.018 464.76C875.287 465.812 876.493 465.842 877.613 466.14C878.83 466.464 880.515 467.257 882.337 469.396L897.857 489C894.736 484.862 886.32 473.268 883.32 468.731C882.453 467.421 881.603 466.041 881.849 464.448C882.085 462.915 883.309 461.369 884.025 458.872C884.108 458.581 884.331 457.766 883.987 457.431C883.703 457.155 883.291 457.459 883.022 457.205C882.661 456.865 883.111 456.042 883.198 454.74C883.26 453.823 883.11 453.134 882.981 452.542C882.942 452.363 882.346 449.696 881.548 449.7Z" fill="#F2F2F2"/>
<path d="M893.516 452.548L893.155 449.127L893.32 448.868C894.084 447.668 894.474 446.497 894.478 445.386C894.479 445.209 894.471 445.032 894.463 444.852C894.432 444.138 894.393 443.251 894.83 442.217C895.074 441.641 895.761 440.306 896.794 440.471C897.072 440.513 897.283 440.648 897.442 440.807C897.466 440.767 897.49 440.727 897.516 440.684C897.837 440.164 898.092 439.941 898.337 439.726C898.526 439.561 898.721 439.391 899.026 438.988C899.16 438.811 899.264 438.656 899.352 438.525C899.62 438.131 899.969 437.66 900.584 437.668C901.242 437.701 901.586 438.278 901.814 438.659C902.222 439.34 902.406 439.83 902.528 440.156C902.573 440.275 902.623 440.409 902.649 440.45C902.861 440.78 904.583 440.471 905.232 440.359C906.69 440.101 907.951 439.878 908.471 440.853C908.843 441.55 908.566 442.472 907.624 443.666C907.33 444.038 907.018 444.32 906.74 444.542C906.97 444.687 907.176 444.91 907.259 445.26C907.456 446.089 906.783 446.92 905.262 447.733C904.884 447.936 904.375 448.207 903.663 448.338C903.327 448.399 903.025 448.414 902.766 448.422C902.761 448.58 902.726 448.752 902.634 448.929C902.367 449.449 901.811 449.697 900.973 449.638C900.05 449.586 899.291 449.4 898.621 449.236C898.036 449.094 897.532 448.973 897.136 449.002C896.402 449.064 895.837 449.687 895.173 450.495L893.516 452.548Z" fill="#F2F2F2"/>
<path d="M895.193 432.179L892.164 433.418L891.885 433.314C890.597 432.835 889.43 432.732 888.415 433.009C888.253 433.054 888.094 433.106 887.932 433.16C887.288 433.373 886.489 433.638 885.435 433.453C884.847 433.348 883.455 432.982 883.344 431.881C883.311 431.585 883.381 431.335 883.485 431.131C883.443 431.117 883.401 431.102 883.355 431.087C882.799 430.889 882.531 430.684 882.273 430.487C882.074 430.336 881.869 430.179 881.424 429.968C881.229 429.876 881.061 429.808 880.92 429.751C880.492 429.577 879.974 429.338 879.825 428.705C879.688 428.022 880.127 427.523 880.417 427.192C880.935 426.602 881.336 426.288 881.601 426.08C881.699 426.004 881.808 425.918 881.839 425.882C882.087 425.58 881.368 423.892 881.101 423.255C880.496 421.826 879.973 420.589 880.73 419.809C881.272 419.25 882.183 419.3 883.511 419.964C883.925 420.171 884.262 420.42 884.534 420.648C884.609 420.375 884.76 420.108 885.058 419.934C885.765 419.522 886.694 420.001 887.821 421.355C888.102 421.691 888.478 422.144 888.778 422.842C888.919 423.17 889.009 423.477 889.082 423.74C889.229 423.705 889.394 423.697 889.579 423.746C890.121 423.888 890.488 424.396 890.646 425.27C890.834 426.229 890.856 427.056 890.877 427.784C890.896 428.42 890.913 428.968 891.039 429.366C891.283 430.103 891.994 430.525 892.9 431.001L895.193 432.179Z" fill="#F2F2F2"/>
<path d="M893.516 422.101L893.155 418.68L893.32 418.421C894.084 417.221 894.474 416.05 894.478 414.939C894.479 414.762 894.471 414.585 894.463 414.405C894.432 413.691 894.393 412.804 894.83 411.77C895.074 411.194 895.761 409.859 896.794 410.024C897.072 410.066 897.283 410.201 897.442 410.36C897.466 410.32 897.49 410.28 897.516 410.237C897.837 409.717 898.092 409.494 898.337 409.279C898.526 409.114 898.721 408.944 899.026 408.541C899.16 408.364 899.264 408.209 899.352 408.078C899.62 407.684 899.969 407.213 900.584 407.221C901.242 407.254 901.586 407.831 901.814 408.212C902.222 408.893 902.406 409.383 902.528 409.709C902.573 409.828 902.623 409.962 902.649 410.003C902.861 410.333 904.583 410.024 905.232 409.912C906.69 409.654 907.951 409.431 908.471 410.406C908.843 411.103 908.566 412.025 907.624 413.219C907.33 413.591 907.018 413.873 906.74 414.095C906.97 414.24 907.176 414.463 907.259 414.813C907.456 415.642 906.783 416.473 905.262 417.286C904.884 417.489 904.375 417.76 903.663 417.89C903.327 417.952 903.025 417.966 902.766 417.975C902.761 418.133 902.726 418.305 902.634 418.482C902.367 419.002 901.811 419.25 900.973 419.19C900.05 419.139 899.291 418.953 898.621 418.789C898.036 418.647 897.532 418.526 897.136 418.555C896.402 418.617 895.837 419.24 895.173 420.048L893.516 422.101Z" fill="#F2F2F2"/>
<path d="M896.818 488.506L896.142 488.056L895.353 488.152C895.341 488.075 895.298 487.896 895.233 487.617C894.88 486.087 893.805 481.433 892.907 474.102C892.281 468.984 891.926 463.723 891.853 458.462C891.78 453.192 892.015 449.203 892.204 445.997C892.346 443.579 892.519 441.276 892.689 439.033C893.141 433.04 893.567 427.379 893.25 421.112C893.18 419.712 893.033 416.8 891.428 413.701C890.497 411.904 889.215 410.308 887.616 408.961L888.61 407.636C890.375 409.126 891.793 410.893 892.827 412.889C894.606 416.325 894.767 419.498 894.844 421.022C895.166 427.4 894.735 433.116 894.279 439.166C894.111 441.401 893.938 443.694 893.796 446.103C893.609 449.279 893.376 453.234 893.449 458.435C893.52 463.634 893.871 468.831 894.489 473.884C895.375 481.122 896.435 485.708 896.783 487.214C896.969 488.019 897.008 488.187 896.818 488.506Z" fill="#F2F2F2"/>
<path d="M884.69 411.648C884.625 411.648 884.559 411.646 884.492 411.641C883.133 411.564 881.875 410.702 880.752 409.079C880.225 408.316 879.955 407.446 879.418 405.71C879.335 405.442 878.93 404.084 878.683 402.216C878.522 400.995 878.542 400.485 878.771 400.034C879.024 399.532 879.434 399.182 879.895 398.945C879.874 398.783 879.891 398.617 879.957 398.446C880.229 397.741 880.952 397.834 881.343 397.878C881.541 397.905 881.788 397.939 882.054 397.924C882.473 397.903 882.698 397.771 883.04 397.573C883.366 397.383 883.772 397.146 884.374 397.016C885.561 396.753 886.556 397.11 886.884 397.227C888.609 397.837 889.46 399.259 890.445 400.906C890.641 401.236 891.315 402.439 891.76 404.087C892.081 405.277 892.035 405.805 891.939 406.199C891.742 407.006 891.279 407.469 890.102 408.49C888.873 409.558 888.256 410.094 887.726 410.419C886.493 411.174 885.718 411.648 884.69 411.648Z" fill="#F2F2F2"/>
</g>
<path d="M1241.19 487.737C1241.19 488.05 1240.95 488.304 1240.65 488.304H870V487.17H1240.65C1240.95 487.17 1241.19 487.424 1241.19 487.737Z" fill="#E6E6E6"/>
<g filter="url(#filter13_i_2_414)">
<path d="M1137.98 284.112L1137.84 284.449L1138.12 284.681L1143.17 288.906L1133.86 308.034C1133.72 308.047 1133.53 308.064 1133.3 308.079C1132.77 308.116 1132.02 308.149 1131.13 308.138C1129.34 308.115 1127 307.913 1124.78 307.207C1122.56 306.5 1120.5 305.302 1119.19 303.317C1117.88 301.34 1117.27 298.507 1118.09 294.419C1119.76 286.137 1125.33 274.291 1130.53 264.473C1133.12 259.574 1135.6 255.196 1137.44 252.043C1138.36 250.466 1139.12 249.196 1139.65 248.321C1139.89 247.926 1140.08 247.611 1140.21 247.385L1150.25 253.352L1137.98 284.112Z" fill="#A0616A" stroke="black"/>
<path d="M1140.75 286.728L1199.01 288.622L1196.31 312.154L1127.14 311.794L1140.75 286.728Z" fill="#00727C" stroke="black"/>
<path d="M1158.19 231.521C1159.95 232.855 1160.81 235.279 1160.67 238.234C1160.54 241.181 1159.41 244.577 1157.3 247.703C1155.19 250.829 1152.52 253.053 1149.93 254.138C1147.34 255.225 1144.9 255.145 1143.14 253.81C1141.38 252.476 1140.53 250.052 1140.66 247.097C1140.8 244.15 1141.92 240.754 1144.03 237.628C1146.14 234.502 1148.81 232.278 1151.4 231.193C1154 230.106 1156.44 230.186 1158.19 231.521Z" fill="#A0616A" stroke="black"/>
</g>
<g filter="url(#filter14_i_2_414)">
<path d="M1192.79 381.608V488.004H1197.12V381.608H1192.79Z" fill="#3F3D56"/>
</g>
<g filter="url(#filter15_i_2_414)">
<path d="M1172.03 381.608V488.004H1176.36V381.608H1172.03Z" fill="#3F3D56"/>
</g>
<g filter="url(#filter16_d_2_414)">
<path d="M1055.68 314.652V488.004H1060V314.652H1055.68Z" fill="#E6E6E6"/>
</g>
<g filter="url(#filter17_i_2_414)">
<path d="M1125.32 381.608V488.004H1129.64V381.608H1125.32Z" fill="#3F3D56"/>
</g>
<g filter="url(#filter18_i_2_414)">
<path d="M1108.76 381.608V488.004H1113.09V381.608H1108.76Z" fill="#3F3D56"/>
</g>
<path d="M1188.9 379.315H1105.37L1089.35 403.412L1172.46 408.665L1188.9 379.315Z" fill="#3F3D56"/>
<g filter="url(#filter19_i_2_414)">
<path d="M1035.95 296.869L1036.33 279.393L985.918 283.505L985.66 295.346L1035.95 296.869Z" fill="#A0616A"/>
</g>
<path d="M1001.83 281.417L999.421 287.567L995.958 287.684C995.958 287.684 1000.01 289.001 1001.14 296.812L997.812 297.869C997.812 297.869 994.616 301.03 988.643 300.723L972.628 299.303L972.567 293.384L983.636 292.028C983.636 292.028 986.102 290.307 973.893 283.234C973.893 283.234 969.848 280.612 973.486 267.663C973.986 265.884 975.496 264.605 977.247 264.565C978.213 264.543 979.119 264.911 979.48 266.184C980.4 269.423 979.469 272.653 981.998 274.675C984.527 276.697 1001.83 281.417 1001.83 281.417Z" fill="#2F2E41"/>
<path d="M1182.65 363.679C1182.65 363.679 1165.26 395.046 1125.9 389.393C1116.53 388.048 1108.29 382.144 1103.59 373.446C1094.52 356.634 1080.74 327.198 1085.21 310.53L1018.64 297.06L1013.39 279.919L1085.44 269.996C1091.81 269.119 1098.05 272.404 1101.25 278.317L1136.34 343.298L1146.8 344.509L1182.65 363.679Z" fill="#2F2E41"/>
<g filter="url(#filter20_i_2_414)">
<g filter="url(#filter21_i_2_414)">
<path d="M1037.27 304.023L1036.32 286.572L986.38 294.97L987.021 306.795L1037.27 304.023Z" fill="#A0616A"/>
</g>
<path d="M1002.08 291.531L1000.15 297.867L996.705 298.279C996.705 298.279 1000.85 299.246 1002.56 306.935L999.325 308.273C999.325 308.273 996.38 311.696 990.403 311.9L974.333 311.85L973.822 305.956L984.752 303.66C984.752 303.66 987.08 301.734 974.374 295.726C974.374 295.726 970.143 293.457 972.786 280.24C973.15 278.424 974.558 277.021 976.3 276.831C977.262 276.727 978.192 277.016 978.649 278.254C979.812 281.404 979.129 284.703 981.803 286.503C984.477 288.303 1002.08 291.531 1002.08 291.531Z" fill="#2F2E41"/>
</g>
<g filter="url(#filter22_d_2_414)">
<path d="M1188.56 358.103C1188.56 358.103 1173.6 390.852 1133.94 388.575C1124.5 388.033 1115.84 382.851 1110.5 374.582C1100.18 358.599 1084.21 330.433 1087.4 313.438L1020.02 305.689L1013.5 289.052L1084.55 273.016C1090.84 271.598 1097.31 274.34 1100.94 279.961L1140.85 341.738L1151.37 342.053L1188.56 358.103Z" fill="#2F2E41"/>
</g>
<path d="M1142.96 219.814L1139.5 222.566L1157.67 249.165L1161.13 248.248L1142.96 219.814Z" fill="#3F3D56"/>
<path d="M1190.2 278.881L1210.1 277.963L1218.75 319.238C1218.75 319.238 1200.58 391.697 1178.95 388.945C1178.95 388.945 1165.54 378.398 1165.54 374.729C1165.54 371.06 1147.38 361.888 1147.38 361.888L1143.05 346.295L1156.03 325.2C1156.03 325.2 1161.22 308.69 1178.52 299.518L1190.2 278.881Z" fill="#00727C"/>
<g filter="url(#filter23_d_2_414)">
<path d="M1076.44 310.983H899.529V315.569H986.038V488.004H990.363V315.569H1076.44V310.983Z" fill="#E6E6E6"/>
</g>
<g filter="url(#filter24_i_2_414)">
<path d="M1200.58 275.212C1213.48 275.212 1223.94 264.124 1223.94 250.447C1223.94 236.77 1213.48 225.683 1200.58 225.683C1187.68 225.683 1177.22 236.77 1177.22 250.447C1177.22 264.124 1187.68 275.212 1200.58 275.212Z" fill="#A0616A"/>
</g>
<path d="M1119.14 282.091L1102.82 288.97L1134.83 333.913L1146.08 324.741L1119.14 282.091Z" fill="#E6E6E6"/>
<g filter="url(#filter25_i_2_414)">
<g filter="url(#filter26_i_2_414)">
<path d="M1182.85 368.308C1182.85 368.308 1176.79 388.624 1163.81 378.466C1150.84 368.308 1132.18 337.123 1132.18 337.123L1142.19 329.327L1163.81 354.2L1169.87 350.881L1182.85 368.308Z" fill="#A0616A"/>
</g>
<path d="M1185.21 316.56C1191.01 307.509 1202.81 304.475 1212.26 309.607V309.607L1182.84 377.48L1163.81 349.964L1185.21 316.56Z" fill="#00727C"/>
<path d="M1139.81 337.512C1143.94 334.979 1144.3 327.413 1140.59 320.613C1136.89 313.814 1130.54 310.355 1126.4 312.887C1122.26 315.42 1121.91 322.986 1125.61 329.786C1129.31 336.585 1135.67 340.044 1139.81 337.512Z" fill="#A0616A"/>
</g>
<g filter="url(#filter27_d_2_414)">
<path d="M1203.13 325.427C1209.13 304.591 1215.56 297.997 1222.32 302.125C1227.47 305.268 1229.02 312.42 1226.01 317.846C1218.32 331.674 1202.47 363.359 1205.77 384.359C1205.77 384.359 1210.96 413.71 1169.44 413.71C1127.91 413.71 1088.12 403.621 1088.12 403.621L1109.75 399.952L1158.93 403.677C1170.17 404.528 1179.64 394.334 1178.13 382.496C1178.09 382.105 1178.03 381.71 1177.96 381.31C1175.49 366.932 1203.13 325.427 1203.13 325.427Z" fill="#3F3D56"/>
</g>
<path d="M1191.82 240.181C1189.92 245.846 1194.11 251.727 1199.77 251.327L1199.9 251.318C1203.71 256.361 1203.81 263.495 1200.16 268.661C1199.86 275.32 1200.84 281.974 1203.05 288.216L1209.25 305.754L1218.8 301.029L1223.34 313.854L1250 299.291L1233.84 260.741L1228.91 239.827C1225.4 224.947 1211.08 215.991 1197.1 219.928L1186.38 222.949C1177.9 225.336 1173.02 234.743 1175.67 243.608L1191.82 240.181Z" fill="#2F2E41"/>
</g>
<g clip-path="url(#clip2_2_414)">
<g filter="url(#filter28_d_2_414)">
<path d="M405.207 422.641L408.495 421.309C374.087 335.402 377.401 227.024 406.488 134.054C409.943 123.282 410.192 111.729 407.205 100.817C404.217 89.9044 398.124 80.1083 389.673 72.6338C372.791 57.48 349.516 53.7885 328.927 62.9987C308.605 72.0914 305.804 87.9296 305.804 103.691H309.35C309.35 86.8665 312.924 74.0621 330.369 66.2571C349.665 57.6254 371.484 61.0876 387.312 75.295C395.249 82.3151 400.973 91.5159 403.779 101.765C406.585 112.015 406.351 122.866 403.106 132.983C373.684 227.026 370.563 336.149 405.207 422.641Z" fill="#E6E6E6"/>
</g>
<g filter="url(#filter29_i_2_414)">
<path d="M308.463 156.292C315.317 156.292 320.872 150.704 320.872 143.811C320.872 136.917 315.317 131.329 308.463 131.329C301.61 131.329 296.054 136.917 296.054 143.811C296.054 150.704 301.61 156.292 308.463 156.292Z" fill="#E6E6E6"/>
</g>
<g filter="url(#filter30_d_2_414)">
<path d="M289.352 165.57V141.92H293.008V165.57C294.057 165.996 294.925 166.777 295.465 167.777C296.004 168.777 296.181 169.935 295.965 171.052C295.749 172.169 295.153 173.175 294.28 173.899C293.407 174.623 292.311 175.018 291.18 175.018C290.049 175.018 288.953 174.623 288.08 173.899C287.207 173.175 286.611 172.169 286.395 171.052C286.179 169.935 286.356 168.777 286.895 167.777C287.435 166.777 288.303 165.996 289.352 165.57Z" fill="#E6E6E6"/>
</g>
<g filter="url(#filter31_i_2_414)">
<path d="M271.679 123.75C271.685 118.314 273.835 113.102 277.657 109.258C281.478 105.413 286.66 103.251 292.065 103.245H325.747C331.154 103.245 336.34 105.405 340.163 109.251C343.986 113.096 346.134 118.312 346.134 123.75C346.134 129.189 343.986 134.405 340.163 138.25C336.34 142.096 331.154 144.256 325.747 144.256H292.065C286.66 144.25 281.478 142.088 277.657 138.243C273.835 134.399 271.685 129.187 271.679 123.75Z" fill="#00727C"/>
</g>
<g filter="url(#filter32_di_2_414)">
<path d="M224.222 250.735C227.604 207.216 244.895 186.481 233.823 173.478C223.218 161.023 193.345 163.596 174.16 175.548C122.414 207.784 103.456 336.266 170.045 399.04C233.322 458.691 353.244 439.586 379.895 390.763C386.113 379.371 391.053 359.4 381.952 347.306C359.357 317.279 277.206 371.666 240.681 337.649C219.035 317.489 222.366 274.618 224.222 250.735Z" fill="#3F3D56"/>
</g>
<path d="M263.778 229.114C262.521 229.696 261.539 230.748 261.041 232.046C260.544 233.345 260.57 234.787 261.113 236.067C261.228 236.325 261.363 236.573 261.519 236.809L250.412 251.726L255.954 260.058L268.973 237.969C269.895 237.246 270.553 236.235 270.845 235.096C271.136 233.956 271.045 232.752 270.584 231.671C270.316 231.058 269.931 230.504 269.45 230.041C268.969 229.578 268.403 229.215 267.782 228.972C267.162 228.729 266.5 228.612 265.835 228.626C265.17 228.641 264.513 228.787 263.904 229.056C263.862 229.075 263.819 229.094 263.778 229.114Z" fill="#FFB6B6"/>
<path d="M263.768 254.833C264.495 255.481 262.479 256.282 260.346 255.019C259.736 254.654 259.475 254.502 259.407 254.598C259.235 254.84 260.237 256.62 259.969 260.572C259.805 262.931 255.909 267.366 251.486 271.691C245.506 277.541 238.552 283.183 238.552 283.183L236.111 281.217L210.51 260.572L206.19 254.557C206.586 252.182 207.18 249.844 207.966 247.569C209.049 244.421 210.337 241.347 211.82 238.368C212.616 236.747 213.432 235.201 214.214 233.781L227.929 248.984L239.423 261.717C239.423 261.717 242.77 256.295 245.362 254.819C245.693 254.607 246.069 254.477 246.459 254.44C249.079 254.316 249.237 252.881 246.199 249.756C243.161 246.631 246.994 249.549 249.696 248.708C252.398 247.866 249.696 248.708 250.265 246.604C250.835 244.5 258.412 240.278 258.412 240.278L258.728 240.561L264.454 245.645L266.093 247.1C266.093 247.1 264.303 252.039 263.81 253.081C263.316 254.122 263.048 254.178 263.768 254.833Z" fill="#00727C"/>
<g filter="url(#filter33_i_2_414)">
<path d="M414.721 350.656L415 343.047L385.956 338.344L385.544 349.573L414.721 350.656Z" fill="#FFB6B6"/>
</g>
<g filter="url(#filter34_i_2_414)">
<path d="M409.449 352.946L409.173 340.764L414.351 340.956L422.71 329.694C423.123 329.138 423.702 328.729 424.362 328.527C425.022 328.325 425.729 328.341 426.38 328.571C427.031 328.802 427.591 329.236 427.979 329.81C428.368 330.384 428.563 331.068 428.538 331.762L428.007 346.233L422.794 348.537L427.88 349.701L427.679 355.158L409.449 352.946Z" fill="#2F2E41"/>
</g>
<g filter="url(#filter35_i_2_414)">
<path d="M251.258 353.618L343.251 355.964C343.251 355.964 382.977 358.272 392.298 352.173L402.127 350.925L402.659 336.403C402.659 336.403 396.649 336.448 393.193 334.828C389.738 333.209 392.139 331.227 388.845 333.176C385.55 335.124 385.898 335.359 383.351 334.463C380.803 333.568 263.99 315.659 263.99 315.659L251.258 353.618Z" fill="#2F2E41"/>
</g>
<g filter="url(#filter36_i_2_414)">
<path d="M372.481 347.316L377.83 341.93L359.719 318.612L351.823 326.563L372.481 347.316Z" fill="#FFB6B6"/>
</g>
<path d="M367.067 342.63L375.102 333.511L378.768 337.194L392.511 334.656C393.19 334.53 393.891 334.627 394.511 334.93C395.132 335.234 395.64 335.729 395.961 336.343C396.282 336.958 396.399 337.659 396.296 338.346C396.192 339.032 395.873 339.667 395.386 340.158L385.211 350.404L379.831 348.527L382.773 352.86L378.936 356.723L367.067 342.63Z" fill="#2F2E41"/>
<g filter="url(#filter37_i_2_414)">
<path d="M214.964 302.942L215.879 324.325C216.956 349.498 244.517 364.734 265.888 351.591C266.282 351.348 266.678 351.097 267.074 350.838C267.074 350.838 275.176 348.649 274.93 345.183C274.684 341.718 276.663 340.031 278.415 340.976C280.167 341.921 303.101 309.183 303.101 309.183C303.101 309.183 350.75 333.09 361.262 338.718C361.262 338.718 371.145 323.175 370.428 323.338C369.712 323.501 311.48 282.506 311.48 282.506C311.48 282.506 301.994 272.849 290.226 279.225C289.981 280.162 290.191 280.194 290.191 280.194L251.317 312.055L245.825 301.563L214.964 302.942Z" fill="#2F2E41"/>
</g>
<g filter="url(#filter38_di_2_414)">
<path d="M251.616 276.21C251.543 277.197 251.403 278.179 251.198 279.148C250.918 280.551 250.467 281.913 249.854 283.204C249.854 283.204 249.854 284.646 247.111 289.474C244.368 294.303 247.797 292.234 249.854 295.82C251.911 299.4 249.854 297.752 247.57 300.056C246.913 300.726 246.446 301.562 246.218 302.475C245.99 303.388 246.009 304.347 246.274 305.25C246.274 305.25 216.813 305.271 211.326 303.201C205.84 301.132 204.592 289.474 209.509 288.322C214.419 287.17 208.021 286.025 205.134 283.37C202.247 280.714 208.021 276.368 208.021 276.368C208.021 276.368 205.641 272.237 205.84 258.365C205.868 257.089 205.985 255.817 206.19 254.557C206.586 252.182 207.18 249.844 207.966 247.57C209.049 244.421 210.337 241.347 211.82 238.368C212.616 236.747 213.432 235.202 214.214 233.781C214.337 233.56 214.454 233.346 214.577 233.132C216.065 230.483 217.423 228.317 218.321 226.931C219.014 225.855 219.432 225.248 219.432 225.248L224.425 216.515L241.089 224.372L240.143 237.223L243.017 246.914L244.34 251.377L245.362 254.819L246.939 260.151C246.939 260.151 246.507 260.172 247.021 260.882C249.39 264.05 250.926 267.768 251.486 271.691C251.683 273.189 251.727 274.703 251.616 276.21Z" fill="#00727C"/>
</g>
<path d="M299.742 277.595L299.429 277.493L259.543 264.574L274.241 216.073C274.533 215.108 275.04 214.221 275.723 213.481C276.406 212.741 277.247 212.166 278.182 211.801C279.118 211.435 280.124 211.288 281.124 211.37C282.125 211.452 283.094 211.761 283.958 212.275L309.447 227.422C311.464 228.62 312.999 230.493 313.783 232.713C314.568 234.934 314.551 237.361 313.737 239.57L299.742 277.595Z" fill="#2F2E41"/>
<path d="M299.904 280.678L259.697 267.655L274.395 219.154C274.687 218.189 275.194 217.302 275.877 216.562C276.56 215.822 277.4 215.247 278.336 214.882C279.272 214.516 280.278 214.369 281.278 214.451C282.279 214.533 283.248 214.842 284.112 215.356L310.817 228.767C314.829 231.151 314.736 237.32 312.873 242.382L299.904 280.678Z" fill="#00727C"/>
<g filter="url(#filter39_i_2_414)">
<path d="M295.878 284.188C294.952 284.714 293.928 285.04 292.87 285.146C291.812 285.251 290.744 285.135 289.734 284.803L264.034 276.479C262.063 275.831 260.421 274.433 259.46 272.584C258.499 270.735 258.295 268.581 258.891 266.583L271.776 224.066C272.033 223.217 272.457 222.428 273.021 221.745C273.586 221.062 274.28 220.5 275.064 220.091C275.847 219.682 276.704 219.434 277.584 219.363C278.464 219.291 279.35 219.397 280.188 219.674L306.821 228.47C308.09 228.889 309.262 229.559 310.269 230.442C311.276 231.324 312.097 232.401 312.684 233.608C313.27 234.815 313.61 236.128 313.684 237.469C313.757 238.81 313.563 240.153 313.112 241.417L299.336 280.048C298.717 281.802 297.489 283.273 295.878 284.188Z" fill="#3F3D56"/>
</g>
<g filter="url(#filter40_d_2_414)">
<path d="M240.148 216.664C250.313 216.664 258.555 208.375 258.555 198.15C258.555 187.924 250.313 179.635 240.148 179.635C229.982 179.635 221.74 187.924 221.74 198.15C221.74 208.375 229.982 216.664 240.148 216.664Z" fill="#FFB6B6"/>
</g>
<g filter="url(#filter41_di_2_414)">
<path d="M177.903 216.943C179.593 220.237 182.362 222.841 185.743 224.314C187.092 224.933 188.51 225.384 189.967 225.659C190.379 224.016 191.039 222.447 191.922 221.004C191.628 222.63 191.628 224.296 191.922 225.921C194.142 226.104 196.375 225.825 198.483 225.102C200.554 224.394 202.431 223.21 203.967 221.645C205.503 220.08 206.656 218.176 207.333 216.084C208.799 211.177 207.22 205.935 207.095 200.812C206.967 195.689 209.386 189.562 214.442 188.928C218.293 188.444 217.817 188.82 220.583 191.556C216.713 195.88 226.148 215.033 231.211 214.187C234.074 213.709 236.18 211.423 236.746 211.502C239.645 218.643 230.925 228.771 237.841 232.095L237.328 231.412C233.708 225.397 244.42 215.236 240.8 209.221C239.79 207.538 238.741 205.565 239.365 203.703C239.958 201.933 242.96 201.373 243.593 202.984C242.563 199.292 245.437 194.958 249.254 194.581C252.645 194.245 252.449 195.217 255.682 196.104C256.095 194.703 256.69 193.363 257.452 192.119C257.194 193.538 257.163 194.99 257.358 196.419C258.524 196.559 259.704 196.308 260.713 195.705C263.699 193.905 263.788 189.258 261.737 186.429C259.682 183.601 256.241 182.204 252.92 181.147C252.89 174.085 233.996 170.704 230.521 177.27C230.164 171.953 224.105 168.372 218.885 169.275C213.665 170.178 209.548 174.388 207.037 179.08C204.527 183.769 203.281 189.018 201.443 194.013C199.606 199.007 196.979 203.986 192.579 206.949C188.179 209.909 181.641 210.178 177.968 206.342C177.13 207.98 176.687 209.793 176.676 211.635C176.665 213.477 177.086 215.295 177.903 216.943Z" fill="#2F2E41"/>
</g>
<path d="M196.791 301.609C197.171 301.303 197.585 301.04 198.023 300.824C205.068 297.297 226.978 288.142 244.11 288.518C277.072 289.241 319.022 325.832 309.259 350.404C301.83 369.102 264.897 379.739 237.938 371.231C200.169 359.312 185.261 310.856 196.791 301.609Z" fill="#3F3D56"/>
<g filter="url(#filter42_d_2_414)">
<path d="M124.571 307.085C124.181 307.103 123.794 307 123.464 306.79C123.134 306.579 122.876 306.272 122.725 305.909C122.574 305.547 122.538 305.146 122.621 304.762C122.704 304.378 122.903 304.029 123.19 303.762L123.32 303.239C123.303 303.198 123.286 303.156 123.268 303.114C122.875 302.18 122.216 301.383 121.374 300.824C120.532 300.265 119.544 299.969 118.535 299.973C117.527 299.976 116.541 300.28 115.703 300.845C114.866 301.41 114.212 302.212 113.826 303.149C112.282 306.891 110.315 310.638 109.831 314.594C109.618 316.342 109.708 318.115 110.097 319.833C106.47 311.874 104.586 303.224 104.574 294.469C104.573 292.272 104.695 290.077 104.938 287.893C105.138 286.103 105.417 284.326 105.773 282.562C107.717 272.988 111.891 264.015 117.953 256.38C120.886 254.77 123.259 252.294 124.751 249.286C125.291 248.204 125.673 247.05 125.884 245.859C125.553 245.902 124.637 240.833 124.886 240.522C124.425 239.818 123.6 239.468 123.096 238.781C120.591 235.365 117.14 235.961 115.338 240.604C111.489 242.558 111.452 245.798 113.813 248.915C115.316 250.897 115.522 253.58 116.841 255.703C116.705 255.878 116.564 256.047 116.428 256.221C113.949 259.428 111.788 262.872 109.976 266.502C110.417 262.435 109.891 258.32 108.442 254.497C106.974 250.934 104.222 247.933 101.798 244.853C98.8866 241.153 92.9167 242.768 92.4038 247.458C92.3988 247.503 92.3939 247.549 92.3892 247.594C92.7492 247.798 93.1016 248.015 93.4464 248.244C93.8796 248.536 94.2153 248.951 94.4094 249.438C94.6036 249.924 94.6472 250.458 94.5345 250.969C94.4218 251.481 94.1581 251.946 93.7779 252.305C93.3978 252.663 92.9189 252.897 92.404 252.977L92.3513 252.985C92.4795 254.291 92.7062 255.584 93.0294 256.854C89.92 268.949 96.6329 273.355 106.218 273.553C106.43 273.662 106.636 273.771 106.847 273.875C105.027 279.062 103.886 284.466 103.451 289.951C103.205 293.186 103.22 296.436 103.495 299.669L103.478 299.555C102.784 295.96 100.877 292.716 98.0803 290.371C93.9261 286.938 88.0571 285.674 83.5756 282.915C83.0993 282.608 82.5455 282.444 81.9795 282.442C81.4135 282.441 80.8589 282.602 80.3812 282.908C79.9034 283.213 79.5224 283.649 79.283 284.165C79.0437 284.681 78.956 285.255 79.0303 285.819C79.0364 285.859 79.0425 285.9 79.0487 285.94C79.7168 286.213 80.3672 286.529 80.9963 286.884C81.3563 287.088 81.7087 287.305 82.0535 287.534C82.4867 287.825 82.8223 288.241 83.0165 288.727C83.2106 289.214 83.2542 289.748 83.1415 290.259C83.0288 290.771 82.7651 291.236 82.385 291.594C82.0048 291.953 81.5259 292.187 81.0111 292.267L80.9583 292.275C80.9203 292.281 80.8878 292.286 80.8499 292.292C81.9913 295.033 83.5935 297.556 85.586 299.751C87.5302 310.31 95.8806 311.311 104.813 308.237H104.818C105.798 312.52 107.218 316.69 109.055 320.678H124.192C124.246 320.509 124.295 320.335 124.344 320.165C122.943 320.254 121.536 320.17 120.155 319.914C121.278 318.528 122.401 317.131 123.524 315.745C123.55 315.719 123.573 315.692 123.595 315.663C124.165 314.954 124.74 314.25 125.309 313.541L125.31 313.54C125.34 311.365 125.091 309.196 124.571 307.085Z" fill="#CCCCCC"/>
</g>
<path d="M174.94 316.555C175.434 319.4 180.996 321.4 187.684 321.053C193.834 320.768 198.863 318.595 199.784 316.021C199.443 315.92 199.088 315.872 198.733 315.88L175.512 316.483C175.32 316.491 175.128 316.514 174.94 316.555Z" fill="white"/>
<path d="M0.808439 437.388L509.192 437.597C509.406 437.597 509.612 437.512 509.763 437.359C509.915 437.207 510 437 510 436.784C510 436.569 509.915 436.362 509.763 436.209C509.612 436.057 509.406 435.971 509.192 435.971L0.808439 435.761C0.594026 435.761 0.388398 435.847 0.236786 435.999C0.0851733 436.152 0 436.359 0 436.574C0 436.79 0.0851733 436.997 0.236786 437.149C0.388398 437.302 0.594026 437.388 0.808439 437.388Z" fill="#CACACA"/>
<path d="M285.945 255.653C284.562 255.704 283.254 256.295 282.298 257.301C281.342 258.308 280.815 259.649 280.828 261.041C280.835 261.323 280.865 261.605 280.918 261.883L264.963 271.358L266.894 281.192L287.356 265.836C288.484 265.525 289.477 264.847 290.182 263.908C290.887 262.969 291.263 261.822 291.251 260.645C291.238 259.976 291.094 259.316 290.827 258.702C290.56 258.089 290.176 257.535 289.696 257.071C289.216 256.607 288.65 256.242 288.031 255.998C287.411 255.754 286.749 255.635 286.084 255.649C286.037 255.649 285.991 255.651 285.945 255.653Z" fill="#FFB6B6"/>
<g filter="url(#filter43_di_2_414)">
<path d="M272.875 278.24C272.448 277.665 272.264 277.424 272.167 277.49C271.917 277.642 272.158 279.674 270.401 283.215C268.72 286.595 256.214 291.194 248.365 293.797C244.659 295.026 240.659 293.36 238.796 289.93V289.93L227.972 270.015C225.833 266.081 224.233 261.878 223.214 257.518L219.908 243.374V243.374C219.589 242.015 220.334 240.686 221.494 239.908C223.451 238.597 225.46 237.366 227.516 236.218C231.11 234.212 236.102 234.291 237.474 238.171V238.171L247.143 265.441L247.554 266.601C249.279 271.466 255.426 270.566 260.276 272.331V272.331C262.741 273.236 263.442 271.968 261.83 267.909C260.219 263.851 262.638 268.029 265.452 268.294C268.272 268.564 265.452 268.294 266.784 266.572C267.939 265.079 274.567 264.152 276.308 263.932C276.561 263.9 276.801 264.035 276.91 264.265V264.265L280.247 271.17V271.17C280.824 272.368 280.614 273.797 279.709 274.771C278.635 275.926 277.294 277.349 276.811 277.784C275.954 278.559 275.689 278.506 276.109 279.389C276.523 280.268 274.357 280.228 272.875 278.24Z" fill="#00727C"/>
</g>
<g filter="url(#filter44_d_2_414)">
<path d="M461.806 436.24H353.668V432.902C353.668 430.004 354.813 427.225 356.85 425.176C358.887 423.126 361.651 421.975 364.532 421.975H450.942C453.823 421.975 456.586 423.126 458.624 425.176C460.661 427.225 461.806 430.004 461.806 432.902V436.24Z" fill="#E6E6E6"/>
</g>
<g filter="url(#filter45_d_2_414)">
<path d="M59.774 436.468C48.9845 434.614 39.4338 390.348 60.6619 368.547C67.935 361.078 77.0072 357.827 89.0749 354.802C158.533 337.388 211.509 353.984 218.629 358.036C225.732 362.079 238.185 422.994 222.261 431.616C213.301 436.468 195.543 438.893 186.744 433.233C173.798 424.905 195.529 403.303 185.857 388.762C174.881 372.261 117.083 366.703 88.1066 383.102C57.1912 400.598 120.959 446.979 59.774 436.468Z" fill="#F2F2F2"/>
</g>
<g filter="url(#filter46_d_2_414)">
<path d="M131.961 353.326H90.8122C80.6543 343.534 73.3913 334.097 79.2061 326.263C79.2061 324.012 80.0954 321.852 81.6784 320.26C83.2613 318.668 85.4083 317.773 87.6469 317.773H135.126C137.365 317.773 139.512 318.668 141.095 320.26C142.678 321.852 143.567 324.012 143.567 326.263C145.781 335.189 141.826 344.211 131.961 353.326Z" fill="#CCCCCC"/>
</g>
<g filter="url(#filter47_di_2_414)">
<path d="M176.198 351.108C176.449 351.843 176.925 352.479 177.558 352.925C178.191 353.371 178.948 353.604 179.721 353.59L194.817 353.199C195.595 353.184 196.348 352.916 196.962 352.435C197.576 351.954 198.019 351.286 198.225 350.53L200.361 327.554C201.119 327.9 201.944 328.07 202.776 328.053C204.235 328.017 205.621 327.398 206.627 326.334C207.633 325.27 208.178 323.847 208.141 322.379C208.104 320.911 207.489 319.517 206.431 318.505C205.373 317.493 203.959 316.945 202.499 316.982C202.167 316.981 201.835 317.016 201.51 317.086C201.156 316.701 200.727 316.395 200.248 316.187C199.77 315.98 199.254 315.875 198.733 315.88L175.512 316.483C175.32 316.491 175.128 316.514 174.94 316.555C174.43 316.65 173.947 316.854 173.523 317.153C173.099 317.452 172.743 317.839 172.48 318.288C172.217 318.737 172.053 319.237 171.998 319.755C171.943 320.273 171.999 320.797 172.163 321.292L176.198 351.108ZM200.799 325.994L202.319 320.519C202.492 319.887 202.496 319.219 202.331 318.585C202.404 318.585 202.469 318.55 202.543 318.549C203.585 318.528 204.593 318.923 205.346 319.648C206.099 320.373 206.536 321.368 206.56 322.417C206.585 323.465 206.195 324.48 205.476 325.239C204.758 325.999 203.769 326.441 202.728 326.469C202.054 326.49 201.387 326.326 200.799 325.994Z" fill="#CCCCCC"/>
</g>
</g>
<defs>
<filter id="filter0_dii_2_414" x="631.5" y="35.094" width="332" height="244" filterUnits="userSpaceOnUse" color-interpolation-filters="sRGB">
<feFlood flood-opacity="0" result="BackgroundImageFix"/>
<feColorMatrix in="SourceAlpha" type="matrix" values="0 0 0 0 0 0 0 0 0 0 0 0 0 0 0 0 0 0 127 0" result="hardAlpha"/>
<feOffset dy="4"/>
<feGaussianBlur stdDeviation="2"/>
<feComposite in2="hardAlpha" operator="out"/>
<feColorMatrix type="matrix" values="0 0 0 0 0 0 0 0 0 0 0 0 0 0 0 0 0 0 0.25 0"/>
<feBlend mode="normal" in2="BackgroundImageFix" result="effect1_dropShadow_2_414"/>
<feBlend mode="normal" in="SourceGraphic" in2="effect1_dropShadow_2_414" result="shape"/>
<feColorMatrix in="SourceAlpha" type="matrix" values="0 0 0 0 0 0 0 0 0 0 0 0 0 0 0 0 0 0 127 0" result="hardAlpha"/>
<feOffset dy="-2"/>
<feGaussianBlur stdDeviation="1.5"/>
<feComposite in2="hardAlpha" operator="arithmetic" k2="-1" k3="1"/>
<feColorMatrix type="matrix" values="0 0 0 0 0 0 0 0 0 0 0 0 0 0 0 0 0 0 1 0"/>
<feBlend mode="normal" in2="shape" result="effect2_innerShadow_2_414"/>
<feColorMatrix in="SourceAlpha" type="matrix" values="0 0 0 0 0 0 0 0 0 0 0 0 0 0 0 0 0 0 127 0" result="hardAlpha"/>
<feOffset dy="4"/>
<feGaussianBlur stdDeviation="2"/>
<feComposite in2="hardAlpha" operator="arithmetic" k2="-1" k3="1"/>
<feColorMatrix type="matrix" values="0 0 0 0 0 0 0 0 0 0 0 0 0 0 0 0 0 0 0.25 0"/>
<feBlend mode="normal" in2="effect2_innerShadow_2_414" result="effect3_innerShadow_2_414"/>
</filter>
<filter id="filter1_d_2_414" x="600.475" y="52.188" width="332" height="244" filterUnits="userSpaceOnUse" color-interpolation-filters="sRGB">
<feFlood flood-opacity="0" result="BackgroundImageFix"/>
<feColorMatrix in="SourceAlpha" type="matrix" values="0 0 0 0 0 0 0 0 0 0 0 0 0 0 0 0 0 0 127 0" result="hardAlpha"/>
<feOffset dy="6"/>
<feGaussianBlur stdDeviation="2"/>
<feComposite in2="hardAlpha" operator="out"/>
<feColorMatrix type="matrix" values="0 0 0 0 0 0 0 0 0 0 0 0 0 0 0 0 0 0 1 0"/>
<feBlend mode="normal" in2="BackgroundImageFix" result="effect1_dropShadow_2_414"/>
<feBlend mode="normal" in="SourceGraphic" in2="effect1_dropShadow_2_414" result="shape"/>
</filter>
<filter id="filter2_b_2_414" x="621.975" y="227.188" width="285" height="32" filterUnits="userSpaceOnUse" color-interpolation-filters="sRGB">
<feFlood flood-opacity="0" result="BackgroundImageFix"/>
<feGaussianBlur in="BackgroundImageFix" stdDeviation="7.5"/>
<feComposite in2="SourceAlpha" operator="in" result="effect1_backgroundBlur_2_414"/>
<feBlend mode="normal" in="SourceGraphic" in2="effect1_backgroundBlur_2_414" result="shape"/>
</filter>
<filter id="filter3_d_2_414" x="639.555" y="118.96" width="197.348" height="132.628" filterUnits="userSpaceOnUse" color-interpolation-filters="sRGB">
<feFlood flood-opacity="0" result="BackgroundImageFix"/>
<feColorMatrix in="SourceAlpha" type="matrix" values="0 0 0 0 0 0 0 0 0 0 0 0 0 0 0 0 0 0 127 0" result="hardAlpha"/>
<feOffset dy="4"/>
<feGaussianBlur stdDeviation="2"/>
<feComposite in2="hardAlpha" operator="out"/>
<feColorMatrix type="matrix" values="0 0 0 0 0 0 0 0 0 0 0 0 0 0 0 0 0 0 1 0"/>
<feBlend mode="normal" in2="BackgroundImageFix" result="effect1_dropShadow_2_414"/>
<feBlend mode="normal" in="SourceGraphic" in2="effect1_dropShadow_2_414" result="shape"/>
</filter>
<filter id="filter4_i_2_414" x="690.627" y="175.226" width="35.8481" height="192.991" filterUnits="userSpaceOnUse" color-interpolation-filters="sRGB">
<feFlood flood-opacity="0" result="BackgroundImageFix"/>
<feBlend mode="normal" in="SourceGraphic" in2="BackgroundImageFix" result="shape"/>
<feColorMatrix in="SourceAlpha" type="matrix" values="0 0 0 0 0 0 0 0 0 0 0 0 0 0 0 0 0 0 127 0" result="hardAlpha"/>
<feOffset dy="4"/>
<feGaussianBlur stdDeviation="2"/>
<feComposite in2="hardAlpha" operator="arithmetic" k2="-1" k3="1"/>
<feColorMatrix type="matrix" values="0 0 0 0 0 0 0 0 0 0 0 0 0 0 0 0 0 0 1 0"/>
<feBlend mode="normal" in2="shape" result="effect1_innerShadow_2_414"/>
</filter>
<filter id="filter5_di_2_414" x="701.125" y="339.188" width="120.35" height="107" filterUnits="userSpaceOnUse" color-interpolation-filters="sRGB">
<feFlood flood-opacity="0" result="BackgroundImageFix"/>
<feColorMatrix in="SourceAlpha" type="matrix" values="0 0 0 0 0 0 0 0 0 0 0 0 0 0 0 0 0 0 127 0" result="hardAlpha"/>
<feOffset dy="4"/>
<feGaussianBlur stdDeviation="2"/>
<feComposite in2="hardAlpha" operator="out"/>
<feColorMatrix type="matrix" values="0 0 0 0 0 0 0 0 0 0 0 0 0 0 0 0 0 0 1 0"/>
<feBlend mode="normal" in2="BackgroundImageFix" result="effect1_dropShadow_2_414"/>
<feBlend mode="normal" in="SourceGraphic" in2="effect1_dropShadow_2_414" result="shape"/>
<feColorMatrix in="SourceAlpha" type="matrix" values="0 0 0 0 0 0 0 0 0 0 0 0 0 0 0 0 0 0 127 0" result="hardAlpha"/>
<feOffset dy="4"/>
<feGaussianBlur stdDeviation="2"/>
<feComposite in2="hardAlpha" operator="arithmetic" k2="-1" k3="1"/>
<feColorMatrix type="matrix" values="0 0 0 0 0 0 0 0 0 0 0 0 0 0 0 0 0 0 1 0"/>
<feBlend mode="normal" in2="shape" result="effect2_innerShadow_2_414"/>
</filter>
<filter id="filter6_d_2_414" x="603" y="0.321075" width="32.9268" height="32.4014" filterUnits="userSpaceOnUse" color-interpolation-filters="sRGB">
<feFlood flood-opacity="0" result="BackgroundImageFix"/>
<feColorMatrix in="SourceAlpha" type="matrix" values="0 0 0 0 0 0 0 0 0 0 0 0 0 0 0 0 0 0 127 0" result="hardAlpha"/>
<feOffset dy="4"/>
<feGaussianBlur stdDeviation="2"/>
<feComposite in2="hardAlpha" operator="out"/>
<feColorMatrix type="matrix" values="0 0 0 0 0 0 0 0 0 0 0 0 0 0 0 0 0 0 1 0"/>
<feBlend mode="normal" in2="BackgroundImageFix" result="effect1_dropShadow_2_414"/>
<feBlend mode="normal" in="SourceGraphic" in2="effect1_dropShadow_2_414" result="shape"/>
</filter>
<filter id="filter7_d_2_414" x="644.117" y="0" width="83.4326" height="16.3478" filterUnits="userSpaceOnUse" color-interpolation-filters="sRGB">
<feFlood flood-opacity="0" result="BackgroundImageFix"/>
<feColorMatrix in="SourceAlpha" type="matrix" values="0 0 0 0 0 0 0 0 0 0 0 0 0 0 0 0 0 0 127 0" result="hardAlpha"/>
<feOffset dy="4"/>
<feGaussianBlur stdDeviation="2"/>
<feComposite in2="hardAlpha" operator="out"/>
<feColorMatrix type="matrix" values="0 0 0 0 0 0 0 0 0 0 0 0 0 0 0 0 0 0 0.25 0"/>
<feBlend mode="normal" in2="BackgroundImageFix" result="effect1_dropShadow_2_414"/>
<feBlend mode="normal" in="SourceGraphic" in2="effect1_dropShadow_2_414" result="shape"/>
</filter>
<filter id="filter8_d_2_414" x="644.117" y="14.1271" width="135.786" height="16.3478" filterUnits="userSpaceOnUse" color-interpolation-filters="sRGB">
<feFlood flood-opacity="0" result="BackgroundImageFix"/>
<feColorMatrix in="SourceAlpha" type="matrix" values="0 0 0 0 0 0 0 0 0 0 0 0 0 0 0 0 0 0 127 0" result="hardAlpha"/>
<feOffset dy="4"/>
<feGaussianBlur stdDeviation="2"/>
<feComposite in2="hardAlpha" operator="out"/>
<feColorMatrix type="matrix" values="0 0 0 0 0 0 0 0 0 0 0 0 0 0 0 0 0 0 0.25 0"/>
<feBlend mode="normal" in2="BackgroundImageFix" result="effect1_dropShadow_2_414"/>
<feBlend mode="normal" in="SourceGraphic" in2="effect1_dropShadow_2_414" result="shape"/>
</filter>
<filter id="filter9_di_2_414" x="708" y="156" width="114" height="224" filterUnits="userSpaceOnUse" color-interpolation-filters="sRGB">
<feFlood flood-opacity="0" result="BackgroundImageFix"/>
<feColorMatrix in="SourceAlpha" type="matrix" values="0 0 0 0 0 0 0 0 0 0 0 0 0 0 0 0 0 0 127 0" result="hardAlpha"/>
<feOffset dx="1" dy="4"/>
<feGaussianBlur stdDeviation="2"/>
<feComposite in2="hardAlpha" operator="out"/>
<feColorMatrix type="matrix" values="0 0 0 0 0 0 0 0 0 0 0 0 0 0 0 0 0 0 1 0"/>
<feBlend mode="normal" in2="BackgroundImageFix" result="effect1_dropShadow_2_414"/>
<feBlend mode="normal" in="SourceGraphic" in2="effect1_dropShadow_2_414" result="shape"/>
<feColorMatrix in="SourceAlpha" type="matrix" values="0 0 0 0 0 0 0 0 0 0 0 0 0 0 0 0 0 0 127 0" result="hardAlpha"/>
<feOffset dy="4"/>
<feGaussianBlur stdDeviation="2"/>
<feComposite in2="hardAlpha" operator="arithmetic" k2="-1" k3="1"/>
<feColorMatrix type="matrix" values="0 0 0 0 0 0 0 0 0 0 0 0 0 0 0 0 0 0 0.25 0"/>
<feBlend mode="normal" in2="shape" result="effect2_innerShadow_2_414"/>
</filter>
<filter id="filter10_di_2_414" x="727" y="94" width="76.0176" height="74.9807" filterUnits="userSpaceOnUse" color-interpolation-filters="sRGB">
<feFlood flood-opacity="0" result="BackgroundImageFix"/>
<feColorMatrix in="SourceAlpha" type="matrix" values="0 0 0 0 0 0 0 0 0 0 0 0 0 0 0 0 0 0 127 0" result="hardAlpha"/>
<feOffset dy="4"/>
<feGaussianBlur stdDeviation="2"/>
<feComposite in2="hardAlpha" operator="out"/>
<feColorMatrix type="matrix" values="0 0 0 0 0 0 0 0 0 0 0 0 0 0 0 0 0 0 0.25 0"/>
<feBlend mode="normal" in2="BackgroundImageFix" result="effect1_dropShadow_2_414"/>
<feBlend mode="normal" in="SourceGraphic" in2="effect1_dropShadow_2_414" result="shape"/>
<feColorMatrix in="SourceAlpha" type="matrix" values="0 0 0 0 0 0 0 0 0 0 0 0 0 0 0 0 0 0 127 0" result="hardAlpha"/>
<feOffset dy="4"/>
<feGaussianBlur stdDeviation="2"/>
<feComposite in2="hardAlpha" operator="arithmetic" k2="-1" k3="1"/>
<feColorMatrix type="matrix" values="0 0 0 0 0 0 0 0 0 0 0 0 0 0 0 0 0 0 1 0"/>
<feBlend mode="normal" in2="shape" result="effect2_innerShadow_2_414"/>
</filter>
<filter id="filter11_di_2_414" x="785" y="120" width="71.2871" height="144.394" filterUnits="userSpaceOnUse" color-interpolation-filters="sRGB">
<feFlood flood-opacity="0" result="BackgroundImageFix"/>
<feColorMatrix in="SourceAlpha" type="matrix" values="0 0 0 0 0 0 0 0 0 0 0 0 0 0 0 0 0 0 127 0" result="hardAlpha"/>
<feOffset dy="4"/>
<feGaussianBlur stdDeviation="2"/>
<feComposite in2="hardAlpha" operator="out"/>
<feColorMatrix type="matrix" values="0 0 0 0 0 0 0 0 0 0 0 0 0 0 0 0 0 0 1 0"/>
<feBlend mode="normal" in2="BackgroundImageFix" result="effect1_dropShadow_2_414"/>
<feBlend mode="normal" in="SourceGraphic" in2="effect1_dropShadow_2_414" result="shape"/>
<feColorMatrix in="SourceAlpha" type="matrix" values="0 0 0 0 0 0 0 0 0 0 0 0 0 0 0 0 0 0 127 0" result="hardAlpha"/>
<feOffset dy="4"/>
<feGaussianBlur stdDeviation="2"/>
<feComposite in2="hardAlpha" operator="arithmetic" k2="-1" k3="1"/>
<feColorMatrix type="matrix" values="0 0 0 0 0 0 0 0 0 0 0 0 0 0 0 0 0 0 0.25 0"/>
<feBlend mode="normal" in2="shape" result="effect2_innerShadow_2_414"/>
</filter>
<filter id="filter12_i_2_414" x="870.415" y="396.922" width="67.5762" height="96.0785" filterUnits="userSpaceOnUse" color-interpolation-filters="sRGB">
<feFlood flood-opacity="0" result="BackgroundImageFix"/>
<feBlend mode="normal" in="SourceGraphic" in2="BackgroundImageFix" result="shape"/>
<feColorMatrix in="SourceAlpha" type="matrix" values="0 0 0 0 0 0 0 0 0 0 0 0 0 0 0 0 0 0 127 0" result="hardAlpha"/>
<feOffset dy="4"/>
<feGaussianBlur stdDeviation="2"/>
<feComposite in2="hardAlpha" operator="arithmetic" k2="-1" k3="1"/>
<feColorMatrix type="matrix" values="0 0 0 0 0 0 0 0 0 0 0 0 0 0 0 0 0 0 0.25 0"/>
<feBlend mode="normal" in2="shape" result="effect1_innerShadow_2_414"/>
</filter>
<filter id="filter13_i_2_414" x="1117.22" y="229.93" width="82.3511" height="86.7264" filterUnits="userSpaceOnUse" color-interpolation-filters="sRGB">
<feFlood flood-opacity="0" result="BackgroundImageFix"/>
<feBlend mode="normal" in="SourceGraphic" in2="BackgroundImageFix" result="shape"/>
<feColorMatrix in="SourceAlpha" type="matrix" values="0 0 0 0 0 0 0 0 0 0 0 0 0 0 0 0 0 0 127 0" result="hardAlpha"/>
<feOffset dy="4"/>
<feGaussianBlur stdDeviation="2"/>
<feComposite in2="hardAlpha" operator="arithmetic" k2="-1" k3="1"/>
<feColorMatrix type="matrix" values="0 0 0 0 0 0 0 0 0 0 0 0 0 0 0 0 0 0 1 0"/>
<feBlend mode="normal" in2="shape" result="effect1_innerShadow_2_414"/>
</filter>
<filter id="filter14_i_2_414" x="1192.79" y="381.608" width="4.32568" height="110.396" filterUnits="userSpaceOnUse" color-interpolation-filters="sRGB">
<feFlood flood-opacity="0" result="BackgroundImageFix"/>
<feBlend mode="normal" in="SourceGraphic" in2="BackgroundImageFix" result="shape"/>
<feColorMatrix in="SourceAlpha" type="matrix" values="0 0 0 0 0 0 0 0 0 0 0 0 0 0 0 0 0 0 127 0" result="hardAlpha"/>
<feOffset dy="4"/>
<feGaussianBlur stdDeviation="2"/>
<feComposite in2="hardAlpha" operator="arithmetic" k2="-1" k3="1"/>
<feColorMatrix type="matrix" values="0 0 0 0 0 0 0 0 0 0 0 0 0 0 0 0 0 0 1 0"/>
<feBlend mode="normal" in2="shape" result="effect1_innerShadow_2_414"/>
</filter>
<filter id="filter15_i_2_414" x="1172.03" y="381.608" width="4.32568" height="110.396" filterUnits="userSpaceOnUse" color-interpolation-filters="sRGB">
<feFlood flood-opacity="0" result="BackgroundImageFix"/>
<feBlend mode="normal" in="SourceGraphic" in2="BackgroundImageFix" result="shape"/>
<feColorMatrix in="SourceAlpha" type="matrix" values="0 0 0 0 0 0 0 0 0 0 0 0 0 0 0 0 0 0 127 0" result="hardAlpha"/>
<feOffset dy="4"/>
<feGaussianBlur stdDeviation="2"/>
<feComposite in2="hardAlpha" operator="arithmetic" k2="-1" k3="1"/>
<feColorMatrix type="matrix" values="0 0 0 0 0 0 0 0 0 0 0 0 0 0 0 0 0 0 1 0"/>
<feBlend mode="normal" in2="shape" result="effect1_innerShadow_2_414"/>
</filter>
<filter id="filter16_d_2_414" x="1051.68" y="314.652" width="12.3257" height="181.352" filterUnits="userSpaceOnUse" color-interpolation-filters="sRGB">
<feFlood flood-opacity="0" result="BackgroundImageFix"/>
<feColorMatrix in="SourceAlpha" type="matrix" values="0 0 0 0 0 0 0 0 0 0 0 0 0 0 0 0 0 0 127 0" result="hardAlpha"/>
<feOffset dy="4"/>
<feGaussianBlur stdDeviation="2"/>
<feComposite in2="hardAlpha" operator="out"/>
<feColorMatrix type="matrix" values="0 0 0 0 0 0 0 0 0 0 0 0 0 0 0 0 0 0 1 0"/>
<feBlend mode="normal" in2="BackgroundImageFix" result="effect1_dropShadow_2_414"/>
<feBlend mode="normal" in="SourceGraphic" in2="effect1_dropShadow_2_414" result="shape"/>
</filter>
<filter id="filter17_i_2_414" x="1125.32" y="381.608" width="4.32568" height="110.396" filterUnits="userSpaceOnUse" color-interpolation-filters="sRGB">
<feFlood flood-opacity="0" result="BackgroundImageFix"/>
<feBlend mode="normal" in="SourceGraphic" in2="BackgroundImageFix" result="shape"/>
<feColorMatrix in="SourceAlpha" type="matrix" values="0 0 0 0 0 0 0 0 0 0 0 0 0 0 0 0 0 0 127 0" result="hardAlpha"/>
<feOffset dy="12"/>
<feGaussianBlur stdDeviation="2"/>
<feComposite in2="hardAlpha" operator="arithmetic" k2="-1" k3="1"/>
<feColorMatrix type="matrix" values="0 0 0 0 0 0 0 0 0 0 0 0 0 0 0 0 0 0 1 0"/>
<feBlend mode="normal" in2="shape" result="effect1_innerShadow_2_414"/>
</filter>
<filter id="filter18_i_2_414" x="1108.76" y="381.608" width="4.32568" height="110.396" filterUnits="userSpaceOnUse" color-interpolation-filters="sRGB">
<feFlood flood-opacity="0" result="BackgroundImageFix"/>
<feBlend mode="normal" in="SourceGraphic" in2="BackgroundImageFix" result="shape"/>
<feColorMatrix in="SourceAlpha" type="matrix" values="0 0 0 0 0 0 0 0 0 0 0 0 0 0 0 0 0 0 127 0" result="hardAlpha"/>
<feOffset dy="4"/>
<feGaussianBlur stdDeviation="2"/>
<feComposite in2="hardAlpha" operator="arithmetic" k2="-1" k3="1"/>
<feColorMatrix type="matrix" values="0 0 0 0 0 0 0 0 0 0 0 0 0 0 0 0 0 0 1 0"/>
<feBlend mode="normal" in2="shape" result="effect1_innerShadow_2_414"/>
</filter>
<filter id="filter19_i_2_414" x="985.66" y="279.393" width="50.6704" height="21.4755" filterUnits="userSpaceOnUse" color-interpolation-filters="sRGB">
<feFlood flood-opacity="0" result="BackgroundImageFix"/>
<feBlend mode="normal" in="SourceGraphic" in2="BackgroundImageFix" result="shape"/>
<feColorMatrix in="SourceAlpha" type="matrix" values="0 0 0 0 0 0 0 0 0 0 0 0 0 0 0 0 0 0 127 0" result="hardAlpha"/>
<feOffset dy="4"/>
<feGaussianBlur stdDeviation="2"/>
<feComposite in2="hardAlpha" operator="arithmetic" k2="-1" k3="1"/>
<feColorMatrix type="matrix" values="0 0 0 0 0 0 0 0 0 0 0 0 0 0 0 0 0 0 0.25 0"/>
<feBlend mode="normal" in2="shape" result="effect1_innerShadow_2_414"/>
</filter>
<filter id="filter20_i_2_414" x="971.917" y="276.812" width="65.3477" height="39.0886" filterUnits="userSpaceOnUse" color-interpolation-filters="sRGB">
<feFlood flood-opacity="0" result="BackgroundImageFix"/>
<feBlend mode="normal" in="SourceGraphic" in2="BackgroundImageFix" result="shape"/>
<feColorMatrix in="SourceAlpha" type="matrix" values="0 0 0 0 0 0 0 0 0 0 0 0 0 0 0 0 0 0 127 0" result="hardAlpha"/>
<feOffset dy="4"/>
<feGaussianBlur stdDeviation="2"/>
<feComposite in2="hardAlpha" operator="arithmetic" k2="-1" k3="1"/>
<feColorMatrix type="matrix" values="0 0 0 0 0 0 0 0 0 0 0 0 0 0 0 0 0 0 0.9 0"/>
<feBlend mode="normal" in2="shape" result="effect1_innerShadow_2_414"/>
</filter>
<filter id="filter21_i_2_414" x="986.38" y="286.572" width="50.8853" height="24.2234" filterUnits="userSpaceOnUse" color-interpolation-filters="sRGB">
<feFlood flood-opacity="0" result="BackgroundImageFix"/>
<feBlend mode="normal" in="SourceGraphic" in2="BackgroundImageFix" result="shape"/>
<feColorMatrix in="SourceAlpha" type="matrix" values="0 0 0 0 0 0 0 0 0 0 0 0 0 0 0 0 0 0 127 0" result="hardAlpha"/>
<feOffset dy="4"/>
<feGaussianBlur stdDeviation="2"/>
<feComposite in2="hardAlpha" operator="arithmetic" k2="-1" k3="1"/>
<feColorMatrix type="matrix" values="0 0 0 0 0 0 0 0 0 0 0 0 0 0 0 0 0 0 0.25 0"/>
<feBlend mode="normal" in2="shape" result="effect1_innerShadow_2_414"/>
</filter>
<filter id="filter22_d_2_414" x="1009.5" y="272.647" width="183.062" height="124.041" filterUnits="userSpaceOnUse" color-interpolation-filters="sRGB">
<feFlood flood-opacity="0" result="BackgroundImageFix"/>
<feColorMatrix in="SourceAlpha" type="matrix" values="0 0 0 0 0 0 0 0 0 0 0 0 0 0 0 0 0 0 127 0" result="hardAlpha"/>
<feOffset dy="4"/>
<feGaussianBlur stdDeviation="2"/>
<feComposite in2="hardAlpha" operator="out"/>
<feColorMatrix type="matrix" values="0 0 0 0 0 0 0 0 0 0 0 0 0 0 0 0 0 0 0.9 0"/>
<feBlend mode="normal" in2="BackgroundImageFix" result="effect1_dropShadow_2_414"/>
<feBlend mode="normal" in="SourceGraphic" in2="effect1_dropShadow_2_414" result="shape"/>
</filter>
<filter id="filter23_d_2_414" x="895.529" y="310.983" width="184.911" height="185.021" filterUnits="userSpaceOnUse" color-interpolation-filters="sRGB">
<feFlood flood-opacity="0" result="BackgroundImageFix"/>
<feColorMatrix in="SourceAlpha" type="matrix" values="0 0 0 0 0 0 0 0 0 0 0 0 0 0 0 0 0 0 127 0" result="hardAlpha"/>
<feOffset dy="4"/>
<feGaussianBlur stdDeviation="2"/>
<feComposite in2="hardAlpha" operator="out"/>
<feColorMatrix type="matrix" values="0 0 0 0 0 0 0 0 0 0 0 0 0 0 0 0 0 0 0.9 0"/>
<feBlend mode="normal" in2="BackgroundImageFix" result="effect1_dropShadow_2_414"/>
<feBlend mode="normal" in="SourceGraphic" in2="effect1_dropShadow_2_414" result="shape"/>
</filter>
<filter id="filter24_i_2_414" x="1177.22" y="225.683" width="46.7148" height="53.5292" filterUnits="userSpaceOnUse" color-interpolation-filters="sRGB">
<feFlood flood-opacity="0" result="BackgroundImageFix"/>
<feBlend mode="normal" in="SourceGraphic" in2="BackgroundImageFix" result="shape"/>
<feColorMatrix in="SourceAlpha" type="matrix" values="0 0 0 0 0 0 0 0 0 0 0 0 0 0 0 0 0 0 127 0" result="hardAlpha"/>
<feOffset dy="4"/>
<feGaussianBlur stdDeviation="2"/>
<feComposite in2="hardAlpha" operator="arithmetic" k2="-1" k3="1"/>
<feColorMatrix type="matrix" values="0 0 0 0 0 0 0 0 0 0 0 0 0 0 0 0 0 0 0.8 0"/>
<feBlend mode="normal" in2="shape" result="effect1_innerShadow_2_414"/>
</filter>
<filter id="filter25_i_2_414" x="1123.05" y="307.117" width="89.209" height="78.1935" filterUnits="userSpaceOnUse" color-interpolation-filters="sRGB">
<feFlood flood-opacity="0" result="BackgroundImageFix"/>
<feBlend mode="normal" in="SourceGraphic" in2="BackgroundImageFix" result="shape"/>
<feColorMatrix in="SourceAlpha" type="matrix" values="0 0 0 0 0 0 0 0 0 0 0 0 0 0 0 0 0 0 127 0" result="hardAlpha"/>
<feOffset dy="4"/>
<feGaussianBlur stdDeviation="2"/>
<feComposite in2="hardAlpha" operator="arithmetic" k2="-1" k3="1"/>
<feColorMatrix type="matrix" values="0 0 0 0 0 0 0 0 0 0 0 0 0 0 0 0 0 0 0.5 0"/>
<feBlend mode="normal" in2="shape" result="effect1_innerShadow_2_414"/>
</filter>
<filter id="filter26_i_2_414" x="1132.18" y="329.327" width="50.6621" height="55.9834" filterUnits="userSpaceOnUse" color-interpolation-filters="sRGB">
<feFlood flood-opacity="0" result="BackgroundImageFix"/>
<feBlend mode="normal" in="SourceGraphic" in2="BackgroundImageFix" result="shape"/>
<feColorMatrix in="SourceAlpha" type="matrix" values="0 0 0 0 0 0 0 0 0 0 0 0 0 0 0 0 0 0 127 0" result="hardAlpha"/>
<feOffset dy="4"/>
<feGaussianBlur stdDeviation="2"/>
<feComposite in2="hardAlpha" operator="arithmetic" k2="-1" k3="1"/>
<feColorMatrix type="matrix" values="0 0 0 0 0 0 0 0 0 0 0 0 0 0 0 0 0 0 0.8 0"/>
<feBlend mode="normal" in2="shape" result="effect1_innerShadow_2_414"/>
</filter>
<filter id="filter27_d_2_414" x="1069.12" y="286.957" width="177.419" height="150.753" filterUnits="userSpaceOnUse" color-interpolation-filters="sRGB">
<feFlood flood-opacity="0" result="BackgroundImageFix"/>
<feColorMatrix in="SourceAlpha" type="matrix" values="0 0 0 0 0 0 0 0 0 0 0 0 0 0 0 0 0 0 127 0" result="hardAlpha"/>
<feOffset dy="5"/>
<feGaussianBlur stdDeviation="9.5"/>
<feComposite in2="hardAlpha" operator="out"/>
<feColorMatrix type="matrix" values="0 0 0 0 0 0 0 0 0 0 0 0 0 0 0 0 0 0 1 0"/>
<feBlend mode="normal" in2="BackgroundImageFix" result="effect1_dropShadow_2_414"/>
<feBlend mode="normal" in="SourceGraphic" in2="effect1_dropShadow_2_414" result="shape"/>
</filter>
<filter id="filter28_d_2_414" x="301.804" y="58" width="111.471" height="372.641" filterUnits="userSpaceOnUse" color-interpolation-filters="sRGB">
<feFlood flood-opacity="0" result="BackgroundImageFix"/>
<feColorMatrix in="SourceAlpha" type="matrix" values="0 0 0 0 0 0 0 0 0 0 0 0 0 0 0 0 0 0 127 0" result="hardAlpha"/>
<feOffset dy="4"/>
<feGaussianBlur stdDeviation="2"/>
<feComposite in2="hardAlpha" operator="out"/>
<feColorMatrix type="matrix" values="0 0 0 0 0 0 0 0 0 0 0 0 0 0 0 0 0 0 1 0"/>
<feBlend mode="normal" in2="BackgroundImageFix" result="effect1_dropShadow_2_414"/>
<feBlend mode="normal" in="SourceGraphic" in2="effect1_dropShadow_2_414" result="shape"/>
</filter>
<filter id="filter29_i_2_414" x="296.054" y="131.329" width="24.8184" height="28.9635" filterUnits="userSpaceOnUse" color-interpolation-filters="sRGB">
<feFlood flood-opacity="0" result="BackgroundImageFix"/>
<feBlend mode="normal" in="SourceGraphic" in2="BackgroundImageFix" result="shape"/>
<feColorMatrix in="SourceAlpha" type="matrix" values="0 0 0 0 0 0 0 0 0 0 0 0 0 0 0 0 0 0 127 0" result="hardAlpha"/>
<feOffset dy="4"/>
<feGaussianBlur stdDeviation="2"/>
<feComposite in2="hardAlpha" operator="arithmetic" k2="-1" k3="1"/>
<feColorMatrix type="matrix" values="0 0 0 0 0 0 0 0 0 0 0 0 0 0 0 0 0 0 1 0"/>
<feBlend mode="normal" in2="shape" result="effect1_innerShadow_2_414"/>
</filter>
<filter id="filter30_d_2_414" x="278.305" y="137.92" width="25.7495" height="49.0985" filterUnits="userSpaceOnUse" color-interpolation-filters="sRGB">
<feFlood flood-opacity="0" result="BackgroundImageFix"/>
<feColorMatrix in="SourceAlpha" type="matrix" values="0 0 0 0 0 0 0 0 0 0 0 0 0 0 0 0 0 0 127 0" result="hardAlpha"/>
<feOffset dy="4"/>
<feGaussianBlur stdDeviation="4"/>
<feComposite in2="hardAlpha" operator="out"/>
<feColorMatrix type="matrix" values="0 0 0 0 0 0 0 0 0 0 0 0 0 0 0 0 0 0 1 0"/>
<feBlend mode="normal" in2="BackgroundImageFix" result="effect1_dropShadow_2_414"/>
<feBlend mode="normal" in="SourceGraphic" in2="effect1_dropShadow_2_414" result="shape"/>
</filter>
<filter id="filter31_i_2_414" x="271.679" y="103.245" width="74.4553" height="45.0115" filterUnits="userSpaceOnUse" color-interpolation-filters="sRGB">
<feFlood flood-opacity="0" result="BackgroundImageFix"/>
<feBlend mode="normal" in="SourceGraphic" in2="BackgroundImageFix" result="shape"/>
<feColorMatrix in="SourceAlpha" type="matrix" values="0 0 0 0 0 0 0 0 0 0 0 0 0 0 0 0 0 0 127 0" result="hardAlpha"/>
<feOffset dy="4"/>
<feGaussianBlur stdDeviation="2"/>
<feComposite in2="hardAlpha" operator="arithmetic" k2="-1" k3="1"/>
<feColorMatrix type="matrix" values="0 0 0 0 0 0 0 0 0 0 0 0 0 0 0 0 0 0 1 0"/>
<feBlend mode="normal" in2="shape" result="effect1_innerShadow_2_414"/>
</filter>
<filter id="filter32_di_2_414" x="123.311" y="165.278" width="267.64" height="278.937" filterUnits="userSpaceOnUse" color-interpolation-filters="sRGB">
<feFlood flood-opacity="0" result="BackgroundImageFix"/>
<feColorMatrix in="SourceAlpha" type="matrix" values="0 0 0 0 0 0 0 0 0 0 0 0 0 0 0 0 0 0 127 0" result="hardAlpha"/>
<feOffset dy="4"/>
<feGaussianBlur stdDeviation="2"/>
<feComposite in2="hardAlpha" operator="out"/>
<feColorMatrix type="matrix" values="0 0 0 0 0 0 0 0 0 0 0 0 0 0 0 0 0 0 1 0"/>
<feBlend mode="normal" in2="BackgroundImageFix" result="effect1_dropShadow_2_414"/>
<feBlend mode="normal" in="SourceGraphic" in2="effect1_dropShadow_2_414" result="shape"/>
<feColorMatrix in="SourceAlpha" type="matrix" values="0 0 0 0 0 0 0 0 0 0 0 0 0 0 0 0 0 0 127 0" result="hardAlpha"/>
<feOffset dy="4"/>
<feGaussianBlur stdDeviation="2"/>
<feComposite in2="hardAlpha" operator="arithmetic" k2="-1" k3="1"/>
<feColorMatrix type="matrix" values="0 0 0 0 0 0 0 0 0 0 0 0 0 0 0 0 0 0 1 0"/>
<feBlend mode="normal" in2="shape" result="effect2_innerShadow_2_414"/>
</filter>
<filter id="filter33_i_2_414" x="385.544" y="338.344" width="29.4561" height="16.3121" filterUnits="userSpaceOnUse" color-interpolation-filters="sRGB">
<feFlood flood-opacity="0" result="BackgroundImageFix"/>
<feBlend mode="normal" in="SourceGraphic" in2="BackgroundImageFix" result="shape"/>
<feColorMatrix in="SourceAlpha" type="matrix" values="0 0 0 0 0 0 0 0 0 0 0 0 0 0 0 0 0 0 127 0" result="hardAlpha"/>
<feOffset dy="4"/>
<feGaussianBlur stdDeviation="2"/>
<feComposite in2="hardAlpha" operator="arithmetic" k2="-1" k3="1"/>
<feColorMatrix type="matrix" values="0 0 0 0 0 0 0 0 0 0 0 0 0 0 0 0 0 0 0.8 0"/>
<feBlend mode="normal" in2="shape" result="effect1_innerShadow_2_414"/>
</filter>
<filter id="filter34_i_2_414" x="409.173" y="328.386" width="19.3667" height="30.7718" filterUnits="userSpaceOnUse" color-interpolation-filters="sRGB">
<feFlood flood-opacity="0" result="BackgroundImageFix"/>
<feBlend mode="normal" in="SourceGraphic" in2="BackgroundImageFix" result="shape"/>
<feColorMatrix in="SourceAlpha" type="matrix" values="0 0 0 0 0 0 0 0 0 0 0 0 0 0 0 0 0 0 127 0" result="hardAlpha"/>
<feOffset dy="4"/>
<feGaussianBlur stdDeviation="2"/>
<feComposite in2="hardAlpha" operator="arithmetic" k2="-1" k3="1"/>
<feColorMatrix type="matrix" values="0 0 0 0 0 0 0 0 0 0 0 0 0 0 0 0 0 0 0.25 0"/>
<feBlend mode="normal" in2="shape" result="effect1_innerShadow_2_414"/>
</filter>
<filter id="filter35_i_2_414" x="251.258" y="315.659" width="151.401" height="44.7339" filterUnits="userSpaceOnUse" color-interpolation-filters="sRGB">
<feFlood flood-opacity="0" result="BackgroundImageFix"/>
<feBlend mode="normal" in="SourceGraphic" in2="BackgroundImageFix" result="shape"/>
<feColorMatrix in="SourceAlpha" type="matrix" values="0 0 0 0 0 0 0 0 0 0 0 0 0 0 0 0 0 0 127 0" result="hardAlpha"/>
<feOffset dy="4"/>
<feGaussianBlur stdDeviation="2"/>
<feComposite in2="hardAlpha" operator="arithmetic" k2="-1" k3="1"/>
<feColorMatrix type="matrix" values="0 0 0 0 0 0 0 0 0 0 0 0 0 0 0 0 0 0 1 0"/>
<feBlend mode="normal" in2="shape" result="effect1_innerShadow_2_414"/>
</filter>
<filter id="filter36_i_2_414" x="351.823" y="318.612" width="26.0066" height="32.7041" filterUnits="userSpaceOnUse" color-interpolation-filters="sRGB">
<feFlood flood-opacity="0" result="BackgroundImageFix"/>
<feBlend mode="normal" in="SourceGraphic" in2="BackgroundImageFix" result="shape"/>
<feColorMatrix in="SourceAlpha" type="matrix" values="0 0 0 0 0 0 0 0 0 0 0 0 0 0 0 0 0 0 127 0" result="hardAlpha"/>
<feOffset dy="4"/>
<feGaussianBlur stdDeviation="2"/>
<feComposite in2="hardAlpha" operator="arithmetic" k2="-1" k3="1"/>
<feColorMatrix type="matrix" values="0 0 0 0 0 0 0 0 0 0 0 0 0 0 0 0 0 0 1 0"/>
<feBlend mode="normal" in2="shape" result="effect1_innerShadow_2_414"/>
</filter>
<filter id="filter37_i_2_414" x="214.964" y="277.048" width="155.501" height="83.3677" filterUnits="userSpaceOnUse" color-interpolation-filters="sRGB">
<feFlood flood-opacity="0" result="BackgroundImageFix"/>
<feBlend mode="normal" in="SourceGraphic" in2="BackgroundImageFix" result="shape"/>
<feColorMatrix in="SourceAlpha" type="matrix" values="0 0 0 0 0 0 0 0 0 0 0 0 0 0 0 0 0 0 127 0" result="hardAlpha"/>
<feOffset dy="4"/>
<feGaussianBlur stdDeviation="2.5"/>
<feComposite in2="hardAlpha" operator="arithmetic" k2="-1" k3="1"/>
<feColorMatrix type="matrix" values="0 0 0 0 0 0 0 0 0 0 0 0 0 0 0 0 0 0 1 0"/>
<feBlend mode="normal" in2="shape" result="effect1_innerShadow_2_414"/>
</filter>
<filter id="filter38_di_2_414" x="200.325" y="216.515" width="55.3506" height="96.7348" filterUnits="userSpaceOnUse" color-interpolation-filters="sRGB">
<feFlood flood-opacity="0" result="BackgroundImageFix"/>
<feColorMatrix in="SourceAlpha" type="matrix" values="0 0 0 0 0 0 0 0 0 0 0 0 0 0 0 0 0 0 127 0" result="hardAlpha"/>
<feOffset dy="4"/>
<feGaussianBlur stdDeviation="2"/>
<feComposite in2="hardAlpha" operator="out"/>
<feColorMatrix type="matrix" values="0 0 0 0 0 0 0 0 0 0 0 0 0 0 0 0 0 0 1 0"/>
<feBlend mode="normal" in2="BackgroundImageFix" result="effect1_dropShadow_2_414"/>
<feBlend mode="normal" in="SourceGraphic" in2="effect1_dropShadow_2_414" result="shape"/>
<feColorMatrix in="SourceAlpha" type="matrix" values="0 0 0 0 0 0 0 0 0 0 0 0 0 0 0 0 0 0 127 0" result="hardAlpha"/>
<feOffset dy="4"/>
<feGaussianBlur stdDeviation="2"/>
<feComposite in2="hardAlpha" operator="arithmetic" k2="-1" k3="1"/>
<feColorMatrix type="matrix" values="0 0 0 0 0 0 0 0 0 0 0 0 0 0 0 0 0 0 1 0"/>
<feBlend mode="normal" in2="shape" result="effect2_innerShadow_2_414"/>
</filter>
<filter id="filter39_i_2_414" x="258.556" y="219.341" width="55.1431" height="69.8424" filterUnits="userSpaceOnUse" color-interpolation-filters="sRGB">
<feFlood flood-opacity="0" result="BackgroundImageFix"/>
<feBlend mode="normal" in="SourceGraphic" in2="BackgroundImageFix" result="shape"/>
<feColorMatrix in="SourceAlpha" type="matrix" values="0 0 0 0 0 0 0 0 0 0 0 0 0 0 0 0 0 0 127 0" result="hardAlpha"/>
<feOffset dy="4"/>
<feGaussianBlur stdDeviation="2"/>
<feComposite in2="hardAlpha" operator="arithmetic" k2="-1" k3="1"/>
<feColorMatrix type="matrix" values="0 0 0 0 0 0 0 0 0 0 0 0 0 0 0 0 0 0 1 0"/>
<feBlend mode="normal" in2="shape" result="effect1_innerShadow_2_414"/>
</filter>
<filter id="filter40_d_2_414" x="217.74" y="179.635" width="44.8142" height="45.0292" filterUnits="userSpaceOnUse" color-interpolation-filters="sRGB">
<feFlood flood-opacity="0" result="BackgroundImageFix"/>
<feColorMatrix in="SourceAlpha" type="matrix" values="0 0 0 0 0 0 0 0 0 0 0 0 0 0 0 0 0 0 127 0" result="hardAlpha"/>
<feOffset dy="4"/>
<feGaussianBlur stdDeviation="2"/>
<feComposite in2="hardAlpha" operator="out"/>
<feColorMatrix type="matrix" values="0 0 0 0 0 0 0 0 0 0 0 0 0 0 0 0 0 0 1 0"/>
<feBlend mode="normal" in2="BackgroundImageFix" result="effect1_dropShadow_2_414"/>
<feBlend mode="normal" in="SourceGraphic" in2="effect1_dropShadow_2_414" result="shape"/>
</filter>
<filter id="filter41_di_2_414" x="172.676" y="169.135" width="94.4609" height="70.96" filterUnits="userSpaceOnUse" color-interpolation-filters="sRGB">
<feFlood flood-opacity="0" result="BackgroundImageFix"/>
<feColorMatrix in="SourceAlpha" type="matrix" values="0 0 0 0 0 0 0 0 0 0 0 0 0 0 0 0 0 0 127 0" result="hardAlpha"/>
<feOffset dy="4"/>
<feGaussianBlur stdDeviation="2"/>
<feComposite in2="hardAlpha" operator="out"/>
<feColorMatrix type="matrix" values="0 0 0 0 0 0 0 0 0 0 0 0 0 0 0 0 0 0 1 0"/>
<feBlend mode="normal" in2="BackgroundImageFix" result="effect1_dropShadow_2_414"/>
<feBlend mode="normal" in="SourceGraphic" in2="effect1_dropShadow_2_414" result="shape"/>
<feColorMatrix in="SourceAlpha" type="matrix" values="0 0 0 0 0 0 0 0 0 0 0 0 0 0 0 0 0 0 127 0" result="hardAlpha"/>
<feOffset dy="4"/>
<feGaussianBlur stdDeviation="2"/>
<feComposite in2="hardAlpha" operator="arithmetic" k2="-1" k3="1"/>
<feColorMatrix type="matrix" values="0 0 0 0 0 0 0 0 0 0 0 0 0 0 0 0 0 0 1 0"/>
<feBlend mode="normal" in2="shape" result="effect2_innerShadow_2_414"/>
</filter>
<filter id="filter42_d_2_414" x="75.0046" y="236.602" width="54.8799" height="92.0759" filterUnits="userSpaceOnUse" color-interpolation-filters="sRGB">
<feFlood flood-opacity="0" result="BackgroundImageFix"/>
<feColorMatrix in="SourceAlpha" type="matrix" values="0 0 0 0 0 0 0 0 0 0 0 0 0 0 0 0 0 0 127 0" result="hardAlpha"/>
<feOffset dy="4"/>
<feGaussianBlur stdDeviation="2"/>
<feComposite in2="hardAlpha" operator="out"/>
<feColorMatrix type="matrix" values="0 0 0 0 0 0 0 0 0 0 0 0 0 0 0 0 0 0 0.7 0"/>
<feBlend mode="normal" in2="BackgroundImageFix" result="effect1_dropShadow_2_414"/>
<feBlend mode="normal" in="SourceGraphic" in2="effect1_dropShadow_2_414" result="shape"/>
</filter>
<filter id="filter43_di_2_414" x="215.834" y="234.92" width="68.7351" height="67.2797" filterUnits="userSpaceOnUse" color-interpolation-filters="sRGB">
<feFlood flood-opacity="0" result="BackgroundImageFix"/>
<feColorMatrix in="SourceAlpha" type="matrix" values="0 0 0 0 0 0 0 0 0 0 0 0 0 0 0 0 0 0 127 0" result="hardAlpha"/>
<feOffset dy="4"/>
<feGaussianBlur stdDeviation="2"/>
<feComposite in2="hardAlpha" operator="out"/>
<feColorMatrix type="matrix" values="0 0 0 0 0 0 0 0 0 0 0 0 0 0 0 0 0 0 1 0"/>
<feBlend mode="normal" in2="BackgroundImageFix" result="effect1_dropShadow_2_414"/>
<feBlend mode="normal" in="SourceGraphic" in2="effect1_dropShadow_2_414" result="shape"/>
<feColorMatrix in="SourceAlpha" type="matrix" values="0 0 0 0 0 0 0 0 0 0 0 0 0 0 0 0 0 0 127 0" result="hardAlpha"/>
<feOffset dy="4"/>
<feGaussianBlur stdDeviation="2"/>
<feComposite in2="hardAlpha" operator="arithmetic" k2="-1" k3="1"/>
<feColorMatrix type="matrix" values="0 0 0 0 0 0 0 0 0 0 0 0 0 0 0 0 0 0 1 0"/>
<feBlend mode="normal" in2="shape" result="effect2_innerShadow_2_414"/>
</filter>
<filter id="filter44_d_2_414" x="349.668" y="421.975" width="116.137" height="22.2648" filterUnits="userSpaceOnUse" color-interpolation-filters="sRGB">
<feFlood flood-opacity="0" result="BackgroundImageFix"/>
<feColorMatrix in="SourceAlpha" type="matrix" values="0 0 0 0 0 0 0 0 0 0 0 0 0 0 0 0 0 0 127 0" result="hardAlpha"/>
<feOffset dy="4"/>
<feGaussianBlur stdDeviation="2"/>
<feComposite in2="hardAlpha" operator="out"/>
<feColorMatrix type="matrix" values="0 0 0 0 0 0 0 0 0 0 0 0 0 0 0 0 0 0 1 0"/>
<feBlend mode="normal" in2="BackgroundImageFix" result="effect1_dropShadow_2_414"/>
<feBlend mode="normal" in="SourceGraphic" in2="effect1_dropShadow_2_414" result="shape"/>
</filter>
<filter id="filter45_d_2_414" x="44" y="347" width="190" height="99" filterUnits="userSpaceOnUse" color-interpolation-filters="sRGB">
<feFlood flood-opacity="0" result="BackgroundImageFix"/>
<feColorMatrix in="SourceAlpha" type="matrix" values="0 0 0 0 0 0 0 0 0 0 0 0 0 0 0 0 0 0 127 0" result="hardAlpha"/>
<feOffset dy="4"/>
<feGaussianBlur stdDeviation="2"/>
<feComposite in2="hardAlpha" operator="out"/>
<feColorMatrix type="matrix" values="0 0 0 0 0 0 0 0 0 0 0 0 0 0 0 0 0 0 0.25 0"/>
<feBlend mode="normal" in2="BackgroundImageFix" result="effect1_dropShadow_2_414"/>
<feBlend mode="normal" in="SourceGraphic" in2="effect1_dropShadow_2_414" result="shape"/>
</filter>
<filter id="filter46_d_2_414" x="73.1375" y="317.773" width="75.0271" height="43.5524" filterUnits="userSpaceOnUse" color-interpolation-filters="sRGB">
<feFlood flood-opacity="0" result="BackgroundImageFix"/>
<feColorMatrix in="SourceAlpha" type="matrix" values="0 0 0 0 0 0 0 0 0 0 0 0 0 0 0 0 0 0 127 0" result="hardAlpha"/>
<feOffset dy="4"/>
<feGaussianBlur stdDeviation="2"/>
<feComposite in2="hardAlpha" operator="out"/>
<feColorMatrix type="matrix" values="0 0 0 0 0 0 0 0 0 0 0 0 0 0 0 0 0 0 0.25 0"/>
<feBlend mode="normal" in2="BackgroundImageFix" result="effect1_dropShadow_2_414"/>
<feBlend mode="normal" in="SourceGraphic" in2="effect1_dropShadow_2_414" result="shape"/>
</filter>
<filter id="filter47_di_2_414" x="167.978" y="315.88" width="44.1653" height="45.7107" filterUnits="userSpaceOnUse" color-interpolation-filters="sRGB">
<feFlood flood-opacity="0" result="BackgroundImageFix"/>
<feColorMatrix in="SourceAlpha" type="matrix" values="0 0 0 0 0 0 0 0 0 0 0 0 0 0 0 0 0 0 127 0" result="hardAlpha"/>
<feOffset dy="4"/>
<feGaussianBlur stdDeviation="2"/>
<feComposite in2="hardAlpha" operator="out"/>
<feColorMatrix type="matrix" values="0 0 0 0 0 0 0 0 0 0 0 0 0 0 0 0 0 0 0.2 0"/>
<feBlend mode="normal" in2="BackgroundImageFix" result="effect1_dropShadow_2_414"/>
<feBlend mode="normal" in="SourceGraphic" in2="effect1_dropShadow_2_414" result="shape"/>
<feColorMatrix in="SourceAlpha" type="matrix" values="0 0 0 0 0 0 0 0 0 0 0 0 0 0 0 0 0 0 127 0" result="hardAlpha"/>
<feOffset dy="4"/>
<feGaussianBlur stdDeviation="2"/>
<feComposite in2="hardAlpha" operator="arithmetic" k2="-1" k3="1"/>
<feColorMatrix type="matrix" values="0 0 0 0 0 0 0 0 0 0 0 0 0 0 0 0 0 0 1 0"/>
<feBlend mode="normal" in2="shape" result="effect2_innerShadow_2_414"/>
</filter>
<clipPath id="clip0_2_414">
<rect width="362.524" height="438.188" fill="white" transform="translate(604)"/>
</clipPath>
<clipPath id="clip1_2_414">
<rect width="380" height="270" fill="white" transform="translate(870 219)"/>
</clipPath>
<clipPath id="clip2_2_414">
<rect width="510" height="380" fill="white" transform="translate(0 58)"/>
</clipPath>
</defs>
</svg>
